<svg width="50" height="50" viewBox="0 0 50 50" fill="none" xmlns="http://www.w3.org/2000/svg">
<g clip-path="url(#clip0_969_168)">
<path d="M25.0782 50.4297C12.6566 50.4297 0.0390625 47.7205 0.0390625 42.5412C0.0390625 37.9197 9.75691 36.0074 13.9105 35.4098H14.0673C14.655 35.4098 15.1644 35.848 15.2428 36.4456C15.282 36.7644 15.2036 37.0831 15.0077 37.3221C14.8118 37.5612 14.5375 37.7604 14.224 37.8002C5.56413 39.0751 2.35097 41.3859 2.35097 42.5811C2.35097 44.8122 11.2068 48.0791 25.039 48.0791C38.8713 48.0791 47.7271 44.8122 47.7271 42.5811C47.7271 41.3859 44.4747 39.0751 35.7365 37.8002C35.423 37.7604 35.1487 37.601 34.9528 37.3221C34.7569 37.0831 34.6785 36.7644 34.7177 36.4456C34.7961 35.848 35.3055 35.4098 35.8932 35.4098H36.05C40.2427 36.0074 50.039 37.9197 50.039 42.5412C50.0782 47.6807 37.4998 50.4297 25.0782 50.4297ZM24.2553 41.9835C23.6675 41.4257 10.1096 28.3978 10.1096 15.609C10.1096 7.24244 16.8102 0.429688 25.039 0.429688C33.2678 0.429688 39.9685 7.24244 39.9685 15.609C39.9685 28.0393 26.4105 41.3859 25.8227 41.9436L25.039 42.7404L24.2553 41.9835ZM25.0782 2.82013C18.1425 2.82013 12.4999 8.55718 12.4999 15.609C12.4999 25.609 22.1002 36.3261 25.0782 39.3938C28.0954 36.2464 37.6957 25.3301 37.6957 15.609C37.6565 8.59702 32.0139 2.82013 25.0782 2.82013ZM25.0782 22.3819C21.1597 22.3819 17.9857 19.1548 17.9857 15.1707C17.9857 11.1867 21.1597 7.95957 25.0782 7.95957C28.9967 7.95957 32.1707 11.1867 32.1707 15.1707C32.1707 19.1548 28.9967 22.3819 25.0782 22.3819ZM25.0782 10.35C22.4528 10.35 20.3368 12.5014 20.3368 15.1707C20.3368 17.84 22.4528 19.9914 25.0782 19.9914C27.7036 19.9914 29.8196 17.84 29.8196 15.1707C29.8196 12.5014 27.6644 10.35 25.0782 10.35Z" fill="#28A745"/>
</g>
<defs>
<clipPath id="clip0_969_168">
<rect width="50" height="50" fill="white"/>
</clipPath>
</defs>
</svg>
