<svg width="30" height="31" viewBox="0 0 30 31" fill="none" xmlns="http://www.w3.org/2000/svg">
<g clip-path="url(#clip0_964_97)">
<path d="M7.93462 0.591298C8.22161 0.75871 8.3912 1.00903 8.49484 1.31995C8.49484 1.82261 8.49484 2.32527 8.49484 2.84316C10.2348 2.84316 11.9748 2.84316 13.7675 2.84316C13.7675 2.3405 13.7675 1.83784 13.7675 1.31995C14.0317 0.791633 14.0317 0.791633 14.2106 0.679175C14.2445 0.656897 14.2784 0.634619 14.3133 0.611665C14.6425 0.433697 15.0757 0.441427 15.4308 0.537747C15.7241 0.668724 15.9006 0.863517 16.0523 1.14419C16.2315 1.68178 16.1109 2.2765 16.1109 2.84316C17.8702 2.84316 19.6295 2.84316 21.4422 2.84316C21.4422 2.3405 21.4422 1.83784 21.4422 1.31995C21.7063 0.791633 21.7063 0.791633 21.8852 0.679175C21.9191 0.656897 21.953 0.634619 21.988 0.611665C22.3172 0.433697 22.7503 0.441427 23.1054 0.537747C23.3987 0.668724 23.5752 0.863517 23.727 1.14419C23.7902 1.33387 23.7923 1.47095 23.7913 1.67032C23.7911 1.73847 23.7909 1.80663 23.7907 1.87685C23.7902 1.94803 23.7897 2.01921 23.7892 2.09254C23.789 2.1644 23.7887 2.23626 23.7884 2.31029C23.7877 2.48792 23.7868 2.66554 23.7856 2.84316C23.8481 2.84194 23.9106 2.84071 23.9751 2.83945C24.2118 2.83514 24.4485 2.83249 24.6852 2.83029C24.7868 2.82913 24.8884 2.82754 24.9899 2.82549C25.8549 2.80845 26.6677 2.88124 27.4435 3.30086C27.4824 3.32123 27.5213 3.34159 27.5614 3.36258C27.8733 3.53007 28.1519 3.71689 28.4138 3.95628C28.4661 4.00318 28.5183 4.05008 28.5722 4.0984C29.4289 4.90715 29.9789 6.02123 30.0183 7.20897C30.0195 7.3446 30.0198 7.48024 30.0193 7.61587C30.0199 7.72804 30.0199 7.72804 30.0205 7.84249C30.0215 8.0451 30.0215 8.2477 30.0211 8.45031C30.0209 8.62022 30.0213 8.79014 30.0217 8.96005C30.0225 9.36092 30.0224 9.76179 30.0217 10.1627C30.0211 10.575 30.0219 10.9874 30.0234 11.3997C30.0247 11.7554 30.0251 12.111 30.0248 12.4666C30.0246 12.6783 30.0247 12.89 30.0257 13.1018C30.0268 13.3376 30.026 13.5734 30.025 13.8092C30.0256 13.8786 30.0261 13.948 30.0267 14.0196C30.0228 14.4601 29.9784 14.8089 29.6548 15.1367C29.6211 15.1579 29.5873 15.1791 29.5525 15.201C29.5017 15.2344 29.5017 15.2344 29.4498 15.2685C29.1206 15.4464 28.6874 15.4387 28.3323 15.3424C28.039 15.2114 27.8625 15.0166 27.7108 14.736C27.6538 14.565 27.6445 14.4549 27.6437 14.2769C27.6433 14.2185 27.6429 14.1601 27.6425 14.1C27.6423 14.004 27.6423 14.004 27.642 13.906C27.6416 13.8386 27.6412 13.7711 27.6408 13.7016C27.64 13.5548 27.6393 13.408 27.6387 13.2611C27.6378 13.0284 27.6364 12.7956 27.6349 12.5628C27.6308 11.9009 27.6273 11.2389 27.6243 10.577C27.6226 10.2114 27.6205 9.84589 27.618 9.48034C27.6167 9.28719 27.6157 9.09405 27.615 8.9009C27.6143 8.68471 27.6129 8.46854 27.6114 8.25235C27.6113 8.15795 27.6113 8.15795 27.6112 8.06164C27.6033 7.22939 27.474 6.50569 26.8917 5.87907C26.2072 5.26206 25.3918 5.24149 24.5179 5.2122C24.4121 5.20841 24.4121 5.20841 24.3041 5.20454C24.1313 5.19836 23.9584 5.19238 23.7856 5.18657C23.7868 5.23026 23.788 5.27395 23.7893 5.31896C23.7942 5.51893 23.7972 5.71888 23.8002 5.91889C23.8022 5.98761 23.8041 6.05633 23.8062 6.12714C23.8107 6.52913 23.7959 6.84775 23.5512 7.17847C23.4448 7.28625 23.4448 7.28625 23.3425 7.35056C23.3086 7.37284 23.2747 7.39512 23.2398 7.41807C22.9106 7.59604 22.4774 7.58831 22.1223 7.49199C21.829 7.36101 21.6525 7.16622 21.5007 6.88554C21.3216 6.34796 21.4422 5.75323 21.4422 5.18657C19.6828 5.18657 17.9235 5.18657 16.1109 5.18657C16.1109 5.68923 16.1109 6.19189 16.1109 6.70978C15.8468 7.2381 15.8468 7.2381 15.6679 7.35056C15.634 7.37284 15.6 7.39512 15.5651 7.41807C15.2359 7.59604 14.8027 7.58831 14.4476 7.49199C14.1543 7.36101 13.9778 7.16622 13.8261 6.88554C13.6469 6.34796 13.7675 5.75323 13.7675 5.18657C12.0275 5.18657 10.2875 5.18657 8.49484 5.18657C8.49484 5.68923 8.49484 6.19189 8.49484 6.70978C8.23068 7.2381 8.23068 7.2381 8.05179 7.35056C8.01788 7.37284 7.98397 7.39512 7.94904 7.41807C7.61983 7.59604 7.18668 7.58831 6.83157 7.49199C6.53827 7.36101 6.36175 7.16622 6.21002 6.88554C6.1468 6.69587 6.14474 6.55878 6.14571 6.35942C6.146 6.25718 6.146 6.25718 6.14628 6.15288C6.14702 6.04612 6.14702 6.04612 6.14777 5.93719C6.14804 5.86534 6.1483 5.79348 6.14857 5.71944C6.14926 5.54182 6.15023 5.36419 6.15143 5.18657C5.92195 5.19312 5.69251 5.20074 5.46306 5.20854C5.39909 5.21035 5.33513 5.21216 5.26922 5.21403C4.41855 5.24423 3.67999 5.34857 3.03589 5.94703C2.42778 6.6217 2.39302 7.41288 2.39415 8.27553C2.39395 8.38735 2.39395 8.38735 2.39375 8.50143C2.39339 8.70742 2.3934 8.91341 2.39347 9.11939C2.39348 9.34192 2.39315 9.56445 2.39288 9.78697C2.39239 10.2226 2.39223 10.6582 2.3922 11.0939C2.39217 11.4481 2.39205 11.8024 2.39186 12.1566C2.39135 13.1618 2.39108 14.1669 2.39112 15.1721C2.39112 15.2533 2.39112 15.2533 2.39113 15.3362C2.39113 15.4175 2.39113 15.4175 2.39113 15.5005C2.39116 16.3789 2.3906 17.2573 2.38977 18.1357C2.38893 19.0384 2.38853 19.9412 2.38858 20.8439C2.3886 21.3504 2.38844 21.8569 2.3878 22.3634C2.38727 22.7947 2.38714 23.226 2.38754 23.6572C2.38773 23.8771 2.38774 24.0969 2.38723 24.3167C2.38668 24.5556 2.38705 24.7944 2.3875 25.0332C2.3872 25.102 2.3869 25.1707 2.38659 25.2416C2.3901 26.0874 2.51127 26.8217 3.10386 27.4595C3.82175 28.1065 4.67647 28.102 5.58767 28.1017C5.67875 28.1019 5.76983 28.1021 5.86091 28.1023C6.05632 28.1028 6.25173 28.1031 6.44714 28.1032C6.7564 28.1036 7.06566 28.1046 7.37492 28.1057C7.48101 28.106 7.58711 28.1064 7.6932 28.1068C7.74631 28.107 7.79941 28.1072 7.85413 28.1073C8.57356 28.1098 9.29299 28.1117 10.0124 28.1125C10.4985 28.113 10.9846 28.1143 11.4708 28.1165C11.7277 28.1177 11.9846 28.1184 12.2415 28.1181C12.4831 28.1178 12.7247 28.1187 12.9663 28.1203C13.0547 28.1207 13.1431 28.1207 13.2315 28.1203C14.1968 28.1161 14.1968 28.1161 14.5783 28.4927C14.5995 28.5265 14.6208 28.5602 14.6426 28.595C14.676 28.6459 14.676 28.6459 14.7101 28.6978C14.8881 29.027 14.8804 29.4601 14.784 29.8152C14.6531 30.1085 14.4583 30.285 14.1776 30.4368C13.9758 30.504 13.8196 30.5032 13.6067 30.504C13.5461 30.5043 13.5461 30.5043 13.4843 30.5046C13.3486 30.5053 13.2129 30.5055 13.0771 30.5057C12.9799 30.5061 12.8827 30.5065 12.7855 30.5069C12.4657 30.5081 12.146 30.5087 11.8262 30.5093C11.7159 30.5096 11.6056 30.5098 11.4953 30.51C10.9765 30.5112 10.4578 30.512 9.93901 30.5125C9.34177 30.5131 8.74454 30.5146 8.1473 30.517C7.68487 30.5187 7.22245 30.5196 6.76002 30.5198C6.48428 30.5199 6.20856 30.5204 5.93282 30.5219C5.67272 30.5233 5.41263 30.5235 5.15253 30.5229C5.05779 30.5229 4.96304 30.5233 4.86831 30.5241C4.06029 30.5306 3.27519 30.4288 2.55211 30.0377C2.5132 30.0173 2.47429 29.9969 2.43421 29.9759C2.12232 29.8085 1.84364 29.6216 1.58179 29.3822C1.52953 29.3353 1.47727 29.2884 1.42343 29.2401C0.5611 28.4261 0.0139446 27.3078 -0.0222881 26.1131C-0.0233174 25.9684 -0.0234108 25.8237 -0.0227199 25.679C-0.022965 25.5978 -0.0232866 25.5166 -0.0236764 25.4354C-0.0245166 25.2145 -0.0242761 24.9936 -0.0238418 24.7727C-0.0235631 24.5336 -0.024299 24.2945 -0.0248975 24.0554C-0.0259018 23.5878 -0.0259543 23.1202 -0.0256467 22.6527C-0.0254093 22.2723 -0.025495 21.892 -0.0258076 21.5117C-0.0258514 21.4574 -0.0258956 21.4032 -0.0259408 21.3473C-0.0260305 21.237 -0.0261202 21.1268 -0.0262107 21.0165C-0.0270139 19.9841 -0.0266967 18.9516 -0.0260239 17.9191C-0.0254422 16.9761 -0.0262007 16.0331 -0.0276026 15.09C-0.0290337 14.12 -0.0295937 13.15 -0.0292045 12.18C-0.0290004 11.6361 -0.0291277 11.0922 -0.0301566 10.5483C-0.0310217 10.0853 -0.0310526 9.62223 -0.030035 9.15919C-0.0295385 8.9233 -0.0294057 8.68743 -0.0303077 8.45155C-0.0379097 6.31152 -0.0379097 6.31152 0.457689 5.39528C0.478056 5.35637 0.498423 5.31747 0.519406 5.27738C0.686894 4.96549 0.873717 4.68682 1.11311 4.42496C1.18346 4.34657 1.18346 4.34657 1.25523 4.2666C2.02609 3.45 3.10963 2.87097 4.24847 2.82916C4.53746 2.82389 4.82624 2.82773 5.11521 2.83218C5.21617 2.83306 5.31713 2.83387 5.41809 2.83458C5.66256 2.8365 5.90699 2.83952 6.15143 2.84316C6.14959 2.77763 6.14959 2.77763 6.14772 2.71078C6.14281 2.51081 6.13979 2.31085 6.13679 2.11085C6.13482 2.04213 6.13286 1.9734 6.13084 1.9026C6.12632 1.50061 6.14112 1.18198 6.38577 0.851269C6.49219 0.743482 6.49219 0.743482 6.59448 0.679175C6.62839 0.656897 6.6623 0.634619 6.69724 0.611665C7.05643 0.417485 7.56539 0.426411 7.93462 0.591298Z" fill="black"/>
<path d="M27.3413 17.7996C27.4476 17.8909 27.5525 17.9838 27.6562 18.0779C27.6863 18.1051 27.7163 18.1322 27.7473 18.1602C28.7618 19.0897 29.4573 20.2692 29.8242 21.5935C29.843 21.6601 29.8617 21.7266 29.881 21.7952C30.3086 23.6304 29.9581 25.62 28.9698 27.2131C28.7524 27.5493 28.5114 27.8594 28.2422 28.156C28.215 28.1861 28.1879 28.2161 28.1599 28.2471C27.2304 29.2616 26.0509 29.9571 24.7266 30.324C24.66 30.3427 24.5935 30.3615 24.5249 30.3808C22.6897 30.8084 20.7001 30.4579 19.107 29.4696C18.7708 29.2522 18.4607 29.0112 18.1641 28.742C18.134 28.7148 18.104 28.6877 18.073 28.6597C17.0585 27.7302 16.363 26.5507 15.9961 25.2264C15.9774 25.1598 15.9586 25.0933 15.9393 25.0247C15.5117 23.1895 15.8622 21.1999 16.8505 19.6068C17.0679 19.2706 17.309 18.9605 17.5781 18.6639C17.6053 18.6338 17.6325 18.6038 17.6604 18.5728C18.5899 17.5583 19.7694 16.8628 21.0938 16.4959C21.1603 16.4772 21.2268 16.4584 21.2954 16.4391C23.3956 15.9498 25.6567 16.4738 27.3413 17.7996ZM21.3281 18.9568C21.2685 18.9767 21.2089 18.9966 21.1475 19.017C20.0572 19.4186 19.1275 20.3193 18.6334 21.3648C18.1398 22.5176 18.0211 23.7992 18.457 24.992C18.4769 25.0516 18.4968 25.1112 18.5172 25.1726C18.9188 26.263 19.8195 27.1926 20.865 27.6868C22.0178 28.1803 23.2994 28.299 24.4922 27.8631C24.5518 27.8432 24.6114 27.8233 24.6728 27.8029C25.7632 27.4013 26.6928 26.5006 27.187 25.4551C27.6805 24.3023 27.7992 23.0207 27.3633 21.8279C27.3335 21.7385 27.3335 21.7385 27.3031 21.6473C26.9015 20.5569 26.0008 19.6273 24.9553 19.1332C23.8025 18.6396 22.5209 18.5209 21.3281 18.9568Z" fill="#28A745"/>
<path d="M23.5217 19.9273C23.8088 20.0947 23.9784 20.345 24.082 20.656C24.0869 20.777 24.0883 20.8982 24.0878 21.0192C24.0876 21.0901 24.0874 21.1609 24.0872 21.2338C24.0864 21.3448 24.0864 21.3448 24.0857 21.458C24.0854 21.5327 24.0852 21.6073 24.0849 21.6843C24.0842 21.8689 24.0832 22.0535 24.082 22.238C24.14 22.2353 24.1981 22.2326 24.2578 22.2298C25.1106 22.2014 25.1106 22.2014 25.4297 22.4724C25.7416 22.8181 25.8028 23.1206 25.7973 23.5811C25.7699 23.8888 25.6761 24.1128 25.4462 24.3218C25.1184 24.5662 24.8384 24.5923 24.4347 24.5958C24.3568 24.5965 24.3568 24.5965 24.2773 24.5972C24.1672 24.598 24.0571 24.5986 23.947 24.5991C23.7797 24.6001 23.6125 24.6027 23.4452 24.6053C23.338 24.6058 23.2309 24.6063 23.1237 24.6067C23.0741 24.6078 23.0246 24.6088 22.9735 24.6099C22.5878 24.6085 22.2623 24.5177 21.982 24.241C21.9608 24.2072 21.9396 24.1735 21.9177 24.1387C21.8954 24.1048 21.8732 24.0709 21.8502 24.0359C21.7453 23.8419 21.7302 23.68 21.7279 23.4639C21.7272 23.4032 21.7264 23.3426 21.7256 23.2801C21.7252 23.2146 21.7248 23.149 21.7243 23.0815C21.7239 23.0139 21.7234 22.9463 21.7229 22.8767C21.7221 22.7335 21.7215 22.5904 21.721 22.4472C21.72 22.2289 21.7174 22.0107 21.7148 21.7925C21.7142 21.6533 21.7137 21.5141 21.7133 21.3749C21.7123 21.31 21.7113 21.245 21.7102 21.1781C21.7114 20.7443 21.7607 20.402 22.0791 20.0795C22.1129 20.0582 22.1466 20.037 22.1814 20.0151C22.2323 19.9817 22.2323 19.9817 22.2842 19.9476C22.6434 19.7534 23.1524 19.7623 23.5217 19.9273Z" fill="#28A745"/>
<path d="M13.0334 21.9194C13.3205 22.0869 13.4901 22.3372 13.5938 22.6482C13.6325 23.077 13.6372 23.4712 13.3594 23.8201C13.0152 24.1329 12.71 24.1932 12.2507 24.1877C11.943 24.1603 11.719 24.0664 11.51 23.8366C11.2299 23.461 11.2091 23.1086 11.25 22.6482C11.3398 22.3171 11.513 22.1257 11.7959 21.9398C12.1551 21.7456 12.6642 21.7545 13.0334 21.9194Z" fill="black"/>
<path d="M7.93579 21.9194C8.22283 22.0869 8.39244 22.3372 8.4961 22.6482C8.53485 23.077 8.53951 23.4712 8.26172 23.8201C7.91758 24.1329 7.6123 24.1932 7.15302 24.1877C6.84539 24.1603 6.62134 24.0664 6.41236 23.8366C6.13225 23.461 6.11144 23.1086 6.15235 22.6482C6.24215 22.3171 6.41534 22.1257 6.69823 21.9398C7.05747 21.7456 7.56651 21.7545 7.93579 21.9194Z" fill="black"/>
<path d="M13.0334 16.8218C13.3205 16.9892 13.4901 17.2396 13.5938 17.5505C13.6325 17.9793 13.6372 18.3736 13.3594 18.7224C13.0152 19.0353 12.71 19.0956 12.2507 19.09C11.943 19.0627 11.719 18.9688 11.51 18.7389C11.2299 18.3633 11.2091 18.011 11.25 17.5505C11.3398 17.2194 11.513 17.028 11.7959 16.8422C12.1551 16.6479 12.6642 16.6569 13.0334 16.8218Z" fill="black"/>
<path d="M7.93579 16.8218C8.22283 16.9892 8.39244 17.2396 8.4961 17.5505C8.53485 17.9793 8.53951 18.3736 8.26172 18.7224C7.91758 19.0353 7.6123 19.0956 7.15302 19.09C6.84539 19.0627 6.62134 18.9688 6.41236 18.7389C6.13225 18.3633 6.11144 18.011 6.15235 17.5505C6.24215 17.2194 6.41534 17.028 6.69823 16.8422C7.05747 16.6479 7.56651 16.6569 7.93579 16.8218Z" fill="black"/>
<path d="M23.2288 11.7241C23.5158 11.8916 23.6854 12.1419 23.7891 12.4529C23.8278 12.8817 23.8325 13.2759 23.5547 13.6248C23.2105 13.9376 22.9053 13.9979 22.446 13.9923C22.1384 13.965 21.9143 13.8711 21.7053 13.6412C21.4252 13.2657 21.4044 12.9133 21.4453 12.4529C21.5351 12.1218 21.7083 11.9304 21.9912 11.7445C22.3504 11.5503 22.8595 11.5592 23.2288 11.7241Z" fill="black"/>
<path d="M18.1311 11.7241C18.4181 11.8916 18.5878 12.1419 18.6914 12.4529C18.7302 12.8817 18.7348 13.2759 18.457 13.6248C18.1129 13.9376 17.8076 13.9979 17.3483 13.9923C17.0407 13.965 16.8167 13.8711 16.6077 13.6412C16.3276 13.2657 16.3068 12.9133 16.3477 12.4529C16.4375 12.1218 16.6107 11.9304 16.8935 11.7445C17.2528 11.5503 17.7618 11.5592 18.1311 11.7241Z" fill="black"/>
<path d="M13.0334 11.7241C13.3205 11.8916 13.4901 12.1419 13.5938 12.4529C13.6325 12.8817 13.6372 13.2759 13.3594 13.6248C13.0152 13.9376 12.71 13.9979 12.2507 13.9923C11.943 13.965 11.719 13.8711 11.51 13.6412C11.2299 13.2657 11.2091 12.9133 11.25 12.4529C11.3398 12.1218 11.513 11.9304 11.7959 11.7445C12.1551 11.5503 12.6642 11.5592 13.0334 11.7241Z" fill="black"/>
<path d="M7.93579 11.7241C8.22283 11.8916 8.39244 12.1419 8.4961 12.4529C8.53485 12.8817 8.53951 13.2759 8.26172 13.6248C7.91758 13.9376 7.6123 13.9979 7.15302 13.9923C6.84539 13.965 6.62134 13.8711 6.41236 13.6412C6.13225 13.2657 6.11144 12.9133 6.15235 12.4529C6.24215 12.1218 6.41534 11.9304 6.69823 11.7445C7.05747 11.5503 7.56651 11.5592 7.93579 11.7241Z" fill="black"/>
</g>
<defs>
<clipPath id="clip0_964_97">
<rect width="30" height="30" fill="white" transform="translate(0 0.5)"/>
</clipPath>
</defs>
</svg>
