<svg width="50" height="51" viewBox="0 0 50 51" fill="none" xmlns="http://www.w3.org/2000/svg">
<g clip-path="url(#clip0_964_225)">
<path d="M39.5145 31.4732C38.4909 30.4074 37.2562 29.8375 35.9477 29.8375C34.6497 29.8375 33.4045 30.3968 32.3386 31.4627L29.0039 34.7868C28.7295 34.6391 28.4552 34.5019 28.1914 34.3647C27.8114 34.1747 27.4527 33.9953 27.1466 33.8054C24.023 31.8214 21.1843 29.236 18.4616 25.8907C17.1425 24.2234 16.2561 22.8199 15.6124 21.3952C16.4777 20.6038 17.2797 19.7807 18.0606 18.9892C18.3561 18.6937 18.6516 18.3877 18.9471 18.0922C21.1632 15.8761 21.1632 13.0057 18.9471 10.7896L16.0661 7.90871C15.739 7.58157 15.4013 7.24388 15.0847 6.90619C14.4516 6.25191 13.7867 5.57653 13.1008 4.94336C12.0772 3.93028 10.853 3.39209 9.56559 3.39209C8.27814 3.39209 7.0329 3.93028 5.97762 4.94336C5.96707 4.95391 5.96707 4.95391 5.95651 4.96446L2.36855 8.58409C1.01778 9.93485 0.247425 11.5811 0.0785796 13.4912C-0.174689 16.5726 0.732856 19.443 1.42934 21.3214C3.1389 25.933 5.69269 30.2069 9.50227 34.7868C14.1244 40.3059 19.6858 44.6643 26.0386 47.7351C28.4657 48.8854 31.7055 50.2467 35.3251 50.4789C35.5467 50.4894 35.7788 50.5 35.9899 50.5C38.4276 50.5 40.4749 49.6241 42.0789 47.8829C42.0894 47.8618 42.1105 47.8512 42.1211 47.8301C42.6699 47.1653 43.303 46.5638 43.9678 45.92C44.4216 45.4874 44.8859 45.0336 45.3397 44.5587C46.3845 43.4718 46.9332 42.2054 46.9332 40.9074C46.9332 39.5989 46.3739 38.3431 45.3081 37.2878L39.5145 31.4732ZM43.2925 42.5853C43.2819 42.5853 43.2819 42.5959 43.2925 42.5853C42.8809 43.0286 42.4588 43.4296 42.005 43.8728C41.3191 44.5271 40.6226 45.213 39.9683 45.9834C38.9025 47.1231 37.6467 47.6613 36.0005 47.6613C35.8422 47.6613 35.6733 47.6613 35.515 47.6507C32.3808 47.4502 29.4682 46.2261 27.2838 45.1813C21.3109 42.2899 16.0661 38.1848 11.7078 32.9823C8.10929 28.645 5.70324 24.635 4.10977 20.3294C3.12835 17.7017 2.76955 15.6545 2.92785 13.7233C3.03338 12.4886 3.50825 11.465 4.38414 10.5891L7.98266 6.99061C8.49975 6.50518 9.0485 6.24136 9.58669 6.24136C10.2515 6.24136 10.7897 6.64237 11.1274 6.98006C11.138 6.99061 11.1485 7.00116 11.1591 7.01171C11.8028 7.61323 12.4149 8.23585 13.0586 8.90067C13.3857 9.23836 13.7234 9.57606 14.0611 9.9243L16.942 12.8052C18.0606 13.9238 18.0606 14.958 16.942 16.0766C16.636 16.3826 16.3405 16.6887 16.0345 16.9841C15.148 17.8917 14.3038 18.7359 13.3857 19.559C13.3646 19.5801 13.3435 19.5907 13.3329 19.6118C12.4254 20.5194 12.5943 21.4058 12.7842 22.0073C12.7948 22.039 12.8053 22.0706 12.8159 22.1023C13.5651 23.9174 14.6204 25.6269 16.2244 27.6636L16.235 27.6742C19.1476 31.2621 22.2184 34.0586 25.6059 36.2009C26.0386 36.4753 26.4818 36.6969 26.9039 36.9079C27.2838 37.0979 27.6426 37.2773 27.9486 37.4672C27.9908 37.4883 28.0331 37.52 28.0753 37.5411C28.4341 37.7205 28.7718 37.8049 29.12 37.8049C29.9959 37.8049 30.5446 37.2562 30.724 37.0768L34.3331 33.4677C34.6919 33.1089 35.2618 32.6762 35.9266 32.6762C36.5809 32.6762 37.1191 33.0878 37.4462 33.4466C37.4567 33.4571 37.4567 33.4571 37.4673 33.4677L43.2819 39.2823C44.3689 40.3587 44.3689 41.4667 43.2925 42.5853Z" fill="black"/>
<path d="M27.0203 12.3935C29.7852 12.8578 32.2967 14.1664 34.3018 16.1714C36.3068 18.1765 37.6048 20.688 38.0797 23.4529C38.1958 24.1494 38.7973 24.6348 39.4832 24.6348C39.5676 24.6348 39.6415 24.6243 39.7259 24.6137C40.5068 24.4871 41.0239 23.7484 40.8973 22.9675C40.3274 19.6222 38.7445 16.5724 36.3279 14.1558C33.9113 11.7392 30.8615 10.1563 27.5163 9.58646C26.7354 9.45982 26.0072 9.97691 25.8701 10.7473C25.7329 11.5176 26.2394 12.2669 27.0203 12.3935Z" fill="#28A745"/>
<path d="M49.9391 22.5561C48.9999 17.0475 46.4039 12.0349 42.4149 8.0459C38.4259 4.05692 33.4133 1.46092 27.9048 0.521719C27.1344 0.384532 26.4062 0.912174 26.2691 1.68253C26.1424 2.46344 26.6595 3.19159 27.4404 3.32878C32.3581 4.16245 36.843 6.49463 40.4099 10.0509C43.9767 13.6178 46.2984 18.1028 47.132 23.0204C47.2481 23.7169 47.8496 24.2023 48.5356 24.2023C48.62 24.2023 48.6939 24.1917 48.7783 24.1812C49.5486 24.0651 50.0763 23.3264 49.9391 22.5561Z" fill="#28A745"/>
</g>
<defs>
<clipPath id="clip0_964_225">
<rect width="50" height="50" fill="white" transform="translate(0 0.5)"/>
</clipPath>
</defs>
</svg>
