<svg width="54" height="54" viewBox="0 0 54 54" fill="none" xmlns="http://www.w3.org/2000/svg">
<g clip-path="url(#clip0_976_847)">
<path d="M25.7038 -0.0213041C25.8006 -0.0219053 25.8974 -0.0225065 25.9972 -0.0231259C26.2018 -0.0241178 26.4063 -0.0248098 26.6109 -0.025218C26.9164 -0.0262306 27.2218 -0.0295025 27.5273 -0.0328398C31.325 -0.0544678 35.2089 0.886408 37.9934 3.60377C40.3461 6.00613 41.5454 9.30987 41.6609 12.6564C41.656 12.8896 41.6488 13.1228 41.6399 13.3559C41.6343 13.5388 41.6343 13.5388 41.6285 13.7253C41.6195 13.9657 41.6063 14.206 41.5883 14.4458C41.5575 15.0916 41.5575 15.0916 41.8607 15.6378C42.1057 15.851 42.1057 15.851 42.3629 16.0212C42.8432 16.4507 43.0475 16.9555 43.0866 17.5944C43.0894 17.7809 43.0897 17.9674 43.088 18.1539C43.0885 18.2537 43.0889 18.3535 43.0893 18.4564C43.0896 18.6663 43.0888 18.8762 43.087 19.0861C43.0848 19.4055 43.087 19.7247 43.0897 20.0441C43.0894 20.249 43.0889 20.4539 43.088 20.6588C43.0889 20.7533 43.0898 20.8478 43.0906 20.9452C43.0788 21.7471 42.8423 22.4022 42.2608 22.9725C42.2046 23.0298 42.1485 23.087 42.0906 23.146C41.4778 23.6018 40.9243 23.6704 40.1848 23.656C40.0969 23.6556 40.0089 23.6551 39.9184 23.6547C39.6401 23.6529 39.3618 23.6489 39.0835 23.6449C38.8938 23.6433 38.7041 23.6419 38.5144 23.6406C38.0515 23.6371 37.5886 23.6316 37.1258 23.6251C37.0982 23.7702 37.0982 23.7702 37.07 23.9182C36.9252 24.6412 36.7785 25.302 36.427 25.952C36.3906 26.0219 36.3541 26.0917 36.3166 26.1636C35.5715 27.5563 34.6067 28.7901 33.3952 29.8082C33.0494 30.0934 33.0494 30.0934 32.9789 30.5464C32.9745 30.7103 32.9712 30.8744 32.9688 31.0384C32.9658 31.1679 32.9658 31.1679 32.9626 31.3C32.9563 31.5762 32.9514 31.8523 32.9466 32.1285C32.9425 32.3156 32.9384 32.5026 32.9342 32.6897C32.9241 33.1486 32.9152 33.6076 32.907 34.0665C33.0884 34.0854 33.0884 34.0854 33.2734 34.1046C33.7429 34.1637 34.1851 34.2761 34.6394 34.4063C34.7239 34.43 34.8084 34.4537 34.8955 34.4781C35.173 34.556 35.4502 34.6349 35.7275 34.7138C35.9227 34.7689 36.118 34.824 36.3132 34.879C36.7224 34.9945 37.1314 35.1104 37.5403 35.2267C38.0589 35.374 38.5778 35.5205 39.0968 35.6666C39.5005 35.7804 39.904 35.8946 40.3076 36.009C40.4985 36.063 40.6894 36.117 40.8804 36.1708C41.8463 36.4432 42.8077 36.7252 43.7609 37.0393C43.8384 37.0647 43.916 37.09 43.9959 37.1161C45.0962 37.4853 45.8997 38.1097 46.7234 38.9181C46.7896 38.9817 46.8558 39.0453 46.9241 39.1109C47.3346 39.5391 47.6264 40.016 47.9099 40.5331C47.9621 40.6267 47.9621 40.6267 48.0153 40.7222C48.6593 41.9499 48.7477 43.3381 48.9065 44.6917C48.932 44.9043 48.9576 45.1169 48.9832 45.3295C49.0365 45.7735 49.0892 46.2177 49.1414 46.6619C49.208 47.2278 49.2761 47.7936 49.3446 48.3593C49.3976 48.7979 49.4498 49.2366 49.5018 49.6753C49.5266 49.8838 49.5516 50.0922 49.5768 50.3007C49.8983 52.9625 49.8983 52.9625 49.782 53.5782C49.4554 53.9748 49.4554 53.9748 49.1492 54.0561C49.0796 54.0551 49.01 54.054 48.9383 54.0529C48.8687 54.0539 48.799 54.055 48.7273 54.0561C48.422 53.9751 48.2975 53.8167 48.0945 53.5782C48.0155 53.3306 48.0155 53.3306 47.9775 53.0442C47.9619 52.9317 47.9464 52.8191 47.9303 52.7032C47.9149 52.5743 47.8995 52.4454 47.8836 52.3126C47.8652 52.1647 47.8468 52.0168 47.8283 51.8688C47.7763 51.4427 47.7272 51.0162 47.6788 50.5897C47.6463 50.3037 47.6133 50.0179 47.5801 49.732C47.4858 48.9202 47.3919 48.1083 47.2997 47.2962C47.243 46.7967 47.1852 46.2975 47.1267 45.7982C47.1048 45.6101 47.0834 45.4219 47.0624 45.2337C46.8152 42.8389 46.8152 42.8389 45.7742 40.7111C45.7201 40.6367 45.666 40.5623 45.6102 40.4857C44.6238 39.2468 43.1177 38.7677 41.6449 38.366C41.5371 38.3362 41.4293 38.3064 41.3182 38.2756C41.0926 38.2133 40.8668 38.1513 40.641 38.0895C40.2946 37.9947 39.9485 37.8989 39.6024 37.8028C39.3824 37.7422 39.1623 37.6816 38.9422 37.6212C38.8387 37.5925 38.7352 37.5638 38.6286 37.5343C38.5328 37.5082 38.437 37.4821 38.3383 37.4552C38.2541 37.4321 38.1699 37.4091 38.0832 37.3853C37.85 37.3245 37.85 37.3245 37.5476 37.3361C37.3949 37.4981 37.3949 37.4981 37.2594 37.7202C37.2039 37.8047 37.1484 37.8892 37.0913 37.9762C37.0317 38.0694 36.9721 38.1625 36.9107 38.2585C36.848 38.3545 36.7854 38.4505 36.7208 38.5494C36.5863 38.7557 36.4522 38.9624 36.3186 39.1694C36.0422 39.5976 35.7634 40.0242 35.4846 40.451C35.3464 40.6627 35.2083 40.8745 35.0704 41.0863C34.5259 41.9222 33.9748 42.7531 33.4146 43.5785C33.3069 43.7386 33.3069 43.7386 33.197 43.9019C33.1324 43.9968 33.0679 44.0917 33.0014 44.1895C32.9195 44.31 32.9195 44.31 32.8361 44.433C32.6169 44.7154 32.4757 44.7204 32.116 44.7782C31.455 44.7663 31.0545 44.294 30.5867 43.8751C30.4194 43.7321 30.2511 43.5904 30.0826 43.4488C29.908 43.3019 29.7342 43.1541 29.5604 43.0062C29.1355 42.6459 28.7038 42.2941 28.2713 41.9429C28.0555 41.7657 28.0555 41.7657 27.95 41.6603C27.9496 41.7347 27.9492 41.809 27.9488 41.8857C27.9448 42.5871 27.9388 43.2885 27.9306 43.9899C27.9264 44.3505 27.923 44.7111 27.9214 45.0717C27.9195 45.4864 27.9142 45.901 27.9088 46.3157C27.9087 46.4451 27.9085 46.5744 27.9084 46.7076C27.9063 46.8279 27.9042 46.9483 27.9021 47.0722C27.9012 47.1781 27.9002 47.284 27.8993 47.393C27.8301 47.7457 27.6993 47.8718 27.4226 48.0939C27.2117 48.1499 27.2117 48.1499 27.0008 48.1466C26.8964 48.1482 26.8964 48.1482 26.7898 48.1499C26.4814 48.068 26.3581 47.9166 26.157 47.672C26.1023 47.393 26.1023 47.393 26.0994 47.0722C26.0974 46.9519 26.0953 46.8316 26.0931 46.7076C26.0929 46.5136 26.0929 46.5136 26.0927 46.3157C26.091 46.1829 26.0893 46.0501 26.0875 45.9132C26.0832 45.5608 26.0807 45.2086 26.0792 44.8562C26.0771 44.4963 26.0727 44.1365 26.0684 43.7767C26.0606 43.0712 26.0552 42.3658 26.0515 41.6603C25.979 41.7258 25.9064 41.7913 25.8316 41.8588C25.7364 41.9446 25.6413 42.0303 25.5433 42.1187C25.4489 42.2038 25.3546 42.2888 25.2573 42.3765C24.8983 42.6977 24.5285 43.0025 24.1527 43.3037C23.9199 43.4915 23.6918 43.6819 23.4647 43.8764C23.3361 43.9837 23.2074 44.0909 23.0786 44.1981C23.0198 44.2498 22.961 44.3014 22.9004 44.3546C22.5843 44.6135 22.3395 44.7564 21.9263 44.7844C21.3661 44.6949 21.1545 44.4189 20.8349 43.9797C20.6597 43.723 20.4895 43.4635 20.3204 43.2028C20.2568 43.1058 20.1931 43.0087 20.1275 42.9088C19.9241 42.5985 19.7216 42.2876 19.5191 41.9767C19.3206 41.6732 19.1219 41.3698 18.9233 41.0664C18.7915 40.865 18.6597 40.6637 18.5281 40.4622C17.8435 39.4156 17.1496 38.3753 16.4539 37.3361C15.7462 37.4695 15.0509 37.6292 14.3561 37.8185C14.2604 37.8445 14.1647 37.8706 14.0662 37.8974C13.8651 37.9524 13.6641 38.0076 13.4631 38.0631C13.2606 38.1187 13.058 38.1736 12.8551 38.2278C10.8254 38.7702 9.0607 39.3597 7.86932 41.2071C7.38571 42.2002 7.19195 43.2099 7.06759 44.2999C7.05041 44.442 7.03313 44.5841 7.01574 44.7262C6.96066 45.1805 6.90835 45.6352 6.85624 46.09C6.83843 46.2441 6.8206 46.3982 6.80275 46.5522C6.71243 47.3333 6.62338 48.1145 6.53468 48.8958C6.52588 48.9733 6.51707 49.0508 6.508 49.1306C6.46268 49.5302 6.41782 49.9298 6.37367 50.3295C6.32977 50.7267 6.28471 51.1236 6.23886 51.5205C6.22191 51.6692 6.20538 51.8179 6.18931 51.9667C6.16704 52.1724 6.14314 52.378 6.11917 52.5835C6.10615 52.6997 6.09314 52.8158 6.07973 52.9355C6.00491 53.2986 5.88343 53.5755 5.69608 53.8947C5.36603 54.0597 4.99885 54.0736 4.6414 54.0001C4.37191 53.7842 4.23471 53.6589 4.16992 53.3148C4.19967 52.2019 4.3259 51.1036 4.45847 49.9989C4.48351 49.7866 4.50851 49.5743 4.53347 49.362C4.58577 48.9191 4.63869 48.4762 4.69202 48.0334C4.75986 47.4694 4.8258 46.9053 4.89123 46.341C4.94228 45.9031 4.99452 45.4654 5.04708 45.0277C5.07186 44.8199 5.09625 44.612 5.12022 44.4041C5.41459 41.8609 6.07495 39.8344 8.11568 38.1357C8.78159 37.624 9.45093 37.2959 10.2456 37.0368C10.3285 37.0096 10.4114 36.9823 10.4968 36.9542C11.4361 36.6488 12.3857 36.3822 13.3372 36.1182C13.5266 36.0653 13.7161 36.0123 13.9055 35.9593C14.3976 35.8216 14.89 35.6846 15.3823 35.5476C15.8843 35.4079 16.3861 35.2676 16.8879 35.1274C17.4522 34.9698 18.0164 34.8122 18.5808 34.655C18.6664 34.6311 18.7519 34.6073 18.8401 34.5828C18.9983 34.5387 19.1565 34.4946 19.3148 34.4506C19.6544 34.356 19.9928 34.2597 20.3301 34.1572C20.6726 34.0665 20.6726 34.0665 21.0945 34.0665C21.0945 32.7439 21.0945 31.4214 21.0945 30.0587C20.9553 29.9891 20.8161 29.9195 20.6726 29.8478C18.6662 28.1717 17.3773 26.1839 16.8758 23.6251C16.7588 23.6273 16.6418 23.6295 16.5213 23.6318C16.0841 23.6395 15.647 23.6443 15.2098 23.6483C15.0212 23.6504 14.8325 23.6533 14.6439 23.6569C14.3716 23.6621 14.0994 23.6645 13.8271 23.6663C13.7021 23.6696 13.7021 23.6696 13.5746 23.6729C12.8675 23.6732 12.3518 23.452 11.7914 23.0265C11.7356 22.9695 11.6797 22.9126 11.6221 22.8539C11.5363 22.7697 11.5363 22.7697 11.4487 22.6837C10.9704 22.0408 10.9213 21.4454 10.9238 20.6691C10.9232 20.5692 10.9227 20.4692 10.9221 20.3662C10.9214 20.1557 10.9216 19.9452 10.9225 19.7346C10.9234 19.4143 10.9203 19.0941 10.917 18.7738C10.9168 18.5684 10.9169 18.363 10.9172 18.1576C10.916 18.0628 10.9148 17.968 10.9136 17.8703C10.9205 17.2432 11.0252 16.7606 11.3914 16.2423C11.6388 16.0198 11.6388 16.0198 11.8899 15.8468C12.1744 15.6072 12.3202 15.4793 12.4122 15.1159C12.4229 14.784 12.4067 14.4639 12.3802 14.1329C12.3704 13.8884 12.3619 13.6438 12.3546 13.3992C12.3488 13.2139 12.3488 13.2139 12.3428 13.0248C12.334 11.5228 12.6109 9.96765 13.0789 8.54309C13.1113 8.44298 13.1113 8.44298 13.1443 8.34085C13.7177 6.59893 14.5798 5.14313 15.8211 3.79699C15.8824 3.72711 15.9437 3.65723 16.0069 3.58523C18.3584 1.03827 22.3556 -0.00472763 25.7038 -0.0213041ZM17.1197 5.08239C14.6703 7.61991 14.0824 11.1608 14.1183 14.5527C14.1342 14.7747 14.1789 14.9737 14.2391 15.1876C14.4479 15.1876 14.6567 15.1876 14.8719 15.1876C14.9685 14.8977 14.9994 14.6853 15.0189 14.3838C15.2376 11.3216 15.7994 8.15255 17.9305 5.8009C18.0094 5.71212 18.0884 5.62334 18.1698 5.53187C19.3244 4.30274 20.8045 3.57568 22.3997 3.09167C22.4692 3.0703 22.5387 3.04893 22.6103 3.02691C23.873 2.66227 25.1321 2.60014 26.437 2.60354C26.7019 2.60388 26.9668 2.6014 27.2317 2.59873C30.2719 2.58679 33.126 3.40575 35.3851 5.51993C37.8555 8.09734 38.3176 11.7908 38.6023 15.1876C38.9852 15.1876 39.368 15.1876 39.7625 15.1876C40.4221 12.549 39.5344 9.12799 38.2105 6.82469C37.8946 6.3004 37.5399 5.82983 37.1258 5.37903C37.0093 5.2481 37.0093 5.2481 36.8905 5.11453C36.2083 4.38671 35.4513 3.87096 34.5945 3.37512C34.495 3.31652 34.3955 3.25793 34.2929 3.19755C29.248 0.454161 21.3093 1.12483 17.1197 5.08239ZM19.552 6.65124C17.335 8.96945 16.8175 12.0938 16.6648 15.1876C16.7344 15.1876 16.8041 15.1876 16.8758 15.1876C16.9219 15.0118 16.9219 15.0118 16.9689 14.8325C17.2195 13.9111 17.4988 13.1386 18.0359 12.34C18.0916 12.2251 18.0916 12.2251 18.1484 12.108C18.2798 11.8546 18.4097 11.8223 18.6687 11.7072C18.7601 11.6397 18.8515 11.5723 18.9456 11.5028C20.1312 10.7782 21.5058 10.8361 22.8216 11.1337C23.5442 11.3094 24.2247 11.5677 24.9037 11.8693C26.3507 12.5097 27.6287 12.4481 29.1101 11.9181C29.3572 11.8127 29.6033 11.705 29.8484 11.5951C31.2068 10.9969 32.8181 10.658 34.2649 11.1403C35.2078 11.5432 35.8 11.9995 36.3545 12.8698C36.4002 12.9386 36.4459 13.0074 36.493 13.0782C36.5278 13.0782 36.5626 13.0782 36.5984 13.0782C36.5886 10.6993 35.5346 8.21507 33.8562 6.53918C30.2382 3.29316 23.0821 3.30771 19.552 6.65124ZM19.5426 13.2682C18.5433 14.5264 18.5303 16.0177 18.5353 17.5668C18.5351 17.7103 18.5349 17.8538 18.5346 17.9973C18.5343 18.2957 18.5348 18.5941 18.5358 18.8925C18.537 19.2706 18.5363 19.6486 18.535 20.0266C18.5342 20.3223 18.5345 20.6179 18.535 20.9136C18.5352 21.1193 18.5346 21.325 18.534 21.5307C18.5476 24.1616 19.4213 26.0596 21.2548 27.9024C22.6556 29.2703 24.8852 31.0677 26.9217 31.1595C28.7789 31.1372 30.6206 29.7571 31.9578 28.5822C32.0452 28.5087 32.1326 28.4353 32.2227 28.3597C33.4574 27.2975 34.7501 25.8945 35.1219 24.2579C34.4163 24.4012 33.7475 24.5896 33.0718 24.838C32.9773 24.8685 32.8827 24.8989 32.7853 24.9303C32.5074 25.0342 32.2941 25.1256 32.0633 25.3126C31.9512 25.5871 31.9085 25.8245 31.881 26.1192C31.822 26.6295 31.4896 26.963 31.1206 27.2902C30.3909 27.8263 29.6754 27.8173 28.7937 27.7384C28.1317 27.5643 27.6924 27.1374 27.3172 26.5782C27.0186 25.9946 27.0274 25.3199 27.1062 24.6798C27.3724 23.8747 27.7536 23.436 28.4839 23.0187C29.1936 22.7388 30.0042 22.7834 30.6988 23.078C30.999 23.2239 31.1992 23.3868 31.4305 23.6251C32.277 23.3898 33.0908 23.0872 33.909 22.7682C34.0332 22.7202 34.1575 22.6722 34.2855 22.6228C34.8697 22.4036 34.8697 22.4036 35.4383 22.1486C35.4457 21.3801 35.4513 20.6117 35.4547 19.8432C35.4563 19.4862 35.4585 19.1292 35.4621 18.7722C35.6056 15.8707 35.6056 15.8707 34.489 13.2892C33.8707 12.7246 33.3289 12.6238 32.5169 12.6345C31.6309 12.6901 30.8649 12.9784 30.066 13.3419C28.2134 14.1799 26.3843 14.2633 24.4695 13.6056C24.076 13.4564 23.6873 13.297 23.3024 13.127C22.1157 12.6059 20.5454 12.2151 19.5426 13.2682ZM36.5984 13.1837C36.7039 13.3947 36.7039 13.3947 36.7039 13.3947L36.5984 13.1837ZM12.9734 17.1915C12.5235 17.8526 12.6103 18.633 12.6175 19.4064C12.6162 19.5377 12.615 19.669 12.6138 19.8043C12.6028 20.7648 12.6028 20.7648 12.9734 21.6212C13.4961 21.8948 13.8783 21.9762 14.4759 21.9685C14.6659 21.9673 14.6659 21.9673 14.8597 21.9661C15.0974 21.9618 15.0974 21.9618 15.3399 21.9574C15.8467 21.9509 16.3536 21.9443 16.8758 21.9376C16.8758 20.267 16.8758 18.5964 16.8758 16.8751C16.3689 16.8686 15.8621 16.8621 15.3399 16.8553C15.1814 16.8525 15.023 16.8496 14.8597 16.8466C14.7331 16.8458 14.6064 16.845 14.4759 16.8442C14.3473 16.8426 14.2186 16.8409 14.086 16.8392C13.6403 16.882 13.3692 16.9844 12.9734 17.1915ZM37.1258 16.8751C37.1258 18.5457 37.1258 20.2164 37.1258 21.9376C37.6326 21.9441 38.1395 21.9507 38.6617 21.9574C38.8201 21.9603 38.9786 21.9632 39.1419 21.9661C39.2685 21.9669 39.3951 21.9677 39.5256 21.9685C39.6543 21.9702 39.783 21.9718 39.9156 21.9735C40.3613 21.9308 40.6324 21.8284 41.0281 21.6212C41.478 20.9601 41.3913 20.1797 41.3841 19.4064C41.3853 19.275 41.3865 19.1437 41.3878 19.0084C41.3987 18.0479 41.3987 18.0479 41.0281 17.1915C40.5054 16.918 40.1232 16.8365 39.5256 16.8442C39.399 16.845 39.2723 16.8458 39.1419 16.8466C38.9042 16.8509 38.9042 16.8509 38.6617 16.8553C38.1548 16.8619 37.648 16.8684 37.1258 16.8751ZM28.9651 24.7457C28.7424 25.0713 28.7292 25.2418 28.7937 25.629C28.9519 25.8927 28.9519 25.8927 29.2156 26.0509C29.6029 26.1154 29.7733 26.1023 30.0989 25.8795C30.3217 25.5539 30.3348 25.3835 30.2703 24.9962C30.1121 24.7325 30.1121 24.7325 29.8484 24.5743C29.4612 24.5098 29.2907 24.523 28.9651 24.7457ZM22.782 31.4298C22.632 32.4242 22.4633 33.5709 22.9507 34.4902C23.4877 35.2174 24.1634 35.8048 24.8387 36.4C25.0374 36.585 25.2356 36.7707 25.4332 36.957C25.9137 37.4077 26.4012 37.8496 26.8953 38.2853C27.7205 37.9104 28.3669 37.1578 29.0163 36.5418C29.2001 36.3699 29.3864 36.2007 29.5754 36.0345C30.8245 34.9472 30.8245 34.9472 31.3396 33.4284C31.3588 32.7564 31.3126 32.0952 31.2195 31.4298C30.8003 31.5934 30.4111 31.786 30.0132 31.9967C28.4295 32.8023 26.9667 33.0468 25.2535 32.5063C24.4449 32.2221 23.6933 31.9274 22.993 31.4298C22.9233 31.4298 22.8537 31.4298 22.782 31.4298ZM20.7007 35.9386C20.6334 35.9573 20.5661 35.9761 20.4967 35.9953C20.2828 36.055 20.069 36.1155 19.8553 36.1759C19.7098 36.2166 19.5644 36.2573 19.419 36.2979C19.0633 36.3973 18.7077 36.4973 18.3523 36.5978C18.3523 36.9649 18.4234 37.0607 18.6231 37.361C18.6823 37.4509 18.7414 37.5407 18.8024 37.6332C18.8673 37.7301 18.9323 37.827 18.9992 37.9268C19.0655 38.0272 19.1319 38.1275 19.2003 38.2308C19.4136 38.5526 19.6278 38.8738 19.8421 39.1949C19.9841 39.409 20.1261 39.6231 20.2681 39.8372C20.6482 40.4103 21.0293 40.9827 21.4109 41.5548C21.5316 41.7359 21.6523 41.9169 21.773 42.098C21.8633 42.2333 21.9535 42.3687 22.0437 42.504C22.474 42.3033 22.8038 42.018 23.1578 41.7064C23.2895 41.5918 23.4213 41.4772 23.5533 41.3628C23.6187 41.3061 23.684 41.2494 23.7514 41.1909C24.1105 40.8832 24.4797 40.5882 24.849 40.2929C25.1248 40.0592 25.3754 39.8076 25.6297 39.5509C25.0981 39.0087 24.565 38.4681 24.0307 37.9287C23.849 37.7449 23.6677 37.5608 23.4868 37.3762C23.2271 37.1114 22.966 36.8479 22.7046 36.5846C22.6237 36.5015 22.5428 36.4185 22.4595 36.3329C22.3835 36.2569 22.3075 36.1809 22.2292 36.1026C22.1627 36.0351 22.0962 35.9677 22.0277 35.8982C21.62 35.5967 21.1467 35.8134 20.7007 35.9386ZM31.7603 36.1026C31.6844 36.1786 31.6084 36.2546 31.5301 36.3329C31.4096 36.4575 31.4096 36.4575 31.2867 36.5846C31.2031 36.6689 31.1196 36.7531 31.0336 36.84C30.7669 37.1096 30.5021 37.381 30.2373 37.6525C30.0569 37.8355 29.8764 38.0184 29.6958 38.2012C29.2531 38.6498 28.8119 39.0998 28.3719 39.5509C28.6596 39.8415 28.9468 40.1284 29.256 40.3963C29.3198 40.4517 29.3836 40.507 29.4493 40.5641C29.5158 40.6213 29.5822 40.6785 29.6507 40.7374C29.7198 40.7971 29.789 40.8567 29.8603 40.9182C30.8289 41.8502 30.8289 41.8502 31.9578 42.504C32.38 41.8645 32.8021 41.2248 33.224 40.5851C33.3673 40.3679 33.5106 40.1507 33.6539 39.9336C33.8611 39.6197 34.0682 39.3058 34.2752 38.9918C34.3383 38.8963 34.4014 38.8008 34.4664 38.7024C34.9028 38.0403 35.3308 37.3733 35.7547 36.7032C35.1063 36.4501 34.4527 36.2421 33.7837 36.0507C33.6863 36.0219 33.5889 35.9931 33.4885 35.9635C33.3941 35.9364 33.2997 35.9093 33.2024 35.8813C33.1178 35.8568 33.0331 35.8323 32.9459 35.8071C32.415 35.6943 32.1487 35.7074 31.7603 36.1026Z" fill="black"/>
<path d="M26.9991 49.7284C27.0687 49.7273 27.1383 49.7262 27.21 49.7251C27.5245 49.8086 27.642 49.9484 27.8428 50.203C27.8974 50.554 27.8974 50.554 27.8989 50.9677C27.8993 51.041 27.8997 51.1143 27.9001 51.1898C27.9004 51.3444 27.8996 51.499 27.8978 51.6536C27.8956 51.8898 27.8978 52.1256 27.9005 52.3618C27.9002 52.5123 27.8997 52.6628 27.8989 52.8134C27.8984 52.9499 27.8979 53.0864 27.8974 53.227C27.8345 53.6317 27.7434 53.7563 27.421 53.9999C27.21 54.0559 27.21 54.0559 26.9991 54.0526C26.8947 54.0542 26.8947 54.0542 26.7881 54.0559C26.4737 53.9724 26.3561 53.8327 26.1553 53.578C26.1007 53.227 26.1007 53.227 26.0993 52.8134C26.0989 52.74 26.0985 52.6667 26.0981 52.5912C26.0978 52.4366 26.0986 52.282 26.1003 52.1274C26.1026 51.8912 26.1004 51.6554 26.0977 51.4192C26.0979 51.2687 26.0985 51.1182 26.0993 50.9677C26.0998 50.8312 26.1003 50.6947 26.1007 50.554C26.1826 50.0279 26.4508 49.7198 26.9991 49.7284Z" fill="#28A745"/>
</g>
<defs>
<clipPath id="clip0_976_847">
<rect width="54" height="54" fill="white"/>
</clipPath>
</defs>
</svg>
