<?xml version="1.0" encoding="utf-8"?>
<svg xmlns="http://www.w3.org/2000/svg" width="66" height="82" viewBox="0 0 66 82" fill="none">
  <path d="M36.0366 55.2238C41.477 70.7365 52.5639 80.9999 52.5639 80.9999L55.5341 73.0597L64.3859 72.6627C64.3859 72.6627 54.1519 61.3553 49.6083 49.9597" stroke="#121225" stroke-width="2" stroke-linecap="round" stroke-linejoin="round"/>
  <path d="M29.9487 55.2238C24.5082 70.7365 13.4361 80.9999 13.4361 80.9999L10.4659 73.0597L1.61407 72.6627C1.61407 72.6627 11.8481 61.3553 16.3916 49.9597" stroke="#121225" stroke-width="2" stroke-linecap="round" stroke-linejoin="round"/>
  <path d="M23.6698 52.0332C19.935 61.7379 14.0239 69.0604 10.4509 73.0599" stroke="#121225" stroke-width="2" stroke-linecap="round" stroke-linejoin="round"/>
  <path d="M42.3151 52.0476C46.0352 61.7082 51.9609 69.0602 55.5193 73.0596" stroke="#121225" stroke-width="2" stroke-linecap="round" stroke-linejoin="round"/>
  <path d="M60.0626 22.9039C59.6508 20.7718 58.0775 19.1544 56.1218 18.5809C57.0923 16.8164 57.0776 14.5814 55.8719 12.7875C54.7103 11.0524 52.7546 10.1702 50.8137 10.3172C50.946 8.391 50.0932 6.46477 48.3876 5.30315C46.5937 4.08272 44.3292 4.05332 42.5501 5.03849C41.9913 3.11226 40.4033 1.53893 38.2859 1.11252C36.242 0.700805 34.2423 1.4654 32.963 2.9358C31.6985 1.4801 29.7281 0.715494 27.699 1.0978C25.5669 1.50951 23.9495 3.08285 23.376 5.03849C21.6115 4.06802 19.3765 4.08272 17.5826 5.28845C15.8475 6.45007 14.9653 8.40571 15.1123 10.3466C13.1861 10.2143 11.2599 11.0671 10.0983 12.7728C8.87783 14.5667 8.84844 16.8311 9.83361 18.6103C7.90738 19.169 6.33403 20.7571 5.90761 22.8745C5.4959 24.9183 6.26054 26.9181 7.73094 28.1973C6.27524 29.4619 5.5106 31.4322 5.90761 33.4614C6.31932 35.5935 7.89264 37.2109 9.84828 37.7844C8.87781 39.5488 8.89254 41.7838 10.0983 43.563C11.2599 45.2981 13.2155 46.1804 15.1565 46.0333C15.0241 47.9595 15.8769 49.8858 17.5826 51.0474C19.3765 52.2678 21.6409 52.2972 23.4201 51.3121C23.9789 53.2383 25.5669 54.8116 27.6843 55.238C29.7281 55.6497 31.7279 54.8851 33.0071 53.4147C34.2717 54.8704 36.242 55.635 38.2712 55.238C40.4033 54.8263 42.0207 53.253 42.5942 51.2974C44.3587 52.2678 46.5937 52.2531 48.3728 51.0474C50.1079 49.8858 50.9901 47.9301 50.8431 45.9892C52.7693 46.1215 54.6956 45.2687 55.8572 43.563C57.0776 41.7691 57.107 39.5047 56.1218 37.7255C58.0481 37.1668 59.6214 35.5787 60.0478 33.4614C60.4595 31.4175 59.695 29.4178 58.2246 28.1385C59.6803 26.874 60.4448 24.9036 60.0478 22.8745L60.0626 22.9039Z" stroke="#121225" stroke-width="2" stroke-linecap="round" stroke-linejoin="round"/>
  <path d="M51.1357 33.8279C54.2605 23.7269 48.6052 13.0052 38.5042 9.88039C28.4033 6.75554 17.6816 12.4109 14.5568 22.5118C11.4319 32.6128 17.0872 43.3345 27.1882 46.4593C37.2892 49.5841 48.0108 43.9289 51.1357 33.8279Z" stroke="#121225" stroke-width="2" stroke-linecap="round" stroke-linejoin="round"/>
  <path d="M34.0657 17.1259L36.7272 22.5223C36.9183 22.9193 37.3006 23.1839 37.727 23.2575L43.6822 24.125C44.7703 24.2867 45.2114 25.6248 44.4174 26.4041L40.1091 30.5948C39.8003 30.9036 39.6533 31.3447 39.7268 31.7711L40.7414 37.6968C40.9325 38.7849 39.7856 39.623 38.8004 39.1084L33.4776 36.3146C33.0953 36.1088 32.6247 36.1088 32.2277 36.3146L26.9049 39.1084C25.9197 39.623 24.7728 38.7849 24.964 37.6968L25.9785 31.7711C26.052 31.3447 25.905 30.8889 25.5962 30.5948L21.288 26.4041C20.4939 25.6248 20.9351 24.2867 22.0232 24.125L27.9783 23.2575C28.4194 23.1986 28.787 22.9193 28.9781 22.5223L31.6396 17.1259C32.1248 16.126 33.5511 16.126 34.0363 17.1259H34.0657Z" stroke-width="2" stroke-linecap="round" stroke-linejoin="round" style="stroke: rgb(40, 167, 69);"/>
</svg>