<svg width="80" height="80" viewBox="0 0 80 80" fill="none" xmlns="http://www.w3.org/2000/svg">
<g clip-path="url(#clip0_20_4205)">
<path d="M7.37899 0.721927C7.49344 0.721198 7.60789 0.72047 7.72581 0.71972C8.11142 0.717845 8.49695 0.719324 8.88256 0.720776C9.16096 0.720124 9.43937 0.719269 9.71778 0.718226C10.4845 0.715959 11.2511 0.716633 12.0178 0.717783C12.844 0.71852 13.6703 0.71657 14.4965 0.714968C16.1157 0.712277 17.7349 0.712152 19.3542 0.71297C20.6699 0.713601 21.9856 0.713377 23.3013 0.712541C23.5818 0.712365 23.5818 0.712365 23.868 0.712186C24.2479 0.711947 24.6278 0.711707 25.0077 0.711465C28.573 0.709319 32.1382 0.710172 35.7035 0.711963C38.9675 0.713515 42.2315 0.711493 45.4955 0.707754C48.8444 0.703948 52.1934 0.702441 55.5423 0.703481C57.4235 0.704028 59.3047 0.703672 61.1859 0.700942C62.7873 0.698647 64.3887 0.698536 65.9901 0.701266C66.8076 0.7026 67.625 0.70292 68.4425 0.700539C69.1904 0.698388 69.9381 0.699103 70.6859 0.702139C70.957 0.70273 71.2281 0.702258 71.4991 0.700637C71.8667 0.698594 72.234 0.700375 72.6015 0.703137C72.9082 0.703162 72.9082 0.703162 73.221 0.703188C73.8402 0.794665 74.0923 0.968887 74.5313 1.40635C74.7886 1.82383 74.7886 1.82383 75.0147 2.30479C75.1434 2.57487 75.1434 2.57487 75.2747 2.8504C75.3655 3.04612 75.4563 3.24185 75.547 3.4376C75.6425 3.64002 75.7383 3.84237 75.8342 4.04463C76.1319 4.67433 76.4256 5.30581 76.7188 5.9376C76.8128 6.13961 76.9068 6.34161 77.0008 6.5436C77.3543 7.30391 77.7077 8.06426 78.0575 8.82628C78.4455 9.66979 78.8417 10.503 79.2797 11.3216C79.7659 12.2328 80.0272 12.873 79.8438 13.9064C79.6199 14.2543 79.6199 14.2543 79.2188 14.5314C78.7088 14.6075 78.2096 14.5902 77.6954 14.5704C77.5566 14.5676 77.4179 14.5648 77.2749 14.5619C76.9331 14.5545 76.5917 14.5443 76.2501 14.5314C76.2524 16.4602 76.2589 18.3889 76.2707 20.3177C76.2761 21.2134 76.28 22.1091 76.2807 23.0048C76.2813 23.87 76.2858 24.7352 76.2928 25.6004C76.2948 25.9296 76.2955 26.2589 76.2948 26.5882C76.294 27.0512 76.2981 27.514 76.3033 27.977C76.302 28.1117 76.3006 28.2463 76.2992 28.385C76.3129 29.1216 76.4202 29.6042 76.7971 30.2412C77.2732 31.1656 77.2969 31.9682 77.2858 32.9936C77.2869 33.1791 77.288 33.3646 77.2891 33.5557C77.2914 34.0664 77.2902 34.577 77.2874 35.0877C77.2853 35.6401 77.2878 36.1925 77.2896 36.7448C77.2925 37.8252 77.2911 38.9055 77.2883 39.9859C77.2861 40.864 77.2855 41.7422 77.2861 42.6204C77.2861 42.7456 77.2862 42.8708 77.2863 42.9998C77.2864 43.2541 77.2866 43.5085 77.2868 43.7628C77.2881 46.0094 77.2855 48.256 77.2809 50.5026C77.2764 52.6812 77.2753 54.8597 77.2777 57.0383C77.2803 59.4128 77.2809 61.7872 77.2782 64.1617C77.2779 64.415 77.2776 64.6683 77.2773 64.9216C77.2772 65.0462 77.277 65.1708 77.2769 65.2992C77.276 66.1762 77.2765 67.0532 77.2776 67.9303C77.2788 68.9992 77.2777 70.0681 77.2738 71.137C77.2718 71.6821 77.2709 72.2272 77.2726 72.7723C77.274 73.3637 77.2715 73.9549 77.268 74.5463C77.2693 74.7179 77.2706 74.8895 77.2719 75.0663C77.2591 76.2537 77.0556 77.0712 76.2721 78.0012C76.1746 78.084 76.0771 78.1668 75.9767 78.2521C75.8808 78.3368 75.7849 78.4216 75.6861 78.509C74.4178 79.3276 73.1735 79.287 71.7079 79.282C71.4701 79.2829 71.2324 79.284 70.9946 79.2852C70.3515 79.288 69.7084 79.2879 69.0653 79.287C68.5271 79.2865 67.989 79.2874 67.4509 79.2884C66.1806 79.2906 64.9103 79.2903 63.64 79.2885C62.3324 79.2868 61.0249 79.2889 59.7174 79.2931C58.5921 79.2966 57.4668 79.2976 56.3415 79.2967C55.6705 79.2962 54.9997 79.2966 54.3287 79.2993C53.6975 79.3017 53.0663 79.301 52.435 79.2981C52.2044 79.2975 51.9737 79.298 51.7431 79.2997C50.2402 79.3095 48.9093 79.2385 47.7101 78.2527C47.615 78.1364 47.5199 78.0202 47.422 77.9005C47.3237 77.7847 47.2254 77.6689 47.1241 77.5495C46.6901 76.9187 46.5237 76.3698 46.522 75.6069C46.5203 75.3693 46.5203 75.3693 46.5186 75.1268C46.519 74.9538 46.5194 74.7809 46.5198 74.6027C46.5189 74.4181 46.5181 74.2335 46.5173 74.0433C46.5153 73.5314 46.5148 73.0196 46.5149 72.5077C46.5146 71.9554 46.5126 71.4032 46.5108 70.8509C46.5072 69.6435 46.506 68.4361 46.5052 67.2287C46.5047 66.4745 46.5037 65.7203 46.5025 64.9661C46.4995 62.8771 46.4969 60.7881 46.4965 58.6991C46.4964 58.5654 46.4964 58.4318 46.4964 58.2941C46.4963 58.0231 46.4963 57.7522 46.4962 57.4812C46.4962 57.3467 46.4961 57.2122 46.4961 57.0737C46.4961 56.8717 46.4961 56.8717 46.496 56.6656C46.4955 54.4842 46.4912 52.3029 46.4854 50.1216C46.4795 47.8809 46.4764 45.6403 46.4764 43.3996C46.4763 42.142 46.475 40.8845 46.4704 39.6269C46.4666 38.5559 46.4655 37.4849 46.4678 36.4139C46.4689 35.8678 46.4688 35.3218 46.4653 34.7757C46.4621 34.1826 46.4637 33.5898 46.4665 32.9967C46.4645 32.8255 46.4624 32.6543 46.4603 32.4779C46.4726 31.3489 46.6919 30.4678 47.3438 29.5313C48.1477 28.7682 49 28.2412 50.1334 28.2438C50.2817 28.2433 50.4301 28.2429 50.5829 28.2425C50.7437 28.2436 50.9045 28.2447 51.0702 28.2459C51.3264 28.2458 51.3264 28.2458 51.5878 28.2457C52.1517 28.246 52.7156 28.2484 53.2795 28.2508C53.6708 28.2514 54.062 28.2519 54.4532 28.2522C55.3773 28.2532 56.3014 28.2557 57.2256 28.2588C58.3812 28.2627 59.5369 28.2644 60.6925 28.2661C62.7534 28.2694 64.8143 28.2748 66.8751 28.2813C66.8751 27.3017 66.8751 26.322 66.8751 25.3126C49.1376 25.3126 31.4001 25.3126 13.1251 25.3126C13.156 41.5268 13.156 41.5268 13.1955 57.741C13.199 60.8716 13.199 60.8716 13.1997 62.3356C13.2004 63.3616 13.2033 64.3876 13.2076 65.4136C13.2125 66.5962 13.2148 67.7787 13.2137 68.9613C13.2133 69.5666 13.214 70.1718 13.2182 70.777C13.2227 71.4245 13.2212 72.0717 13.219 72.7192C13.2213 72.909 13.2236 73.0988 13.2259 73.2943C13.2133 74.7101 13.2133 74.7101 12.7523 75.1951C12.3088 75.4923 12.0929 75.5669 11.5647 75.5675C11.414 75.5694 11.2633 75.5714 11.1081 75.5734C10.9471 75.5713 10.7861 75.5693 10.6202 75.5671C10.4532 75.5675 10.2863 75.5679 10.1142 75.5683C9.76171 75.5681 9.4092 75.566 9.05672 75.5621C8.51757 75.5568 7.97883 75.5589 7.43967 75.5619C7.09685 75.5609 6.75404 75.5593 6.41123 75.5574C6.16974 75.5585 6.16974 75.5585 5.92338 75.5597C5.23683 75.5484 4.80324 75.5349 4.19901 75.1899C3.68403 74.581 3.73061 73.9875 3.73087 73.2098C3.73069 73.1083 3.73051 73.0068 3.73032 72.9022C3.72991 72.5607 3.73061 72.2192 3.7313 71.8777C3.73124 71.631 3.7311 71.3842 3.7309 71.1375C3.73055 70.4584 3.73118 69.7793 3.73196 69.1002C3.73263 68.3682 3.7324 67.6363 3.73229 66.9044C3.7322 65.6359 3.7327 64.3674 3.73357 63.0989C3.73484 61.2649 3.73525 59.4308 3.73545 57.5968C3.73579 54.6213 3.73683 51.6459 3.73831 48.6704C3.73974 45.7797 3.74085 42.889 3.74151 39.9983C3.74155 39.8201 3.74159 39.642 3.74163 39.4585C3.74184 38.5649 3.74204 37.6714 3.74223 36.7778C3.74385 29.3623 3.7466 21.9468 3.75009 14.5314C3.6201 14.5363 3.6201 14.5363 3.48749 14.5413C3.09328 14.5543 2.69912 14.5624 2.30478 14.5704C2.16842 14.5757 2.03206 14.5809 1.89157 14.5863C0.881985 14.6017 0.881985 14.6017 0.379388 14.2504C0.0322708 13.715 0.0371425 13.2615 0.156343 12.6564C0.392311 11.9916 0.696201 11.3656 1.00595 10.7325C1.09617 10.5438 1.1862 10.3551 1.27603 10.1662C1.52302 9.64879 1.77324 9.133 2.0242 8.61751C2.25331 8.14615 2.48082 7.67403 2.70845 7.20197C3.32361 5.92673 3.9407 4.65244 4.56552 3.38191C4.73834 3.03021 4.90709 2.67757 5.07334 2.32264C5.1394 2.18341 5.20546 2.04418 5.27353 1.90074C5.32751 1.78424 5.38149 1.66775 5.43711 1.54772C5.93494 0.759548 6.48705 0.722628 7.37899 0.721927ZM7.50009 3.4376C5.23149 7.1696 5.23149 7.1696 3.59384 11.8751C27.622 11.8751 51.6501 11.8751 76.4063 11.8751C76.1633 11.146 75.8925 10.4847 75.5549 9.80052C75.4762 9.63917 75.4762 9.63917 75.396 9.47457C75.2287 9.1319 75.0608 8.78961 74.8927 8.44737C74.7275 8.11008 74.5625 7.77271 74.3978 7.43523C74.2957 7.22636 74.1935 7.0176 74.0909 6.80899C73.5443 5.6923 73.0262 4.56501 72.5001 3.4376C51.0501 3.4376 29.6001 3.4376 7.50009 3.4376ZM6.40634 14.5314C6.40634 33.7642 6.40634 52.997 6.40634 72.8126C7.74697 72.8126 9.08759 72.8126 10.4688 72.8126C10.49 66.7521 10.5068 60.6917 10.5167 54.6311C10.5179 53.9161 10.5191 53.201 10.5203 52.486C10.5206 52.3436 10.5208 52.2013 10.5211 52.0546C10.5252 49.7478 10.5326 47.441 10.5412 45.1342C10.5499 42.7682 10.5551 40.4022 10.5571 38.0363C10.5583 36.5756 10.5624 35.115 10.57 33.6544C10.575 32.6536 10.5765 31.6528 10.5753 30.652C10.5746 30.0741 10.5756 29.4962 10.5806 28.9183C10.586 28.2924 10.5842 27.6667 10.5816 27.0407C10.5843 26.8571 10.587 26.6735 10.5899 26.4843C10.5847 26.022 10.5745 25.6064 10.4688 25.1563C10.0343 24.7341 10.0343 24.7341 9.53134 24.5313C9.00712 23.6269 9.16124 22.5068 9.16025 21.4942C9.15642 21.2895 9.1526 21.0848 9.14865 20.8738C9.14775 20.577 9.14775 20.577 9.14682 20.2741C9.14554 20.0942 9.14425 19.9142 9.14293 19.7288C9.23637 19.1011 9.443 18.7691 9.84384 18.2814C10.3769 17.9281 10.8358 17.9296 11.466 17.9291C11.6163 17.9283 11.6163 17.9283 11.7696 17.9276C12.1068 17.9263 12.4439 17.9272 12.781 17.9281C13.0246 17.9276 13.2682 17.927 13.5118 17.9263C14.1823 17.9247 14.8528 17.925 15.5233 17.9257C16.2459 17.9261 16.9686 17.9247 17.6913 17.9235C19.1075 17.9215 20.5237 17.9212 21.9399 17.9216C23.0907 17.9219 24.2414 17.9216 25.3922 17.9209C25.6376 17.9208 25.6376 17.9208 25.888 17.9207C26.2204 17.9205 26.5527 17.9203 26.885 17.9201C30.0036 17.9184 33.1223 17.9187 36.2409 17.9197C39.0957 17.9205 41.9505 17.9187 44.8053 17.9158C47.7347 17.9127 50.6641 17.9114 53.5935 17.912C55.2389 17.9123 56.8843 17.9119 58.5297 17.9097C59.9304 17.9079 61.3311 17.9077 62.7318 17.9095C63.4467 17.9105 64.1617 17.9106 64.8766 17.9088C65.5308 17.9071 66.1849 17.9075 66.839 17.9097C67.076 17.9102 67.313 17.9098 67.55 17.9085C67.8716 17.907 68.193 17.9083 68.5146 17.9103C68.6933 17.9103 68.8721 17.9103 69.0563 17.9103C69.7516 17.996 70.1617 18.2457 70.5919 18.7929C70.821 19.3081 70.8419 19.6903 70.8436 20.2534C70.8442 20.4511 70.8448 20.6488 70.8454 20.8525C70.8427 21.1605 70.8427 21.1605 70.8399 21.4747C70.8418 21.6794 70.8436 21.8842 70.8454 22.0951C70.8448 22.293 70.8442 22.4909 70.8436 22.6948C70.8431 22.8748 70.8426 23.0547 70.842 23.2401C70.7734 23.817 70.6172 24.1949 70.3126 24.6876C70.175 24.7514 70.0375 24.8153 69.8957 24.8811C69.5012 25.1151 69.5012 25.1151 69.4687 25.4843C69.4543 25.9088 69.4635 26.3237 69.4825 26.7481C69.4986 27.2541 69.5147 27.7601 69.5313 28.2813C70.872 28.2813 72.2126 28.2813 73.5938 28.2813C73.5938 23.7438 73.5938 19.2064 73.5938 14.5314C51.422 14.5314 29.2501 14.5314 6.40634 14.5314ZM11.7188 20.4689C11.7188 21.1907 11.7188 21.9126 11.7188 22.6563C30.3845 22.6563 49.0501 22.6563 68.2813 22.6563C68.2813 21.9345 68.2813 21.2126 68.2813 20.4689C49.6157 20.4689 30.9501 20.4689 11.7188 20.4689ZM49.2188 31.5626C49.1021 32.145 49.1149 32.72 49.1217 33.3123C49.1208 33.4929 49.1197 33.6736 49.1187 33.8597C49.1167 34.3613 49.1183 34.8628 49.1213 35.3644C49.1237 35.9052 49.1216 36.4461 49.1201 36.987C49.1178 38.0466 49.1197 39.1061 49.1231 40.1657C49.1268 41.3992 49.1266 42.6326 49.1262 43.8661C49.1256 46.0666 49.1288 48.2672 49.1342 50.4677C49.1393 52.6039 49.1415 54.7401 49.1406 56.8762C49.1395 59.2014 49.1399 61.5265 49.143 63.8517C49.1431 63.9746 49.1433 64.0975 49.1435 64.2241C49.1438 64.471 49.1441 64.7179 49.1445 64.9648C49.1455 65.8249 49.1456 66.6851 49.1454 67.5452C49.1452 68.5932 49.1467 69.6412 49.1504 70.6892C49.1523 71.2241 49.1534 71.7589 49.1525 72.2938C49.1519 72.8731 49.1542 73.4524 49.1572 74.0317C49.1564 74.2015 49.1556 74.3713 49.1547 74.5462C49.1561 74.7011 49.1575 74.856 49.159 75.0156C49.1592 75.1494 49.1595 75.2831 49.1597 75.4209C49.2329 75.8671 49.3784 76.08 49.6876 76.4063C50.1947 76.5754 50.5636 76.5831 51.0972 76.5845C51.294 76.5854 51.4907 76.5863 51.6934 76.5872C51.9118 76.5874 52.1302 76.5876 52.3487 76.5878C52.5784 76.5885 52.8081 76.5893 53.0378 76.5901C53.6621 76.5922 54.2865 76.5932 54.9109 76.5939C55.3009 76.5943 55.6909 76.595 56.0809 76.5957C57.301 76.5978 58.5212 76.5993 59.7413 76.5999C61.1501 76.6006 62.5588 76.6034 63.9676 76.6079C65.0564 76.6113 66.1452 76.6128 67.2339 76.6131C67.8843 76.6132 68.5347 76.6141 69.185 76.6169C69.7968 76.6195 70.4085 76.6199 71.0203 76.6185C71.2447 76.6184 71.4691 76.619 71.6935 76.6206C72.0001 76.6226 72.3067 76.6214 72.6133 76.62C72.7848 76.6202 72.9563 76.6205 73.133 76.6207C73.6576 76.5546 73.952 76.4061 74.3751 76.0938C74.5642 75.7157 74.5516 75.4767 74.5528 75.0541C74.5536 74.8998 74.5543 74.7455 74.5552 74.5866C74.5553 74.3305 74.5553 74.3305 74.5554 74.0693C74.5561 73.8889 74.5568 73.7085 74.5575 73.5226C74.5592 73.0204 74.5602 72.5181 74.5609 72.0159C74.5619 71.4748 74.5637 70.9337 74.5654 70.3926C74.5692 69.0853 74.5715 67.7779 74.5735 66.4705C74.5741 66.1015 74.5747 65.7324 74.5753 65.3633C74.5793 63.0728 74.5827 60.7823 74.5847 58.4918C74.5851 57.9612 74.5856 57.4305 74.5861 56.8998C74.5862 56.7679 74.5863 56.636 74.5864 56.5001C74.5884 54.362 74.5936 52.224 74.6001 50.0859C74.6067 47.8923 74.6104 45.6987 74.6112 43.505C74.6117 42.2727 74.6136 41.0405 74.6187 39.8083C74.6231 38.7591 74.6248 37.71 74.6231 36.6609C74.6223 36.1253 74.6227 35.5899 74.6266 35.0543C74.6301 34.4743 74.6288 33.8944 74.6264 33.3144C74.6285 33.1444 74.6307 32.9743 74.6329 32.7992C74.6351 31.9005 74.6351 31.9005 74.1967 31.1456C73.6793 30.9046 73.3301 30.859 72.7598 30.8582C72.56 30.8565 72.3602 30.8547 72.1544 30.8529C71.9341 30.8541 71.7139 30.8554 71.4936 30.8567C71.2608 30.8559 71.028 30.8548 70.7951 30.8534C70.1637 30.8506 69.5323 30.8517 68.9008 30.8536C68.2397 30.8552 67.5786 30.8538 66.9175 30.8528C65.8073 30.8516 64.6972 30.8531 63.587 30.8561C62.3038 30.8595 61.0207 30.8584 59.7375 30.855C58.6355 30.8521 57.5334 30.8517 56.4314 30.8534C55.7733 30.8543 55.1153 30.8545 54.4572 30.8524C53.8385 30.8506 53.2199 30.8519 52.6012 30.8555C52.3743 30.8563 52.1473 30.8561 51.9204 30.8547C51.6104 30.853 51.3004 30.8555 50.9904 30.8582C50.7303 30.8586 50.7303 30.8586 50.465 30.8589C49.8453 30.9638 49.6162 31.0678 49.2188 31.5626Z" fill="black"/>
<path d="M18.5658 52.1645C18.7595 52.1634 18.9531 52.1623 19.1527 52.1611C19.3685 52.1607 19.5843 52.1602 19.8 52.1598C20.0264 52.1589 20.2528 52.1578 20.4791 52.1567C21.0951 52.154 21.7111 52.1524 22.3271 52.1511C22.7119 52.1503 23.0967 52.1493 23.4815 52.1483C24.6854 52.1453 25.8892 52.1431 27.0931 52.1418C28.4829 52.1403 29.8727 52.1362 31.2626 52.1299C32.3366 52.1252 33.4107 52.1228 34.4848 52.1223C35.1263 52.122 35.7679 52.1206 36.4094 52.1166C37.0132 52.113 37.617 52.1123 38.2208 52.1139C38.4421 52.114 38.6635 52.113 38.8848 52.1109C40.958 52.0919 40.958 52.0919 41.7191 52.8125C42.2937 53.4646 42.5196 53.8228 42.5223 54.6849C42.5232 54.8497 42.5241 55.0144 42.525 55.1841C42.5253 55.4563 42.5253 55.4563 42.5256 55.7341C42.5264 55.9247 42.5271 56.1152 42.5279 56.3116C42.5298 56.8352 42.531 57.3589 42.5317 57.8825C42.5321 58.2098 42.5328 58.537 42.5335 58.8642C42.5356 59.8882 42.5371 60.9122 42.5377 61.9362C42.5384 63.1179 42.5412 64.2995 42.5457 65.4812C42.5491 66.3947 42.5506 67.3082 42.5509 68.2217C42.551 68.7672 42.5519 69.3126 42.5547 69.8581C42.5578 70.4671 42.5571 71.076 42.5561 71.685C42.5575 71.8652 42.559 72.0455 42.5605 72.2312C42.5552 73.2403 42.5089 74.0079 41.7973 74.7882C41.0758 75.35 40.6186 75.4881 39.7173 75.4917C39.5278 75.4929 39.3384 75.494 39.1432 75.4951C38.9329 75.4956 38.7226 75.496 38.5122 75.4964C38.291 75.4974 38.0697 75.4984 37.8485 75.4995C37.1215 75.5028 36.3945 75.5044 35.6675 75.506C35.417 75.5066 35.1666 75.5072 34.9161 75.5079C33.7391 75.5109 32.5621 75.5131 31.3851 75.5144C30.0276 75.5159 28.6702 75.52 27.3127 75.5264C26.2628 75.5311 25.2129 75.5334 24.163 75.5339C23.5362 75.5343 22.9095 75.5357 22.2828 75.5396C21.6927 75.5432 21.1027 75.5439 20.5126 75.5423C20.2967 75.5422 20.0808 75.5432 19.8649 75.5453C18.6472 75.5568 17.7496 75.5257 16.7191 74.8437C16.1477 74.1258 15.9192 73.568 15.9149 72.6599C15.9138 72.4994 15.9127 72.3388 15.9115 72.1734C15.9111 71.9973 15.9107 71.8213 15.9102 71.6399C15.9092 71.4544 15.9082 71.2689 15.9071 71.0777C15.904 70.4623 15.9022 69.847 15.9007 69.2316C15.9 69.0194 15.8994 68.8072 15.8987 68.5951C15.8958 67.5979 15.8935 66.6008 15.8922 65.6037C15.8907 64.4544 15.8866 63.3051 15.8803 62.1558C15.8756 61.2665 15.8733 60.3771 15.8727 59.4878C15.8724 58.9571 15.871 58.4265 15.867 57.8958C15.8632 57.303 15.8634 56.7103 15.8645 56.1174C15.8625 55.9429 15.8605 55.7685 15.8584 55.5887C15.8651 54.5853 15.9693 53.7999 16.5629 52.9687C17.2497 52.3309 17.6417 52.1681 18.5658 52.1645ZM18.5941 54.8437C18.5941 60.7734 18.5941 66.7031 18.5941 72.8125C25.6066 72.8125 32.6191 72.8125 39.8441 72.8125C39.8441 66.8828 39.8441 60.9531 39.8441 54.8437C38.0395 54.8437 36.2348 54.8437 34.3754 54.8437C34.3488 56.2997 34.3488 56.2997 34.3289 57.7558C34.3241 57.9379 34.3193 58.1199 34.3144 58.3075C34.3111 58.4932 34.3078 58.679 34.3044 58.8703C34.2032 59.4693 34.0217 59.7314 33.5941 60.1562C32.9893 60.3578 32.4969 60.4559 31.8754 60.3125C31.2581 59.949 30.7101 59.5158 30.1566 59.0625C30.0106 58.9457 29.8646 58.8288 29.7141 58.7085C29.6024 58.6191 29.4906 58.5296 29.3754 58.4375C28.7875 58.6974 28.2994 59.0732 27.7934 59.4629C26.9441 60.1136 26.419 60.4314 25.3129 60.3125C24.8711 60.1204 24.6215 59.9819 24.3587 59.5778C24.1764 59.1087 24.1682 58.7035 24.1544 58.2007C24.1489 58.0246 24.1433 57.8485 24.1376 57.6671C24.1323 57.4444 24.127 57.2216 24.1215 56.9922C24.1022 56.2832 24.0828 55.5742 24.0629 54.8437C22.2582 54.8437 20.4535 54.8437 18.5941 54.8437ZM26.7191 54.8437C26.7191 55.5141 26.7191 56.1844 26.7191 56.875C26.8513 56.7848 26.9834 56.6945 27.1195 56.6016C27.2983 56.484 27.4774 56.3669 27.6566 56.25C27.7449 56.1904 27.8331 56.1308 27.924 56.0693C28.5967 55.6431 29.0572 55.4893 29.8441 55.625C30.3436 55.899 30.7948 56.2217 31.2504 56.5625C31.4051 56.6656 31.5598 56.7687 31.7191 56.875C31.7191 56.2047 31.7191 55.5344 31.7191 54.8437C30.0691 54.8437 28.4191 54.8437 26.7191 54.8437Z" fill="black"/>
<path d="M64.687 33.2812C64.7876 33.336 64.8881 33.3908 64.9916 33.4472C66.1225 34.1537 66.8732 35.4385 67.187 36.7187C67.3568 37.7975 67.3644 38.8559 67.361 39.9466C67.3611 40.1418 67.3611 40.3371 67.3611 40.5383C67.361 41.0702 67.3602 41.6021 67.3591 42.1341C67.3582 42.6913 67.3581 43.2485 67.3579 43.8057C67.3574 44.8592 67.3561 45.9128 67.3545 46.9664C67.3528 48.1665 67.3519 49.3667 67.3512 50.5668C67.3495 53.0341 67.3468 55.5014 67.3433 57.9687C67.439 58.0134 67.5346 58.0582 67.6332 58.1042C68.0993 58.3504 68.3892 58.677 68.7495 59.0625C68.8354 59.1475 68.9212 59.2325 69.0096 59.32C70.6597 61.0429 71.3311 63.4396 71.3045 65.781C71.2166 68.3356 70.2205 70.521 68.437 72.3437C66.1691 74.2867 63.7432 75.0231 60.7947 74.8694C58.41 74.6821 56.1951 73.4083 54.6419 71.6192C52.9876 69.4476 52.2173 66.9404 52.4995 64.2187C52.8494 61.9551 53.843 60.1811 55.4683 58.5937C55.6282 58.4987 55.7882 58.4037 55.953 58.3058C56.2994 58.0151 56.3963 57.8569 56.4916 57.4093C56.5234 56.8749 56.5247 56.3476 56.5167 55.8122C56.5173 55.6089 56.518 55.4056 56.5186 55.1961C56.52 54.7544 56.5185 54.3128 56.5148 53.8712C56.5088 53.1716 56.5097 52.4722 56.5116 51.7727C56.5142 50.4128 56.5098 49.0529 56.5048 47.6931C56.4988 45.965 56.4962 44.2369 56.4993 42.5089C56.5003 41.8148 56.4981 41.1208 56.4933 40.4267C56.4915 40.0979 56.4911 39.7692 56.4913 39.4404C56.4915 39.0413 56.4895 38.6422 56.4848 38.2431C56.4923 36.5969 56.8709 35.3691 58.0135 34.1687C59.7983 32.4165 62.4826 32.0379 64.687 33.2812ZM59.6285 36.3379C59.2386 36.9227 59.1983 37.3646 59.1957 38.0513C59.1946 38.2309 59.1935 38.4105 59.1924 38.5956C59.1918 38.8915 59.1918 38.8915 59.1912 39.1933C59.1902 39.403 59.1891 39.6127 59.188 39.8224C59.1857 40.2741 59.1839 40.7258 59.1824 41.1775C59.18 41.8919 59.1762 42.6062 59.1722 43.3206C59.1611 45.352 59.1518 47.3834 59.1438 49.4148C59.1394 50.5366 59.1338 51.6585 59.1271 52.7803C59.1229 53.4903 59.1202 54.2002 59.1184 54.9102C59.1169 55.3523 59.1142 55.7943 59.1112 56.2363C59.1094 56.5386 59.1092 56.8409 59.1091 57.1433C59.1076 57.3238 59.1061 57.5043 59.1045 57.6903C59.1038 57.8468 59.1032 58.0033 59.1025 58.1646C59.041 58.8166 58.8952 59.2414 58.4102 59.6863C58.2773 59.7833 58.1443 59.8804 58.0074 59.9804C56.5205 61.1272 55.4065 62.618 55.1558 64.5312C54.9791 66.4156 55.4092 68.1326 56.5669 69.6435C57.7952 71.0667 59.3374 72.074 61.2544 72.2247C63.3757 72.2701 65.0534 71.7249 66.6213 70.2832C68.0581 68.806 68.6611 67.0887 68.636 65.05C68.4796 63.1503 67.6425 61.5899 66.23 60.332C65.8957 60.056 65.6098 59.8363 65.2204 59.6407C64.5929 58.9386 64.7379 58.1301 64.7477 57.2219C64.7468 57.017 64.7459 56.8122 64.745 56.6011C64.7431 56.1557 64.7437 55.7104 64.7461 55.265C64.7499 54.5596 64.7481 53.8542 64.7455 53.1488C64.7417 51.9046 64.7426 50.6604 64.7445 49.4162C64.7474 47.5466 64.7467 45.6769 64.7414 43.8073C64.7396 43.1073 64.7403 42.4074 64.743 41.7074C64.7442 41.2699 64.7435 40.8325 64.7424 40.3951C64.7422 40.0983 64.7444 39.8015 64.7466 39.5047C64.7495 37.6771 64.7495 37.6771 63.9411 36.0986C63.1459 35.3899 62.5957 35.2574 61.5352 35.2685C60.6935 35.3522 60.2032 35.7178 59.6285 36.3379Z" fill="black"/>
<path d="M24.4437 28.8086C25.1654 28.9352 25.4197 29.182 25.9379 29.6875C26.0442 29.5586 26.1505 29.4297 26.2601 29.2969C26.7191 28.9062 26.7191 28.9062 27.266 28.8086C27.8129 28.9062 27.8129 28.9062 28.2718 29.209C28.8726 30.101 28.5942 31.175 28.4353 32.194C28.2094 33.6642 28.2094 33.6642 28.7308 35.0293C28.9849 35.3747 28.9849 35.3747 29.2191 35.625C29.7778 35.0274 30.1391 34.5075 30.1896 33.6749C30.1458 33.0711 30.0798 32.4752 30.0004 31.875C29.9582 31.5042 29.919 31.1331 29.8832 30.7617C29.8646 30.6034 29.8461 30.4451 29.827 30.282C29.8478 29.7489 29.9962 29.4862 30.3129 29.0625C30.8177 28.8101 31.3317 28.7909 31.8754 28.9062C32.2207 29.1889 32.4052 29.4666 32.6566 29.8438C32.7533 29.7181 32.85 29.5924 32.9496 29.4629C33.2816 29.0625 33.2816 29.0625 33.5941 28.9062C34.5575 28.817 34.5575 28.817 35.0589 29.1602C35.3708 29.616 35.4466 29.9177 35.4691 30.4688C35.3226 30.918 35.3226 30.918 35.1566 31.25C35.4515 31.308 35.4515 31.308 35.7523 31.3672C36.18 31.4762 36.3818 31.5408 36.7191 31.8359C36.9297 32.3098 36.9488 32.6109 36.8754 33.125C36.2975 34.1795 35.0539 34.4243 33.9859 34.8004C32.8433 35.2495 32.3789 35.7253 31.8603 36.841C31.8137 36.9554 31.7671 37.0697 31.7191 37.1875C32.6024 37.3431 33.3216 37.4352 34.1176 36.9753C34.8835 36.4365 35.5986 35.8368 36.3014 35.2185C36.7843 34.8149 37.1911 34.7902 37.8171 34.8004C38.1254 34.8438 38.1254 34.8438 38.5062 35.0977C38.8085 35.5572 38.8954 35.8557 38.9066 36.4062C38.682 36.8555 38.682 36.8555 38.4379 37.1875C38.5339 37.1992 38.63 37.2109 38.729 37.2229C39.7543 37.3897 39.7543 37.3897 40.1859 37.9199C40.3452 38.5695 40.2592 38.9195 40.0004 39.5312C39.4622 39.8901 39.0725 39.9282 38.4379 40C38.5587 40.1644 38.5587 40.1644 38.682 40.332C38.9615 40.891 38.9387 41.1287 38.7504 41.7188C38.5062 42.0898 38.5062 42.0898 38.1254 42.3438C37.2613 42.4747 36.8292 42.37 36.1094 41.8707C35.8448 41.6701 35.5826 41.4663 35.3226 41.2598C35.188 41.1567 35.0533 41.0537 34.9146 40.9476C33.9794 40.229 33.9794 40.229 33.7504 40C33.4087 39.9887 33.0668 39.9869 32.725 39.9902C32.5378 39.9916 32.3507 39.9931 32.1579 39.9945C31.9407 39.9972 31.9407 39.9972 31.7191 40C32.1283 41.004 32.4977 41.737 33.5123 42.2009C33.8303 42.3259 34.1507 42.4451 34.473 42.5586C36.4512 43.2943 36.4512 43.2943 36.8754 44.0625C36.9632 44.5312 36.9632 44.5312 36.8754 45C36.4724 45.5333 36.2292 45.7481 35.5765 45.9082C35.3687 45.9227 35.3687 45.9227 35.1566 45.9375C35.2114 46.0471 35.2662 46.1566 35.3226 46.2695C35.502 46.8195 35.4885 47.106 35.3129 47.6562C34.9058 48.0982 34.6567 48.2604 34.0629 48.3594C33.486 48.2632 33.2285 48.06 32.8129 47.6562C32.7613 47.5531 32.7097 47.45 32.6566 47.3438C32.5535 47.4984 32.4504 47.6531 32.3441 47.8125C32.0923 48.1152 31.9499 48.2609 31.5671 48.3655C31.0429 48.387 30.686 48.3201 30.2445 48.0371C29.7067 47.1981 29.8452 46.2555 29.9906 45.3125C30.2677 43.6993 30.2677 43.6993 29.766 42.1973C29.6935 42.0766 29.621 41.956 29.5463 41.8317C29.4899 41.7428 29.4335 41.654 29.3754 41.5625C28.8755 41.9874 28.505 42.5099 28.2816 43.125C28.2519 43.6252 28.3199 44.0963 28.3988 44.5898C28.7739 47.233 28.7739 47.233 28.2718 47.9785C27.6874 48.364 27.4074 48.402 26.7191 48.2812C26.357 48.051 26.0918 47.8026 25.7816 47.5C25.6849 47.5999 25.5882 47.6998 25.4886 47.8027C25.0974 48.1824 24.9438 48.268 24.4047 48.3398C23.9066 48.2812 23.9066 48.2812 23.4574 47.959C23.0442 47.3878 23.0374 47.0975 23.1254 46.4062C23.2816 46.0254 23.2816 46.0254 23.4379 45.7812C23.2703 45.7941 23.1027 45.807 22.93 45.8203C22.3441 45.7812 22.3441 45.7812 21.973 45.5176C21.6866 45.1099 21.5871 44.872 21.5629 44.375C21.73 43.7368 21.9594 43.4833 22.5004 43.125C22.7436 43.0204 22.9908 42.925 23.2407 42.8375C25.1921 42.1652 25.1921 42.1652 26.5336 40.6934C26.7484 40.2308 26.7484 40.2308 26.8754 39.8438C25.132 39.6247 24.1667 40.379 22.842 41.4036C22.262 41.8524 22.262 41.8524 21.7191 42.3438C21.0565 42.4257 20.4964 42.4512 19.9125 42.1094C19.5743 41.5213 19.6129 41.1437 19.6879 40.4688C19.9222 40.1562 19.9222 40.1562 20.1566 40C19.9632 39.9871 19.7699 39.9742 19.5707 39.9609C19.1221 39.9013 18.9082 39.8447 18.516 39.5996C18.1803 39.0541 18.1586 38.5926 18.2816 37.9688C18.516 37.5879 18.516 37.5879 18.9066 37.3438C19.3292 37.2494 19.7218 37.2165 20.1566 37.1875C20.0406 37.1102 20.0406 37.1102 19.9222 37.0312C19.6161 36.6231 19.6114 36.2733 19.6354 35.7721C19.6879 35.4688 19.6879 35.4688 19.9125 35.0781C20.5144 34.7258 21.0378 34.7117 21.7191 34.8438C22.2658 35.1419 22.722 35.5236 23.1937 35.9277C23.4408 36.1311 23.688 36.3344 23.9353 36.5375C24.0425 36.6283 24.1498 36.7191 24.2603 36.8127C24.7835 37.2341 25.2175 37.23 25.8793 37.2754C26.065 37.2885 26.2507 37.3016 26.442 37.3151C26.6565 37.3293 26.6565 37.3293 26.8754 37.3438C26.5875 36.4381 26.2137 35.7214 25.3846 35.2367C24.4632 34.7986 23.5144 34.433 22.5536 34.0909C22.0119 33.8174 21.7889 33.4706 21.5824 32.9102C21.5558 32.351 21.7426 32.0335 22.0316 31.5625C22.4936 31.3315 22.9288 31.3968 23.4379 31.4062C23.3605 31.2854 23.3605 31.2854 23.2816 31.1621C23.0637 30.6311 23.0554 30.2569 23.1254 29.6875C23.5267 29.1159 23.7539 28.934 24.4437 28.8086Z" fill="black"/>
<path d="M62.656 55.3126C63.1258 55.7824 63.2744 56.2257 63.2987 56.8898C63.2979 57.0837 63.2971 57.2777 63.2963 57.4775C63.296 57.5809 63.2958 57.6842 63.2956 57.7907C63.2947 58.1203 63.2927 58.4498 63.2908 58.7794C63.29 59.003 63.2893 59.2267 63.2886 59.4504C63.2869 59.9982 63.2842 60.546 63.281 61.0938C63.4287 61.1407 63.5764 61.1876 63.7286 61.2359C64.7583 61.5941 65.5629 62.4545 66.0978 63.3918C66.6201 64.6231 66.7022 65.9287 66.2497 67.1876C65.6606 68.5245 64.8413 69.2693 63.5184 69.8609C62.2883 70.2957 61.0098 70.2389 59.8288 69.6924C58.6198 69.0042 57.8102 68.0258 57.3435 66.7188C57.1625 65.2391 57.219 63.8898 58.1247 62.6563C58.7038 61.948 59.2906 61.4282 60.156 61.0938C60.3107 61.0938 60.4654 61.0938 60.6247 61.0938C60.6223 60.9409 60.6198 60.788 60.6173 60.6304C60.6088 60.062 60.6034 59.4936 60.599 58.9252C60.5966 58.6793 60.5934 58.4335 60.5894 58.1877C60.5837 57.834 60.581 57.4803 60.579 57.1265C60.5765 57.017 60.5741 56.9074 60.5716 56.7945C60.5715 56.3143 60.5987 55.9847 60.8327 55.5605C61.396 55.025 61.9474 55.1481 62.656 55.3126ZM60.3122 64.2188C59.868 64.8852 59.8842 65.4682 59.9997 66.2501C60.2265 66.7679 60.5572 67.0785 61.0727 67.3298C61.6743 67.5252 61.9968 67.5098 62.6169 67.334C63.1714 67.0035 63.4462 66.8207 63.7497 66.2501C63.8718 65.4862 63.8702 64.894 63.4763 64.2188C62.8523 63.6641 62.4254 63.5223 61.5671 63.5431C61.0442 63.6266 60.7119 63.8858 60.3122 64.2188Z" fill="#28A745"/>
<path d="M22.4357 65.5573C22.5642 65.5565 22.6927 65.5557 22.825 65.5548C23.0959 65.5538 23.3669 65.554 23.6378 65.5554C24.0507 65.5567 24.4633 65.5522 24.8762 65.5473C25.1402 65.547 25.4042 65.5471 25.6682 65.5476C25.852 65.5449 25.852 65.5449 26.0396 65.5422C26.8534 65.5525 27.3304 65.7012 27.9686 66.2501C28.4503 66.9395 28.3386 67.7656 28.3397 68.5743C28.3435 68.7276 28.3473 68.8808 28.3513 69.0388C28.355 69.9544 28.3029 70.5442 27.6561 71.2501C27.0633 71.6668 26.4005 71.6131 25.7042 71.6151C25.5755 71.6161 25.4468 71.6171 25.3142 71.6182C25.0424 71.6198 24.7705 71.6205 24.4986 71.6205C24.0843 71.6212 23.6703 71.6268 23.256 71.6328C22.9914 71.6337 22.7267 71.6343 22.462 71.6346C22.3389 71.6368 22.2158 71.6391 22.089 71.6414C21.2702 71.6347 20.807 71.4774 20.1561 70.9376C19.7119 70.24 19.7918 69.4047 19.7947 68.6036C19.791 68.3971 19.791 68.3971 19.7871 68.1864C19.7865 67.3776 19.8331 66.7777 20.3123 66.0938C20.9809 65.5678 21.6167 65.5543 22.4357 65.5573ZM22.4998 68.2813C22.4998 68.4876 22.4998 68.6938 22.4998 68.9063C23.5311 68.9063 24.5623 68.9063 25.6248 68.9063C25.6248 68.7001 25.6248 68.4938 25.6248 68.2813C24.5936 68.2813 23.5623 68.2813 22.4998 68.2813Z" fill="black"/>
</g>
<defs>
<clipPath id="clip0_20_4205">
<rect width="80" height="80" fill="white"/>
</clipPath>
</defs>
</svg>
