<svg width="66" height="65" viewBox="0 0 66 65" fill="none" xmlns="http://www.w3.org/2000/svg">
<path d="M59.0597 1.54761H6.94069C4.23843 1.54761 2.04785 4.06855 2.04785 7.17829V57.8216C2.04785 60.9313 4.23843 63.4524 6.94069 63.4524H59.0597C61.7619 63.4524 63.9526 60.9313 63.9526 57.8216V7.17829C63.9526 4.06855 61.7619 1.54761 59.0597 1.54761Z" stroke="black" stroke-width="1.5" stroke-linecap="round" stroke-linejoin="round"/>
<path d="M37.6426 1.54761V21.961C37.6426 22.9675 36.8098 23.5546 36.2006 23.0011L33.7766 20.7869C33.3043 20.3507 32.6952 20.3507 32.2228 20.7869L29.7988 23.0011C29.1897 23.5546 28.3569 22.9675 28.3569 21.961V1.54761" stroke="black" stroke-width="1.5" stroke-linecap="round" stroke-linejoin="round"/>
<path d="M54.6665 56.3334H62.1602" stroke="black" stroke-width="1.5" stroke-linecap="round" stroke-linejoin="round"/>
<path d="M2.04785 54.1666H50.024" stroke="black" stroke-width="1.5" stroke-linecap="round" stroke-linejoin="round"/>
<path d="M9.78564 38.6904H20.619" stroke="#28A745" stroke-width="1.5" stroke-linecap="round" stroke-linejoin="round"/>
<path d="M26.5 39H29.5952" stroke="#28A745" stroke-width="1.5" stroke-linecap="round" stroke-linejoin="round"/>
<path d="M9.1665 45.5H15.357" stroke="#28A745" stroke-width="1.5" stroke-linecap="round" stroke-linejoin="round"/>
<path d="M17.5722 13H11.2847C10.4568 13 9.78564 13.7559 9.78564 14.6883V17.5022C9.78564 18.4346 10.4568 19.1905 11.2847 19.1905H17.5722C18.4002 19.1905 19.0714 18.4346 19.0714 17.5022V14.6883C19.0714 13.7559 18.4002 13 17.5722 13Z" stroke="#28A745" stroke-width="1.5" stroke-linecap="round" stroke-linejoin="round"/>
</svg>
