<svg width="86" height="85" viewBox="0 0 86 85" fill="none" xmlns="http://www.w3.org/2000/svg">
<path d="M77.2849 2.0238H9.12929C5.59556 2.0238 2.73096 5.32042 2.73096 9.387V75.6129C2.73096 79.6795 5.59556 82.9762 9.12929 82.9762H77.2849C80.8186 82.9762 83.6833 79.6795 83.6833 75.6129V9.387C83.6833 5.32042 80.8186 2.0238 77.2849 2.0238Z" stroke="black" stroke-width="1.5" stroke-linecap="round" stroke-linejoin="round"/>
<path d="M49.2786 2.0238V28.7182C49.2786 30.0345 48.1894 30.8022 47.3929 30.0784L44.223 27.1829C43.6054 26.6125 42.8089 26.6125 42.1911 27.1829L39.0213 30.0784C38.2247 30.8022 37.1357 30.0345 37.1357 28.7182V2.0238" stroke="black" stroke-width="1.5" stroke-linecap="round" stroke-linejoin="round"/>
<path d="M71.5405 73.6666H81.34" stroke="black" stroke-width="1.5" stroke-linecap="round" stroke-linejoin="round"/>
<path d="M2.73096 70.8334H65.4691" stroke="black" stroke-width="1.5" stroke-linecap="round" stroke-linejoin="round"/>
<path d="M12.8501 50.5952H27.0168" stroke="#28A745" stroke-width="1.5" stroke-linecap="round" stroke-linejoin="round"/>
<path d="M34.707 51H38.7547" stroke="#28A745" stroke-width="1.5" stroke-linecap="round" stroke-linejoin="round"/>
<path d="M12.0405 59.5H20.1358" stroke="#28A745" stroke-width="1.5" stroke-linecap="round" stroke-linejoin="round"/>
<path d="M23.0321 17H14.8099C13.7273 17 12.8496 17.9885 12.8496 19.2078V22.8875C12.8496 24.1067 13.7273 25.0952 14.8099 25.0952H23.0321C24.1148 25.0952 24.9925 24.1067 24.9925 22.8875V19.2078C24.9925 17.9885 24.1148 17 23.0321 17Z" stroke="#28A745" stroke-width="1.5" stroke-linecap="round" stroke-linejoin="round"/>
</svg>
