<svg width="106" height="105" viewBox="0 0 106 105" fill="none" xmlns="http://www.w3.org/2000/svg">
<path d="M95.5111 2.5H11.3189C6.95367 2.5 3.41504 6.57229 3.41504 11.5957V93.4042C3.41504 98.4276 6.95367 102.5 11.3189 102.5H95.5111C99.8762 102.5 103.415 98.4276 103.415 93.4042V11.5957C103.415 6.57229 99.8762 2.5 95.5111 2.5Z" stroke="black" stroke-width="1.5" stroke-linecap="round" stroke-linejoin="round"/>
<path d="M60.915 2.5V35.4754C60.915 37.1014 59.5696 38.0498 58.5857 37.1556L54.6699 33.5789C53.907 32.8743 52.9231 32.8743 52.1599 33.5789L48.2442 37.1556C47.2602 38.0498 45.915 37.1014 45.915 35.4754V2.5" stroke="black" stroke-width="1.5" stroke-linecap="round" stroke-linejoin="round"/>
<path d="M88.415 91H100.52" stroke="black" stroke-width="1.5" stroke-linecap="round" stroke-linejoin="round"/>
<path d="M3.41504 87.5H80.915" stroke="black" stroke-width="1.5" stroke-linecap="round" stroke-linejoin="round"/>
<path d="M15.915 62.5H33.415" stroke="#28A745" stroke-width="1.5" stroke-linecap="round" stroke-linejoin="round"/>
<path d="M42.915 63H47.915" stroke="#28A745" stroke-width="1.5" stroke-linecap="round" stroke-linejoin="round"/>
<path d="M14.915 73.5H24.915" stroke="#28A745" stroke-width="1.5" stroke-linecap="round" stroke-linejoin="round"/>
<path d="M28.4934 21H18.3366C16.9992 21 15.915 22.2211 15.915 23.7272V28.2728C15.915 29.7789 16.9992 31 18.3366 31H28.4934C29.8309 31 30.915 29.7789 30.915 28.2728V23.7272C30.915 22.2211 29.8309 21 28.4934 21Z" stroke="#28A745" stroke-width="1.5" stroke-linecap="round" stroke-linejoin="round"/>
</svg>
