<svg width="47" height="48" viewBox="0 0 47 48" fill="none" xmlns="http://www.w3.org/2000/svg">
<g clip-path="url(#clip0_214_2752)">
<path d="M8.89387 11.9185C9.59639 12.3511 9.59639 12.3511 9.82224 12.6899C9.8624 12.9538 9.8624 12.9538 9.82224 13.2406C9.59835 13.5435 9.4689 13.6816 9.0936 13.7455C8.77498 13.6935 8.54627 13.573 8.26169 13.4242C7.42732 14.851 6.59817 16.2806 5.77318 17.7128C5.48605 18.2111 5.19856 18.7093 4.91111 19.2074C4.79672 19.4057 4.68233 19.604 4.56795 19.8023C4.33498 20.2061 4.10189 20.6099 3.86871 21.0136C3.15726 22.2456 2.44858 23.4792 1.74412 24.7152C2.99633 25.4536 4.25173 26.1865 5.50779 26.9184C5.53208 26.8534 5.55638 26.7885 5.58141 26.7216C5.69709 26.4458 5.8331 26.1955 5.98219 25.9362C6.04077 25.834 6.09935 25.7318 6.15971 25.6265C6.22352 25.5159 6.28734 25.4053 6.35117 25.2947C6.41747 25.1793 6.48374 25.0639 6.54998 24.9485C6.72019 24.6522 6.89077 24.3561 7.06149 24.0601C7.21282 23.7977 7.36395 23.5352 7.51513 23.2727C7.79856 22.7808 8.08243 22.2892 8.36644 21.7977C8.65305 21.3016 8.93928 20.8053 9.22556 20.309C9.33935 20.1118 9.45314 19.9146 9.56693 19.7173C9.775 19.3567 9.98303 18.996 10.191 18.6353C10.2836 18.4746 10.3763 18.3139 10.4689 18.1532C10.5843 17.9531 10.6997 17.753 10.815 17.5529C11.1858 16.9099 11.559 16.2682 11.9336 15.6274C11.7641 15.4494 11.6249 15.3318 11.4115 15.2028C11.1724 14.9572 11.1614 14.895 11.1476 14.566C11.1647 14.299 11.1777 14.1882 11.3369 13.9693C11.6842 13.839 11.9427 13.7945 12.3008 13.8832C13.4964 14.4683 13.4964 14.4683 13.7695 15.0766C13.7495 15.4559 13.6902 15.7595 13.4941 16.0863C13.5558 16.1083 13.6174 16.1304 13.6809 16.153C13.9539 16.2703 14.1962 16.4091 14.4505 16.5613C15.3014 17.0673 16.2417 17.6038 17.2578 17.3715C17.5318 17.2454 17.5318 17.2454 17.8061 17.08C17.9104 17.0196 18.0148 16.9592 18.1224 16.897C18.177 16.8649 18.2316 16.8327 18.2878 16.7997C18.4588 16.6991 18.6304 16.5996 18.8022 16.5004C19.3341 16.1928 19.864 15.8816 20.3936 15.57C20.479 15.5202 20.5643 15.4704 20.6523 15.4191C20.8087 15.3278 20.9647 15.2357 21.1201 15.1426C22.3155 14.4457 23.5978 14.2852 24.9429 14.6154C25.4892 14.7858 26.0208 14.9564 26.3457 15.4438C26.3955 15.7647 26.4077 16.0714 26.2424 16.356C25.9996 16.4936 25.7975 16.5208 25.5195 16.5453C25.2603 16.4571 25.2603 16.4571 24.9974 16.3273C24.0514 15.9097 23.2792 15.9435 22.3066 16.2699C21.9204 16.4525 21.5583 16.6676 21.1936 16.8896C21.0378 16.9819 20.8821 17.0742 20.7262 17.1664C20.5652 17.2619 20.4045 17.358 20.2438 17.4542C19.7187 17.7676 19.1878 18.0709 18.6577 18.3755C18.4605 18.4893 18.2632 18.6031 18.066 18.7169C17.461 19.0657 16.855 19.4128 16.248 19.7582C16.3382 20.2131 16.5666 20.5332 16.8906 20.8598C17.6043 21.3119 18.253 21.4883 19.0937 21.4106C19.6437 21.2672 20.1177 20.9841 20.6084 20.7049C21.1851 20.3897 21.6616 20.2254 22.317 20.3441C22.7733 20.4841 23.063 20.7567 23.4085 21.0753C23.8544 21.4443 24.3707 21.5581 24.9418 21.5335C25.6087 21.4347 26.0637 21.1225 26.4837 20.6055C26.666 20.3338 26.7905 20.0538 26.9036 19.7475C26.9883 19.5746 26.9883 19.5746 27.2636 19.391C27.6159 19.3526 27.8247 19.3409 28.13 19.5287C28.4101 19.977 28.2819 20.4618 28.1816 20.9516C28.247 20.9889 28.3123 21.0261 28.3797 21.0645C29.8698 21.9147 31.3578 22.7683 32.8433 23.6266C33.4377 23.97 34.0323 24.3129 34.627 24.6559C35.089 24.9224 35.551 25.189 36.0128 25.4559C36.1756 25.55 36.3384 25.644 36.5012 25.7381C36.7049 25.8558 36.9086 25.9735 37.1123 26.0913C37.6515 26.4027 38.193 26.7094 38.7383 27.0102C38.9806 26.8587 39.2229 26.7072 39.4726 26.5512C38.9562 25.4484 38.3375 24.4092 37.7198 23.361C37.4312 22.8692 37.1467 22.3751 36.8622 21.881C36.8057 21.7831 36.7493 21.6853 36.6912 21.5844C36.4224 21.1183 36.154 20.652 35.8858 20.1855C35.7919 20.0221 35.6979 19.8588 35.6039 19.6954C35.4861 19.4908 35.3684 19.286 35.2509 19.0813C35.0148 18.6712 34.7773 18.2641 34.5221 17.8656C34.332 17.5551 34.332 17.5551 34.332 17.3715C34.2761 17.4034 34.2202 17.4353 34.1626 17.4682C33.9042 17.615 33.6448 17.76 33.3854 17.9051C33.2975 17.9553 33.2096 18.0055 33.1191 18.0573C31.9642 18.6989 30.7981 18.9468 29.494 18.6785C28.8512 18.4929 28.2886 18.3123 27.9062 17.7387C27.8641 17.4089 27.8621 17.2506 28.0554 16.9756C28.3352 16.7768 28.4785 16.7289 28.8242 16.7289C29.0425 16.8071 29.246 16.8996 29.4531 17.0036C30.118 17.3155 30.9274 17.2806 31.6125 17.0502C32.2458 16.7943 32.83 16.4376 33.414 16.0863C33.3684 15.9617 33.3684 15.9617 33.3219 15.8346C33.1962 15.4237 33.2212 15.2187 33.3222 14.8012C33.6234 14.523 33.9548 14.3227 34.3108 14.122C34.4658 14.0342 34.4658 14.0342 34.6238 13.9446C34.735 13.882 34.8462 13.8195 34.9574 13.757C35.1888 13.6263 35.42 13.4954 35.6512 13.3643C35.7096 13.3313 35.768 13.2982 35.8282 13.2642C36.2187 13.0425 36.6058 12.816 36.9916 12.5862C37.1405 12.4978 37.1405 12.4978 37.2923 12.4076C37.4797 12.296 37.6667 12.1837 37.8532 12.0706C37.9377 12.0204 38.0222 11.9703 38.1093 11.9185C38.1824 11.8745 38.2554 11.8305 38.3307 11.7852C38.6921 11.6156 38.991 11.5584 39.3783 11.6596C39.8009 11.9699 39.9978 12.379 40.2472 12.8333C40.361 13.0345 40.4747 13.2356 40.5885 13.4368C40.6759 13.593 40.6759 13.593 40.765 13.7525C41.0465 14.254 41.3358 14.751 41.6241 15.2487C41.7398 15.4492 41.8553 15.6498 41.9709 15.8504C42.3159 16.4494 42.6613 17.0481 43.0068 17.6469C43.1216 17.8458 43.2363 18.0447 43.351 18.2436C43.4078 18.342 43.4646 18.4405 43.5232 18.5419C44.0395 19.4369 44.0395 19.4369 44.2118 19.7356C44.3259 19.9333 44.44 20.131 44.5541 20.3287C44.8201 20.7897 45.086 21.2508 45.3516 21.7121C45.4449 21.8742 45.5383 22.0363 45.6316 22.1984C45.7482 22.4008 45.8648 22.6033 45.9812 22.8058C46.0345 22.8982 46.0877 22.9906 46.1426 23.0858C46.2191 23.2188 46.2191 23.2188 46.2971 23.3544C46.4897 23.6827 46.6913 24.0053 46.8957 24.3264C47.0374 24.6052 47.0624 24.8552 47.0642 25.1645C46.9062 25.6401 46.4276 25.9053 46.0114 26.1377C45.9081 26.196 45.8048 26.2543 45.6984 26.3143C45.5872 26.3761 45.476 26.4378 45.3648 26.4995C45.1333 26.6293 44.902 26.7595 44.6706 26.8897C44.583 26.9388 44.583 26.9388 44.4936 26.989C44.1035 27.2085 43.7178 27.4342 43.3338 27.6642C43.235 27.7232 43.1362 27.7822 43.0344 27.843C42.8481 27.9546 42.6623 28.067 42.4771 28.1802C42.0207 28.4521 41.6621 28.6534 41.125 28.6625C40.7432 28.5027 40.54 28.2587 40.2988 27.9281C40.1625 28.019 40.1625 28.019 40.0234 28.1117C40.0916 28.231 40.0916 28.231 40.1611 28.3527C40.4035 28.9427 40.4424 29.6274 40.2314 30.2328C39.8316 31.1679 39.3097 32.2392 38.3596 32.7055C38.08 32.815 37.8465 32.8852 37.5449 32.8852C37.5525 32.9893 37.56 33.0934 37.5678 33.2007C37.563 34.1242 36.8788 35.145 36.2999 35.8227C35.6446 36.3603 35.0973 36.592 34.2402 36.557C34.2299 36.6063 34.2196 36.6555 34.209 36.7062C33.9447 37.7564 33.3559 39.0051 32.4043 39.5863C31.8282 39.9065 31.1813 39.9768 30.5432 39.8058C30.236 39.6938 29.9379 39.5585 29.6504 39.4027C29.6422 39.4946 29.634 39.5864 29.6256 39.681C29.5686 40.0768 29.413 40.3873 29.2201 40.7338C29.1867 40.7942 29.1534 40.8547 29.1191 40.917C28.6801 41.6964 28.2435 42.2481 27.3554 42.5238C26.013 42.7096 25.0742 42.0232 23.967 41.3534C23.8767 41.3006 23.7863 41.2479 23.6933 41.1935C23.612 41.1449 23.5307 41.0963 23.447 41.0462C23.2292 40.9385 23.2292 40.9385 23.0246 41.0302C22.8474 41.1507 22.8474 41.1507 22.6516 41.3151C22.3366 41.5627 22.0026 41.7509 21.6526 41.9444C21.5541 41.9998 21.5541 41.9998 21.4536 42.0564C20.7013 42.4762 19.8988 42.5767 19.0493 42.379C18.2604 42.0319 17.7961 41.2611 17.4012 40.533C17.3698 40.4752 17.3384 40.4174 17.306 40.3579C17.1262 40.0102 17.0248 39.6999 16.9824 39.3109C16.9048 39.3412 16.8271 39.3715 16.7472 39.4027C16.0856 39.5952 15.4938 39.4877 14.8711 39.2191C14.2912 38.8936 13.9761 38.3574 13.6433 37.802C13.5842 37.7035 13.5842 37.7035 13.5239 37.603C13.2759 37.1689 13.1356 36.7715 13.0351 36.2816C12.9575 36.2793 12.8799 36.2769 12.7999 36.2745C11.9036 36.2297 11.3588 36.1131 10.7345 35.4555C10.1226 34.7253 9.50875 33.8357 9.53538 32.8507C9.53703 32.7705 9.53869 32.6903 9.5404 32.6076C9.54253 32.5477 9.54466 32.4879 9.54685 32.4262C9.45218 32.4186 9.35752 32.411 9.25998 32.4032C8.59235 32.274 8.18343 31.8614 7.80271 31.3246C7.66918 31.1098 7.53904 30.8951 7.41257 30.6763C7.38123 30.6222 7.34989 30.5681 7.31759 30.5123C6.8617 29.6997 6.79127 29.0149 6.97654 28.1117C6.85537 28.0814 6.73419 28.0511 6.60935 28.0199C6.54687 28.1089 6.48439 28.1979 6.42002 28.2896C6.23366 28.5065 6.14405 28.5733 5.86924 28.6855C4.98488 28.6293 4.11307 27.9536 3.36204 27.5093C3.2686 27.4543 3.17516 27.3993 3.07889 27.3426C2.88466 27.2283 2.6905 27.1138 2.49642 26.9991C2.2043 26.8273 1.91124 26.6571 1.6179 26.4874C1.43429 26.3805 1.2507 26.2737 1.06711 26.1668C0.937829 26.0924 0.937829 26.0924 0.805932 26.0165C0.726694 25.9701 0.647456 25.9238 0.565817 25.876C0.496194 25.8356 0.42657 25.7952 0.354837 25.7536C0.183569 25.6332 0.183569 25.6332 -2.44687e-05 25.3578C-0.107402 24.567 0.194124 24.0966 0.602393 23.4358C0.697169 23.2773 0.791944 23.1187 0.886545 22.96C0.984571 22.7961 1.08334 22.6326 1.18222 22.4692C1.48671 21.9643 1.77807 21.4517 2.07114 20.9401C2.50832 20.1812 2.9485 19.4241 3.39072 18.6681C3.85661 17.8715 4.31649 17.0717 4.77341 16.2699C5.24774 15.4377 5.72501 14.6073 6.20774 13.7799C6.25874 13.6925 6.30974 13.605 6.36229 13.5149C6.4585 13.3504 6.55496 13.186 6.65171 13.0217C6.74929 12.8559 6.84615 12.6896 6.94243 12.5229C7.01469 12.3993 7.01469 12.3993 7.08842 12.2732C7.13119 12.1994 7.17397 12.1256 7.21804 12.0496C7.66947 11.3819 8.29663 11.588 8.89387 11.9185ZM38.6465 13.3324C38.4332 13.4286 38.4332 13.4286 38.195 13.5755C38.1031 13.6297 38.0113 13.6838 37.9166 13.7395C37.8185 13.7983 37.7205 13.8571 37.6195 13.9176C37.5203 13.9764 37.4211 14.0352 37.319 14.0958C37.1196 14.2141 36.9204 14.3327 36.7214 14.4517C36.4797 14.5959 36.2373 14.7387 35.9944 14.8808C35.8705 14.9537 35.7467 15.0266 35.6229 15.0995C35.5666 15.1323 35.5103 15.1652 35.4523 15.199C35.1632 15.363 35.1632 15.363 34.9746 15.6274C35.0796 15.8599 35.0796 15.8599 35.2385 16.1236C35.298 16.2267 35.3574 16.3298 35.4187 16.436C35.4848 16.5489 35.551 16.6619 35.6172 16.7748C35.6848 16.8914 35.7523 17.0081 35.8197 17.1247C35.959 17.3653 36.0986 17.6057 36.2385 17.8458C36.4836 18.2665 36.7265 18.6885 36.9694 19.1105C37.139 19.405 37.3089 19.6992 37.4789 19.9934C37.7087 20.3911 37.9382 20.7889 38.1674 21.1868C38.7825 22.2546 39.4001 23.3208 40.0217 24.3849C40.5142 25.228 41.0036 26.0729 41.4922 26.9184C41.8602 26.7821 42.1894 26.6076 42.5292 26.4117C42.5836 26.3804 42.6381 26.3492 42.6942 26.317C42.8674 26.2175 43.0404 26.1176 43.2134 26.0176C43.4404 25.8869 43.6675 25.7563 43.8947 25.6257C43.949 25.5944 44.0034 25.5631 44.0594 25.5308C44.4864 25.2852 44.9158 25.0441 45.3476 24.807C44.9538 23.9841 44.5219 23.196 44.0549 22.4128C43.7404 21.8848 43.4339 21.3522 43.1273 20.8196C43.0688 20.7181 43.0103 20.6165 42.95 20.5119C42.8298 20.3033 42.7097 20.0948 42.5896 19.8863C42.2437 19.2858 41.8973 18.6856 41.5509 18.0853C41.2567 17.5757 40.9629 17.0658 40.6696 16.5557C39.9245 15.2594 39.9245 15.2594 39.1686 13.9693C39.136 13.9135 39.1034 13.8578 39.0698 13.8003C38.9076 13.5168 38.9076 13.5168 38.6465 13.3324ZM12.6679 17.3715C12.6334 17.4313 12.5989 17.4911 12.5634 17.5527C12.0227 18.4899 11.482 19.427 10.9414 20.3642C10.8573 20.5099 10.8573 20.5099 10.7716 20.6586C10.6581 20.8552 10.5446 21.0519 10.4311 21.2485C10.1415 21.7503 9.85221 22.2523 9.56334 22.7545C8.83208 24.0252 8.09293 25.2909 7.34373 26.5512C7.46403 26.6457 7.58688 26.737 7.71091 26.8266C7.79669 26.8889 7.79669 26.8889 7.8842 26.9525C8.08967 27.0354 8.08967 27.0354 8.32723 26.9104C8.46732 26.826 8.46731 26.826 8.61024 26.7398C8.71342 26.6787 8.81661 26.6177 8.92292 26.5548C9.03148 26.4886 9.14002 26.4224 9.24851 26.3561C9.46004 26.2292 9.672 26.103 9.88392 25.9767C10.0343 25.887 10.0343 25.887 10.1877 25.7955C11.0885 25.2678 11.0885 25.2678 11.5492 25.2603C11.8418 25.3578 11.8418 25.3578 12.0254 25.5586C12.1394 25.8794 12.1188 26.0416 12.0254 26.3676C11.8302 26.5379 11.8302 26.5379 11.5732 26.6799C11.4791 26.7332 11.3849 26.7865 11.2879 26.8415C11.1886 26.8952 11.0893 26.949 10.9869 27.0044C10.8915 27.0579 10.796 27.1113 10.6977 27.1663C10.5045 27.2745 10.311 27.3821 10.1171 27.4892C9.81547 27.6565 9.5151 27.8257 9.21588 27.9973C9.12734 28.0479 9.03881 28.0985 8.94759 28.1507C8.62467 28.3565 8.47652 28.4825 8.34775 28.8461C8.29041 29.3655 8.64112 29.8016 8.90427 30.2231C8.93811 30.2816 8.97196 30.3402 9.00683 30.4006C9.19889 30.7188 9.38319 30.9119 9.73044 31.0492C10.4031 31.0456 10.9069 30.682 11.4688 30.3435C11.5649 30.2873 11.6609 30.231 11.7598 30.173C12.8913 29.548 12.8913 29.548 13.6777 28.5707C13.7373 28.117 13.7008 27.6969 13.5802 27.2569C13.498 26.9336 13.4882 26.772 13.5859 26.4594C13.8638 26.3982 14.127 26.3571 14.4121 26.3676C14.8074 26.6452 14.9329 26.9204 15.0547 27.3774C15.0695 27.6242 15.0763 27.8598 15.0719 28.106C15.0718 28.1993 15.0718 28.1993 15.0717 28.2944C15.0682 28.7015 15.0281 29.0881 14.9629 29.4887C15.0172 29.5165 15.0715 29.5443 15.1275 29.5729C15.9481 30.0081 16.4514 30.5531 16.8218 31.4049C16.9173 31.8032 16.9518 32.2019 16.9824 32.6098C17.0857 32.6133 17.0857 32.6133 17.1911 32.6169C18.1278 32.6689 18.8778 32.8693 19.5749 33.5213C20.0371 34.0656 20.2808 34.7229 20.3387 35.4268C20.3464 35.518 20.3541 35.6093 20.362 35.7033C20.3676 35.773 20.3732 35.8427 20.3789 35.9145C20.4544 35.9168 20.5299 35.9192 20.6077 35.9216C21.5492 35.9695 22.3666 36.1274 23.041 36.8324C23.5516 37.5431 23.8046 38.1297 23.7352 39.0011C23.7239 39.2488 23.7239 39.2488 23.7754 39.4945C23.9252 39.654 23.9252 39.654 24.1329 39.7671C24.2081 39.8129 24.2833 39.8588 24.3608 39.9061C24.4403 39.952 24.5197 39.998 24.6015 40.0453C24.7153 40.1137 24.7153 40.1137 24.8313 40.1835C25.0627 40.3208 25.2963 40.4532 25.531 40.5846C25.6094 40.6303 25.6879 40.676 25.7687 40.723C26.2201 40.9754 26.5481 41.1303 27.0801 41.0551C27.6516 40.655 28.0686 39.8756 28.2634 39.2188C28.2765 38.8592 28.1989 38.6905 27.998 38.393C27.7429 38.1895 27.7429 38.1895 27.4415 38.0258C27.389 37.9951 27.3365 37.9645 27.2824 37.9329C27.1238 37.8404 26.9642 37.7495 26.8047 37.6586C26.6284 37.5539 26.4525 37.4487 26.2768 37.343C26.1668 37.2779 26.1668 37.2779 26.0545 37.2115C25.8867 37.1078 25.8867 37.1078 25.7949 37.016C25.7526 36.3612 25.7526 36.3612 25.8924 36.0981C26.1721 35.9537 26.4102 35.9488 26.7129 36.0063C27.0853 36.1687 27.4303 36.3737 27.78 36.58C27.9307 36.6662 27.9307 36.6662 28.0844 36.7541C28.5803 37.0385 29.072 37.3293 29.5611 37.6253C29.6899 37.702 29.6899 37.702 29.8214 37.7802C29.9826 37.8766 30.1429 37.9746 30.302 38.0745C30.6549 38.2849 30.9206 38.4303 31.3386 38.3962C31.6732 38.3002 31.7789 38.2646 31.9625 37.9799C32.0057 37.9136 32.0489 37.8474 32.0934 37.7791C32.1354 37.709 32.1774 37.639 32.2207 37.5668C32.2655 37.4986 32.3104 37.4305 32.3566 37.3603C32.6481 36.8899 32.7718 36.5589 32.6797 36.0063C32.2889 35.5148 31.7446 35.2496 31.2052 34.9449C31.0079 34.8316 30.8107 34.7183 30.6135 34.6049C30.5143 34.5481 30.4151 34.4912 30.3129 34.4326C29.8616 34.1721 29.4143 33.9051 28.9676 33.6368C28.8895 33.59 28.8113 33.5433 28.7308 33.4951C28.6238 33.4308 28.6238 33.4308 28.5147 33.3653C28.4211 33.3091 28.4211 33.3091 28.3256 33.2517C28.1816 33.1606 28.1816 33.1606 28.0898 33.0688C28.0476 32.4139 28.0476 32.4139 28.1874 32.1508C28.4664 32.0068 28.7057 32.0025 29.0078 32.059C29.3746 32.2173 29.7138 32.4185 30.0577 32.6212C30.1576 32.6786 30.2575 32.736 30.3604 32.7951C30.6754 32.9766 30.9892 33.1601 31.3027 33.3441C31.6037 33.5201 31.9048 33.6959 32.2058 33.8718C32.3902 33.9797 32.5743 34.0881 32.7582 34.1971C33.6873 34.8026 33.6873 34.8026 34.7221 35.1112C35.3919 34.8068 35.8125 34.0013 36.0761 33.3441C36.1267 32.9092 36.0526 32.6876 35.8008 32.3344C35.5879 32.1706 35.5879 32.1706 35.3357 32.0368C35.241 31.9831 35.1464 31.9295 35.0489 31.8743C34.8957 31.7896 34.8957 31.7896 34.7394 31.7033C34.5787 31.6126 34.418 31.5218 34.2574 31.431C34.0898 31.3364 33.922 31.2424 33.7541 31.1484C33.2042 30.8402 32.658 30.5258 32.1117 30.2116C31.9631 30.1269 31.9631 30.1269 31.8115 30.0406C30.4283 29.2472 30.4283 29.2472 30.2872 28.8404C30.2931 28.5646 30.319 28.4274 30.4765 28.2035C30.7565 28.0636 31.0007 28.0579 31.3027 28.1117C31.6391 28.2551 31.9474 28.4405 32.2608 28.6281C32.3525 28.6814 32.4441 28.7348 32.5386 28.7897C32.8311 28.9603 33.1226 29.1327 33.414 29.3051C33.6061 29.4174 33.7983 29.5295 33.9906 29.6414C34.0844 29.6961 34.1782 29.7507 34.2749 29.807C34.3676 29.861 34.4603 29.915 34.5558 29.9706C34.739 30.0774 34.9222 30.1843 35.1055 30.2912C35.192 30.3417 35.2786 30.3922 35.3678 30.4442C35.6 30.5802 35.8315 30.7174 36.0629 30.8549C36.1935 30.9312 36.3241 31.0075 36.4548 31.0836C36.5118 31.1181 36.5687 31.1526 36.6274 31.1881C36.9781 31.3904 37.2331 31.4651 37.6367 31.4164C38.2591 31.0588 38.5575 30.4081 38.8301 29.7641C38.9058 29.4636 38.8971 29.3427 38.8301 29.0297C38.4416 28.55 37.9207 28.2862 37.39 27.9855C37.293 27.9298 37.196 27.874 37.0961 27.8166C36.8907 27.6986 36.6851 27.5809 36.4793 27.4635C36.0793 27.2349 35.6804 27.0043 35.2816 26.7736C34.8821 26.5428 34.4823 26.3125 34.0825 26.0822C33.5842 25.7951 33.086 25.5076 32.5879 25.2201C31.9837 24.8715 31.3795 24.523 30.7752 24.1745C30.6733 24.1157 30.5714 24.0569 30.4664 23.9963C30.265 23.8802 30.0636 23.7643 29.8621 23.6487C29.3995 23.3828 28.9391 23.1145 28.4832 22.8374C28.4027 22.789 28.3222 22.7406 28.2393 22.6908C28.0903 22.601 27.942 22.51 27.7945 22.4177C27.6968 22.3592 27.6968 22.3592 27.5971 22.2995C27.5132 22.2477 27.5132 22.2477 27.4276 22.1949C27.2573 22.1245 27.2573 22.1245 27.0711 22.2201C26.9847 22.2738 26.9847 22.2738 26.8965 22.3285C26.8335 22.3654 26.7706 22.4024 26.7057 22.4404C26.6399 22.4792 26.5741 22.518 26.5063 22.558C25.631 23.0397 24.6349 23.1256 23.6664 22.8678C22.9831 22.633 22.4025 22.2325 21.8476 21.7777C21.7411 21.831 21.7411 21.831 21.6325 21.8853C21.4342 21.9845 21.2357 22.0834 21.0372 22.1822C20.8691 22.2667 20.7014 22.3522 20.5352 22.4404C19.5362 22.9679 18.4611 23.0386 17.3725 22.7301C16.1478 22.304 15.3822 21.6184 14.789 20.4686C14.6384 20.0956 14.5979 19.7841 14.6875 19.391C14.7898 19.1531 14.9086 18.9653 15.0547 18.7484C15.085 18.6879 15.1152 18.6273 15.1465 18.5649C15.05 18.5172 14.9536 18.4695 14.8542 18.4203C13.5869 17.7914 13.5869 17.7914 12.9986 17.4461C12.8517 17.3576 12.8517 17.3576 12.6679 17.3715ZM12.5761 31.3246C12.4629 31.3864 12.3493 31.4477 12.2355 31.5086C12.1195 31.5715 12.0036 31.6345 11.8877 31.6975C11.8051 31.741 11.8051 31.741 11.7209 31.7854C11.3719 31.9794 11.17 32.147 11.0156 32.518C10.9446 33.0007 11.1158 33.3204 11.3598 33.7228C11.3918 33.7785 11.4237 33.8343 11.4567 33.8917C11.8038 34.4846 11.8038 34.4846 12.3836 34.8039C12.9122 34.8206 13.321 34.5171 13.7695 34.2621C13.8221 34.2325 13.8748 34.2029 13.929 34.1724C14.9274 33.6297 14.9274 33.6297 15.5136 32.7016C15.5625 32.1248 15.4913 31.7084 15.1465 31.2328C14.723 30.8958 14.3501 30.7279 13.8018 30.7369C13.3453 30.815 12.9679 31.0901 12.5761 31.3246ZM15.9726 34.6293C15.8244 34.7118 15.8244 34.7118 15.6732 34.796C14.9452 35.1807 14.9452 35.1807 14.5143 35.8514C14.4997 36.1976 14.637 36.4438 14.7965 36.7406C14.8245 36.796 14.8525 36.8514 14.8813 36.9084C15.0978 37.326 15.3172 37.7284 15.7317 37.9684C16.3946 38.1263 16.9035 37.7431 17.4471 37.4119C17.5284 37.3644 17.6096 37.3169 17.6933 37.2679C18.2387 36.9394 18.7006 36.6347 18.9101 36.0063C18.9813 35.4044 18.8989 35.0281 18.5429 34.5375C18.1271 34.1521 17.7764 34.034 17.2194 34.0412C16.7498 34.1151 16.3723 34.3848 15.9726 34.6293ZM19.2372 37.9742C19.1524 38.0269 19.1524 38.0269 19.0659 38.0808C18.6606 38.3439 18.6606 38.3439 18.4511 38.7602C18.39 39.2426 18.5477 39.561 18.7896 39.965C18.8208 40.0207 18.852 40.0765 18.8841 40.1339C19.0914 40.4896 19.2859 40.757 19.6445 40.9633C20.2422 41.0425 20.5869 40.9044 21.0846 40.5846C21.1723 40.5324 21.1723 40.5324 21.2619 40.4792C21.7327 40.1877 22.0559 39.8537 22.341 39.3741C22.4425 38.9377 22.4125 38.5215 22.217 38.1147C21.912 37.6503 21.5666 37.4671 21.0387 37.3029C20.346 37.2757 19.806 37.6162 19.2372 37.9742Z" fill="black"/>
<path d="M16.8906 7.45743C17.5752 7.93068 17.9103 8.59886 18.302 9.31058C18.3689 9.42963 18.436 9.54862 18.5032 9.66755C18.9529 10.4688 19.1777 11.0236 19.0938 11.9555C18.9394 12.4954 18.6419 12.8351 18.1758 13.1488C17.6442 13.4173 17.1628 13.5217 16.574 13.364C15.5886 13.0223 15.1977 12.2321 14.7053 11.3614C14.6122 11.1968 14.5181 11.0329 14.4238 10.869C13.9765 10.086 13.7792 9.56211 13.8613 8.65079C14.0157 8.11085 14.3132 7.77113 14.7793 7.45743C15.5079 7.08942 16.1629 7.09408 16.8906 7.45743ZM15.4907 8.79996C15.3015 9.00739 15.3015 9.00739 15.3484 9.27392C15.4269 9.58872 15.5388 9.8184 15.7023 10.098C15.7587 10.1948 15.8152 10.2916 15.8733 10.3913C15.9326 10.491 15.9919 10.5906 16.053 10.6933C16.1116 10.7943 16.1701 10.8954 16.2305 10.9995C16.5317 11.5449 16.5317 11.5449 16.9824 11.9555C17.2196 11.9478 17.2196 11.9478 17.4414 11.8637C17.6437 11.5603 17.6674 11.481 17.625 11.1293C17.5045 10.861 17.5045 10.861 17.3335 10.5889C17.2726 10.4877 17.2117 10.3865 17.149 10.2822C17.1169 10.2301 17.0849 10.178 17.0518 10.1243C16.9539 9.96486 16.8577 9.80449 16.7617 9.64388C16.4411 9.07959 16.4411 9.07959 15.9727 8.65079C15.692 8.62392 15.692 8.62392 15.4907 8.79996Z" fill="#28A745"/>
<path d="M32.3125 7.54923C32.7655 7.9334 33.0048 8.35826 33.0698 8.952C33.1168 9.90245 32.5999 10.6588 32.1404 11.4621C32.0941 11.5449 32.0478 11.6277 32.0002 11.7131C31.562 12.4819 31.193 13.0677 30.3335 13.3636C29.6791 13.5406 29.1276 13.3831 28.5488 13.057C28.1235 12.6885 27.8681 12.2742 27.7739 11.7149C27.741 10.9477 27.9771 10.3989 28.3537 9.74823C28.4651 9.55475 28.5717 9.359 28.6783 9.16285C29.5473 7.59245 29.5473 7.59245 30.4364 7.23368C31.1471 7.11738 31.6832 7.19573 32.3125 7.54923ZM30.7279 8.81753C30.3684 9.20053 30.1166 9.66375 29.8512 10.1138C29.7964 10.2034 29.7415 10.2931 29.685 10.3854C29.6332 10.4727 29.5815 10.56 29.5281 10.6499C29.481 10.7287 29.434 10.8075 29.3855 10.8887C29.2648 11.1725 29.2534 11.3745 29.2832 11.6801C29.428 11.8709 29.428 11.8709 29.6504 11.9555C29.9053 11.933 30.0577 11.9148 30.2424 11.7321C30.3846 11.502 30.5241 11.2713 30.6602 11.0375C30.6983 10.9741 30.7365 10.9108 30.7758 10.8455C30.9056 10.6295 31.0327 10.412 31.1593 10.1941C31.2017 10.1233 31.2441 10.0524 31.2877 9.97936C31.4735 9.65174 31.5787 9.45331 31.5756 9.07069C31.5019 8.80614 31.5019 8.80614 31.2109 8.65079C30.927 8.62205 30.927 8.62205 30.7279 8.81753Z" fill="#28A745"/>
<path d="M24.3548 5.76493C24.8803 6.06918 25.242 6.51439 25.4277 7.09024C25.4561 7.35761 25.4578 7.62369 25.4585 7.89239C25.4592 7.96946 25.4598 8.04654 25.4604 8.12594C25.4613 8.28866 25.4618 8.45138 25.4617 8.6141C25.4621 8.86132 25.4655 9.10839 25.4689 9.35558C25.4695 9.51425 25.4698 9.67293 25.47 9.8316C25.4713 9.90468 25.4727 9.97776 25.474 10.0531C25.4692 10.656 25.2946 11.1279 24.9035 11.5904C24.3821 12.0139 23.9277 12.1825 23.2518 12.1609C22.5864 12.0919 22.2237 11.8315 21.7967 11.3251C21.4713 10.8449 21.4501 10.4142 21.4464 9.85132C21.4455 9.77243 21.4447 9.69354 21.4439 9.61225C21.4425 9.4456 21.4417 9.27894 21.4414 9.11228C21.4403 8.8594 21.4358 8.60672 21.4311 8.35388C21.4159 6.72009 21.4159 6.72009 21.9394 6.17227C22.6406 5.62549 23.5058 5.3814 24.3548 5.76493ZM23.075 7.1876C22.8854 7.45589 22.9081 7.72861 22.9094 8.0455C22.9089 8.1117 22.9084 8.1779 22.9079 8.2461C22.9073 8.38591 22.9075 8.52573 22.9082 8.66554C22.909 8.87956 22.9064 9.09335 22.9035 9.30735C22.9033 9.44326 22.9034 9.57916 22.9036 9.71506C22.9026 9.77904 22.9016 9.84301 22.9005 9.90893C22.9048 10.2053 22.9129 10.3566 23.1206 10.5762C23.3786 10.7002 23.508 10.67 23.7754 10.5785C24.0004 10.3535 23.9823 10.2266 23.9868 9.91933C23.9867 9.85488 23.9867 9.79043 23.9866 9.72403C23.987 9.6577 23.9874 9.59137 23.9878 9.52304C23.9883 9.38268 23.9883 9.24231 23.9879 9.10195C23.9876 8.88716 23.9898 8.67248 23.9921 8.45769C23.9923 8.32137 23.9924 8.18505 23.9923 8.04873C23.9931 7.98447 23.994 7.9202 23.9949 7.85399C23.9923 7.58786 23.9893 7.40872 23.8335 7.1874C23.5736 7.01903 23.3347 7.01858 23.075 7.1876Z" fill="#28A745"/>
<path d="M37.8318 15.1569C38.1041 15.2125 38.1766 15.249 38.3768 15.4552C38.4892 15.7997 38.4677 16.0138 38.3711 16.3617C38.154 16.6206 38.0197 16.6351 37.6826 16.6773C37.3613 16.6371 37.3613 16.6371 37.1376 16.4937C36.9363 16.1797 36.9363 15.9937 36.9941 15.6274C37.2314 15.2715 37.4072 15.1303 37.8318 15.1569Z" fill="black"/>
<path d="M9.73049 15.2602C9.98933 15.4773 10.0039 15.6116 10.046 15.9486C10.0059 16.2699 10.0059 16.2699 9.86245 16.4937C9.54844 16.695 9.36243 16.6949 8.99611 16.6371C8.72072 16.4535 8.72072 16.4535 8.53713 16.1781C8.50273 15.9103 8.53113 15.6953 8.62893 15.4438C8.97614 15.1067 9.27973 15.1349 9.73049 15.2602Z" fill="black"/>
</g>
<defs>
<clipPath id="clip0_214_2752">
<rect width="47" height="47" fill="white" transform="translate(0 0.572662)"/>
</clipPath>
</defs>
</svg>
