<svg width="80" height="80" viewBox="0 0 80 80" fill="none" xmlns="http://www.w3.org/2000/svg">
<g clip-path="url(#clip0_20_4200)">
<path d="M57.9976 -0.0585768C58.1417 -0.0583251 58.2859 -0.0580733 58.4344 -0.0578139C59.6269 -0.0365281 60.6137 0.154903 61.7183 0.625017C61.8341 0.671947 61.9499 0.718877 62.0692 0.767229C64.3237 1.7824 65.802 3.70017 66.7183 5.93752C67.3686 7.86303 67.3643 9.74823 66.8831 11.6998C66.8495 11.8383 66.816 11.9767 66.7814 12.1194C66.4489 13.4654 66.0794 14.8012 65.7087 16.1371C65.6623 16.3045 65.6623 16.3045 65.615 16.4753C65.3249 17.5206 65.0342 18.5657 64.7402 19.6098C64.5776 20.1876 64.4168 20.7658 64.2573 21.3445C64.1968 21.5624 64.1356 21.7801 64.0737 21.9976C63.9878 22.2997 63.9045 22.6024 63.8213 22.9053C63.7494 23.1621 63.7494 23.1621 63.676 23.4241C63.5139 24.3687 63.8357 25.1207 64.2213 25.9686C64.2682 26.0742 64.315 26.1798 64.3633 26.2886C64.5125 26.6245 64.6631 26.9598 64.814 27.2949C64.9625 27.6264 65.1108 27.9581 65.2583 28.2901C65.3543 28.5059 65.4511 28.7214 65.5487 28.9365C65.8272 29.5594 66.036 30.1714 66.2214 30.8295C66.3861 31.297 66.4679 31.5029 66.8891 31.7697C67.303 31.9159 67.7031 32.0084 68.1343 32.0899C68.4319 32.1601 68.7294 32.2313 69.0266 32.3035C69.1686 32.3363 69.3105 32.369 69.4568 32.4028C71.1467 32.8278 73.2225 33.9204 74.2671 35.332C74.5308 35.7813 74.5308 35.7813 74.5308 36.0938C74.7044 36.0847 74.878 36.0756 75.0569 36.0663C76.4248 36.0158 77.6281 35.9726 78.7495 36.875C79.8022 37.9696 80.0462 38.963 80.0424 40.443C80.0432 40.5989 80.044 40.7548 80.0448 40.9154C80.0472 41.4384 80.0473 41.9613 80.0474 42.4843C80.0486 42.859 80.0499 43.2337 80.0513 43.6085C80.0548 44.627 80.0561 45.6456 80.0569 46.6641C80.0574 47.3005 80.0585 47.937 80.0596 48.5734C80.0626 50.3367 80.0652 52.1 80.0657 53.8632C80.0657 53.976 80.0657 54.0888 80.0657 54.205C80.0658 54.4337 80.0659 54.6623 80.0659 54.891C80.0659 55.0045 80.066 55.118 80.066 55.2349C80.0661 55.4053 80.066 55.4053 80.0661 55.5792C80.0666 57.4196 80.0709 59.2599 80.0767 61.1003C80.0827 62.9913 80.0857 64.8823 80.0857 66.7734C80.0858 67.8345 80.0871 68.8956 80.0917 69.9567C80.0958 70.9551 80.0961 71.9535 80.0936 72.9519C80.0933 73.3178 80.0944 73.6838 80.0968 74.0498C80.1001 74.5504 80.0984 75.0509 80.0956 75.5516C80.0976 75.6954 80.0997 75.8393 80.1018 75.9875C80.0883 77.042 79.8119 77.873 79.2183 78.75C78.2245 79.6967 77.3042 80.0477 75.9337 80.0407C75.8077 80.0413 75.6817 80.0418 75.5519 80.0425C75.1279 80.0441 74.704 80.0435 74.28 80.0429C73.9737 80.0436 73.6673 80.0444 73.361 80.0453C72.5178 80.0476 71.6746 80.0478 70.8314 80.0477C69.9225 80.048 69.0136 80.05 68.1047 80.0518C66.1168 80.0554 64.1288 80.0566 62.1408 80.0574C60.8998 80.0579 59.6587 80.059 58.4177 80.0601C54.9824 80.0631 51.5472 80.0657 48.1119 80.0662C47.9471 80.0662 47.9471 80.0662 47.7789 80.0662C47.3336 80.0663 46.8883 80.0663 46.443 80.0664C46.1078 80.0664 45.7727 80.0665 45.4375 80.0665C45.2714 80.0665 45.2714 80.0665 45.1019 80.0665C41.6224 80.067 38.1429 80.0705 34.6634 80.0761C30.7545 80.0825 26.8455 80.0862 22.9366 80.0862C20.8668 80.0863 18.7971 80.0877 16.7273 80.0922C14.9649 80.096 13.2026 80.0971 11.4402 80.0948C10.541 80.0937 9.64179 80.0938 8.74255 80.0974C7.91913 80.1006 7.0958 80.1002 6.27238 80.0969C5.9747 80.0964 5.67702 80.0971 5.37935 80.0994C2.24342 80.1213 2.24342 80.1213 1.00129 78.9934C0.0972743 77.9915 -0.0694934 77.0748 -0.0621119 75.7823C-0.0630636 75.6256 -0.0640161 75.469 -0.0649967 75.3076C-0.0675969 74.7829 -0.0668478 74.2583 -0.0660982 73.7337C-0.067245 73.3574 -0.0685866 72.9811 -0.0701084 72.6048C-0.073222 71.6889 -0.0741065 70.7729 -0.0738277 69.857C-0.0736232 69.1121 -0.0742177 68.3673 -0.0753775 67.6224C-0.0757055 67.4077 -0.076037 67.1929 -0.0763645 66.9782C-0.0765276 66.8713 -0.0766877 66.7644 -0.0768557 66.6542C-0.0798081 64.6332 -0.079648 62.6121 -0.0785818 60.5911C-0.0777112 58.7442 -0.0809594 56.8973 -0.0861349 55.0504C-0.0914125 53.1523 -0.09378 51.2542 -0.0930586 49.3561C-0.0927084 48.2912 -0.0935188 47.2262 -0.0974169 46.1613C-0.101053 45.1594 -0.1006 44.1576 -0.0974264 43.1557C-0.0968938 42.7884 -0.0976892 42.4212 -0.099925 42.054C-0.102772 41.5516 -0.10077 41.0495 -0.0975885 40.5471C-0.0995445 40.4027 -0.1015 40.2584 -0.103516 40.1096C-0.0892425 39.054 0.18624 38.2219 0.780765 37.3438C1.89187 36.2854 2.87893 36.047 4.37707 36.0562C4.61542 36.0558 4.61542 36.0558 4.85859 36.0554C5.39169 36.0549 5.92475 36.0566 6.45784 36.0583C6.83972 36.0584 7.2216 36.0583 7.60348 36.0582C8.42598 36.0581 9.24847 36.059 10.071 36.0607C11.2601 36.0633 12.4493 36.0641 13.6385 36.0645C15.5679 36.0652 17.4973 36.0672 19.4267 36.0702C21.3009 36.0731 23.175 36.0753 25.0491 36.0766C25.2225 36.0767 25.2225 36.0767 25.3993 36.0768C25.9789 36.0773 26.5585 36.0777 27.1382 36.078C31.9461 36.0813 36.7541 36.0868 41.562 36.0938C41.609 35.9712 41.656 35.8486 41.7044 35.7223C42.3291 34.2175 44.044 33.4163 45.4683 32.8125C46.8474 32.2883 48.2161 31.8643 49.687 31.7188C49.7062 31.5812 49.7254 31.4436 49.7452 31.3019C49.8376 30.8114 49.9692 30.4104 50.1619 29.9518C50.2264 29.7975 50.2909 29.6433 50.3573 29.4843C50.4261 29.3226 50.495 29.1608 50.5659 28.9942C50.6706 28.7438 50.6706 28.7438 50.7773 28.4884C51.0867 27.7542 51.4006 27.0259 51.7579 26.3135C51.8352 26.1583 51.8352 26.1583 51.9141 26C52.0496 25.7335 52.1898 25.4695 52.3304 25.2057C52.7616 23.8843 52.1221 22.3716 51.7576 21.0775C51.6534 20.7076 51.5506 20.3374 51.4481 19.9671C51.2301 19.1802 51.0104 18.3938 50.7905 17.6074C50.536 16.6968 50.2822 15.7859 50.0299 14.8746C49.9294 14.513 49.8278 14.1517 49.7261 13.7904C48.8391 10.6101 48.4636 7.74245 49.9995 4.68752C50.2842 4.19493 50.5951 3.73569 50.937 3.28127C51.0073 3.18519 51.0776 3.08912 51.15 2.99013C52.7867 0.910824 55.4211 -0.0632771 57.9976 -0.0585768ZM53.9058 4.21877C53.8097 4.30074 53.7136 4.38272 53.6146 4.46718C52.4685 5.51024 51.8221 6.95689 51.6644 8.49386C51.6434 10.0948 51.9476 11.4683 52.3823 12.9981C52.4519 13.2511 52.5211 13.5042 52.5901 13.7574C52.738 14.2985 52.8877 14.8391 53.0386 15.3794C53.2974 16.3071 53.55 17.2364 53.802 18.1659C54.2507 19.8197 54.7025 21.4725 55.1558 23.125C57.0636 23.125 58.9714 23.125 60.937 23.125C61.4217 21.3772 61.4217 21.3772 61.9063 19.6292C62.1043 18.9144 62.3025 18.1996 62.5007 17.4848C62.6609 16.9073 62.821 16.3299 62.981 15.7524C63.0415 15.534 63.102 15.3158 63.1626 15.0975C63.3594 14.3882 63.5549 13.6786 63.7495 12.9688C63.7788 12.8627 63.808 12.7567 63.8382 12.6475C63.9258 12.3294 64.0125 12.0111 64.0991 11.6927C64.15 11.5064 64.201 11.3201 64.2535 11.1281C64.4117 10.4706 64.4707 9.85371 64.4526 9.1797C64.4508 9.06159 64.4489 8.94347 64.4469 8.82177C64.4118 7.82649 64.215 6.98114 63.7495 6.09377C63.6851 5.9709 63.6206 5.84804 63.5542 5.72145C62.6764 4.25008 61.3157 3.29702 59.687 2.81252C57.6079 2.32794 55.4932 2.76446 53.9058 4.21877ZM54.9995 25.9375C52.8018 30.0324 52.8018 30.0324 51.6987 34.4824C51.9297 34.9572 52.2389 35.1165 52.7125 35.3266C56.1782 36.5229 60.7163 36.5705 64.0742 34.9982C64.2229 34.9217 64.2229 34.9217 64.3745 34.8438C64.2118 31.752 62.4483 28.6477 61.0933 25.9375C59.0823 25.9375 57.0714 25.9375 54.9995 25.9375ZM47.1675 35.1758C47.0378 35.2201 46.9081 35.2644 46.7744 35.3101C45.5914 35.7365 44.4632 36.3155 43.9058 37.5C45.5673 39.8076 48.9807 40.3474 51.6334 40.8051C57.7959 41.7895 66.1525 41.9693 71.5614 38.3771C71.9105 38.1219 71.9105 38.1219 72.187 37.6563C72.1722 37.2118 72.0178 37.0143 71.7476 36.6602C70.7057 35.6872 68.6261 34.6875 67.187 34.6875C67.1604 34.78 67.1338 34.8724 67.1064 34.9677C67.0497 35.1529 67.0497 35.1529 66.9917 35.3418C66.9373 35.524 66.9373 35.524 66.8818 35.7099C66.4458 36.7333 65.7403 37.1313 64.7749 37.5903C62.6243 38.4487 60.4278 38.6308 58.1343 38.6328C58.0263 38.6329 57.9183 38.633 57.807 38.6331C55.1357 38.629 51.7506 38.4915 49.687 36.5625C49.3026 35.9692 49.062 35.3755 48.9058 34.6875C48.3026 34.6875 47.7298 34.9736 47.1675 35.1758ZM2.81201 39.375C2.54369 39.9117 2.63204 40.5291 2.63172 41.1198C2.63103 41.2701 2.63035 41.4204 2.62964 41.5752C2.62755 42.082 2.62658 42.5888 2.62563 43.0956C2.62439 43.4577 2.6231 43.8198 2.62176 44.1818C2.61766 45.3735 2.61527 46.5653 2.61304 47.757C2.6122 48.1666 2.61136 48.5763 2.61052 48.986C2.60714 50.6894 2.60419 52.3929 2.60245 54.0964C2.602 54.5386 2.60153 54.9807 2.60106 55.4229C2.60095 55.5328 2.60083 55.6427 2.60071 55.7559C2.59873 57.5367 2.59354 59.3175 2.58703 61.0982C2.5804 62.9259 2.57678 64.7535 2.5759 66.5811C2.57533 67.6076 2.57344 68.6339 2.56839 69.6604C2.5637 70.6257 2.5627 71.591 2.56454 72.5563C2.56458 72.911 2.56327 73.2657 2.56053 73.6204C2.557 74.1039 2.55827 74.5872 2.56076 75.0708C2.5586 75.2117 2.55643 75.3527 2.55419 75.498C2.56303 76.1927 2.58755 76.4745 3.02631 77.0406C4.05774 77.802 5.69618 77.3424 6.90381 77.168C10.9008 76.5205 14.4274 74.6635 17.3433 71.875C17.4583 71.7717 17.5733 71.6684 17.6918 71.5619C18.8145 70.5146 19.649 69.2586 20.4683 67.9688C20.5326 67.8685 20.5969 67.7683 20.6632 67.665C20.8198 67.4093 20.9581 67.1427 21.0933 66.875C20.8866 66.2551 20.6466 66.2106 20.0776 65.9082C17.7857 64.6059 16.3876 62.6719 15.6849 60.1209C15.2886 57.2787 15.7447 54.6655 17.4354 52.3102C18.4141 51.1105 19.7029 50.3312 21.0933 49.6875C20.5944 46.9952 17.4699 43.9799 15.3417 42.4534C12.9668 40.8369 5.31773 36.6268 2.81201 39.375ZM14.687 38.75C15.1174 39.1804 15.5058 39.4595 16.0151 39.7852C18.0928 41.1578 19.9007 42.7995 21.4155 44.7754C21.4952 44.8792 21.5748 44.983 21.6569 45.0899C22.0763 45.6591 22.4139 46.215 22.6991 46.8628C23.2222 48.1766 23.2222 48.1766 24.248 49.0619C25.0439 49.2655 25.8498 49.3004 26.6673 49.3421C28.4716 49.5054 30.2173 50.8716 31.4247 52.1448C33.1083 54.1819 33.6526 56.6126 33.4719 59.1976C33.2998 60.8446 32.6364 62.2369 31.7183 63.5938C31.6155 63.7472 31.6155 63.7472 31.5107 63.9038C30.3515 65.4262 28.3887 66.4564 26.562 66.875C26.3376 66.886 26.1129 66.8915 25.8882 66.8921C24.868 66.8895 24.868 66.8895 23.9058 67.1875C23.2472 67.8736 22.8998 68.7909 22.5142 69.6471C21.8201 71.0801 20.6134 72.2903 19.5308 73.4375C19.4256 73.5527 19.3205 73.6679 19.2122 73.7866C17.91 75.162 16.3418 76.2751 14.687 77.1875C14.687 77.2391 14.687 77.2906 14.687 77.3438C22.5589 77.3581 30.4307 77.3691 38.3026 77.3757C39.2313 77.3765 40.1599 77.3773 41.0885 77.3781C41.3659 77.3783 41.3659 77.3783 41.6488 77.3786C44.6452 77.3813 47.6416 77.3863 50.638 77.392C53.7109 77.3978 56.7839 77.4013 59.8568 77.4026C61.7541 77.4034 63.6513 77.4062 65.5486 77.4112C66.8483 77.4145 68.1481 77.4155 69.4478 77.4147C70.1985 77.4143 70.9492 77.4149 71.6999 77.4183C72.3865 77.4213 73.0731 77.4215 73.7598 77.4193C74.0088 77.4191 74.2578 77.4199 74.5068 77.4218C74.8442 77.4243 75.1814 77.423 75.5188 77.4207C75.7065 77.4209 75.8942 77.4212 76.0876 77.4214C76.6574 77.3282 76.8353 77.1665 77.187 76.7188C77.4546 76.1835 77.3664 75.569 77.3663 74.98C77.3671 74.7555 77.3671 74.7555 77.368 74.5265C77.3697 74.0218 77.3703 73.5172 77.3709 73.0125C77.3719 72.652 77.3729 72.2915 77.374 71.9309C77.3768 70.9492 77.3784 69.9675 77.3797 68.9857C77.3805 68.3729 77.3814 67.7601 77.3824 67.1472C77.3851 65.451 77.3874 63.7547 77.3885 62.0585C77.3888 61.6182 77.3891 61.1779 77.3894 60.7377C77.3895 60.6282 77.3895 60.5188 77.3896 60.4061C77.3909 58.6329 77.3949 56.8597 77.3999 55.0865C77.4051 53.2666 77.4079 51.4467 77.4084 49.6269C77.4088 48.6048 77.4102 47.5828 77.4141 46.5607C77.4177 45.5995 77.4184 44.6383 77.4168 43.6771C77.4167 43.3239 77.4177 42.9707 77.4199 42.6176C77.4226 42.1361 77.4215 41.6548 77.4195 41.1733C77.4212 41.033 77.4229 40.8926 77.4247 40.748C77.418 40.1024 77.3965 39.7723 77.0455 39.2138C76.5475 38.7458 76.2728 38.7317 75.605 38.7402C75.3917 38.7424 75.3917 38.7424 75.1741 38.7445C75.0103 38.7472 75.0103 38.7472 74.8433 38.75C74.8426 38.8894 74.842 39.0288 74.8413 39.1723C74.8371 39.6958 74.8294 40.2189 74.8194 40.7422C74.8158 40.9675 74.8136 41.1929 74.8127 41.4182C74.8067 42.7463 74.7934 43.9269 73.9058 45C73.4974 45.3888 73.4974 45.3888 73.0757 45.6738C72.927 45.7748 72.7784 45.8757 72.6252 45.9796C72.0755 46.3188 71.5254 46.6086 70.937 46.875C71.1385 47.4336 71.3783 47.8594 71.7378 48.3301C74.3856 52.0481 75.2816 56.6696 74.5741 61.1615C73.7633 65.3423 71.3848 69.265 67.8904 71.736C63.9833 74.3685 59.2385 75.3952 54.5789 74.511C50.5346 73.5928 46.6436 71.272 44.33 67.7716C44.2415 67.6304 44.1531 67.4892 44.062 67.3438C43.9591 67.1816 43.8562 67.0195 43.7501 66.8524C41.4813 63.0997 40.7384 58.4945 41.703 54.2011C42.3279 51.8966 43.2184 49.5959 44.8079 47.7765C45.2047 47.3754 45.2047 47.3754 45.1558 46.875C45.0498 46.8237 44.9439 46.7723 44.8347 46.7194C43.2488 45.9088 42.1184 45.1004 41.4058 43.4375C41.3542 41.8906 41.3026 40.3438 41.2495 38.75C32.4839 38.75 23.7183 38.75 14.687 38.75ZM43.9058 41.25C43.8144 41.9964 43.7841 42.6153 44.2573 43.2324C47.3455 46.3421 53.9981 46.425 58.0464 46.4453C62.46 46.4265 68.5173 46.2096 72.0308 43.125C72.228 42.7305 72.2024 42.4513 72.1968 42.0117C72.1954 41.8695 72.194 41.7273 72.1925 41.5808C72.1907 41.4717 72.1889 41.3625 72.187 41.25C71.5847 41.4446 70.9945 41.6598 70.4055 41.8916C66.4824 43.4198 62.3622 43.7863 58.1831 43.7891C58.0415 43.7892 57.8999 43.7893 57.754 43.7894C53.2815 43.7841 49.0131 43.2393 44.8433 41.5625C44.5316 41.4559 44.2193 41.3509 43.9058 41.25ZM47.4409 48.5938C45.7624 50.6469 44.4614 53.1363 44.062 55.7813C44.0449 55.8904 44.0278 55.9996 44.0101 56.1121C43.6228 59.0147 44.1605 61.9157 45.4683 64.5313C45.9873 64.3028 46.3578 64.0144 46.7671 63.6231C46.9354 63.4669 46.9354 63.4669 47.1071 63.3075C47.3821 62.9877 47.3821 62.9877 47.3213 62.6056C47.277 62.4676 47.2327 62.3297 47.187 62.1875C46.1545 58.7375 46.2714 55.4273 47.9805 52.2174C48.7017 51.0197 49.6174 50.0237 50.6245 49.0625C50.7811 48.9066 50.9375 48.7505 51.0933 48.5938C50.6307 48.473 50.1681 48.3559 49.7029 48.2459C49.2183 48.125 49.2183 48.125 48.6421 47.9199C47.9997 47.9805 47.8822 48.1357 47.4409 48.5938ZM64.3757 49.659C64.208 49.8303 64.0404 50.0018 63.8729 50.1733C63.691 50.3543 63.5088 50.535 63.3264 50.7154C62.8351 51.203 62.3484 51.6947 61.8624 52.1875C61.3525 52.7034 60.8389 53.2155 60.3258 53.7281C59.4659 54.5883 58.6088 55.4512 57.7534 56.3159C56.7638 57.3162 55.7704 58.3126 54.7748 59.3069C53.8163 60.2642 52.8601 61.2237 51.905 62.1844C51.4987 62.5931 51.0916 63.0012 50.684 63.4087C50.2052 63.8877 49.7284 64.3686 49.2531 64.8511C49.0781 65.0282 48.9024 65.2045 48.726 65.3802C48.4861 65.6194 48.2487 65.8608 48.0118 66.1031C47.8781 66.2378 47.7445 66.3726 47.6067 66.5115C47.3057 66.8463 47.3057 66.8463 47.3626 67.2152C47.5492 67.6033 47.7974 67.8541 48.105 68.1543C48.2141 68.2629 48.3233 68.3714 48.4358 68.4833C48.7471 68.7817 48.7471 68.7817 49.2183 68.9063C55.7151 62.4094 62.212 55.9125 68.9058 49.2188C68.6267 48.6606 68.4266 48.3698 67.9683 47.9688C66.4373 47.9688 65.4294 48.6104 64.3757 49.659ZM51.2886 52.1289C49.6725 54.0061 49.0263 56.2996 49.062 58.75C49.127 59.3353 49.2283 59.8985 49.3745 60.4688C49.8294 60.5157 49.8294 60.5157 50.0766 60.2935C50.1592 60.2108 50.2417 60.128 50.3267 60.0427C50.422 59.9483 50.5173 59.8539 50.6155 59.7566C50.719 59.6516 50.8225 59.5467 50.9292 59.4385C51.039 59.3291 51.1488 59.2196 51.2619 59.1068C51.6257 58.7434 51.9879 58.3784 52.35 58.0133C52.6014 57.7614 52.853 57.5095 53.1047 57.2578C53.6322 56.7295 54.159 56.2005 54.6851 55.6708C55.3614 54.9902 56.039 54.3109 56.7171 53.6321C57.2366 53.1119 57.7556 52.5914 58.2745 52.0706C58.5243 51.8199 58.7742 51.5693 59.0241 51.3187C59.3725 50.9693 59.7203 50.6194 60.068 50.2692C60.1724 50.1646 60.2769 50.06 60.3845 49.9521C60.8631 49.5662 60.8631 49.5662 61.0933 49.0625C57.2419 48.9989 54.1258 49.2053 51.2886 52.1289ZM69.9397 51.9043C69.7983 52.0493 69.6569 52.1944 69.5112 52.3438C69.369 52.4888 69.2268 52.6338 69.0803 52.7832C68.9166 52.9524 68.9166 52.9524 68.7495 53.125C68.7797 53.2328 68.8099 53.3405 68.8411 53.4516C68.9021 53.6718 68.9021 53.6718 68.9644 53.8965C69.0042 54.0397 69.0441 54.1829 69.0852 54.3305C69.1291 54.4999 69.173 54.6692 69.2183 54.8438C69.2596 54.9968 69.2596 54.9968 69.3018 55.1529C70.0682 58.2187 69.573 61.4296 67.9994 64.1388C66.449 66.6782 64.0771 68.3997 61.2593 69.2969C58.6545 69.9104 55.9993 69.6658 53.5054 68.761C53.0879 68.7092 53.0879 68.7092 52.7064 69.0656C52.5705 69.2096 52.4345 69.3536 52.2944 69.502C52.1565 69.6448 52.0185 69.7876 51.8763 69.9347C51.5287 70.2706 51.5287 70.2706 51.562 70.625C55.2335 72.4875 59.0167 72.5645 62.8944 71.3965C64.9051 70.6946 66.6254 69.4653 68.1245 67.9688C68.2448 67.8503 68.365 67.7319 68.4889 67.6099C71.096 64.8917 72.2757 61.1412 72.2206 57.4298C72.1498 55.3633 71.5729 53.398 70.6245 51.5625C70.2661 51.5273 70.2661 51.5273 69.9397 51.9043ZM19.3367 54.3299C18.3239 55.6488 17.9407 57.2586 18.1245 58.9063C18.4775 60.7004 19.2743 62.1654 20.7515 63.2715C22.4758 64.36 24.2783 64.7028 26.2788 64.2664C27.9657 63.7088 29.3711 62.5168 30.2461 60.9705C30.9839 59.3635 31.1322 57.7719 30.6361 56.0706C29.9531 54.2576 28.7777 52.9972 27.0308 52.1875C26.9234 52.1374 26.8161 52.0872 26.7054 52.0355C23.873 50.9057 21.1828 52.1652 19.3367 54.3299ZM66.4058 55.4688C62.7964 59.0781 59.187 62.6875 55.4683 66.4063C55.5198 66.5094 55.5714 66.6125 55.6245 66.7188C57.9646 67.4208 60.386 67.0446 62.5227 65.9058C63.2783 65.4297 63.9054 64.8528 64.5308 64.2188C64.6321 64.1191 64.7334 64.0194 64.8378 63.9166C66.4924 62.1751 67.1269 59.8639 67.0668 57.5049C67.0166 56.8451 66.9086 56.2594 66.7183 55.625C66.5636 55.5477 66.5636 55.5477 66.4058 55.4688Z" fill="black"/>
<path d="M11.6596 -0.0606094C11.7745 -0.0614509 11.8894 -0.0622924 12.0078 -0.0631594C12.3901 -0.0653827 12.7724 -0.0642826 13.1548 -0.0631677C13.4301 -0.0640593 13.7053 -0.0651476 13.9805 -0.0664173C14.7262 -0.0692171 15.472 -0.0690369 16.2177 -0.0681451C16.8409 -0.0676617 17.4641 -0.0686142 18.0873 -0.0695574C19.5578 -0.071751 21.0283 -0.0715087 22.4989 -0.0697289C24.0146 -0.067935 25.5302 -0.0701346 27.0459 -0.0743221C28.3486 -0.0777861 29.6513 -0.0788208 30.954 -0.0779039C31.7315 -0.0773777 32.5089 -0.0777528 33.2863 -0.0804432C34.0175 -0.082863 34.7486 -0.0822391 35.4798 -0.0793017C35.7476 -0.0787266 36.0154 -0.0792093 36.2832 -0.0808464C38.9714 -0.0960206 38.9714 -0.0960206 40.1886 0.91C40.2713 1.00608 40.3541 1.10215 40.4394 1.20114C40.5242 1.2952 40.609 1.38926 40.6964 1.48617C41.4655 2.72643 41.4737 4.00225 41.4669 5.4266C41.4675 5.64004 41.4683 5.85348 41.4694 6.06692C41.4715 6.64286 41.4707 7.21875 41.4692 7.79469C41.468 8.39961 41.4691 9.00453 41.4698 9.60946C41.4707 10.625 41.4696 11.6405 41.4673 12.6561C41.4648 13.8274 41.4656 14.9987 41.4682 16.17C41.4703 17.1787 41.4706 18.1873 41.4694 19.196C41.4687 19.7971 41.4685 20.3982 41.4701 20.9994C41.4715 21.5647 41.4705 22.13 41.4678 22.6954C41.4669 22.9998 41.4683 23.3042 41.4697 23.6087C41.4591 25.0891 41.3006 26.3082 40.2624 27.4212C39.4113 28.1833 38.5459 28.4578 37.4214 28.4552C37.2494 28.4552 37.0774 28.4552 36.9002 28.4552C36.7154 28.4544 36.5306 28.4536 36.3403 28.4527C36.0555 28.4524 36.0555 28.4524 35.765 28.4521C35.1584 28.4512 34.5518 28.4492 33.9453 28.4472C33.5341 28.4464 33.1229 28.4457 32.7118 28.4451C31.7037 28.4434 30.6956 28.4408 29.6875 28.4375C29.6895 28.5276 29.6916 28.6178 29.6937 28.7107C29.7018 29.1225 29.7069 29.5344 29.7119 29.9463C29.7152 30.0881 29.7184 30.2299 29.7218 30.3761C29.7303 31.3092 29.6698 31.9915 29.035 32.724C28.1402 33.4923 27.3781 33.6632 26.2048 33.6615C25.3599 33.5263 24.7773 33.1306 24.2187 32.5C24.1002 32.3698 23.9817 32.2396 23.8597 32.1054C23.5222 31.7044 23.2982 31.3005 23.0708 30.8291C22.5993 29.9317 22.1072 29.1621 21.25 28.5937C19.6553 28.126 17.9077 28.2864 16.2655 28.363C15.3 28.4048 14.3336 28.4188 13.3675 28.4354C13.0332 28.4434 12.6998 28.4578 12.3658 28.4737C10.9417 28.5188 9.84801 28.3697 8.76513 27.3862C7.59054 26.1736 7.58747 24.7565 7.59308 23.1586C7.59219 22.9424 7.5911 22.7261 7.58983 22.5099C7.58704 21.9255 7.58721 21.3412 7.5881 20.7569C7.58859 20.2677 7.58763 19.7785 7.58669 19.2892C7.5845 18.1343 7.58474 16.9794 7.58652 15.8245C7.58831 14.6362 7.58611 13.448 7.58192 12.2597C7.57845 11.2366 7.57743 10.2134 7.57834 9.19031C7.57887 8.58053 7.5785 7.97078 7.5758 7.361C7.57337 6.78717 7.57402 6.21343 7.57694 5.63961C7.57779 5.33092 7.57558 5.02222 7.57324 4.71353C7.58653 3.09676 7.87785 1.8548 9.05087 0.698818C9.89557 0.0990944 10.6335 -0.0587071 11.6596 -0.0606094ZM10.4687 3.28122C10.3524 3.70265 10.3524 3.70265 10.3706 4.1767C10.3686 4.3594 10.3666 4.5421 10.3646 4.73034C10.3664 4.93019 10.3682 5.13005 10.3701 5.33596C10.3693 5.54902 10.3682 5.76207 10.3667 5.97512C10.3638 6.55334 10.3658 7.13144 10.3689 7.70965C10.3715 8.31474 10.3701 8.91982 10.3693 9.5249C10.3686 10.541 10.3711 11.5571 10.3754 12.5733C10.3805 13.7481 10.3804 14.9228 10.3778 16.0976C10.3753 17.2277 10.3763 18.3578 10.379 19.4879C10.3801 19.9689 10.3799 20.4498 10.3788 20.9308C10.3776 21.4971 10.3794 22.0634 10.3837 22.6298C10.3853 22.9368 10.3838 23.2438 10.3823 23.5508C10.3843 23.7335 10.3862 23.9162 10.3883 24.1045C10.3887 24.2633 10.3892 24.422 10.3896 24.5856C10.4898 25.1102 10.6852 25.2923 11.0937 25.625C11.5568 25.8565 11.972 25.7998 12.4887 25.799C12.6 25.799 12.7113 25.799 12.826 25.799C13.1946 25.7989 13.5632 25.7977 13.9318 25.7965C14.1871 25.7962 14.4424 25.796 14.6977 25.7958C15.3702 25.7952 16.0427 25.7937 16.7152 25.7919C17.4012 25.7903 18.0872 25.7896 18.7732 25.7888C20.1196 25.7872 21.466 25.7845 22.8125 25.7812C22.8596 25.8778 22.9067 25.9743 22.9552 26.0738C23.1383 26.4322 23.3511 26.738 23.5901 27.0617C23.6815 27.1858 23.7729 27.31 23.8671 27.4378C24.0121 27.6329 24.0121 27.6329 24.1601 27.832C24.2582 27.9646 24.3563 28.0972 24.4574 28.2338C25.1393 29.1517 25.8333 30.0565 26.5625 30.9375C26.7172 30.8343 26.8718 30.7312 27.0312 30.625C27.0966 30.1243 27.0966 30.1243 27.077 29.5349C27.0763 29.4278 27.0757 29.3207 27.075 29.2104C27.0724 28.8681 27.0665 28.5259 27.0605 28.1836C27.0582 27.9516 27.056 27.7197 27.0541 27.4878C27.0489 26.9189 27.0408 26.3501 27.0312 25.7812C27.1629 25.7819 27.2947 25.7826 27.4304 25.7833C28.6719 25.7896 29.9133 25.7943 31.1548 25.7974C31.7931 25.799 32.4313 25.8012 33.0696 25.8048C33.6855 25.8082 34.3015 25.8101 34.9175 25.8109C35.1525 25.8114 35.3874 25.8126 35.6224 25.8143C35.9516 25.8165 36.2807 25.8168 36.6099 25.8167C36.891 25.8177 36.891 25.8177 37.1777 25.8188C37.6449 25.7821 37.8985 25.7318 38.2812 25.4687C38.635 24.9381 38.6337 24.7528 38.6366 24.1303C38.6389 23.8588 38.6389 23.8588 38.6413 23.5819C38.6414 23.3832 38.6415 23.1845 38.6416 22.9798C38.6428 22.7685 38.6441 22.5573 38.6455 22.3461C38.649 21.7721 38.6503 21.1981 38.6511 20.6241C38.6517 20.2655 38.6527 19.9068 38.6538 19.5482C38.6576 18.2972 38.6597 17.0461 38.6602 15.795C38.6608 14.6288 38.6654 13.4627 38.672 12.2966C38.6774 11.2953 38.6798 10.2942 38.6799 9.29293C38.6801 8.69494 38.6814 8.09701 38.6859 7.49903C38.69 6.93649 38.6903 6.37408 38.6878 5.81154C38.6874 5.50697 38.6908 5.2024 38.6944 4.89785C38.6929 4.71602 38.6913 4.53419 38.6898 4.34686C38.6902 4.11034 38.6902 4.11034 38.6907 3.86904C38.5533 3.25749 38.3099 3.0293 37.8125 2.65622C37.2937 2.53986 37.2937 2.53986 36.7154 2.55806C36.6068 2.55695 36.4982 2.55584 36.3863 2.5547C36.0234 2.55196 35.6607 2.55478 35.2978 2.55761C35.0373 2.5568 34.7767 2.55566 34.5162 2.55422C33.8092 2.55132 33.1022 2.55335 32.3952 2.55642C31.6553 2.55898 30.9154 2.5576 30.1754 2.55681C28.9329 2.5561 27.6903 2.55858 26.4477 2.56295C25.0112 2.56795 23.5747 2.56795 22.1382 2.56526C20.7562 2.56278 19.3742 2.56383 17.9922 2.5665C17.4041 2.56757 16.8161 2.56741 16.228 2.56626C15.5354 2.56506 14.8429 2.56695 14.1503 2.57123C13.8962 2.57231 13.642 2.57232 13.3879 2.5712C13.0408 2.56984 12.6941 2.57233 12.3471 2.5758C12.0559 2.57646 12.0559 2.57646 11.7587 2.57713C11.1436 2.67275 10.8849 2.82029 10.4687 3.28122Z" fill="black"/>
<path d="M26.3375 5.41988C27.3988 6.06163 28.1077 6.93863 28.4371 8.12496C28.455 8.52181 28.4644 8.91911 28.4664 9.31636C28.4722 10.074 28.4722 10.074 28.8131 10.7214C29.0903 10.8647 29.0903 10.8647 29.3887 10.9704C30.0474 11.2425 30.4633 11.8551 30.7671 12.4809C31.2065 13.758 31.1642 15.0599 31.1545 16.3941C31.152 16.8062 31.1545 17.2181 31.1575 17.6303C31.1571 17.8963 31.1565 18.1623 31.1556 18.4283C31.1566 18.5494 31.1575 18.6706 31.1585 18.7954C31.1404 20.2247 30.6909 21.4682 29.6871 22.5C28.9416 23.0583 28.2076 23.298 27.2861 23.3064C27.1526 23.3079 27.019 23.3094 26.8814 23.3109C26.7382 23.3116 26.5949 23.3123 26.4474 23.3129C26.2242 23.3143 26.2242 23.3143 25.9966 23.3156C25.6819 23.3171 25.3672 23.3181 25.0526 23.3187C24.5739 23.3203 24.0952 23.3251 23.6166 23.33C23.3102 23.3311 23.0038 23.3319 22.6974 23.3325C22.5554 23.3344 22.4134 23.3363 22.2672 23.3383C20.9814 23.3339 19.9543 23.0305 18.9901 22.1478C18.2964 21.3608 17.9552 20.3918 17.9407 19.3514C17.9387 19.2251 17.9367 19.0988 17.9346 18.9687C17.9329 18.7655 17.9329 18.7655 17.9311 18.5583C17.9299 18.4172 17.9286 18.2762 17.9273 18.1308C17.9252 17.8322 17.9235 17.5335 17.9222 17.2348C17.9205 16.9315 17.9173 16.6281 17.9126 16.3248C17.8582 12.7529 17.8582 12.7529 18.9455 11.4544C19.1241 11.3097 19.1241 11.3097 19.3063 11.1621C19.4257 11.062 19.5451 10.9619 19.6682 10.8587C19.9996 10.625 19.9996 10.625 20.4684 10.4687C20.4706 10.3064 20.4728 10.144 20.4751 9.97676C20.516 8.51469 20.5933 7.19084 21.708 6.11446C23.0085 5.08681 24.7743 4.68304 26.3375 5.41988ZM23.5934 8.12496C23.2816 8.61677 23.2462 8.99425 23.2613 9.57027C23.2678 9.81519 23.2742 10.0601 23.2809 10.3125C24.1059 10.3125 24.9309 10.3125 25.7809 10.3125C25.8549 9.13534 25.8549 9.13534 25.3121 8.12496C24.6771 7.70163 24.2178 7.70869 23.5934 8.12496ZM20.7809 13.75C20.6747 14.2149 20.6749 14.6619 20.6826 15.1373C20.6822 15.27 20.6818 15.4026 20.6815 15.5393C20.6816 15.8189 20.6837 16.0985 20.6876 16.3781C20.693 16.8058 20.6908 17.233 20.6878 17.6608C20.6889 17.9329 20.6904 18.205 20.6924 18.4771C20.6916 18.6047 20.6908 18.7324 20.69 18.8638C20.7019 19.4351 20.7258 19.7721 21.0794 20.2319C21.9377 20.8545 23.0686 20.6723 24.0937 20.6797C24.358 20.6822 24.6223 20.6865 24.8865 20.6925C25.2685 20.7011 25.6503 20.7045 26.0323 20.7067C26.2082 20.7121 26.2082 20.7121 26.3875 20.7175C26.9686 20.7152 27.4113 20.6449 27.8866 20.3156C28.4144 19.6839 28.4149 19.2616 28.3999 18.4619C28.4004 18.3296 28.4009 18.1973 28.4015 18.061C28.4014 17.782 28.3991 17.5031 28.3945 17.2242C28.3883 16.7981 28.3913 16.3727 28.3953 15.9466C28.3941 15.675 28.3924 15.4034 28.3901 15.1318C28.3912 15.005 28.3923 14.8782 28.3934 14.7475C28.3778 14.1195 28.3236 13.8142 27.9676 13.2795C27.3429 12.8647 26.8868 12.8555 26.152 12.8649C26.0231 12.8642 25.8943 12.8635 25.7616 12.8627C25.49 12.8622 25.2184 12.8636 24.9468 12.8669C24.5321 12.871 24.118 12.8669 23.7032 12.8619C23.4387 12.8624 23.1743 12.8634 22.9098 12.8649C22.7864 12.8634 22.663 12.8618 22.5359 12.8602C21.701 12.8778 21.268 13.016 20.7809 13.75Z" fill="#28A745"/>
<path d="M26.9943 54.8621C27.864 55.5949 28.3645 56.4797 28.4799 57.6038C28.5253 58.9273 28.2789 59.8938 27.4099 60.9137C26.5843 61.697 25.589 62.038 24.4625 62.0996C23.2441 62.0444 22.3141 61.6128 21.484 60.7227C20.6548 59.7609 20.5435 58.7851 20.566 57.5507C20.6845 56.5004 21.1474 55.6631 21.9039 54.9316C23.4604 53.7484 25.3984 53.81 26.9943 54.8621ZM23.4371 57.5C23.2683 57.8752 23.2683 57.8752 23.2809 58.2812C23.5545 58.8613 23.5545 58.8613 24.0621 59.2187C24.6244 59.2799 24.8972 59.2935 25.361 58.9551C25.6668 58.5359 25.7933 58.3344 25.7809 57.8125C25.4788 57.2755 25.4788 57.2755 24.9996 56.875C24.2431 56.7206 23.8882 56.8819 23.4371 57.5Z" fill="black"/>
</g>
<defs>
<clipPath id="clip0_20_4200">
<rect width="80" height="80" fill="white"/>
</clipPath>
</defs>
</svg>
