<svg width="54" height="54" viewBox="0 0 54 54" fill="none" xmlns="http://www.w3.org/2000/svg">
<g clip-path="url(#clip0_976_833)">
<path d="M42.7005 2.67606C44.346 4.13253 45.1151 6.17423 45.2878 8.33801C45.3233 9.11931 45.3271 9.89915 45.2655 10.6789C45.2595 10.7586 45.2534 10.8382 45.2471 10.9203C45.2347 11.0741 45.2207 11.2277 45.2048 11.3812C45.1628 11.8939 45.2595 12.1848 45.5115 12.6268C45.7292 13.3792 45.5816 14.1257 45.3005 14.8416C44.8923 15.5586 44.3694 16.1255 43.7371 16.6503C43.23 17.0818 42.8917 17.4887 42.5781 18.0782C42.2589 18.6633 41.9034 19.1762 41.4682 19.6841C41.1427 20.092 41.1427 20.092 41.1122 20.5979C41.1998 20.928 41.2902 21.2569 41.385 21.585C41.4141 21.6994 41.4432 21.8139 41.4732 21.9317C41.6753 22.6558 41.6753 22.6558 42.1979 23.1621C42.3517 23.2394 42.5072 23.3134 42.6638 23.3846C42.8429 23.4812 43.0215 23.5786 43.1998 23.6767C43.4012 23.7838 43.6027 23.8907 43.8042 23.9976C53.1146 28.993 53.1146 28.993 53.8494 31.0845C53.985 31.5762 53.9811 32.059 53.9762 32.5662C53.9756 32.6676 53.975 32.7691 53.9744 32.8736C53.9595 33.9764 53.8517 35.0648 53.7249 36.1595C53.7132 36.2631 53.7016 36.3667 53.6896 36.4735C52.7852 44.5017 52.7852 44.5017 51.3601 46.1428C50.8951 46.4834 50.3311 46.394 49.785 46.3434C49.4138 46.2713 49.4138 46.2713 49.0525 46.1168C48.6503 45.9451 48.3767 45.8438 47.9373 45.8494C47.3729 46.161 46.9459 46.6716 46.5197 47.1458C46.3367 47.3463 46.1427 47.5225 45.9334 47.6951C45.3864 48.1662 44.8649 48.6652 44.3381 49.1585C43.9122 49.5574 43.485 49.955 43.0543 50.3487C42.7793 50.6004 42.5082 50.8544 42.2436 51.1171C40.9544 52.3802 39.6161 52.9289 37.8201 52.9542C36.7109 52.8938 35.5982 52.4009 34.5478 52.0619C31.358 51.0348 28.1261 50.0042 24.8396 49.3299C24.7483 49.3103 24.657 49.2908 24.5629 49.2706C24.0698 49.2067 23.5852 49.2179 23.0887 49.2253C22.8648 49.2271 22.641 49.2289 22.4171 49.2306C22.0685 49.2339 21.7198 49.2376 21.3712 49.2425C18.95 49.2751 16.2718 49.25 14.2927 47.6424C13.8597 47.1875 13.5701 46.7498 13.3435 46.1659C13.2526 46.1658 13.2526 46.1658 13.1597 46.1657C11.6817 46.1641 10.2036 46.1596 8.7255 46.1519C8.0107 46.1483 7.29592 46.1456 6.58111 46.1452C5.89108 46.1449 5.20111 46.1418 4.5111 46.137C4.24804 46.1356 3.98498 46.1352 3.72192 46.1357C3.35301 46.1362 2.98426 46.1334 2.61537 46.1299C2.45276 46.1313 2.45276 46.1313 2.28686 46.1327C1.58648 46.1216 1.12504 45.9835 0.581799 45.533C0.0653624 44.9894 -0.0771242 44.5096 -0.0792183 43.768C-0.0796962 43.6979 -0.0801743 43.6278 -0.0806667 43.5557C-0.0819984 43.3217 -0.0818292 43.0877 -0.0816548 42.8538C-0.0822862 42.6857 -0.083004 42.5176 -0.0838016 42.3495C-0.0856639 41.8934 -0.0861583 41.4373 -0.0862929 40.9812C-0.0864429 40.6961 -0.0868958 40.4109 -0.0874548 40.1258C-0.089406 39.1305 -0.0902665 38.1352 -0.0901005 37.14C-0.0899739 36.2131 -0.0921985 35.2862 -0.0955304 34.3594C-0.0982913 33.5629 -0.0994213 32.7664 -0.0992866 31.9699C-0.0992329 31.4946 -0.099828 31.0192 -0.102064 30.5438C-0.104111 30.0965 -0.104121 29.6492 -0.102589 29.2019C-0.102369 29.0382 -0.102862 28.8744 -0.10414 28.7106C-0.110318 27.864 -0.114843 27.167 0.370862 26.4432C0.60487 26.2261 0.604871 26.2261 0.845471 26.0806C0.924869 26.0308 1.00427 25.9809 1.08607 25.9294C1.56572 25.6854 2.02602 25.6895 2.55578 25.6901C2.63824 25.6898 2.72069 25.6895 2.80565 25.6892C3.08222 25.6882 3.35878 25.6881 3.63535 25.6879C3.83354 25.6874 4.03174 25.6869 4.22994 25.6863C4.76863 25.685 5.30732 25.6843 5.84601 25.6838C6.18261 25.6835 6.51921 25.6831 6.85581 25.6826C7.9091 25.6811 8.96239 25.6801 10.0157 25.6797C11.2313 25.6792 12.4469 25.6774 13.6625 25.6743C14.6022 25.6721 15.542 25.671 16.4818 25.6709C17.043 25.6707 17.6042 25.6701 18.1654 25.6682C18.6935 25.6665 19.2215 25.6663 19.7496 25.6672C19.9431 25.6673 20.1367 25.6668 20.3302 25.6658C20.595 25.6644 20.8597 25.6651 21.1246 25.6662C21.2006 25.6653 21.2767 25.6645 21.355 25.6636C21.9918 25.6697 22.5745 25.8038 23.0722 26.2183C23.129 26.2881 23.1858 26.358 23.2444 26.43C23.3029 26.4994 23.3613 26.5687 23.4215 26.6401C23.5854 26.8819 23.6804 27.1206 23.7849 27.3924C23.8437 27.3559 23.9025 27.3193 23.9631 27.2816C24.2398 27.1097 24.5166 26.9379 24.7935 26.7662C24.8858 26.7088 24.9782 26.6513 25.0734 26.5921C25.2714 26.4694 25.4698 26.3474 25.6686 26.226C25.9033 26.0809 26.1347 25.9336 26.3654 25.7824C27.0449 25.3454 27.6895 25.0054 28.468 24.7804C28.5418 24.7591 28.6157 24.7377 28.6917 24.7157C28.7658 24.6943 28.8398 24.673 28.9161 24.651C30.4061 24.2616 30.4061 24.2616 31.4788 23.2441C31.7462 22.6322 32.0186 21.9294 31.8005 21.2752C31.6254 21.1018 31.6254 21.1018 31.4116 20.9325C30.2371 19.9248 29.5671 18.673 29.0781 17.2213C29.0488 17.1347 29.0196 17.0482 28.9894 16.959C28.5415 15.5594 28.366 14.1426 28.2476 12.6861C28.2339 12.5256 28.22 12.3652 28.2062 12.2047C28.1729 11.8181 28.1407 11.4315 28.1091 11.0448C28.0083 11.1765 27.9079 11.3085 27.8076 11.4407C27.7516 11.5142 27.6956 11.5877 27.6379 11.6634C27.4887 11.8713 27.3619 12.0796 27.239 12.3038C27.0545 12.6268 27.0545 12.6268 26.8435 12.7323C26.4389 12.7697 26.1953 12.79 25.8482 12.5675C25.6218 12.2144 25.6522 11.9875 25.6834 11.5721C26.0283 10.6604 26.5894 9.84046 27.3709 9.25179C27.5475 9.18458 27.7256 9.12082 27.9048 9.06063C28.4179 8.8326 28.5525 8.51783 28.7511 8.02052C28.8554 7.73849 28.9577 7.4558 29.0596 7.17291C29.8572 4.97471 31.4553 2.91892 33.488 1.76351C33.5558 1.72137 33.6235 1.67922 33.6932 1.6358C36.2573 0.159524 40.4725 0.884656 42.7005 2.67606ZM34.8591 2.92367C34.7867 2.95181 34.7142 2.97995 34.6396 3.00895C32.8161 3.81817 31.4013 5.76587 30.6404 7.56429C30.6752 7.6339 30.71 7.70351 30.7459 7.77523C30.8786 7.74478 31.0112 7.71432 31.148 7.68295C33.6459 7.13164 35.9652 7.25542 38.188 8.64823C39.0183 9.23503 40.0335 10.066 40.472 11.0029C40.6386 11.2859 40.6386 11.2859 40.9572 11.3156C41.0749 11.3128 41.1925 11.31 41.3137 11.3072C41.4412 11.3055 41.5687 11.3038 41.7 11.302C41.8332 11.2976 41.9663 11.2932 42.1035 11.2887C42.2379 11.2863 42.3723 11.2839 42.5108 11.2814C42.8432 11.2752 43.1753 11.2665 43.5076 11.2557C43.9089 9.05832 43.6764 6.71841 42.4529 4.82211C41.5328 3.57944 40.058 2.89413 38.5571 2.64928C37.3322 2.5112 36.0188 2.45617 34.8591 2.92367ZM31.6951 9.14632C31.9933 9.38267 32.2911 9.55692 32.6311 9.7264C32.9907 9.91351 33.3003 10.1044 33.5932 10.3828C34.3544 11.0968 34.9294 11.3774 35.98 11.3664C36.2352 11.3576 36.4896 11.3431 36.7444 11.3282C36.9206 11.3224 37.0968 11.3171 37.273 11.3123C37.6993 11.2997 38.1247 11.2798 38.5505 11.2557C37.5207 10.0178 36.2673 9.18716 34.6482 8.93539C34.3135 8.90882 33.9819 8.90573 33.6463 8.90902C33.5629 8.9082 33.4796 8.90739 33.3937 8.90655C32.8037 8.90848 32.2653 8.9968 31.6951 9.14632ZM29.7966 10.4119C29.707 13.329 30.0339 16.6991 31.906 19.0604C31.9491 19.1206 31.9922 19.1808 32.0366 19.2429C32.6603 20.0766 33.6527 20.5327 34.6482 20.7479C36.2757 20.8861 37.7635 20.7369 39.0779 19.6932C39.1544 19.635 39.231 19.5768 39.3098 19.5169C40.2717 18.7313 40.9473 17.7027 41.4575 16.5819C41.7336 15.9998 41.9713 15.7174 42.5291 15.4056C43.1961 15.0109 43.725 14.4311 43.9295 13.6815C43.9001 13.4346 43.8657 13.1883 43.824 12.9432C42.2962 12.8782 40.7712 12.8302 39.2421 12.8337C38.8025 12.8344 38.363 12.8328 37.9234 12.8315C37.5499 12.8307 37.1764 12.8315 36.8029 12.8352C36.4314 12.8387 36.0601 12.8381 35.6886 12.8348C35.4836 12.834 35.2786 12.8376 35.0736 12.8412C34.3959 12.832 33.9891 12.7802 33.4726 12.321C33.3363 12.1776 33.2007 12.0335 33.0662 11.8885C32.1912 11.2005 30.9418 10.3478 29.7966 10.4119ZM38.867 21.6839C37.1762 22.4658 35.2943 22.472 33.488 22.119C33.3441 22.4626 33.2048 22.808 33.0662 23.1539C33.0259 23.2498 32.9857 23.3457 32.9442 23.4445C32.6644 24.1515 32.5921 24.7379 32.6443 25.494C32.648 25.5693 32.6517 25.6447 32.6555 25.7223C32.7763 27.7359 33.3824 29.7066 34.0154 31.6112C34.3322 31.2351 34.5786 30.8546 34.8142 30.4234C34.8854 30.2953 34.9566 30.1673 35.0279 30.0392C35.1376 29.8408 35.247 29.6422 35.3554 29.443C35.8384 28.5576 36.3664 27.8026 37.074 27.076C37.2285 26.9052 37.3824 26.7339 37.5354 26.5618C37.8435 26.2193 38.1536 25.8786 38.4655 25.5395C38.8475 25.1241 39.2294 24.7087 39.6052 24.2877C39.6596 24.2269 39.714 24.1661 39.77 24.1035C39.8201 24.0403 39.8701 23.9771 39.9216 23.9119C39.9865 23.8385 40.0513 23.7651 40.1182 23.6895C40.3094 23.2032 40.1127 22.8251 39.9414 22.3497C39.9098 22.2565 39.8782 22.1633 39.8456 22.0673C39.7674 21.8377 39.6873 21.609 39.6052 21.3807C39.3635 21.3807 39.0758 21.5829 38.867 21.6839ZM41.3982 24.6502C41.2013 24.8542 41.0089 25.0603 40.8181 25.2699C40.7609 25.3323 40.7037 25.3948 40.6448 25.4591C40.2316 25.9107 39.8207 26.3642 39.4128 26.8206C39.249 27.003 39.0838 27.1841 38.9176 27.3644C38.8313 27.4585 38.745 27.5526 38.656 27.6495C38.5777 27.7342 38.4994 27.8189 38.4187 27.9062C38.2142 28.1277 38.2142 28.1277 38.1287 28.4471C39.0684 28.9344 40.0081 29.4216 40.9763 29.9237C41.2692 29.5576 41.5184 29.2219 41.7632 28.8282C41.864 28.6666 41.864 28.6666 41.9667 28.5017C42.0358 28.3901 42.1049 28.2786 42.176 28.1637C42.2443 28.0541 42.3125 27.9446 42.3829 27.8318C42.7995 27.1619 43.2095 26.4883 43.613 25.8104C43.2639 25.6167 42.9144 25.4234 42.565 25.2303C42.4652 25.175 42.3655 25.1196 42.2628 25.0626C42.1679 25.0103 42.0731 24.9579 41.9754 24.904C41.8876 24.8554 41.7998 24.8068 41.7093 24.7567C41.5267 24.6421 41.5267 24.6421 41.3982 24.6502ZM29.8889 26.0015C29.8108 26.0291 29.7326 26.0566 29.652 26.085C29.4503 26.1596 29.2538 26.2479 29.0584 26.3377C28.9355 26.7063 28.9765 26.8633 29.0579 27.2387C29.0821 27.3519 29.1062 27.4651 29.1311 27.5817C29.1571 27.6998 29.1831 27.8179 29.21 27.9395C29.2356 28.0588 29.2612 28.1781 29.2876 28.3011C29.3511 28.596 29.4153 28.8908 29.4802 29.1854C29.8867 28.9958 30.1672 28.7479 30.4954 28.4405C31.0418 27.93 31.0418 27.93 31.2732 27.8143C31.2583 27.5418 31.2429 27.2694 31.2271 26.9969C31.2229 26.92 31.2188 26.843 31.2145 26.7637C31.1929 26.3981 31.1587 26.0579 31.0623 25.7049C30.6363 25.7049 30.2828 25.8551 29.8889 26.0015ZM44.9841 26.6541C44.1698 27.8618 43.3755 29.0811 42.5948 30.3107C42.5261 30.4187 42.4574 30.5268 42.3866 30.6381C42.3256 30.7342 42.2646 30.8304 42.2018 30.9295C41.7688 31.5883 41.7688 31.5883 41.4501 31.7228C40.8757 31.7132 40.44 31.4535 39.9348 31.1959C39.8281 31.1431 39.7214 31.0903 39.6114 31.0359C39.2921 30.8776 38.9741 30.7172 38.656 30.5565C38.478 30.4679 38.2999 30.3794 38.1217 30.2912C37.7364 30.1 37.3522 29.9071 36.9685 29.7127C36.744 30.0948 36.52 30.4772 36.2962 30.8597C36.2292 30.974 36.1623 31.0883 36.0933 31.2061C35.6399 31.9829 35.1968 32.7643 34.7745 33.5586C34.5631 33.9486 34.3671 34.2814 34.0154 34.5643C33.6924 34.6104 33.6924 34.6104 33.3826 34.5643C33.08 34.3302 32.9948 34.0961 32.8923 33.7337C32.8627 33.6307 32.8331 33.5276 32.8025 33.4214C32.7568 33.2563 32.7568 33.2563 32.7102 33.0877C32.6624 32.9193 32.6624 32.9193 32.6136 32.7474C32.3292 31.7394 32.0602 30.7274 31.8005 29.7127C31.3613 29.7127 31.2575 29.8939 30.9436 30.1939C30.8396 30.2907 30.7353 30.3872 30.6309 30.4836C30.5296 30.5772 30.4283 30.6709 30.324 30.7674C29.4672 31.5474 29.4672 31.5474 28.9133 31.5716C28.4439 31.4907 28.4439 31.4907 28.2146 31.1893C28.1353 30.9428 28.1353 30.9428 28.0795 30.6529C28.0583 30.5466 28.0371 30.4402 28.0153 30.3307C27.9941 30.2181 27.9728 30.1056 27.9509 29.9896C27.9056 29.7602 27.8601 29.5309 27.8146 29.3016C27.7821 29.1356 27.7821 29.1356 27.7489 28.9663C27.6363 28.4034 27.5049 27.8451 27.3709 27.2869C26.9993 27.4256 26.6732 27.5896 26.3372 27.7999C26.2428 27.8587 26.1483 27.9175 26.0511 27.9781C25.9536 28.0393 25.8562 28.1006 25.7559 28.1637C25.6116 28.2537 25.6116 28.2537 25.4644 28.3455C25.2826 28.459 25.1009 28.5727 24.9194 28.6866C24.6287 28.869 24.6287 28.869 24.4191 28.9595C24.1661 29.0821 23.9836 29.1963 23.7849 29.3963C23.6606 29.7989 23.6781 30.1899 23.6891 30.6083C23.689 30.7308 23.6889 30.8533 23.6888 30.9795C23.6893 31.3842 23.6959 31.7886 23.7025 32.1933C23.7041 32.4739 23.7053 32.7546 23.7061 33.0352C23.7088 33.6983 23.7157 34.3612 23.7242 35.0242C23.7336 35.7792 23.7382 36.5341 23.7425 37.2892C23.7513 38.8419 23.7661 40.3945 23.7849 41.9471C26.5291 42.43 29.2743 42.9065 32.0215 43.3719C32.4122 43.4382 32.8029 43.5048 33.1936 43.5716C33.677 43.6544 34.1606 43.7366 34.6442 43.8183C34.8253 43.849 35.0063 43.8799 35.1873 43.9111C35.4371 43.954 35.6871 43.9961 35.9371 44.0381C36.0097 44.0508 36.0823 44.0634 36.1571 44.0764C36.9604 44.2264 36.9605 44.2264 37.7266 44.0412C38.2994 43.514 38.694 42.9385 39.0779 42.2635C39.1452 42.146 39.2125 42.0286 39.2818 41.9076C40.2817 40.1199 40.9557 38.1896 41.6499 36.2691C41.7416 36.0172 41.8335 35.7653 41.9255 35.5135C41.9494 35.4479 41.9732 35.3823 41.9978 35.3147C42.0681 35.1222 42.1395 34.9302 42.2111 34.7381C42.2525 34.626 42.2939 34.5139 42.3366 34.3984C42.4529 34.1424 42.4529 34.1424 42.6638 34.0369C43.3157 33.9895 43.3157 33.9895 43.6065 34.149C43.838 34.5713 43.7358 35.0281 43.6141 35.4745C43.5664 35.6106 43.5176 35.7462 43.4676 35.8814C43.4284 35.9917 43.4284 35.9917 43.3884 36.1042C43.3041 36.3406 43.218 36.5763 43.1318 36.8121C43.0736 36.9739 43.0155 37.1357 42.9575 37.2976C42.5615 38.3974 42.153 39.4923 41.7146 40.576C43.7289 41.9005 45.8317 43.1748 48.0625 44.1026C48.1525 44.1405 48.2425 44.1784 48.3352 44.2174C48.9383 44.4555 49.5054 44.551 50.1521 44.5838C51.4812 42.0718 51.6089 38.8892 51.9187 36.1068C51.93 36.0059 51.9413 35.905 51.9529 35.8011C52.0257 35.1432 52.094 34.485 52.156 33.826C52.1638 33.7432 52.1717 33.6604 52.1797 33.5751C52.2005 33.3455 52.2192 33.1158 52.2368 32.8859C52.2519 32.6946 52.2519 32.6946 52.2674 32.4996C52.2566 31.8388 52.0892 31.3465 51.6287 30.8729C51.3789 30.6674 51.1173 30.4827 50.8508 30.2994C50.7734 30.2454 50.6959 30.1915 50.6161 30.1359C48.8003 28.8839 46.9157 27.7185 44.9841 26.6541ZM1.74196 27.3924C1.49246 27.7667 1.50391 27.9255 1.5021 28.3694C1.50105 28.5078 1.5 28.6462 1.49892 28.7888C1.49882 28.9426 1.49875 29.0963 1.4987 29.2501C1.4979 29.4117 1.49701 29.5733 1.49604 29.735C1.49373 30.1743 1.4928 30.6135 1.49227 31.0528C1.49188 31.3271 1.49122 31.6014 1.49047 31.8757C1.48789 32.8321 1.48651 33.7885 1.48614 34.7448C1.48575 35.6372 1.4826 36.5296 1.47818 37.4219C1.47453 38.1875 1.4729 38.953 1.47282 39.7186C1.47274 40.1761 1.47181 40.6336 1.46881 41.0911C1.46606 41.5212 1.46582 41.9512 1.46751 42.3813C1.46771 42.5393 1.46699 42.6974 1.46532 42.8554C1.46317 43.0707 1.46458 43.2861 1.46618 43.5014C1.46597 43.622 1.46576 43.7427 1.46554 43.8669C1.48715 43.9643 1.50876 44.0616 1.53102 44.1619C3.58296 45.3931 6.30994 44.4784 8.70289 44.4784C8.70289 38.84 8.70289 33.2016 8.70289 27.3924C6.40578 27.3924 4.10867 27.3924 1.74196 27.3924ZM10.3904 27.3924C10.3904 33.0308 10.3904 38.6691 10.3904 44.4784C11.3301 44.4784 12.2698 44.4784 13.238 44.4784C13.238 38.84 13.238 33.2016 13.238 27.3924C12.2983 27.3924 11.3586 27.3924 10.3904 27.3924ZM14.9255 27.3924C14.9255 33.0308 14.9255 38.6691 14.9255 44.4784C15.7957 44.4784 16.6658 44.4784 17.5623 44.4784C17.5623 44.1651 17.5623 43.8519 17.5623 43.5291C17.7275 42.8645 18.047 42.4214 18.617 42.0526C19.3216 41.7763 20.0244 41.8178 20.7725 41.8284C20.8999 41.8294 21.0274 41.8304 21.1587 41.8313C21.4716 41.8338 21.7845 41.8373 22.0974 41.8416C22.1048 40.0044 22.1104 38.1672 22.1138 36.33C22.1154 35.4769 22.1177 34.6239 22.1213 33.7709C22.1244 33.0275 22.1265 32.2842 22.1272 31.5408C22.1276 31.1471 22.1286 30.7533 22.1309 30.3596C22.1334 29.9204 22.1335 29.4813 22.1333 29.0421C22.1345 28.9111 22.1356 28.7801 22.1368 28.6451C22.1364 28.5257 22.1359 28.4064 22.1355 28.2834C22.1358 28.1795 22.1361 28.0756 22.1364 27.9685C22.1173 27.666 22.1173 27.666 21.781 27.3924C19.5187 27.3924 17.2564 27.3924 14.9255 27.3924ZM40.9763 42.0526C40.9176 42.1622 40.8589 42.2717 40.7984 42.3846C40.0769 43.7118 39.3197 45.0415 37.8848 45.6912C36.9186 45.8223 35.9127 45.6002 34.9599 45.4346C34.8398 45.4142 34.7198 45.3937 34.596 45.3727C34.3374 45.3287 34.0788 45.2844 33.8202 45.2399C33.4089 45.1693 32.9975 45.0994 32.586 45.0298C31.4168 44.8319 30.2477 44.633 29.0789 44.4325C28.4314 44.3215 27.7837 44.2114 27.1359 44.1023C26.7949 44.0448 26.4541 43.9867 26.1134 43.9277C24.5243 43.6527 22.9721 43.453 21.3591 43.4237C21.1702 43.419 20.9812 43.4143 20.7922 43.4094C20.6252 43.4052 20.4582 43.4012 20.2913 43.3973C20.1728 43.3938 20.1728 43.3938 20.0519 43.3903C19.6261 43.3871 19.6261 43.3871 19.2502 43.5666C19.12 43.7447 19.12 43.7447 19.1509 44.0103C19.2246 44.2731 19.2246 44.2731 19.4186 44.3867C19.7657 44.5124 20.0749 44.5093 20.4437 44.5146C20.5175 44.5161 20.5913 44.5177 20.6674 44.5193C20.9822 44.5258 21.2971 44.53 21.6119 44.5344C21.8422 44.538 22.0724 44.5427 22.3026 44.5476C22.509 44.5505 22.509 44.5505 22.7196 44.5535C23.0466 44.5838 23.0466 44.5838 23.2576 44.7948C23.3175 45.5497 23.3175 45.5497 23.144 45.8069C22.8344 46.0328 22.5684 45.9973 22.1888 46.0005C22.1126 46.0016 22.0365 46.0027 21.958 46.0038C21.7063 46.007 21.4547 46.0079 21.203 46.0089C21.0285 46.0107 20.8539 46.0126 20.6794 46.0146C20.2201 46.0196 19.7608 46.0228 19.3015 46.0255C18.8328 46.0287 18.3641 46.0336 17.8954 46.0383C16.9757 46.0474 16.0561 46.0545 15.1365 46.0604C15.2181 46.1614 15.2998 46.2624 15.3839 46.3664C15.4298 46.4232 15.4757 46.48 15.523 46.5386C16.2497 47.3366 17.8109 47.5242 18.8279 47.6424C19.1941 47.6518 19.5596 47.6447 19.9258 47.6379C20.1436 47.6355 20.3613 47.6333 20.579 47.6311C20.9171 47.6272 21.255 47.6227 21.593 47.6164C23.1848 47.5879 24.6566 47.7173 26.2107 48.0643C26.4004 48.1048 26.4004 48.1048 26.594 48.1461C26.9117 48.2169 27.2269 48.2937 27.5422 48.3741C27.6611 48.4042 27.78 48.4343 27.9025 48.4653C29.0902 48.7726 30.2678 49.1152 31.4446 49.4618C31.5438 49.4909 31.6429 49.5201 31.7451 49.5502C32.7837 49.8571 33.8181 50.1728 34.8439 50.5201C34.925 50.5474 35.0061 50.5746 35.0897 50.6027C35.4651 50.729 35.8393 50.8574 36.2122 50.9909C37.2803 51.3621 38.4543 51.5976 39.5327 51.1295C40.0532 50.822 40.4876 50.4296 40.9214 50.0113C41.1744 49.7683 41.4314 49.5295 41.6877 49.29C41.907 49.0849 42.1258 48.8793 42.3445 48.6736C42.8854 48.1656 43.4305 47.6622 43.9768 47.16C44.1436 47.0066 44.3103 46.853 44.477 46.6994C45.0609 46.1618 45.6485 45.6293 46.2498 45.1112C45.971 44.8926 45.6967 44.7165 45.3801 44.5583C45.2928 44.5139 45.2055 44.4696 45.1155 44.4239C45.0221 44.3766 44.9288 44.3293 44.8325 44.2806C43.7219 43.7101 42.6654 43.0677 41.6143 42.3949C41.4063 42.2684 41.1956 42.158 40.9763 42.0526Z" fill="black"/>
<path d="M33.3288 38.6016C33.6555 38.8381 33.7411 38.9681 33.8104 39.3692C33.8093 40.4069 33.8093 40.4069 33.5265 40.856C33.1648 41.0605 32.9984 41.1124 32.5905 41.0274C32.2873 40.8296 32.2873 40.8296 32.0632 40.5001C31.945 39.84 32.0587 39.2871 32.3796 38.7071C32.7057 38.5441 32.9696 38.5707 33.3288 38.6016Z" fill="#28A745"/>
<path d="M33.394 35.332C33.8895 35.4789 33.8895 35.4789 34.0663 35.7539C34.2488 36.2557 34.1763 36.8227 34.0663 37.3359C33.8949 37.6128 33.8949 37.6128 33.6445 37.7578C33.2695 37.8047 33.0181 37.8125 32.6759 37.6453C32.3857 37.3364 32.4246 37.0794 32.425 36.6636C32.4215 36.4568 32.4215 36.4568 32.418 36.2458C32.5201 35.6507 32.7764 35.332 33.394 35.332Z" fill="#28A745"/>
</g>
<defs>
<clipPath id="clip0_976_833">
<rect width="54" height="54" fill="white"/>
</clipPath>
</defs>
</svg>
