<svg width="80" height="80" viewBox="0 0 80 80" fill="none" xmlns="http://www.w3.org/2000/svg">
<path d="M40.6252 2.49989C41.2246 2.76353 41.7695 3.10092 42.3244 3.44716C42.6596 3.64955 42.9949 3.85178 43.3302 4.05385C43.5026 4.15884 43.6751 4.26382 43.8527 4.37199C44.69 4.87745 45.5385 5.36302 46.3869 5.8495C46.7283 6.04617 47.0697 6.24291 47.411 6.43971C47.6654 6.58621 47.6654 6.58621 47.9248 6.73566C48.7731 7.22439 49.621 7.71373 50.4689 8.20302C50.8074 8.39833 51.146 8.59365 51.4845 8.78896C54.8699 10.7421 58.2554 12.6952 61.6408 14.6483C61.8084 14.745 61.976 14.8417 62.1487 14.9414C62.4868 15.1364 62.8248 15.3315 63.1628 15.5266C64.0167 16.0193 64.8707 16.5116 65.7252 17.0031C67.3844 17.9577 69.0419 18.915 70.6935 19.8827C70.8379 19.9666 70.9822 20.0505 71.131 20.137C71.3298 20.254 71.3298 20.254 71.5327 20.3734C71.6484 20.4412 71.7641 20.5089 71.8833 20.5787C72.1923 20.7843 72.4182 20.9653 72.6564 21.2499C72.7157 21.5477 72.7157 21.5477 72.7167 21.891C72.7182 22.0221 72.7197 22.1532 72.7213 22.2882C72.7206 22.4323 72.7198 22.5763 72.7191 22.7247C72.7201 22.8776 72.7212 23.0306 72.7223 23.1882C72.7253 23.7032 72.7249 24.2181 72.7245 24.7331C72.7259 25.1013 72.7275 25.4696 72.7293 25.8379C72.7334 26.8399 72.7345 27.842 72.7348 28.844C72.735 29.4696 72.7361 30.0952 72.7374 30.7208C72.7415 32.7892 72.7437 34.8576 72.7433 36.9261C72.7433 37.0376 72.7433 37.1491 72.7433 37.2641C72.7432 37.3757 72.7432 37.4874 72.7432 37.6025C72.743 39.4126 72.7475 41.2226 72.7541 43.0327C72.7608 44.8907 72.7641 46.7487 72.7637 48.6067C72.7635 49.6501 72.7649 50.6934 72.7699 51.7368C72.7744 52.7179 72.7744 53.6989 72.771 54.68C72.7705 55.0405 72.7716 55.401 72.7745 55.7615C72.7781 56.2529 72.7759 56.744 72.7723 57.2355C72.7747 57.3788 72.7771 57.5221 72.7796 57.6697C72.7642 58.6121 72.7642 58.6121 72.4556 59.0067C71.9594 59.4297 71.3802 59.7532 70.8131 60.0719C70.6397 60.1701 70.4662 60.2683 70.2875 60.3695C70.1006 60.4742 69.9137 60.5788 69.7267 60.6835C69.531 60.794 69.3353 60.9047 69.1396 61.0155C68.8382 61.1861 68.5368 61.3567 68.2351 61.527C67.2508 62.0826 66.2716 62.6469 65.2931 63.2128C64.9574 63.4067 64.6217 63.6006 64.286 63.7944C64.1204 63.8901 63.9548 63.9858 63.7842 64.0844C62.9397 64.5723 62.0949 65.0595 61.2501 65.5468C60.9116 65.7421 60.5731 65.9374 60.2345 66.1327C50.0783 71.9921 50.0783 71.9921 49.57 72.2853C49.2329 72.4798 48.8957 72.6744 48.5586 72.8689C47.6912 73.3695 46.8235 73.8696 45.9554 74.3688C45.7787 74.4705 45.602 74.5722 45.42 74.677C45.0727 74.8768 44.7253 75.0763 44.3777 75.2755C43.6565 75.6901 42.9391 76.1068 42.2371 76.5532C42.1308 76.6202 42.0245 76.6872 41.9149 76.7563C41.6474 76.9266 41.3821 77.1004 41.1171 77.2747C40.5047 77.555 40.0277 77.6454 39.3752 77.4999C38.7757 77.2363 38.2308 76.8989 37.6759 76.5526C37.3407 76.3502 37.0055 76.148 36.6701 75.9459C36.4977 75.841 36.3252 75.736 36.1476 75.6278C35.3103 75.1223 34.4618 74.6368 33.6134 74.1503C33.272 73.9536 32.9306 73.7569 32.5893 73.5601C32.4197 73.4624 32.2502 73.3648 32.0755 73.2641C31.2272 72.7754 30.3793 72.286 29.5314 71.7968C29.1929 71.6015 28.8543 71.4061 28.5158 71.2108C25.1304 69.2577 21.7449 67.3046 18.3595 65.3515C18.1081 65.2064 18.1081 65.2064 17.8516 65.0584C17.5135 64.8634 17.1755 64.6683 16.8375 64.4732C15.9836 63.9805 15.1296 63.4882 14.2751 62.9967C12.6159 62.0421 10.9584 61.0847 9.30679 60.1171C9.09024 59.9912 9.09024 59.9912 8.86932 59.8628C8.73674 59.7848 8.60416 59.7067 8.46756 59.6264C8.35186 59.5586 8.23616 59.4909 8.11695 59.4211C7.80798 59.2155 7.58211 59.0345 7.3439 58.7499C7.2846 58.4521 7.2846 58.4521 7.2836 58.1087C7.28209 57.9777 7.28058 57.8466 7.27902 57.7115C7.27975 57.5675 7.28048 57.4235 7.28122 57.2751C7.28016 57.1222 7.2791 56.9692 7.278 56.8116C7.27503 56.2966 7.27542 55.7817 7.27581 55.2667C7.27441 54.8984 7.27281 54.5302 7.27104 54.1619C7.26689 53.1599 7.2658 52.1578 7.2655 51.1558C7.26527 50.5302 7.2642 49.9046 7.26292 49.279C7.25879 47.2106 7.25663 45.1422 7.25698 43.0737C7.257 42.9622 7.25702 42.8506 7.25704 42.7357C7.25706 42.624 7.25708 42.5124 7.2571 42.3973C7.25729 40.5872 7.2528 38.7772 7.24619 36.9671C7.23946 35.1091 7.23622 33.2511 7.23663 31.3931C7.23679 30.3497 7.2354 29.3064 7.23045 28.263C7.22592 27.2819 7.22587 26.3009 7.22929 25.3197C7.22978 24.9593 7.22866 24.5988 7.22584 24.2383C7.22224 23.7469 7.22438 23.2558 7.22801 22.7643C7.2256 22.621 7.22319 22.4777 7.2207 22.33C7.2361 21.3877 7.2361 21.3877 7.54475 20.9931C8.04094 20.5701 8.62005 20.2466 9.18716 19.9279C9.36061 19.8297 9.53405 19.7315 9.71275 19.6303C9.8997 19.5256 10.0866 19.421 10.2736 19.3163C10.4693 19.2057 10.665 19.0951 10.8607 18.9843C11.1621 18.8136 11.4635 18.6431 11.7652 18.4728C12.7495 17.9172 13.7287 17.3529 14.7072 16.787C15.0429 16.5931 15.3786 16.3992 15.7143 16.2053C15.8799 16.1096 16.0455 16.0139 16.2161 15.9153C17.0606 15.4275 17.9054 14.9403 18.7502 14.453C19.0887 14.2577 19.4272 14.0624 19.7658 13.8671C29.922 8.00771 29.922 8.00771 30.4303 7.71451C30.7674 7.51998 31.1046 7.32544 31.4417 7.13086C32.3091 6.63028 33.1768 6.13022 34.045 5.631C34.2216 5.52929 34.3983 5.42759 34.5803 5.32281C34.9276 5.12299 35.275 4.92348 35.6226 4.72428C36.3438 4.30969 37.0612 3.89295 37.7632 3.44655C37.9227 3.34605 37.9227 3.34605 38.0854 3.24353C38.3529 3.07319 38.6182 2.89933 38.8832 2.72511C39.4956 2.44474 39.9726 2.35437 40.6252 2.49989ZM38.9491 5.23976C38.8029 5.32636 38.6567 5.41295 38.5061 5.50217C38.3482 5.59746 38.1902 5.69274 38.0275 5.79091C37.6866 5.99326 37.3456 6.19548 37.0045 6.3976C36.8282 6.50259 36.6519 6.60757 36.4702 6.71574C35.6263 7.21555 34.7762 7.70438 33.9259 8.19325C33.5845 8.38997 33.2431 8.5867 32.9018 8.78346C32.7322 8.88112 32.5627 8.97879 32.388 9.07941C31.5397 9.56814 30.6918 10.0575 29.8439 10.5468C29.5054 10.7421 29.1668 10.9374 28.8283 11.1327C28.6607 11.2294 28.4931 11.3261 28.3205 11.4257C18.672 16.9921 18.672 16.9921 18.1635 17.2855C17.8274 17.4793 17.4914 17.6733 17.1555 17.8672C16.3652 18.3234 15.5747 18.7791 14.7833 19.2334C14.4112 19.447 14.0392 19.6609 13.6672 19.8748C13.4059 20.025 13.1444 20.1748 12.8828 20.3246C12.1133 20.7673 11.3544 21.2119 10.6252 21.7186C11.1303 22.1391 11.6295 22.4903 12.2054 22.8063C12.36 22.8918 12.5146 22.9773 12.6738 23.0655C12.9214 23.2012 12.9214 23.2012 13.174 23.3397C14.735 24.2037 16.2817 25.0886 17.8174 25.9968C18.1028 26.1649 18.3897 26.3306 18.6781 26.4934C19.0627 26.7186 19.0627 26.7186 19.3813 26.954C19.7085 27.1753 19.9199 27.2918 20.3127 27.3436C20.9959 27.1209 21.5666 26.7448 22.1681 26.3573C22.3472 26.2471 22.5267 26.1375 22.7064 26.0283C23.0796 25.8012 23.4513 25.5718 23.822 25.3407C24.6706 24.8144 25.5394 24.3231 26.4064 23.828C26.745 23.6329 27.0836 23.4376 27.422 23.2421C41.6408 15.039 41.6408 15.039 42.1494 14.7455C42.4853 14.5518 42.8211 14.358 43.157 14.1642C43.9491 13.7072 44.7412 13.2502 45.5335 12.7936C45.9071 12.5783 46.2806 12.363 46.6542 12.1476C46.9173 11.9959 47.1805 11.8443 47.4437 11.6927C47.6035 11.6006 47.7633 11.5084 47.928 11.4135C48.1384 11.2922 48.1384 11.2922 48.353 11.1686C48.4841 11.0923 48.6151 11.016 48.7501 10.9374C48.896 10.8567 49.0419 10.776 49.1922 10.6928C49.3041 10.6188 49.4161 10.5449 49.5314 10.4686C49.5314 10.3655 49.5314 10.2624 49.5314 10.1561C49.3719 10.0687 49.2124 9.98131 49.048 9.89125C47.6327 9.11214 46.2292 8.31474 44.8341 7.49989C44.6756 7.40739 44.517 7.31489 44.3536 7.21959C43.6201 6.79066 42.8884 6.35902 42.1614 5.91908C42.0395 5.84577 41.9175 5.77245 41.7919 5.69691C41.5676 5.56179 41.3441 5.42555 41.1213 5.28798C40.2682 4.77499 39.7988 4.73035 38.9491 5.23976ZM50.9578 11.9927C50.796 12.0863 50.6341 12.18 50.4674 12.2765C50.2906 12.3792 50.1139 12.4819 49.9318 12.5878C49.7474 12.6946 49.563 12.8014 49.3785 12.9082C48.9946 13.1305 48.6109 13.3529 48.2272 13.5754C47.3607 14.0777 46.4928 14.5778 45.6252 15.078C45.2866 15.2733 44.9481 15.4686 44.6095 15.664C34.4533 21.5233 34.4533 21.5233 33.9454 21.8163C33.6071 22.0115 33.2688 22.2067 32.9305 22.4019C32.0804 22.8924 31.2302 23.3827 30.3798 23.8726C28.5224 24.9428 26.6673 26.0169 24.8167 27.0989C24.0467 27.549 23.2755 27.9966 22.5002 28.4374C22.5002 28.5405 22.5002 28.6436 22.5002 28.7499C22.6103 28.8112 22.7204 28.8726 22.8339 28.9358C23.3413 29.2186 23.8485 29.5018 24.3556 29.785C24.5288 29.8815 24.7021 29.978 24.8805 30.0774C25.1373 30.2209 25.1373 30.2209 25.3993 30.3673C25.5693 30.462 25.7392 30.5568 25.9143 30.6543C26.4981 30.9901 27.0629 31.3516 27.6229 31.7256C28.0747 31.9206 28.286 31.8695 28.7502 31.7186C29.1269 31.5393 29.1269 31.5393 29.5039 31.3073C29.6496 31.2212 29.7953 31.1351 29.9454 31.0464C30.1021 30.9524 30.2587 30.8584 30.4201 30.7616C30.7596 30.5607 31.0991 30.3599 31.4387 30.1592C31.6141 30.0552 31.7895 29.9512 31.9701 29.844C32.8137 29.346 33.6627 28.8575 34.5119 28.369C34.8533 28.1723 35.1947 27.9756 35.536 27.7788C35.7056 27.6812 35.8751 27.5835 36.0498 27.4829C36.8981 26.9941 37.746 26.5048 38.5939 26.0155C38.9324 25.8202 39.271 25.6249 39.6095 25.4296C39.7771 25.3329 39.9447 25.2362 40.1173 25.1366C49.7658 19.5702 49.7658 19.5702 50.2744 19.2768C50.6102 19.083 50.946 18.8891 51.2817 18.6951C52.0739 18.2373 52.8669 17.7808 53.6625 17.3289C54.0379 17.1156 54.4128 16.9015 54.7877 16.6874C55.0522 16.5368 55.3173 16.3872 55.5824 16.2377C55.7428 16.146 55.9031 16.0544 56.0683 15.96C56.2799 15.84 56.2799 15.84 56.4957 15.7176C56.8846 15.4625 57.1842 15.1834 57.5001 14.8436C56.0703 13.9996 54.6386 13.1588 53.2033 12.3241C53.0086 12.2104 53.0086 12.2104 52.81 12.0944C52.63 11.99 52.63 11.99 52.4464 11.8834C52.3398 11.8214 52.2331 11.7593 52.1233 11.6954C51.646 11.4396 51.4057 11.7328 50.9578 11.9927ZM58.8081 16.646C58.6614 16.7326 58.5147 16.8192 58.3636 16.9084C58.2043 17.0037 58.0451 17.099 57.881 17.1972C57.5387 17.3995 57.1963 17.6017 56.8538 17.8038C56.6765 17.9088 56.4991 18.0138 56.3164 18.122C55.4709 18.6204 54.6204 19.11 53.7697 19.5995C53.4283 19.7962 53.0869 19.993 52.7455 20.1897C52.576 20.2874 52.4064 20.385 52.2317 20.4857C51.3835 20.9744 50.5356 21.4637 49.6876 21.953C49.3491 22.1483 49.0106 22.3436 48.672 22.539C48.5044 22.6356 48.3369 22.7323 48.1642 22.8319C46.6408 23.7108 46.6408 23.7108 46.1329 24.0038C45.7946 24.199 45.4563 24.3942 45.118 24.5894C44.2679 25.0799 43.4177 25.5702 42.5673 26.0601C40.7822 27.0886 38.9999 28.1215 37.2218 29.1621C36.3529 29.6697 35.4814 30.1725 34.6071 30.6707C34.508 30.7272 34.4088 30.7837 34.3067 30.8419C33.8226 31.1176 33.3383 31.3928 32.8536 31.6673C32.6786 31.7668 32.5035 31.8664 32.3231 31.9689C32.1686 32.0564 32.0141 32.144 31.8549 32.2342C31.3802 32.5154 30.9254 32.815 30.4689 33.1249C30.8224 33.5116 31.1802 33.7538 31.6377 34.0069C31.7792 34.0858 31.9206 34.1647 32.0664 34.2461C32.2192 34.3305 32.372 34.4149 32.5294 34.5018C32.8547 34.6835 33.1798 34.8654 33.5048 35.0475C33.6733 35.1419 33.8419 35.2363 34.0155 35.3336C34.8594 35.8101 35.6967 36.2979 36.5334 36.787C36.685 36.8755 36.8366 36.964 36.9928 37.0551C37.1386 37.1405 37.2845 37.2258 37.4348 37.3137C37.5758 37.3955 37.7167 37.4772 37.8619 37.5615C38.1486 37.733 38.4313 37.9115 38.7101 38.0957C38.8464 38.1845 38.9827 38.2733 39.1231 38.3648C39.2433 38.4461 39.3634 38.5275 39.4873 38.6114C39.8434 38.79 39.8434 38.79 40.2239 38.6487C40.6589 38.4196 41.0895 38.1875 41.5157 37.9424C41.6896 37.8427 41.8635 37.743 42.0428 37.6402C42.231 37.5316 42.4193 37.423 42.6076 37.3143C42.804 37.2015 43.0004 37.0887 43.1968 36.9759C43.7011 36.6862 44.2051 36.3959 44.709 36.1053C45.1557 35.8477 45.6025 35.5905 46.0493 35.3331C46.8865 34.8507 47.7233 34.3675 48.5599 33.8841C49.4043 33.3963 50.2491 32.909 51.0939 32.4218C51.4324 32.2265 51.771 32.0311 52.1095 31.8358C57.8647 28.5155 63.6199 25.1952 69.3751 21.8749C68.9412 21.4079 68.5253 21.092 67.9665 20.7872C67.7338 20.659 67.7338 20.659 67.4964 20.5281C67.3301 20.4376 67.1637 20.3471 66.9923 20.2538C66.6402 20.0596 66.2882 19.8651 65.9364 19.6703C65.7561 19.5705 65.5758 19.4707 65.39 19.3679C64.21 18.7107 63.0486 18.021 61.8837 17.3375C61.6794 17.2181 61.6794 17.2181 61.4709 17.0963C61.2338 16.957 60.9974 16.8165 60.762 16.6742C59.9475 16.1884 59.6146 16.1656 58.8081 16.646ZM9.5314 23.7499C9.45101 28.1355 9.39044 32.521 9.3533 36.9071C9.33559 38.9439 9.31146 40.9801 9.27208 43.0166C9.23776 44.7921 9.21563 46.5673 9.20797 48.3431C9.2035 49.2832 9.19303 50.2223 9.16795 51.1621C8.8784 54.795 8.87841 54.795 9.86778 58.1645C10.6597 58.912 11.5233 59.2871 12.5646 59.5688C13.1288 59.7343 13.5571 59.9994 14.0504 60.3161C14.3539 60.4908 14.6574 60.6654 14.9611 60.8397C15.3053 61.0379 15.6496 61.2361 15.9938 61.4342C16.1653 61.5329 16.3368 61.6315 16.5135 61.7331C17.3637 62.2223 18.2131 62.7127 19.0627 63.203C19.4012 63.3983 19.7397 63.5937 20.0783 63.789C23.4637 65.7421 26.8491 67.6952 30.2345 69.6483C30.4023 69.7451 30.5701 69.8419 30.743 69.9417C31.0793 70.1357 31.4155 70.3297 31.7518 70.5238C32.5393 70.9783 33.3269 71.4325 34.1152 71.8856C34.3935 72.0456 34.6718 72.2058 34.9501 72.3659C35.2987 72.5665 35.6474 72.7669 35.9962 72.9671C36.6942 73.3689 37.3871 73.7732 38.0653 74.2077C38.535 74.5583 38.535 74.5583 38.9064 74.5311C38.9539 70.132 38.9897 65.7328 39.0116 61.3334C39.0221 59.2907 39.0364 57.2481 39.0596 55.2055C39.0799 53.4251 39.093 51.6449 39.0975 49.8644C39.1002 48.9216 39.1064 47.9791 39.1212 47.0364C39.135 46.1488 39.1392 45.2616 39.1362 44.374C39.1367 44.0484 39.1407 43.7229 39.1485 43.3974C39.2556 41.8034 39.2556 41.8034 38.7053 40.3724C38.159 39.8994 37.5464 39.6369 36.8752 39.3749C36.6792 39.2655 36.4851 39.1526 36.295 39.0332C36.1432 38.947 35.9915 38.8607 35.8351 38.7719C35.6608 38.6726 35.4866 38.5733 35.307 38.471C35.1284 38.3697 34.9498 38.2683 34.7658 38.164C34.5759 38.056 34.386 37.9479 34.1961 37.8399C33.9089 37.6764 33.6216 37.5129 33.3343 37.3497C32.7194 37.0001 32.1056 36.6488 31.4925 36.2963C31.3402 36.2088 31.1879 36.1213 31.031 36.0312C30.7463 35.8676 30.4616 35.7037 30.1772 35.5396C30.0521 35.4678 29.927 35.3961 29.7981 35.3222C29.6893 35.2595 29.5805 35.1969 29.4684 35.1323C29.243 34.9877 29.243 34.9877 29.0627 34.9999C29.0613 35.221 29.0613 35.221 29.0599 35.4465C29.0509 36.8352 29.0396 38.2238 29.0258 39.6124C29.0188 40.3264 29.0127 41.0403 29.0085 41.7542C29.0045 42.4431 28.9981 43.132 28.9903 43.8209C28.9877 44.0838 28.9859 44.3467 28.9849 44.6096C28.9834 44.9777 28.979 45.3457 28.974 45.7139C28.9743 45.877 28.9743 45.877 28.9746 46.0435C28.9654 46.5165 28.9272 46.8377 28.6947 47.2539C28.4377 47.4999 28.4377 47.4999 28.008 47.5975C26.9305 47.3903 26.2688 46.4289 25.5873 45.6267C25.235 45.2235 24.8568 44.8526 24.4716 44.4811C24.2256 44.2256 24.0323 43.9611 23.8283 43.6718C23.4732 43.2285 23.4732 43.2285 22.9591 43.2616C22.2687 43.4267 21.5973 43.6855 20.9322 43.9312C20.4315 44.073 20.0488 44.1191 19.5314 44.0624C19.2724 43.8624 19.2724 43.8624 19.0627 43.5936C19.0264 43.1271 19.0185 42.6944 19.0323 42.2288C19.0355 42.0195 19.0355 42.0195 19.0389 41.806C19.0436 41.5026 19.0493 41.1993 19.0558 40.8959C19.0684 40.2501 19.0724 39.6044 19.0769 38.9585C19.0852 37.7558 19.0968 36.5535 19.1242 35.3512C19.143 34.5147 19.1502 33.6788 19.1499 32.8421C19.152 32.524 19.1582 32.2058 19.1688 31.8879C19.2847 30.2488 19.2847 30.2488 18.681 28.7954C18.129 28.3399 17.5213 28.0486 16.861 27.7828C16.3932 27.5842 15.9732 27.3237 15.5385 27.0611C15.2094 26.8718 14.8802 26.6828 14.5509 26.494C12.5802 25.3622 12.5802 25.3622 11.6591 24.8143C11.5356 24.7409 11.4121 24.6675 11.2849 24.5918C11.0593 24.4573 10.8341 24.3221 10.6094 24.1863C10.1056 23.8587 10.1056 23.8587 9.5314 23.7499ZM69.4484 24.146C69.2276 24.2759 69.2276 24.2759 69.0023 24.4084C68.8417 24.5037 68.6812 24.599 68.5158 24.6972C68.172 24.8995 67.8282 25.1017 67.4843 25.3038C67.3509 25.3824 67.351 25.3824 67.2149 25.4625C66.2782 26.0139 65.3367 26.5571 64.3947 27.0995C64.142 27.2451 64.142 27.2451 63.8841 27.3937C63.5417 27.5911 63.1992 27.7884 62.8567 27.9857C62.0085 28.4744 61.1606 28.9637 60.3126 29.453C59.9741 29.6483 59.6356 29.8436 59.297 30.039C59.1294 30.1356 58.9619 30.2323 58.7892 30.3319C49.1408 35.8983 49.1408 35.8983 48.6322 36.1917C48.2962 36.3856 47.9602 36.5795 47.6242 36.7735C46.8339 37.2296 46.0434 37.6854 45.2521 38.1396C44.88 38.3533 44.508 38.5672 44.136 38.7811C43.8746 38.9312 43.6131 39.0811 43.3516 39.2309C43.1923 39.3225 43.033 39.4141 42.8688 39.5086C42.7294 39.5886 42.5899 39.6686 42.4463 39.751C42.2409 39.8742 42.2409 39.8742 42.0314 39.9999C41.8705 40.0801 41.7096 40.1602 41.5438 40.2428C41.0339 40.5949 41.0339 40.5949 40.9785 41.2313C40.9746 41.4833 40.9759 41.7353 40.9812 41.9873C40.9804 42.1263 40.9796 42.2652 40.9787 42.4085C40.9772 42.8752 40.9824 43.3416 40.9875 43.8083C40.9877 44.1425 40.9876 44.4766 40.9871 44.8108C40.9868 45.7189 40.9923 46.6268 40.9988 47.5349C41.0047 48.4835 41.0053 49.4322 41.0064 50.3808C41.0093 52.1776 41.017 53.9744 41.0264 55.7712C41.0369 57.8165 41.042 59.8619 41.0467 61.9073C41.0565 66.1153 41.073 70.3232 41.0939 74.5311C41.6863 74.3001 42.2247 74.035 42.7766 73.7182C42.9522 73.6176 43.1277 73.5171 43.3086 73.4136C43.4981 73.3044 43.6876 73.1951 43.8771 73.0858C44.0745 72.9725 44.272 72.8592 44.4695 72.7459C45.8438 71.9565 47.2132 71.1588 48.581 70.358C49.7787 69.6577 50.9822 68.968 52.1876 68.2811C53.7066 67.4155 55.2203 66.5415 56.7294 65.6587C58.3737 64.6971 60.0242 63.7462 61.6748 62.7954C62.6895 62.2107 63.7038 61.6253 64.7181 61.0399C65.5157 60.5795 66.3136 60.1195 67.1121 59.6606C67.4918 59.4423 67.8714 59.2239 68.251 59.0054C68.5209 58.8502 68.791 58.6952 69.0611 58.5402C69.223 58.4471 69.3848 58.3539 69.5515 58.2579C69.6951 58.1755 69.8386 58.093 69.9865 58.0081C70.2994 57.8383 70.2994 57.8383 70.4689 57.6561C70.4842 57.2195 70.4892 56.7868 70.4877 56.3501C70.4878 56.2115 70.488 56.073 70.4881 55.9302C70.4884 55.4621 70.4875 54.994 70.4866 54.5259C70.4866 54.1918 70.4866 53.8578 70.4867 53.5237C70.4868 52.6137 70.4858 51.7037 70.4847 50.7936C70.4838 49.8438 70.4837 48.8939 70.4835 47.944C70.483 46.1439 70.4817 44.3438 70.4802 42.5436C70.4784 40.4949 70.4776 38.4461 70.4768 36.3973C70.4751 32.1815 70.4724 27.9657 70.4689 23.7499C70.0381 23.7499 69.8192 23.9265 69.4484 24.146ZM21.0939 30.3124C21.0939 34.0249 21.0939 37.7374 21.0939 41.5624C22.0403 41.36 22.0403 41.36 22.9689 41.0936C23.4848 41.0242 23.8795 40.9838 24.3385 41.259C24.9572 41.7732 25.4769 42.3761 25.9883 42.9949C26.2863 43.3384 26.2863 43.3384 26.8752 43.7499C26.8752 40.3983 26.8752 37.0468 26.8752 33.5936C23.9911 31.9414 23.9911 31.9414 21.0939 30.3124Z" fill="black"/>
<path d="M64.9996 33.2811C65.3588 33.6404 65.4023 33.8322 65.5257 34.3181C65.5638 34.468 65.6019 34.6178 65.6412 34.7722C65.6808 34.9344 65.7205 35.0965 65.7613 35.2636C65.823 35.5131 65.823 35.5131 65.8859 35.7677C66.5795 38.643 67.0608 41.5126 67.0683 44.4723C67.0698 44.8282 67.0747 45.1839 67.0796 45.5397C67.1081 49.4854 66.0588 53.3236 63.2808 56.2499C60.5952 58.8799 57.2246 59.9316 53.5933 60.4686C53.4549 60.4894 53.3166 60.5101 53.174 60.5315C52.2737 60.6487 51.3749 60.6401 50.4683 60.6249C50.4248 60.7403 50.3813 60.8557 50.3365 60.9746C50.1726 61.366 49.9919 61.703 49.7652 62.0604C49.6991 62.1658 49.6331 62.2711 49.565 62.3796C49.3746 62.6561 49.3746 62.6561 49.0621 62.9686C48.5005 63.0419 48.2259 63.0379 47.7535 62.7147C47.4055 62.2062 47.3864 62.0173 47.4996 61.4061C47.7315 60.9992 47.9795 60.6131 48.2472 60.2288C48.4649 59.8621 48.4649 59.8621 48.4285 59.489C48.2142 58.8701 47.9202 58.2992 47.6265 57.7147C45.788 53.9414 44.8183 49.5609 46.1426 45.4568C47.7248 41.0093 51.6021 38.0534 55.7024 36.0601C58.1498 34.902 60.6859 34.0432 63.2808 33.2811C63.3906 33.2488 63.5005 33.2165 63.6136 33.1832C64.0957 33.087 64.5233 33.1841 64.9996 33.2811ZM60.2046 36.5722C60.0067 36.645 60.0067 36.645 59.8047 36.7193C58.5873 37.1752 57.4154 37.7078 56.2496 38.2811C56.3482 39.3399 56.683 40.3044 57.021 41.3085C57.0773 41.4811 57.1336 41.6537 57.1916 41.8316C57.2463 41.9953 57.301 42.1591 57.3573 42.3278C57.4071 42.4771 57.4568 42.6264 57.5081 42.7803C57.6229 43.1505 57.6229 43.1505 57.9683 43.2811C58.0311 43.1672 58.0939 43.0534 58.1587 42.936C58.4529 42.4031 58.7476 41.8704 59.0425 41.3378C59.0955 41.2421 59.1485 41.1464 59.2031 41.0477C59.9271 39.7407 60.6619 38.4414 61.4378 37.1642C61.766 36.6645 61.766 36.6645 61.8746 36.0936C61.2922 36.0936 60.746 36.3724 60.2046 36.5722ZM63.7496 37.1874C63.6867 37.3013 63.6239 37.4152 63.5592 37.5325C62.3483 39.7258 61.1316 41.9132 59.8433 44.0624C60.4497 44.292 60.8781 44.1402 61.4864 43.9605C61.6818 43.9036 61.8771 43.8467 62.0784 43.788C62.2839 43.7265 62.4894 43.665 62.6949 43.6034C62.9028 43.5423 63.1107 43.4814 63.3187 43.4206C63.8273 43.2713 64.3355 43.1206 64.8433 42.9686C64.7679 41.6337 64.6442 40.3351 64.3843 39.0233C64.3578 38.8793 64.3314 38.7353 64.3041 38.5869C64.1847 37.8096 64.1847 37.8096 63.7496 37.1874ZM54.0621 39.5311C52.9993 40.2412 52.0293 41.0044 51.0933 41.8749C51.3092 42.9314 51.6032 43.9358 51.949 44.9566C52.0006 45.1106 52.0522 45.2647 52.1053 45.4234C52.2686 45.9107 52.4329 46.3977 52.5972 46.8847C52.7088 47.217 52.8203 47.5493 52.9317 47.8817C53.2036 48.6922 53.4762 49.5024 53.7496 50.3124C54.1608 49.9174 54.4223 49.527 54.7029 49.0282C54.7924 48.8697 54.8818 48.7112 54.9739 48.5479C55.0662 48.3825 55.1584 48.2171 55.2535 48.0468C55.3469 47.8814 55.4404 47.716 55.5367 47.5457C56.18 46.5779 56.18 46.5779 56.3496 45.4945C56.3141 45.3877 56.2786 45.281 56.242 45.171C56.2024 45.0496 56.1627 44.9281 56.1218 44.8029C56.0776 44.6726 56.0333 44.5422 55.9877 44.4078C55.9432 44.2736 55.8986 44.1394 55.8527 44.0011C55.7581 43.7175 55.6628 43.434 55.5669 43.1508C55.4199 42.716 55.2757 42.2803 55.1317 41.8444C55.0396 41.5692 54.9473 41.2942 54.8549 41.0192C54.8116 40.8882 54.7683 40.7571 54.7237 40.6222C54.5468 39.9577 54.5468 39.9577 54.0621 39.5311ZM49.2183 44.0624C49.07 44.3642 48.924 44.6672 48.7789 44.9706C48.6565 45.2235 48.6565 45.2235 48.5317 45.4815C47.953 46.8137 47.7281 48.114 47.7437 49.5604C47.7449 49.7168 47.7461 49.8733 47.7473 50.0344C47.7773 51.4011 47.9927 52.6128 48.4371 53.9061C48.4747 54.016 48.5123 54.1258 48.5511 54.239C48.923 55.304 49.3231 56.3403 49.8433 57.3436C50.5062 56.592 50.9696 55.7343 51.4546 54.8632C51.5426 54.7119 51.6305 54.5606 51.7211 54.4048C51.8033 54.2568 51.8856 54.1087 51.9704 53.9562C52.0458 53.8229 52.1212 53.6896 52.1988 53.5522C52.5706 52.4524 51.9455 51.2255 51.5907 50.1812C51.532 50.0058 51.4733 49.8305 51.4128 49.6499C51.2258 49.0924 51.0375 48.5354 50.8492 47.9784C50.7218 47.5995 50.5946 47.2206 50.4674 46.8416C50.1562 45.9149 49.8439 44.9885 49.5308 44.0624C49.4277 44.0624 49.3246 44.0624 49.2183 44.0624ZM62.0275 45.8475C61.7311 45.9267 61.4344 46.0048 61.1373 46.0816C60.7089 46.1925 60.2816 46.3072 59.8543 46.4226C59.7218 46.4562 59.5893 46.4897 59.4528 46.5243C58.667 46.7419 58.2567 46.9343 57.8121 47.6561C57.6917 47.8467 57.6917 47.8467 57.569 48.0411C57.4937 48.1725 57.4184 48.3038 57.3409 48.4392C57.2583 48.5833 57.1757 48.7274 57.0906 48.8759C56.9643 49.0987 56.9643 49.0987 56.8355 49.3261C56.7489 49.4764 56.6623 49.6268 56.573 49.7817C56.4913 49.9252 56.4095 50.0687 56.3252 50.2166C56.2507 50.3474 56.1761 50.4783 56.0993 50.6131C55.9138 50.9235 55.9138 50.9235 55.9371 51.2499C57.6939 50.8503 59.4356 50.4108 61.1712 49.9273C61.5496 49.8221 61.9285 49.7184 62.3073 49.6148C62.55 49.5475 62.7928 49.4802 63.0355 49.4127C63.1477 49.3821 63.26 49.3515 63.3757 49.32C63.8791 49.1785 64.2477 49.0428 64.6871 48.7499C64.7736 48.3412 64.832 47.962 64.8726 47.5487C64.8854 47.44 64.8982 47.3314 64.9114 47.2194C64.9882 46.5281 65.0114 45.8515 64.9996 45.1561C64.0302 45.1561 62.963 45.5959 62.0275 45.8475ZM59.8234 52.2788C59.2994 52.4186 58.775 52.5553 58.2483 52.6848C55.5165 53.2196 55.5165 53.2196 53.5121 54.9327C53.3718 55.2631 53.241 55.5979 53.1246 55.9374C52.9985 56.1627 52.8674 56.3853 52.7291 56.6033C52.6275 56.7799 52.526 56.9566 52.4214 57.1386C52.3405 57.2774 52.3405 57.2774 52.2579 57.419C51.9657 57.8973 51.9657 57.8973 51.8746 58.4374C55.7105 58.287 59.4884 57.0414 62.1871 54.2186C63.2611 52.9425 63.2611 52.9425 63.7496 51.4061C62.4388 51.4061 61.0862 51.9416 59.8234 52.2788Z" fill="#28A745"/>
<path d="M13.2811 48.5938C13.9263 48.8851 14.5225 49.2515 15.1268 49.6192C15.3951 49.7787 15.6635 49.9382 15.9321 50.0974C16.1178 50.2078 16.3034 50.3185 16.4888 50.4294C17.1551 50.8282 17.8269 51.216 18.5026 51.5986C18.6899 51.7049 18.8772 51.8113 19.0646 51.9177C19.4226 52.121 19.7812 52.3234 20.1401 52.5254C20.3016 52.6178 20.4632 52.7101 20.6297 52.8052C20.7724 52.886 20.9151 52.9669 21.0621 53.0501C21.4061 53.2813 21.4061 53.2813 21.7186 53.75C21.7869 54.209 21.7869 54.209 21.7186 54.6875C21.3865 55.0684 21.3865 55.0684 20.9373 55.3125C20.2124 55.2589 19.7063 55.0341 19.0831 54.6711C18.82 54.5193 18.82 54.5193 18.5516 54.3644C18.3638 54.2541 18.1759 54.1437 17.9881 54.0333C17.7945 53.9207 17.6009 53.8083 17.4071 53.696C17.0096 53.4652 16.6127 53.2336 16.216 53.0014C15.6485 52.6695 15.0787 52.3418 14.5085 52.0148C14.1677 51.8186 13.8269 51.6222 13.4861 51.4258C13.3257 51.3339 13.1653 51.2421 13.0001 51.1474C12.8537 51.0624 12.7074 50.9775 12.5566 50.8899C12.4281 50.8158 12.2997 50.7418 12.1674 50.6654C11.8748 50.4688 11.8748 50.4688 11.7186 50.1563C11.6483 49.1906 11.6483 49.1906 11.8846 48.7598C12.3603 48.499 12.7611 48.4907 13.2811 48.5938Z" fill="black"/>
<path d="M13.2812 53.5936C13.7076 53.7842 14.1079 54.014 14.5117 54.2479C14.6311 54.3157 14.7504 54.3834 14.8734 54.4532C15.2813 54.6856 15.6876 54.9206 16.0938 55.1561C16.2495 55.2462 16.4052 55.3363 16.5657 55.429C17.5156 55.9789 18.4646 56.5303 19.4097 57.0882C19.7032 57.261 19.9978 57.4319 20.2934 57.6012C20.434 57.6828 20.5747 57.7643 20.7196 57.8484C20.8451 57.9203 20.9706 57.9923 21.1 58.0664C21.4062 58.2811 21.4062 58.2811 21.6895 58.7597C21.7257 59.327 21.5929 59.5554 21.25 59.9999C21.0938 60.1561 21.0938 60.1561 20.7019 60.2111C19.9434 60.1347 19.4219 59.8121 18.7695 59.4335C18.6356 59.3577 18.5017 59.2819 18.3638 59.2039C17.9182 58.9507 17.4747 58.6942 17.0312 58.4374C16.8698 58.3447 16.7083 58.2519 16.542 58.1564C12.0516 55.5772 12.0516 55.5772 11.5625 54.8436C11.5848 54.3088 11.6274 54.011 11.9824 53.6034C12.4873 53.3715 12.7421 53.4603 13.2812 53.5936Z" fill="black"/>
</svg>
