<svg width="96" height="95" viewBox="0 0 96 95" fill="none" xmlns="http://www.w3.org/2000/svg">
<g clip-path="url(#clip0_737_1276)">
<path d="M22.2214 14.6349C26.4007 14.512 30.1091 16.1462 33.1571 18.9257C35.3328 21.0352 36.7657 23.7268 37.2391 26.7186C37.3625 26.7181 37.4859 26.7176 37.613 26.7171C40.6223 26.7048 43.6316 26.6956 46.6409 26.6898C48.0963 26.6869 49.5516 26.683 51.0069 26.6766C52.2761 26.6711 53.5452 26.6675 54.8144 26.6663C55.4858 26.6655 56.1571 26.6639 56.8285 26.6598C57.5799 26.6553 58.3313 26.6552 59.0828 26.6554C59.3027 26.6534 59.5227 26.6514 59.7493 26.6494C62.1042 26.6581 64.3043 27.2384 66.0975 28.8423C68.5685 31.4579 68.5124 34.2283 68.4574 37.6195C68.4536 38.0206 68.4503 38.4216 68.4472 38.8227C68.4391 39.7978 68.4267 40.7729 68.411 41.7479C68.5722 41.7467 68.7334 41.7455 68.8994 41.7442C70.4304 41.733 71.9613 41.7245 73.4923 41.7191C74.2791 41.7162 75.0659 41.7123 75.8527 41.7059C76.6142 41.6998 77.3757 41.6965 78.1373 41.6951C78.4255 41.6941 78.7138 41.6921 79.002 41.6891C81.434 41.6645 83.907 41.8001 86.0959 42.9772C86.2188 43.041 86.3417 43.1049 86.4684 43.1707C88.5905 44.3206 90.1401 46.1307 91.4072 48.1493C91.5822 48.4241 91.7574 48.6988 91.9327 48.9734C92.0271 49.1217 92.1215 49.27 92.2187 49.4228C92.9413 50.5507 93.6788 51.669 94.4129 52.7894C94.5847 53.0524 94.5847 53.0524 94.7601 53.3207C94.8627 53.4775 94.9654 53.6342 95.0711 53.7957C95.5866 54.606 95.5322 55.3295 95.5366 56.2672C95.5381 56.4453 95.5397 56.6233 95.5412 56.8067C95.5458 57.3975 95.5489 57.9883 95.5516 58.5791C95.553 58.8811 95.553 58.8811 95.5546 59.1893C95.5595 60.2549 95.5631 61.3205 95.5658 62.386C95.5689 63.4884 95.5772 64.5906 95.5866 65.693C95.5929 66.5391 95.595 67.3853 95.5961 68.2315C95.5973 68.6379 95.6002 69.0444 95.6046 69.4508C95.6104 70.019 95.6105 70.587 95.6091 71.1552C95.6121 71.3237 95.6152 71.4922 95.6183 71.6659C95.607 72.8028 95.607 72.8028 95.0687 73.3959C94.4311 73.7382 93.9868 73.7468 93.2648 73.7345C93.1426 73.7334 93.0204 73.7324 92.8944 73.7313C92.5068 73.7272 92.1195 73.7178 91.7319 73.7084C91.468 73.7047 91.204 73.7013 90.9401 73.6982C90.2955 73.6901 89.6511 73.6773 89.0067 73.662C88.9547 73.8267 88.9547 73.8267 88.9016 73.9947C88.1809 76.2254 87.0413 77.9449 84.9732 79.1545C82.532 80.3354 80.2513 80.4081 77.6883 79.5995C75.8401 78.9472 74.2289 77.369 73.2352 75.703C72.9161 75.0283 72.6786 74.4188 72.6786 73.662C63.1266 73.662 53.5747 73.662 43.7333 73.662C43.5496 74.2743 43.3659 74.8866 43.1766 75.5175C42.0942 77.5869 40.354 79.0209 38.1669 79.785C35.803 80.4619 33.5627 80.2217 31.3596 79.1124C29.3548 77.9297 28.2548 76.3442 27.4051 74.2186C27.4051 74.0349 27.4051 73.8512 27.4051 73.662C27.2328 73.6636 27.0606 73.6653 26.8831 73.667C25.2587 73.6819 23.6343 73.6932 22.0099 73.7004C21.1748 73.7043 20.3398 73.7096 19.5047 73.718C18.6986 73.7261 17.8926 73.7305 17.0865 73.7324C16.7791 73.7338 16.4717 73.7365 16.1644 73.7405C15.7335 73.7459 15.3028 73.7466 14.8719 73.7462C14.6817 73.7502 14.6817 73.7503 14.4877 73.7543C13.8366 73.7487 13.4991 73.6684 12.9461 73.3123C12.4913 72.8483 12.4441 72.6656 12.4447 72.0261C12.4437 71.8547 12.4428 71.6832 12.4418 71.5066C12.4468 71.3262 12.4519 71.1458 12.457 70.96C12.4618 70.6835 12.4618 70.6835 12.4668 70.4014C12.5359 68.2569 13.0996 66.6884 14.6024 65.1268C15.375 64.4325 15.9968 63.8969 17.0145 63.6425C17.0145 61.4994 17.0145 59.3563 17.0145 57.1483C16.5594 57.1512 16.1044 57.1541 15.6355 57.1572C14.1306 57.1664 12.6258 57.1725 11.1209 57.1772C10.2086 57.1801 9.29638 57.184 8.38413 57.1903C7.50348 57.1964 6.62286 57.1997 5.7422 57.2011C5.40649 57.2022 5.07079 57.2042 4.7351 57.2072C4.26427 57.2112 3.79356 57.2118 3.32272 57.2115C3.18446 57.2135 3.04619 57.2155 2.90373 57.2176C2.02896 57.2124 1.42783 57.0581 0.686381 56.5917C0.390217 55.9993 0.40534 55.3792 0.500834 54.7362C0.847834 54.2851 1.10968 54.0607 1.61411 53.8085C2.10105 53.7912 2.58301 53.7851 3.06995 53.7874C3.22021 53.7874 3.37048 53.7874 3.52529 53.7873C4.02326 53.7875 4.52122 53.7889 5.01919 53.7904C5.36394 53.7907 5.70869 53.791 6.05344 53.7911C6.96184 53.7919 7.87023 53.7937 8.77863 53.7957C9.70518 53.7976 10.6317 53.7985 11.5583 53.7994C13.377 53.8014 15.1958 53.8046 17.0145 53.8085C17.0145 52.89 17.0145 51.9716 17.0145 51.0253C16.5565 51.0339 16.0984 51.0425 15.6265 51.0514C15.1813 51.0572 14.7361 51.0617 14.2909 51.066C13.9822 51.0698 13.6736 51.0748 13.3649 51.0813C12.9205 51.0903 12.4761 51.0945 12.0316 51.0978C11.8257 51.1035 11.8257 51.1035 11.6156 51.1094C10.9421 51.1096 10.5521 51.0447 9.97292 50.6902C9.45381 50.1345 9.42048 49.7346 9.40708 48.9843C9.61157 48.3538 9.76352 48.2518 10.3348 47.871C10.8465 47.8391 11.339 47.8279 11.8504 47.8347C11.9978 47.8353 12.1453 47.8358 12.2973 47.8363C12.768 47.8384 13.2387 47.8431 13.7095 47.8478C14.0287 47.8496 14.348 47.8513 14.6673 47.8529C15.4497 47.8569 16.2321 47.8633 17.0145 47.871C17.0145 46.9525 17.0145 46.0341 17.0145 45.0878C16.5594 45.0907 16.1044 45.0936 15.6355 45.0966C14.1306 45.1058 12.6258 45.112 11.1209 45.1166C10.2086 45.1195 9.29638 45.1235 8.38413 45.1298C7.50348 45.1358 6.62286 45.1391 5.7422 45.1406C5.40649 45.1416 5.07079 45.1436 4.7351 45.1466C4.26427 45.1507 3.79356 45.1512 3.32272 45.151C3.18446 45.153 3.04619 45.155 2.90373 45.157C2.02896 45.1519 1.42783 44.9975 0.686381 44.5311C0.390894 43.9402 0.42823 43.3189 0.500834 42.6757C0.824155 42.0752 0.95948 41.9661 1.61411 41.7479C2.00382 41.7261 2.39415 41.7151 2.78443 41.7098C3.14656 41.7043 3.14656 41.7043 3.516 41.6986C3.77957 41.6955 4.04315 41.6923 4.30672 41.6892C4.57632 41.6854 4.84593 41.6815 5.11553 41.6775C5.82473 41.6673 6.53394 41.6581 7.24315 41.6492C7.96701 41.6399 8.69085 41.6295 9.41469 41.6193C10.8347 41.5993 12.2547 41.5805 13.6747 41.5624C13.5485 41.4498 13.4224 41.3372 13.2924 41.2211C13.0432 40.9979 13.0432 40.9979 12.789 40.7702C12.6246 40.6231 12.4602 40.4761 12.2908 40.3246C9.48239 37.7512 7.93148 34.1127 7.69657 30.3332C7.58574 25.9229 9.11227 22.0973 12.1323 18.8793C14.8858 16.2539 18.4468 14.8637 22.2214 14.6349ZM13.2572 22.5902C11.3278 25.0976 10.6071 28.1563 11.0074 31.2761C11.5965 34.487 13.2373 37.1729 15.8324 39.151C18.6048 41.0195 21.7674 41.6526 25.0609 41.1203C28.0935 40.442 30.7832 38.5412 32.4896 35.9474C34.1776 33.0541 34.7805 29.9801 34.0848 26.6722C33.1367 23.5293 31.1233 20.9166 28.2792 19.2808C22.9532 16.4363 17.0781 18.1252 13.2572 22.5902ZM37.4247 29.8729C37.3901 30.1726 37.3901 30.1726 37.3549 30.4783C37.3231 30.7452 37.2913 31.0121 37.2594 31.279C37.2444 31.4101 37.2295 31.5412 37.214 31.6763C36.7392 35.6059 34.6952 38.895 31.6727 41.3768C31.5502 41.4993 31.4278 41.6218 31.3016 41.7479C31.4088 41.749 31.516 41.7501 31.6264 41.7512C32.7432 41.7631 33.8599 41.7788 34.9765 41.7966C35.3932 41.8028 35.8098 41.808 36.2264 41.8122C36.8257 41.8184 37.4249 41.8281 38.0241 41.8385C38.21 41.8397 38.396 41.8409 38.5876 41.8421C40.2223 41.8765 40.2223 41.8765 40.9501 42.4901C41.2107 43.0113 41.1818 43.3971 41.1356 43.9745C40.8869 44.4346 40.7423 44.6635 40.2398 44.8272C39.8182 44.9057 39.4296 44.928 39.0008 44.9316C38.8343 44.9334 38.6678 44.9352 38.4963 44.9371C38.315 44.9382 38.1338 44.9392 37.9471 44.9403C37.7551 44.9422 37.5632 44.944 37.3654 44.9459C36.7309 44.9517 36.0964 44.9563 35.4619 44.9609C35.022 44.9647 34.5821 44.9686 34.1422 44.9726C32.9843 44.9829 31.8264 44.992 30.6685 45.001C29.487 45.0103 28.3054 45.0206 27.1239 45.0309C24.8055 45.0508 22.4872 45.0697 20.1688 45.0878C20.1688 46.0062 20.1688 46.9247 20.1688 47.871C20.6688 47.8736 20.6688 47.8736 21.179 47.8762C22.281 47.8828 23.383 47.8928 24.485 47.9051C25.153 47.9124 25.8211 47.9184 26.4892 47.9213C27.1341 47.9241 27.7789 47.9305 28.4237 47.9393C28.7892 47.9434 29.1547 47.9438 29.5202 47.9441C29.743 47.9478 29.9658 47.9515 30.1954 47.9552C30.3915 47.9569 30.5877 47.9585 30.7897 47.9602C31.4316 48.081 31.6526 48.2835 32.0438 48.7987C32.1366 49.4481 32.1366 49.4481 32.0438 50.0975C31.6526 50.6128 31.4316 50.8153 30.7897 50.936C30.5936 50.9377 30.3975 50.9393 30.1954 50.941C29.9726 50.9447 29.7497 50.9483 29.5202 50.9521C29.2805 50.9523 29.0408 50.9526 28.7938 50.9528C28.5453 50.9556 28.2967 50.9587 28.0482 50.9621C27.3954 50.9702 26.7427 50.9739 26.0899 50.9767C25.4232 50.9803 24.7566 50.9881 24.0899 50.9956C22.7829 51.0095 21.4759 51.0185 20.1688 51.0253C20.1688 51.9437 20.1688 52.8622 20.1688 53.8085C20.5175 53.8221 20.5175 53.8221 20.8733 53.836C21.1796 53.8499 21.486 53.864 21.7923 53.8781C21.9454 53.8838 22.0985 53.8895 22.2562 53.8955C22.4786 53.9062 22.4786 53.9062 22.7056 53.9172C22.8416 53.923 22.9776 53.9289 23.1178 53.9349C23.5688 54.0031 23.8683 54.1162 24.2508 54.3651C24.5277 55.032 24.6602 55.4724 24.5176 56.1858C24.1656 56.7214 23.9366 56.7758 23.3231 56.9628C22.7788 57.0308 22.2358 57.0566 21.688 57.0787C21.1866 57.1017 20.6853 57.1247 20.1688 57.1483C20.1688 59.0465 20.1688 60.9446 20.1688 62.9003C35.0478 62.9003 49.9268 62.9003 65.2567 62.9003C65.2797 55.7937 65.2797 55.7937 65.3031 48.5436C65.3098 47.0493 65.3166 45.5551 65.3236 44.0155C65.326 42.6725 65.326 42.6725 65.3275 41.3295C65.3282 40.7327 65.331 40.136 65.3351 39.5392C65.3402 38.7765 65.3417 38.0138 65.3406 37.251C65.3408 36.972 65.3423 36.693 65.3452 36.4141C65.3637 34.536 65.1589 33.0753 64.1086 31.4849C62.9015 30.3314 61.6413 29.849 59.983 29.8506C59.6836 29.8502 59.6836 29.8502 59.3783 29.8498C59.1612 29.8505 58.9442 29.8512 58.7206 29.8519C58.4907 29.8518 58.2607 29.8518 58.0238 29.8518C57.3947 29.8519 56.7657 29.8528 56.1367 29.8541C55.4787 29.8553 54.8208 29.8554 54.1628 29.8556C52.9176 29.8562 51.6723 29.8577 50.4271 29.8596C49.0091 29.8616 47.5912 29.8627 46.1732 29.8636C43.257 29.8655 40.3409 29.8688 37.4247 29.8729ZM68.411 45.0878C68.411 53.4763 68.411 61.8649 68.411 70.5077C69.7581 70.5077 71.1051 70.5077 72.493 70.5077C72.5887 70.1518 72.6844 69.7959 72.7829 69.4292C73.4526 67.2697 74.5975 65.5153 76.6164 64.4361C79.0504 63.2753 81.4437 63.0692 84.0085 63.965C84.8323 64.3188 85.5283 64.7483 86.2235 65.3124C86.3395 65.4054 86.4555 65.4985 86.575 65.5943C87.9981 66.8686 88.6555 68.7185 89.1922 70.5077C90.2332 70.5077 91.2741 70.5077 92.3465 70.5077C92.3887 68.6236 92.4226 66.7398 92.4427 64.8554C92.4523 63.98 92.4653 63.105 92.4865 62.2298C92.5069 61.3828 92.5178 60.5362 92.5226 59.6889C92.526 59.3682 92.5326 59.0474 92.5427 58.7268C92.6138 56.3809 92.1444 54.9191 90.7397 53.0344C90.3914 52.5592 90.0715 52.0669 89.7501 51.5733C89.4529 51.1182 89.1479 50.6685 88.8428 50.2187C88.6543 49.9396 88.4683 49.6588 88.2826 49.3778C86.8876 47.3059 85.3313 45.9645 82.933 45.1662C82.334 45.0545 81.7408 45.0636 81.1338 45.0667C80.9939 45.0667 80.8541 45.0667 80.71 45.0666C80.2584 45.0668 79.8069 45.0682 79.3554 45.0697C79.0761 45.0699 78.7968 45.0701 78.5176 45.0702C77.4835 45.0712 76.4494 45.0738 75.4154 45.0762C73.1039 45.08 70.7925 45.0838 68.411 45.0878ZM16.4579 67.91C15.91 68.8112 15.7157 69.4421 15.7157 70.5077C19.512 70.5077 23.3083 70.5077 27.2196 70.5077C27.4645 69.7729 27.7094 69.0382 27.9618 68.2811C28.3665 67.5006 28.7748 66.7833 29.2606 66.0546C27.9171 66.0404 26.5736 66.0307 25.2301 66.024C24.7735 66.0212 24.3169 66.0174 23.8604 66.0126C23.2022 66.0058 22.5441 66.0027 21.8858 66.0002C21.6834 65.9973 21.481 65.9945 21.2724 65.9915C19.3135 65.9911 17.764 66.3768 16.4579 67.91ZM41.8778 66.0546C42.3676 66.9118 42.8575 67.769 43.3622 68.6522C43.5459 69.2645 43.7295 69.8768 43.9188 70.5077C50.9603 70.5077 58.0018 70.5077 65.2567 70.5077C65.2567 69.0382 65.2567 67.5686 65.2567 66.0546C57.5417 66.0546 49.8266 66.0546 41.8778 66.0546ZM31.4872 68.2811C30.5297 69.7151 30.1085 71.016 30.3739 72.7343C30.7495 74.334 31.6317 75.4133 32.9766 76.3307C34.3223 77.0474 35.9456 77.0802 37.3949 76.6655C38.8015 76.0414 39.9542 74.9149 40.579 73.4996C41.02 72.0468 40.8795 70.6317 40.2543 69.2618C39.4449 67.7821 38.2879 66.9748 36.6673 66.4974C34.7995 66.1208 32.6964 66.7831 31.4872 68.2811ZM76.6127 68.5131C75.6232 69.9455 75.4693 71.1796 75.6473 72.9198C76.2231 74.6926 77.3843 75.7589 78.9872 76.6307C80.3048 77.0699 81.8858 77.025 83.1504 76.4452C84.6732 75.5525 85.5895 74.247 86.0379 72.5487C86.2925 71.0373 85.7555 69.604 84.9826 68.3159C83.7714 67.1702 82.5438 66.503 80.8658 66.3677C79.1672 66.4234 77.6709 67.188 76.6127 68.5131Z" fill="black"/>
<path d="M77.8753 46.2701C78.196 46.2696 78.196 46.2696 78.5232 46.269C78.7452 46.2735 78.9672 46.2779 79.1958 46.2825C79.4135 46.2804 79.6312 46.2784 79.8554 46.2763C82.0587 46.2947 83.8942 46.8539 85.4812 48.4278C86.485 49.6776 87.2595 51.0798 88.0264 52.4821C88.2073 52.8128 88.3896 53.1427 88.5721 53.4724C88.9057 54.0776 89.2354 54.6847 89.5633 55.2931C89.6869 55.5184 89.6869 55.5184 89.8131 55.7483C90.3441 56.749 90.4261 57.3739 90.1199 58.4474C89.7294 59.2584 89.3472 59.6691 88.509 60.006C87.5436 60.2558 86.5332 60.1919 85.5429 60.1847C85.2993 60.1848 85.0558 60.1849 84.805 60.185C84.2917 60.185 83.7785 60.183 83.2652 60.1797C82.6083 60.1754 81.9514 60.1754 81.2944 60.1766C80.6656 60.1774 80.0369 60.1752 79.4082 60.1731C79.1726 60.1733 78.937 60.1734 78.6942 60.1736C78.4756 60.1718 78.257 60.1701 78.0317 60.1683C77.8395 60.1674 77.6473 60.1665 77.4492 60.1657C76.9314 60.1159 76.6349 60.0329 76.2039 59.7462C75.7698 59.095 75.7833 58.822 75.776 58.051C75.773 57.8163 75.77 57.5816 75.767 57.3398C75.7658 57.0832 75.7648 56.8267 75.764 56.5702C75.7623 56.3069 75.7606 56.0437 75.7589 55.7805C75.7558 55.2286 75.7544 54.6768 75.7539 54.125C75.7529 53.4188 75.7459 52.7129 75.7374 52.0068C75.7319 51.4631 75.7305 50.9194 75.7303 50.3756C75.7296 50.1153 75.7273 49.8551 75.7234 49.5948C75.7184 49.2303 75.7199 48.8657 75.7216 48.5011C75.7207 48.2939 75.7197 48.0867 75.7188 47.8732C75.9592 46.6957 76.7415 46.2693 77.8753 46.2701ZM78.9871 49.5411C78.9871 51.9903 78.9871 54.4396 78.9871 56.963C81.4976 56.963 84.008 56.963 86.5945 56.963C86.3179 56.1332 86.0794 55.5417 85.6516 54.806C85.5398 54.6137 85.4279 54.4214 85.3127 54.2233C85.1961 54.0252 85.0795 53.8272 84.9594 53.6231C84.8449 53.4251 84.7305 53.2271 84.6126 53.023C83.5124 51.0671 83.5124 51.0671 81.7703 49.7267C80.8256 49.4586 80.8256 49.4586 78.9871 49.5411Z" fill="black"/>
<path d="M23.8783 21.5233C24.3997 21.9461 24.5925 22.1815 24.8061 22.8222C24.8285 23.3272 24.841 23.8274 24.8437 24.3326C24.8448 24.4811 24.8459 24.6297 24.8469 24.7827C24.8487 25.0971 24.8499 25.4115 24.8506 25.726C24.8524 26.204 24.8582 26.682 24.864 27.16C24.8653 27.4661 24.8662 27.7723 24.8669 28.0784C24.8692 28.2201 24.8715 28.3618 24.8739 28.5078C24.8687 29.7572 24.5238 30.7006 23.7537 31.7038C23.6615 31.8251 23.5694 31.9465 23.4745 32.0716C23.3782 32.1956 23.2818 32.3196 23.1825 32.4474C23.0835 32.5768 22.9845 32.7062 22.8825 32.8396C22.6864 33.0956 22.4897 33.3512 22.2923 33.6063C22.06 33.9069 21.8303 34.2094 21.601 34.5123C20.7733 35.6003 20.7733 35.6003 20.3529 35.8104C19.633 35.8574 19.0961 35.867 18.4975 35.4394C18.1362 34.9749 18.1259 34.7128 18.1438 34.121C18.3639 33.175 18.8151 32.5668 19.3904 31.798C19.5391 31.5928 19.5391 31.5928 19.6908 31.3834C20.087 30.8396 20.4707 30.3143 20.9383 29.8292C21.3876 29.1561 21.3827 28.5791 21.3742 27.7971C21.3759 27.6524 21.3777 27.5076 21.3795 27.3585C21.3848 26.8978 21.3853 26.4372 21.385 25.9765C21.3857 25.5157 21.3875 25.0551 21.3926 24.5944C21.3957 24.3084 21.3963 24.0224 21.3939 23.7364C21.402 22.9025 21.5127 22.3744 22.0229 21.7089C22.6499 21.2332 23.1416 21.3085 23.8783 21.5233Z" fill="#28A745"/>
<path d="M36.4952 69.2091C37.2611 69.5572 37.538 69.833 37.968 70.5543C38.1971 71.3628 38.2646 71.9387 37.9796 72.7344C37.5235 73.4411 37.1173 73.9496 36.3097 74.2188C35.2795 74.2864 34.5851 74.2773 33.712 73.6622C33.1956 73.0415 32.9871 72.5039 32.8887 71.7023C33.0124 70.7304 33.2821 70.1778 34.002 69.5106C34.859 69.1054 35.563 69.062 36.4952 69.2091Z" fill="black"/>
<path d="M81.77 69.2091C82.5403 69.5392 82.9086 69.8888 83.2544 70.6355C83.5267 71.5095 83.45 72.2751 83.0688 73.1055C82.4595 73.8161 81.8308 74.1979 80.9002 74.2768C80.005 74.2622 79.5188 74.0113 78.8012 73.4766C78.2923 72.7542 78.1438 72.1098 78.1787 71.2421C78.3166 70.4828 78.7652 69.9672 79.3216 69.4613C80.077 68.9936 80.9135 69.1011 81.77 69.2091Z" fill="black"/>
</g>
<defs>
<clipPath id="clip0_737_1276">
<rect width="95" height="95" fill="white" transform="translate(0.5)"/>
</clipPath>
</defs>
</svg>
