<svg width="80" height="80" viewBox="0 0 80 80" fill="none" xmlns="http://www.w3.org/2000/svg">
<g clip-path="url(#clip0_20_4050)">
<path d="M48.0582 0.1331C48.4764 0.370993 48.8394 0.64051 49.2185 0.937544C49.4294 1.09876 49.6404 1.25988 49.8515 1.42094C50.3386 1.79553 50.8225 2.17403 51.3047 2.55498C51.9557 3.0683 52.6157 3.568 53.281 4.06254C54.5362 4.99774 55.771 5.95835 57.0041 6.92242C57.5852 7.37634 58.1675 7.82878 58.7498 8.28129C58.752 8.14421 58.752 8.14421 58.7542 8.00435C58.7626 7.58872 58.7757 7.17336 58.7888 6.75786C58.791 6.61405 58.7933 6.47023 58.7955 6.32207C58.8342 5.25591 58.8342 5.25591 59.1965 4.75346C59.6913 4.4248 60.092 4.35508 60.6717 4.34987C60.8068 4.34837 60.9419 4.34686 61.081 4.34532C61.2266 4.34465 61.3721 4.34399 61.522 4.34331C61.7471 4.34197 61.7471 4.34197 61.9768 4.34061C62.2944 4.33913 62.6119 4.33811 62.9295 4.33751C63.4148 4.33599 63.8999 4.33114 64.3851 4.32622C64.6938 4.3252 65.0024 4.32438 65.3111 4.32377C65.4559 4.32185 65.6008 4.31992 65.7501 4.31793C66.716 4.32126 67.2667 4.45447 67.9685 5.15629C67.9942 5.57171 67.9942 5.57171 67.9762 6.10619C67.9707 6.30608 67.9653 6.50596 67.9596 6.7119C67.9562 6.81921 67.9528 6.92652 67.9493 7.03708C67.9331 7.60807 67.9283 8.17919 67.9218 8.75035C67.9135 9.4762 67.9018 10.2013 67.8748 10.9267C67.647 13.7571 67.647 13.7571 68.6943 16.2224C69.2358 16.6813 69.8133 17.0204 70.4505 17.329C70.9656 17.5956 71.3858 17.9456 71.8357 18.3106C71.9977 18.4353 72.1596 18.5599 72.3264 18.6884C72.4868 18.8119 72.6471 18.9353 72.8123 19.0625C73.1508 19.323 73.4893 19.5834 73.8279 19.8438C73.9972 19.974 74.1664 20.1042 74.3357 20.2344C74.4195 20.2989 74.5033 20.3633 74.5896 20.4297C74.8435 20.625 75.0974 20.8204 75.3513 21.0157C75.4772 21.1124 75.4772 21.1124 75.6056 21.2112C75.7738 21.3406 75.9419 21.4702 76.11 21.5999C76.5485 21.9381 76.9887 22.2737 77.432 22.6056C77.5235 22.6746 77.6149 22.7436 77.7091 22.8147C77.963 23.0061 78.2175 23.1965 78.4721 23.3869C79.3944 24.1588 79.9245 24.9696 80.0614 26.1615C80.1224 27.5695 79.9334 28.4303 79.0623 29.5313C78.9493 29.6816 78.8363 29.8318 78.7199 29.9866C77.7159 31.2743 76.9595 31.932 75.3172 32.1576C74.3399 32.2193 73.6577 32.0471 72.8686 31.4747C72.7702 31.4036 72.6719 31.3325 72.5705 31.2592C72.4956 31.2046 72.4207 31.15 72.3435 31.0938C72.343 31.3633 72.343 31.3633 72.3424 31.6382C72.3334 35.9023 72.3221 40.1663 72.3077 44.4303C72.306 44.955 72.3042 45.4798 72.3025 46.0045C72.3022 46.109 72.3018 46.2134 72.3015 46.3211C72.2959 48.0129 72.2921 49.7048 72.2888 51.3967C72.2854 53.1325 72.2802 54.8683 72.2734 56.6041C72.2697 57.5792 72.2667 58.5543 72.2658 59.5293C72.2648 60.4467 72.2617 61.364 72.2569 62.2814C72.2555 62.6184 72.255 62.9555 72.2552 63.2925C72.2555 63.7521 72.2529 64.2116 72.2496 64.6711C72.2507 64.872 72.2507 64.872 72.2519 65.0769C72.2432 65.8031 72.1915 66.2858 71.7185 66.8751C71.2908 67.0889 70.95 67.0525 70.471 67.0543C70.2716 67.0554 70.0723 67.0565 69.8669 67.0577C69.6447 67.0581 69.4225 67.0585 69.2003 67.059C68.9673 67.0599 68.7343 67.061 68.5012 67.0621C67.8672 67.0648 67.2331 67.0664 66.5991 67.0677C66.2032 67.0685 65.8073 67.0695 65.4114 67.0705C64.1733 67.0734 62.9353 67.0757 61.6972 67.077C60.2668 67.0785 58.8365 67.0826 57.4062 67.0889C56.3013 67.0936 55.1965 67.0959 54.0917 67.0965C53.4314 67.0968 52.7712 67.0982 52.111 67.1022C51.49 67.1058 50.869 67.1065 50.248 67.1049C50.02 67.1048 49.792 67.1058 49.564 67.1079C49.2529 67.1107 48.9418 67.1092 48.6307 67.1075C48.4566 67.1079 48.2824 67.1083 48.103 67.1086C47.5505 67.013 47.3705 66.8443 47.031 66.4063C46.8534 65.8497 46.8283 65.5824 47.0506 65.0391C47.3987 64.6214 47.6082 64.5346 48.1248 64.3751C48.6454 64.3445 48.6454 64.3445 49.1892 64.3555C49.3707 64.3583 49.5522 64.3612 49.7392 64.3641C49.9455 64.3695 49.9455 64.3695 50.156 64.3751C50.1556 64.2799 50.1552 64.1847 50.1547 64.0866C50.1443 61.765 50.1366 59.4435 50.1317 57.1219C50.1293 55.9992 50.126 54.8765 50.1207 53.7538C50.116 52.7747 50.113 51.7956 50.1119 50.8164C50.1113 50.2985 50.1096 49.7806 50.1065 49.2627C50.103 48.683 50.1026 48.1033 50.1028 47.5236C50.1011 47.3539 50.0994 47.1842 50.0977 47.0093C50.1026 45.7889 50.2119 44.5314 50.9861 43.5352C52.3097 42.2423 53.5475 42.1391 55.3117 42.1405C55.491 42.1399 55.6703 42.1392 55.855 42.1385C56.2331 42.1376 56.6112 42.1375 56.9893 42.1382C57.5657 42.1387 58.1419 42.135 58.7183 42.1311C59.0867 42.1307 59.455 42.1306 59.8234 42.1308C60.0803 42.1286 60.0803 42.1286 60.3424 42.1264C61.7029 42.1346 62.8378 42.3757 63.906 43.2813C64.9911 44.7348 65.0234 46.0003 65.0175 47.7542C65.0175 47.9342 65.0176 48.1142 65.0176 48.2996C65.0175 48.8923 65.0163 49.4849 65.015 50.0776C65.0147 50.4894 65.0145 50.9012 65.0144 51.313C65.0139 52.2847 65.0126 53.2564 65.011 54.2281C65.0093 55.3349 65.0084 56.4416 65.0076 57.5484C65.006 59.824 65.0031 62.0995 64.9998 64.3751C66.4951 64.3751 67.9904 64.3751 69.531 64.3751C69.531 52.6188 69.531 40.8625 69.531 28.75C69.3248 28.6469 69.1185 28.5438 68.906 28.4375C68.7332 28.3208 68.5635 28.1993 68.397 28.0738C68.3007 28.0015 68.2045 27.9292 68.1053 27.8547C67.9506 27.7372 67.9506 27.7372 67.7927 27.6172C67.6288 27.4935 67.6288 27.4935 67.4616 27.3673C66.5196 26.6539 65.5867 25.9291 64.6553 25.2021C63.523 24.3183 62.3818 23.4464 61.2399 22.575C60.4603 21.9793 59.6834 21.38 58.906 20.7813C58.5675 20.5208 58.229 20.2604 57.8904 20C57.7211 19.8698 57.5519 19.7396 57.3826 19.6094C57.2988 19.545 57.215 19.4805 57.1287 19.4141C56.367 18.8282 56.367 18.8282 56.1132 18.633C55.9434 18.5024 55.7737 18.3718 55.6039 18.2412C55.1884 17.9216 54.773 17.602 54.3577 17.2822C53.4012 16.5457 52.4433 15.8112 51.4841 15.0782C50.7617 14.526 50.0392 13.9737 49.3183 13.4194C49.0707 13.2292 48.8227 13.0395 48.5746 12.8498C48.2826 12.6227 47.9938 12.3914 47.7091 12.1552C47.5853 12.0531 47.4614 11.951 47.3338 11.8457C47.2288 11.7565 47.1239 11.6673 47.0158 11.5754C46.7321 11.3742 46.7321 11.3742 46.4253 11.4464C46.0463 11.5791 45.8026 11.7515 45.4887 12.0014C45.3742 12.0915 45.2598 12.1817 45.1419 12.2746C45.0209 12.3715 44.8999 12.4685 44.7752 12.5684C44.5201 12.7699 44.2649 12.9713 44.0098 13.1727C43.8225 13.3212 43.8225 13.3212 43.6315 13.4728C43.176 13.8331 42.7164 14.1876 42.2556 14.5411C42.0959 14.6637 41.9362 14.7864 41.7716 14.9128C41.0412 15.4726 40.31 16.0314 39.5787 16.5902C38.5716 17.3601 37.5667 18.1328 36.5623 18.9063C36.2238 19.1668 35.8852 19.4272 35.5466 19.6875C35.3774 19.8178 35.2081 19.948 35.0388 20.0782C27.9295 25.5469 27.9295 25.5469 27.6753 25.7425C27.507 25.8719 27.3387 26.0013 27.1705 26.1308C26.7319 26.4682 26.2932 26.8055 25.8543 27.1424C25.7182 27.2469 25.7182 27.2469 25.5793 27.3536C25.3276 27.5469 25.0758 27.7401 24.824 27.9334C24.6758 28.0482 24.5275 28.163 24.3748 28.2813C24.2384 28.357 24.1021 28.4326 23.9616 28.5106C23.3828 29.1328 23.4917 29.7662 23.505 30.586C23.5041 30.7501 23.5033 30.9142 23.5024 31.0833C23.4998 31.6077 23.5022 32.1319 23.5056 32.6563C23.5082 33.1807 23.5097 33.7049 23.5072 34.2293C23.5058 34.5556 23.5072 34.8818 23.5119 35.208C23.5077 36.3086 23.5077 36.3086 23.1401 36.8186C22.6157 37.1588 22.1653 37.1576 21.5623 37.0313C21.1824 36.7391 20.9934 36.5186 20.781 36.0938C20.7566 35.7179 20.7407 35.3458 20.7316 34.9695C20.7283 34.859 20.7251 34.7485 20.7217 34.6346C20.7115 34.2812 20.7023 33.9277 20.6931 33.5743C20.6864 33.3348 20.6796 33.0953 20.6727 32.8559C20.6559 32.2685 20.6401 31.6812 20.6248 31.0938C20.4634 31.2181 20.3021 31.3423 20.1359 31.4704C19.2868 32.0753 18.3421 32.2247 17.3069 32.1686C15.7007 31.857 14.7 30.6734 13.7754 29.4245C12.9546 28.1667 12.8036 27.101 12.9685 25.625C13.3378 24.1665 14.4749 23.3598 15.6248 22.5C15.8562 22.3239 15.8562 22.3239 16.0923 22.1442C16.4009 21.9113 16.7106 21.6798 17.0213 21.4496C17.52 21.0788 18.0135 20.7019 18.5056 20.3223C18.59 20.2573 18.6744 20.1922 18.7613 20.1252C18.9324 19.9932 19.1035 19.8612 19.2746 19.7291C19.6982 19.4023 20.1225 19.0762 20.5466 18.75C21.0472 18.365 21.5478 17.98 22.0481 17.5947C23.1186 16.7705 24.191 15.9491 25.2644 15.1288C26.2716 14.3588 27.2766 13.5861 28.281 12.8125C28.6195 12.5521 28.9581 12.2917 29.2966 12.0313C29.4659 11.9011 29.6352 11.7709 29.8045 11.6407C31.4972 10.3386 33.1899 9.0365 34.8826 7.73442C34.9663 7.67 35.0501 7.60559 35.1363 7.53922C35.3061 7.40863 35.4759 7.27804 35.6457 7.14745C36.0612 6.82788 36.4766 6.50822 36.8919 6.1884C37.9619 5.36456 39.0337 4.54307 40.1071 3.72353C40.6257 3.32739 41.1437 2.93061 41.6593 2.53056C45.7394 -0.633986 45.7394 -0.633986 48.0582 0.1331ZM45.875 2.71855C45.6838 2.84884 45.4964 2.98488 45.3123 3.12504C45.2077 3.20203 45.1031 3.27903 44.9953 3.35835C44.6474 3.62041 44.3057 3.88922 43.9646 4.1602C43.7146 4.35678 43.4646 4.55331 43.2145 4.7498C43.0927 4.84583 42.9709 4.94185 42.8455 5.04079C42.378 5.40825 41.9072 5.77114 41.4353 6.13286C41.2748 6.25612 41.1143 6.37939 40.9489 6.50639C40.7111 6.68888 40.7111 6.68888 40.4685 6.87504C40.1299 7.13537 39.7914 7.39583 39.4529 7.65629C39.2836 7.78651 39.1144 7.91671 38.9451 8.04692C38.8613 8.11137 38.7775 8.17583 38.6912 8.24223C38.4373 8.43754 38.1834 8.63286 37.9295 8.82817C37.8457 8.89258 37.762 8.957 37.6757 9.02337C37.5059 9.15396 37.3362 9.28455 37.1664 9.41514C36.7509 9.73471 36.3355 10.0544 35.9202 10.3742C34.8497 11.1983 33.7773 12.0198 32.7039 12.8401C31.6967 13.61 30.6917 14.3828 29.6873 15.1563C29.3488 15.4168 29.0102 15.6772 28.6716 15.9375C28.5024 16.0678 28.3331 16.198 28.1638 16.3282C26.4711 17.6303 24.7784 18.9323 23.0857 20.2344C22.9601 20.331 22.9601 20.331 22.832 20.4296C22.6622 20.5602 22.4924 20.6908 22.3226 20.8214C21.9071 21.141 21.4917 21.4606 21.0764 21.7804C20.9145 21.9051 20.7526 22.0298 20.5857 22.1582C20.5041 22.2212 20.4225 22.2841 20.3384 22.3489C19.846 22.728 19.3519 23.105 18.8566 23.4803C18.7401 23.5687 18.6236 23.6572 18.5036 23.7483C18.278 23.9196 18.0521 24.0906 17.8259 24.2611C17.2671 24.6858 16.7178 25.1206 16.1802 25.5719C16.0264 25.7007 16.0264 25.7007 15.8694 25.832C15.5717 26.1105 15.5717 26.1105 15.4588 26.6797C15.5705 27.7778 16.6036 28.6987 17.4003 29.3769C17.8249 29.5821 17.8249 29.5821 18.3262 29.3885C19.0191 29.0366 19.6122 28.5525 20.2146 28.0665C20.4638 27.869 20.713 27.6716 20.9623 27.4744C21.088 27.3745 21.2137 27.2745 21.3432 27.1715C21.9221 26.7142 22.5085 26.2671 23.0955 25.8204C23.3162 25.6519 23.537 25.4835 23.7577 25.315C23.8624 25.2351 23.967 25.1553 24.0749 25.073C24.5142 24.7372 24.9523 24.3999 25.3904 24.0625C26.1704 23.4619 26.952 22.8634 27.7341 22.2657C28.8557 21.4085 29.9752 20.5488 31.0935 19.6875C31.432 19.4271 31.7706 19.1667 32.1091 18.9063C32.2784 18.7761 32.4477 18.6459 32.617 18.5157C34.3097 17.2136 36.0024 15.9115 37.6951 14.6094C37.7788 14.545 37.8626 14.4806 37.9488 14.4142C38.1186 14.2836 38.2884 14.153 38.4582 14.0225C38.8737 13.7029 39.2891 13.3832 39.7044 13.0634C40.125 12.7395 40.5459 12.416 40.967 12.0926C41.1656 11.9398 41.3641 11.7868 41.5625 11.6337C42.2324 11.1168 42.9045 10.6031 43.5793 10.0927C43.8959 9.8515 44.2095 9.60676 44.5231 9.36162C44.7144 9.21617 44.9058 9.0709 45.0974 8.92583C45.1823 8.85785 45.2672 8.78987 45.3547 8.71983C45.8011 8.38826 46.0717 8.28181 46.6312 8.26848C47.3229 8.47877 47.7716 8.79978 48.3299 9.24809C48.4366 9.33095 48.5433 9.41381 48.6532 9.49918C48.8813 9.67662 49.1086 9.85503 49.3353 10.0343C49.6898 10.3146 50.0464 10.5919 50.4038 10.8686C50.8815 11.2385 51.3584 11.6094 51.8345 11.9812C52.7295 12.68 53.6302 13.3712 54.531 14.0625C54.8696 14.3229 55.2081 14.5833 55.5466 14.8438C55.7159 14.974 55.8852 15.1042 56.0545 15.2344C59.1013 17.5782 59.1013 17.5782 59.3551 17.7734C59.5249 17.904 59.6946 18.0346 59.8644 18.1651C60.2799 18.4847 60.6953 18.8044 61.1106 19.1242C62.0671 19.8606 63.025 20.5952 63.9841 21.3282C65.1057 22.1853 66.2252 23.045 67.3435 23.9063C67.682 24.1668 68.0206 24.4272 68.3591 24.6875C68.5284 24.8178 68.6977 24.948 68.867 25.0782C68.9507 25.1426 69.0345 25.2071 69.1209 25.2735C69.8826 25.8594 69.8826 25.8594 70.1367 26.0549C70.3052 26.1845 70.4737 26.3141 70.6422 26.4436C71.0775 26.7783 71.5125 27.1135 71.9468 27.4494C72.4424 27.8325 72.9393 28.2138 73.4373 28.5938C73.5523 28.6816 73.6673 28.7694 73.7858 28.8599C74.4139 29.3358 74.4139 29.3358 75.156 29.5313C75.8273 29.2309 76.2222 28.7784 76.6795 28.2129C76.8011 28.0649 76.9228 27.9169 77.0481 27.7643C77.3954 27.2806 77.3954 27.2806 77.4998 26.7188C77.1141 25.3234 75.5037 24.4629 74.401 23.6481C73.8963 23.2741 73.3974 22.8936 72.9002 22.5098C72.8158 22.4448 72.7315 22.3797 72.6446 22.3127C72.4734 22.1807 72.3023 22.0487 72.1312 21.9166C71.7076 21.5898 71.2833 21.2637 70.8591 20.9375C70.6899 20.8073 70.5206 20.6771 70.3513 20.5469C70.2675 20.4825 70.1838 20.418 70.0974 20.3516C51.0545 5.70317 51.0545 5.70317 50.8003 5.50759C50.6319 5.37812 50.4634 5.2488 50.2948 5.11964C49.8571 4.78401 49.422 4.44558 48.9903 4.10222C48.9009 4.03182 48.8116 3.96143 48.7196 3.8889C48.4723 3.69387 48.2259 3.49769 47.9795 3.30144C47.0103 2.57731 47.0103 2.57731 45.875 2.71855ZM61.5623 7.03129C61.5365 7.57592 61.5107 8.12055 61.4841 8.68169C61.4728 8.85119 61.4614 9.02069 61.4497 9.19533C61.4297 10.0486 61.4297 10.0486 61.8025 10.7919C62.1246 11.0783 62.4554 11.3211 62.8123 11.5625C63.0224 11.723 63.2322 11.8839 63.4415 12.0453C63.6448 12.1942 63.8484 12.3426 64.0525 12.4903C64.2098 12.6058 64.2098 12.6058 64.3702 12.7237C64.8022 13.1061 64.8022 13.1061 65.3123 13.2813C65.3123 11.2188 65.3123 9.15629 65.3123 7.03129C64.0748 7.03129 62.8373 7.03129 61.5623 7.03129ZM52.9685 45.4688C52.7773 45.8513 52.793 46.0971 52.7935 46.5248C52.7933 46.6816 52.7931 46.8385 52.7928 47.0002C52.7934 47.1729 52.794 47.3456 52.7945 47.5236C52.7945 47.705 52.7945 47.8864 52.7945 48.0733C52.7946 48.6753 52.7958 49.2772 52.797 49.8792C52.7973 50.2956 52.7975 50.7121 52.7977 51.1285C52.7982 52.114 52.7995 53.0996 52.801 54.0851C52.8029 55.317 52.8038 56.5489 52.8046 57.7808C52.8062 59.9789 52.8093 62.177 52.8123 64.3751C55.9576 64.3751 59.1029 64.3751 62.3435 64.3751C62.3529 60.9867 62.3529 60.9867 62.3592 57.5983C62.361 56.3867 62.3632 55.175 62.3671 53.9633C62.3705 52.9016 62.3724 51.8399 62.3732 50.7781C62.3737 50.3727 62.3749 49.9674 62.3766 49.562C62.3788 48.9949 62.3791 48.4278 62.379 47.8606C62.3801 47.6925 62.3812 47.5244 62.3824 47.3511C62.382 47.1963 62.3815 47.0414 62.3811 46.8818C62.3815 46.6806 62.3815 46.6806 62.382 46.4754C62.3228 45.8877 62.1701 45.4491 61.7466 45.0333C61.3472 44.8111 61.0999 44.7836 60.6446 44.7807C60.4939 44.7787 60.3432 44.7767 60.1879 44.7747C59.9452 44.7753 59.9452 44.7753 59.6976 44.776C59.4468 44.7748 59.4468 44.7748 59.191 44.7736C58.8376 44.7726 58.4841 44.7728 58.1307 44.7741C57.5902 44.7754 57.0499 44.7709 56.5095 44.766C56.166 44.7657 55.8224 44.7658 55.4789 44.7663C55.2367 44.7636 55.2367 44.7636 54.9896 44.761C54.1243 44.7693 53.5797 44.7847 52.9685 45.4688Z" fill="black"/>
<path d="M21.9939 63.6729C22.5335 63.8098 23.0739 63.943 23.6145 64.076C23.9613 64.1637 24.3081 64.2516 24.6548 64.3397C24.8146 64.3786 24.9745 64.4175 25.1392 64.4576C26.2399 64.7438 27.0666 65.0963 27.806 65.9992C27.879 66.1239 27.9519 66.2486 28.027 66.377C28.14 66.5622 28.14 66.5622 28.2553 66.7512C28.491 67.3169 28.5254 67.8286 28.5934 68.4376C28.7427 68.391 28.8921 68.3443 29.0459 68.2963C30.4529 67.857 31.86 67.4178 33.2671 66.9789C33.9905 66.7532 34.7139 66.5274 35.4372 66.3015C36.1352 66.0836 36.8332 65.8658 37.5313 65.6481C37.7977 65.565 38.0641 65.4818 38.3304 65.3986C38.7033 65.2821 39.0763 65.1658 39.4493 65.0496C39.5595 65.0151 39.6698 64.9806 39.7834 64.945C41.0407 64.5538 42.3653 64.2039 43.6325 64.7657C44.567 65.3061 45.2992 66.1577 45.6246 67.1876C45.771 68.3632 45.6686 69.3539 45.1516 70.4194C44.2802 71.4427 42.9413 71.997 41.7477 72.5587C41.58 72.6383 41.4122 72.718 41.2394 72.8001C39.21 73.7562 37.1568 74.6596 35.104 75.564C34.0873 76.0125 33.073 76.4662 32.059 76.9209C31.586 77.1326 31.1129 77.3442 30.6398 77.5558C30.3342 77.6927 30.0287 77.8298 29.7233 77.9672C28.7772 78.3928 27.8288 78.8119 26.8747 79.2188C26.7684 79.2645 26.6622 79.3101 26.5527 79.3571C26.2708 79.4759 25.9863 79.5884 25.7016 79.7004C25.5519 79.7598 25.4022 79.8192 25.248 79.8803C23.3485 80.2859 21.2575 79.9006 19.3405 79.7266C19.023 79.6985 18.7054 79.6705 18.3879 79.6426C17.558 79.5693 16.7281 79.4951 15.8983 79.4206C14.5659 79.3012 13.2335 79.1831 11.901 79.0653C11.437 79.0241 10.973 78.9824 10.509 78.9407C10.225 78.9154 9.94096 78.8901 9.65694 78.8648C9.52852 78.8531 9.40011 78.8415 9.2678 78.8294C8.93897 78.8004 8.61011 78.7744 8.2809 78.7501C8.13187 78.7385 7.98285 78.7268 7.8293 78.7148C7.43669 78.7195 7.43669 78.7195 7.09926 79.1993C6.91074 79.441 6.91074 79.441 6.7184 79.6876C5.96576 80.1942 5.03349 80.0582 4.16179 80.058C3.84942 80.0587 3.53707 80.0645 3.22475 80.0703C3.02615 80.0709 2.82756 80.0715 2.62294 80.0721C2.35152 80.074 2.35152 80.074 2.07462 80.076C1.261 79.9555 0.805535 79.595 0.289769 78.9679C-0.073507 78.3039 -0.0898325 77.8293 -0.0836973 77.0863C-0.0850435 76.9538 -0.0863897 76.8213 -0.0877767 76.6848C-0.0913115 76.2487 -0.0902654 75.8128 -0.0888472 75.3767C-0.0896655 75.0724 -0.0906463 74.768 -0.0917821 74.4637C-0.0934067 73.8266 -0.0926965 73.1895 -0.0904112 72.5523C-0.0877264 71.7372 -0.0913961 70.9223 -0.0968938 70.1072C-0.100331 69.4789 -0.100102 68.8506 -0.0988059 68.2224C-0.098678 67.9219 -0.0997462 67.6215 -0.102051 67.321C-0.104784 66.9003 -0.102499 66.4798 -0.0989561 66.0591C-0.100783 65.9359 -0.10261 65.8127 -0.104492 65.6858C-0.089403 64.8018 0.162103 64.2318 0.780904 63.5938C1.73784 62.9888 2.73154 63.0549 3.83754 63.0665C4.01106 63.0647 4.18458 63.0629 4.36336 63.061C5.54853 63.0653 6.29164 63.1671 7.15786 64.0333C7.50759 64.5429 7.61238 64.8596 7.6559 65.4688C8.37748 65.2232 8.83507 64.945 9.38442 64.4141C12.9963 61.0735 17.7711 62.5963 21.9939 63.6729ZM10.6167 66.9923C9.85882 67.6199 9.15617 67.8415 8.19362 68.0402C7.82226 68.087 7.82226 68.087 7.6559 68.2813C7.64134 68.5212 7.63755 68.7616 7.63816 69.0019C7.63818 69.1552 7.63819 69.3084 7.6382 69.4664C7.63901 69.633 7.63981 69.7997 7.64064 69.9714C7.64087 70.1411 7.64109 70.3108 7.64131 70.4857C7.64219 71.0302 7.64415 71.5747 7.64614 72.1192C7.64692 72.4874 7.64763 72.8555 7.64827 73.2237C7.65 74.1283 7.65262 75.0329 7.6559 75.9376C9.45873 76.1765 11.2624 76.3617 13.074 76.5199C13.3466 76.5439 13.6191 76.568 13.8917 76.5921C14.458 76.642 15.0243 76.6916 15.5907 76.741C16.3121 76.8039 17.0335 76.8679 17.7549 76.9322C18.3158 76.9821 18.8769 77.0312 19.4379 77.0802C19.7038 77.1035 19.9698 77.127 20.2356 77.1508C22.9515 77.4958 22.9515 77.4958 25.5532 76.8958C25.6586 76.848 25.764 76.8002 25.8726 76.7509C26.2178 76.5934 26.5608 76.4316 26.9039 76.2696C27.1499 76.1565 27.396 76.0437 27.6422 75.9313C28.1619 75.6935 28.6808 75.4541 29.1992 75.2135C30.3932 74.6604 31.595 74.1245 32.7959 73.5864C33.4518 73.2922 34.1069 72.9965 34.7622 72.7009C35.7025 72.277 36.6436 71.8549 37.5857 71.435C37.7924 71.3428 37.9991 71.2506 38.2059 71.1583C38.5781 70.9923 38.9505 70.8268 39.323 70.6616C41.2749 69.9038 41.2749 69.9038 42.9684 68.7501C43.0406 68.1968 43.0288 67.9107 42.734 67.4317C42.1679 67.0779 41.7185 67.21 41.0934 67.3438C40.2905 67.5655 39.4982 67.8185 38.7051 68.0726C38.4703 68.1469 38.2355 68.2211 38.0006 68.2953C37.3824 68.4907 36.7646 68.6873 36.1468 68.8843C35.531 69.0805 34.9148 69.2757 34.2987 69.4709C34.1186 69.528 34.1186 69.528 33.9349 69.5863C33.3375 69.7757 32.7398 69.9646 32.142 70.1526C31.9104 70.2255 31.6789 70.2984 31.4474 70.3713C31.28 70.424 31.28 70.424 31.1092 70.4778C30.4359 70.6905 29.7655 70.9108 29.0963 71.1364C27.3099 71.7294 25.8021 72.021 23.9254 71.8751C23.6988 71.8623 23.4722 71.8501 23.2455 71.8384C22.7939 71.8145 22.3426 71.7875 21.8913 71.7578C21.2931 71.7196 20.6953 71.6975 20.0961 71.6804C19.9202 71.6752 19.7444 71.6701 19.5632 71.6648C19.242 71.6556 18.9208 71.6467 18.5996 71.638C16.6691 71.5663 16.6691 71.5663 15.7809 71.2501C15.4175 70.705 15.403 70.4849 15.4684 69.8438C15.6442 69.4825 15.6442 69.4825 15.9372 69.2188C16.8166 68.9919 17.6992 69.0725 18.5971 69.1157C18.7627 69.1228 18.9284 69.13 19.099 69.1374C19.6271 69.1604 20.1552 69.1847 20.6832 69.2091C21.2102 69.2327 21.7371 69.256 22.2641 69.2791C22.5914 69.2935 22.9187 69.3083 23.246 69.3234C24.0921 69.3615 24.934 69.3827 25.7809 69.3751C26.0038 68.9293 25.9856 68.6197 25.9372 68.1251C25.5402 67.4604 25.1579 67.2325 24.4137 67.0351C24.2967 67.0073 24.1797 66.9794 24.0591 66.9508C23.9357 66.919 23.8122 66.8873 23.6851 66.8546C23.2906 66.7541 22.8953 66.6581 22.4997 66.5626C22.2434 66.4991 21.9872 66.4355 21.731 66.3719C21.0918 66.2144 20.4516 66.0619 19.8108 65.9114C19.4175 65.819 19.0245 65.7254 18.6315 65.6318C18.3774 65.5717 18.1231 65.5117 17.8689 65.4517C17.7535 65.4242 17.6381 65.3967 17.5192 65.3684C14.6426 64.6966 12.8776 65.063 10.6167 66.9923ZM2.49965 65.7813C2.49965 69.6485 2.49965 73.5157 2.49965 77.5001C3.32465 77.5001 4.14965 77.5001 4.99965 77.5001C4.99965 73.6329 4.99965 69.7657 4.99965 65.7813C4.17465 65.7813 3.34965 65.7813 2.49965 65.7813Z" fill="black"/>
<path d="M12.7101 39.6655C12.8279 39.665 12.9457 39.6646 13.067 39.6641C13.4629 39.6627 13.8587 39.6625 14.2545 39.6623C14.5379 39.6616 14.8212 39.6608 15.1045 39.6599C15.8751 39.6579 16.6457 39.6569 17.4163 39.6562C17.8977 39.6557 18.379 39.6551 18.8603 39.6544C20.3658 39.6522 21.8713 39.6507 23.3769 39.6501C25.1155 39.6494 26.8541 39.6467 28.5928 39.6422C29.9362 39.6388 31.2796 39.6372 32.6231 39.637C33.4256 39.6368 34.2282 39.6359 35.0308 39.6331C35.7858 39.6305 36.5408 39.6302 37.2958 39.6316C37.5728 39.6317 37.8498 39.631 38.1269 39.6295C38.5053 39.6275 38.8835 39.6284 39.262 39.63C39.4261 39.6281 39.4261 39.6281 39.5935 39.6262C40.5159 39.6355 41.116 39.9141 41.8166 40.498C42.7816 41.6408 42.9041 42.6383 42.8936 44.1099C42.8946 44.2993 42.8957 44.4887 42.8969 44.6839C42.8991 45.2001 42.8986 45.7162 42.8966 46.2324C42.895 46.774 42.8965 47.3156 42.8975 47.8572C42.8986 48.766 42.8971 49.6747 42.8942 50.5835C42.8908 51.6332 42.8919 52.6827 42.8953 53.7324C42.8981 54.6354 42.8985 55.5384 42.8969 56.4415C42.8959 56.9801 42.8958 57.5186 42.8979 58.0572C42.9 58.6571 42.897 59.257 42.8936 59.8569C42.8948 60.0348 42.8961 60.2127 42.8974 60.3959C42.8844 61.5973 42.8844 61.5973 42.5168 62.2192C42.1413 62.5395 41.9734 62.606 41.4846 62.5976C41.3669 62.5996 41.2493 62.6016 41.1281 62.6037C40.5802 62.4397 40.4492 62.2122 40.1564 61.7187C40.0615 61.1074 40.07 60.5003 40.0736 59.8826C40.0722 59.6968 40.0709 59.511 40.0695 59.3196C40.0663 58.8115 40.0659 58.3035 40.0667 57.7954C40.0667 57.2637 40.0632 56.732 40.06 56.2003C40.0545 55.1939 40.052 54.1876 40.0507 53.1812C40.0486 51.7019 40.0427 50.2227 40.036 48.7435C40.0355 48.6352 40.035 48.5269 40.0345 48.4152C40.0335 48.1994 40.0325 47.9835 40.0315 47.7676C40.0282 47.0318 40.0267 46.296 40.0257 45.5602C40.0246 45.1773 40.0235 44.7944 40.0223 44.4114C40.0225 44.1467 40.0225 44.1467 40.0226 43.8767C40.0217 43.6375 40.0217 43.6375 40.0207 43.3934C40.0204 43.1843 40.0204 43.1843 40.0201 42.971C40.035 42.6566 40.035 42.6566 39.8439 42.5C39.5707 42.4807 39.2968 42.4722 39.023 42.4679C38.8478 42.4648 38.6726 42.4616 38.4922 42.4584C38.3016 42.4558 38.111 42.4532 37.9146 42.4505C37.7206 42.4473 37.5266 42.444 37.3267 42.4407C36.8102 42.4322 36.2936 42.4243 35.777 42.4168C35.2502 42.409 34.7234 42.4003 34.1967 42.3916C33.1624 42.3748 32.1282 42.3589 31.0939 42.3437C31.0953 42.4512 31.0967 42.5588 31.0981 42.6696C31.112 43.7899 31.1214 44.9102 31.1283 46.0306C31.1311 46.4486 31.1357 46.8666 31.1411 47.2846C31.1487 47.8858 31.1522 48.4869 31.155 49.0881C31.1582 49.2746 31.1614 49.4612 31.1647 49.6534C31.165 50.6476 31.1527 51.2822 30.4689 52.0312C29.9988 52.4006 29.5089 52.3853 28.9217 52.4005C27.9549 52.233 27.2941 51.3998 26.6255 50.7446C26.2866 50.4415 26.2866 50.4415 25.9438 50.4565C25.4764 50.7036 25.1371 51.0413 24.756 51.4062C23.9641 52.1627 23.4735 52.4115 22.3891 52.3974C21.7588 52.3028 21.5162 52.0362 21.0939 51.5625C20.6635 50.6557 20.7419 49.7029 20.7509 48.7219C20.7514 48.5394 20.7518 48.3569 20.7523 48.1689C20.754 47.5878 20.7579 47.0068 20.7619 46.4257C20.7635 46.031 20.7649 45.6363 20.7662 45.2417C20.7696 44.2757 20.7748 43.3097 20.7814 42.3437C19.5604 42.362 18.3394 42.3815 17.1184 42.4019C16.7026 42.4087 16.2869 42.4152 15.8711 42.4214C15.275 42.4304 14.6789 42.4404 14.0828 42.4505C13.8021 42.4544 13.8021 42.4544 13.5156 42.4584C13.2576 42.4631 13.2576 42.4631 12.9943 42.4679C12.7658 42.4715 12.7658 42.4715 12.5327 42.4752C12.1917 42.4618 12.1917 42.4618 12.0314 42.6562C12.0156 42.8758 12.0106 43.0962 12.0099 43.3163C12.009 43.4587 12.0082 43.6011 12.0073 43.7478C12.007 43.984 12.007 43.984 12.0068 44.225C12.006 44.3898 12.0052 44.5547 12.0044 44.7246C12.0027 45.0841 12.0014 45.4435 12.0003 45.803C11.9985 46.3716 11.9954 46.9402 11.992 47.5088C11.9824 49.1261 11.9739 50.7433 11.9687 52.3606C11.9654 53.3485 11.9599 54.3365 11.953 55.3244C11.9508 55.7015 11.9494 56.0785 11.9489 56.4555C11.9481 56.983 11.9445 57.5104 11.9403 58.0378C11.9407 58.194 11.9412 58.3502 11.9417 58.5112C11.9253 59.8744 11.9253 59.8744 11.4064 60.4687C10.833 60.713 10.4835 60.823 9.87323 60.6738C9.53143 60.4687 9.53143 60.4687 9.21893 60C9.17873 59.6651 9.17873 59.6651 9.17714 59.2698C9.17581 59.1198 9.17448 58.9698 9.17311 58.8152C9.17332 58.5686 9.17332 58.5686 9.17353 58.3171C9.17196 58.0571 9.17196 58.0571 9.17035 57.7919C9.16738 57.2171 9.16677 56.6423 9.16644 56.0675C9.16544 55.6683 9.16438 55.2691 9.16329 54.8699C9.16141 54.032 9.16082 53.1941 9.16102 52.3562C9.16121 51.3897 9.15792 50.4233 9.15298 49.4568C9.14839 48.5255 9.14728 47.5943 9.14746 46.6629C9.14709 46.2676 9.14571 45.8722 9.1433 45.4768C9.14023 44.9229 9.14114 44.3691 9.14302 43.8151C9.14126 43.6524 9.1395 43.4896 9.1377 43.3218C9.14749 42.1841 9.34338 41.2875 10.1619 40.4596C10.2665 40.3885 10.371 40.3174 10.4787 40.2441C10.5836 40.1702 10.6886 40.0963 10.7967 40.0201C11.4216 39.6493 12.0076 39.6647 12.7101 39.6655ZM23.4377 42.3437C23.4377 44.5093 23.4377 46.675 23.4377 48.9062C23.7986 48.5968 24.1596 48.2875 24.5314 47.9687C25.1442 47.4718 25.7012 47.3942 26.473 47.4115C27.2001 47.5714 27.6205 48.0779 28.1252 48.5937C28.2283 48.6453 28.3314 48.6968 28.4377 48.75C28.4377 46.6359 28.4377 44.5218 28.4377 42.3437C26.7877 42.3437 25.1377 42.3437 23.4377 42.3437Z" fill="#28A745"/>
<path d="M49.531 20.9375C49.6714 21.0003 49.8118 21.0632 49.9564 21.1279C51.9694 22.1247 53.2435 23.7343 53.9646 25.8398C54.2309 26.7854 54.421 27.7749 54.2185 28.75C53.9246 29.1011 53.6899 29.3268 53.281 29.5312C52.8552 29.5474 52.4334 29.5542 52.0076 29.5539C51.8101 29.5547 51.8101 29.5547 51.6087 29.5555C51.1721 29.557 50.7355 29.5573 50.2988 29.5575C49.996 29.558 49.6932 29.5585 49.3903 29.5591C48.7549 29.56 48.1194 29.5603 47.4839 29.5602C46.6691 29.5602 45.8544 29.5623 45.0396 29.565C44.4139 29.5667 43.7882 29.5671 43.1625 29.567C42.8621 29.5672 42.5617 29.5679 42.2613 29.5691C41.8412 29.5706 41.4212 29.5701 41.0011 29.5692C40.8767 29.5701 40.7524 29.571 40.6242 29.5719C39.5356 29.5656 39.5356 29.5656 39.0623 29.2187C38.5253 28.4133 38.682 27.4991 38.8169 26.5674C39.2366 24.5983 40.2971 22.9518 41.923 21.7688C44.1062 20.3645 47.0926 19.8218 49.531 20.9375ZM43.906 23.75C43.7972 23.8144 43.6885 23.8789 43.5764 23.9453C42.5201 24.6442 41.868 25.6521 41.5623 26.875C44.8107 26.875 48.0591 26.875 51.406 26.875C50.9859 25.4046 50.2473 24.3619 48.9146 23.584C47.3155 22.8544 45.4182 22.7974 43.906 23.75Z" fill="black"/>
<path d="M33.6618 59.3261C33.8536 59.3236 34.0455 59.321 34.2431 59.3184C34.4281 59.3183 34.6131 59.3182 34.8037 59.3181C34.9724 59.3177 35.1411 59.3172 35.3149 59.3167C35.8427 59.3826 36.1366 59.5296 36.5622 59.8437C36.8074 60.3341 36.7734 60.7091 36.7184 61.2499C36.3204 61.7577 36.0841 62.001 35.4449 62.1322C35.1738 62.1336 35.1738 62.1336 34.8971 62.1349C34.5995 62.1364 34.5995 62.1364 34.2959 62.138C34.0899 62.1349 33.8838 62.1319 33.6715 62.1288C33.3625 62.1333 33.3625 62.1333 33.0472 62.138C32.8488 62.137 32.6504 62.136 32.446 62.1349C32.2652 62.134 32.0844 62.1332 31.8982 62.1322C31.2612 62.0014 31.0249 61.7522 30.6247 61.2499C30.5382 60.6445 30.5778 60.1905 30.9372 59.6874C31.7455 59.1675 32.737 59.3237 33.6618 59.3261Z" fill="black"/>
<path d="M60.1565 53.4375C60.5276 53.6914 60.5276 53.6914 60.7815 54.0625C60.874 54.6981 60.8397 55.0421 60.5471 55.6152C60.0696 56.0091 59.807 56.0361 59.2037 55.9912C58.7578 55.9106 58.564 55.8303 58.2815 55.4687C58.1409 55.0441 58.087 54.665 58.1252 54.2187C58.657 53.3262 59.1701 53.1758 60.1565 53.4375Z" fill="black"/>
</g>
<defs>
<clipPath id="clip0_20_4050">
<rect width="80" height="80" fill="white"/>
</clipPath>
</defs>
</svg>
