<svg width="54" height="54" viewBox="0 0 54 54" fill="none" xmlns="http://www.w3.org/2000/svg">
<g clip-path="url(#clip0_976_860)">
<path d="M11.9185 1.16007C12.7199 1.7259 13.3577 2.36297 13.9224 3.16398C13.9797 3.24501 14.0371 3.32604 14.0962 3.40952C15.2133 5.12202 15.4599 7.33157 15.1233 9.32195C14.8598 10.4145 14.3323 11.4085 13.7114 12.3398C14.1376 12.779 14.5655 13.2164 14.995 13.6523C15.141 13.8009 15.2864 13.95 15.4314 14.0995C15.6396 14.3141 15.8495 14.527 16.0598 14.7396C16.1568 14.8408 16.1568 14.8408 16.2559 14.944C16.3171 15.0052 16.3783 15.0665 16.4414 15.1296C16.5215 15.2114 16.5215 15.2114 16.6032 15.2949C16.7684 15.4212 16.7684 15.4212 16.9868 15.374C17.2756 15.2598 17.4617 15.0778 17.6929 14.871C18.4159 14.2653 19.2037 13.8262 20.0396 13.3944C20.106 13.3599 20.1723 13.3253 20.2408 13.2897C22.0116 12.3803 24.1486 11.7029 26.1567 11.8124C26.1567 11.2207 26.1567 10.6291 26.1567 10.0194C25.8435 9.96724 25.8435 9.96724 25.5239 9.91398C24.6559 9.46937 24.0814 8.83043 23.717 7.93191C23.4731 7.03025 23.4999 5.92492 23.9094 5.08054C24.437 4.20488 25.0866 3.72427 26.0513 3.37491C27.0301 3.14955 27.9454 3.275 28.8198 3.76383C29.6313 4.29165 30.1548 4.95155 30.3755 5.90616C30.4684 6.84831 30.4739 7.71789 29.9536 8.54288C29.9166 8.60841 29.8797 8.67394 29.8416 8.74146C29.5093 9.27448 29.039 9.63902 28.4771 9.91398C28.2682 9.94878 28.0594 9.98359 27.8442 10.0194C27.8442 10.6111 27.8442 11.2028 27.8442 11.8124C28.0461 11.8069 28.0461 11.8069 28.2521 11.8013C28.8033 11.8018 29.3218 11.8836 29.8613 11.9904C29.9585 12.0095 30.0556 12.0287 30.1556 12.0484C33.4796 12.7302 36.5466 14.5653 38.7075 17.1913C39.2655 16.7264 39.782 16.2341 40.2896 15.7148C40.2335 15.6204 40.1775 15.5261 40.1198 15.4288C38.9086 13.3657 38.3916 11.2189 38.9844 8.83292C39.3387 7.72144 39.8578 6.79606 40.606 5.90616C40.67 5.82106 40.734 5.73595 40.8 5.64826C42.0048 4.22344 43.8564 3.49033 45.6685 3.26945C47.9553 3.13568 49.9445 3.81296 51.6934 5.28654C53.0405 6.54582 53.9684 8.33916 54.0499 10.1921C54.0535 10.4399 54.0546 10.6878 54.0532 10.9357C54.0526 11.0657 54.052 11.1958 54.0514 11.3298C54.0085 13.5288 53.1057 15.1539 51.5512 16.6838C49.8039 18.3109 47.7627 18.6524 45.449 18.5804C44.0514 18.4988 42.8076 17.8505 41.6606 17.0859C41.1038 17.6427 40.5469 18.1996 39.9731 18.7734C40.1224 19.1465 40.2746 19.4717 40.4705 19.8183C41.5228 21.6928 42.2136 23.9282 42.1983 26.0865C42.1981 26.2079 42.1981 26.2079 42.1978 26.3317C42.1973 26.5874 42.1959 26.8431 42.1946 27.0988C42.1941 27.2733 42.1936 27.4477 42.1931 27.6222C42.192 28.0476 42.1902 28.473 42.188 28.8983C42.5348 29.0748 42.8821 29.2503 43.2295 29.4257C43.3283 29.476 43.4272 29.5263 43.529 29.5781C43.6235 29.6257 43.718 29.6733 43.8153 29.7223C43.9026 29.7665 43.9899 29.8107 44.0798 29.8562C44.2898 29.9673 44.2898 29.9673 44.5083 29.953C44.5649 29.8769 44.6214 29.8008 44.6797 29.7223C45.2237 29.0781 45.9633 28.7273 46.8006 28.652C47.9742 28.6254 48.9231 28.783 49.8003 29.6193C50.5059 30.4564 50.7884 31.3986 50.731 32.4843C50.5876 33.428 50.1174 34.2533 49.3665 34.8442C48.4789 35.4476 47.5126 35.6688 46.4463 35.4836C45.4488 35.2089 44.7299 34.6226 44.1919 33.7499C43.8318 33.1018 43.8394 32.4741 43.8755 31.746C43.7871 31.7191 43.6987 31.6922 43.6077 31.6644C43.2077 31.5227 42.8417 31.3463 42.4648 31.1527C42.3973 31.1185 42.3297 31.0842 42.2601 31.0489C42.0952 30.9653 41.9306 30.8811 41.7661 30.7968C41.7531 30.8661 41.74 30.9355 41.7266 31.0069C41.4047 32.4914 40.7201 33.8464 39.9068 35.1194C39.7253 35.5185 39.7151 35.6586 39.8677 36.0702C40.4475 36.8441 41.1879 37.5066 41.8739 38.1855C42.0012 38.3119 42.1284 38.4383 42.2556 38.5647C42.5282 38.8355 42.8008 39.1061 43.0736 39.3767C43.5053 39.8049 43.9364 40.2338 44.3673 40.6629C44.4768 40.7718 44.4768 40.7718 44.5884 40.8829C44.7374 41.0313 44.8865 41.1797 45.0355 41.3281C46.0378 42.3259 47.0406 43.3231 48.0448 44.3189C48.7238 44.9921 49.4019 45.6663 50.0789 46.3416C50.4366 46.6983 50.7948 47.0545 51.1541 47.4096C51.4919 47.7434 51.8285 48.0784 52.1641 48.4144C52.2871 48.5371 52.4106 48.6593 52.5345 48.7811C53.2682 49.5024 53.8936 50.1436 54.0565 51.1988C54.0481 52.0446 53.9747 52.6339 53.3813 53.2583C52.7819 53.8113 52.3162 54.0303 51.489 54.0395C51.3665 54.0425 51.244 54.0454 51.1178 54.0485C49.989 53.9067 49.3051 53.052 48.5492 52.2846C48.4158 52.1507 48.2823 52.0169 48.1487 51.8833C47.8623 51.5962 47.5765 51.3085 47.2912 51.0202C46.8402 50.5645 46.3877 50.1103 45.935 49.6563C45.2194 48.9383 44.5048 48.2193 43.7907 47.4999C42.5107 46.2107 41.2296 44.9226 39.9474 43.6356C39.4975 43.1839 39.0482 42.7316 38.5994 42.2788C38.3204 41.9977 38.0411 41.717 37.7617 41.4364C37.6321 41.306 37.5026 41.1755 37.3734 41.0448C37.1972 40.8666 37.0203 40.689 36.8433 40.5116C36.7922 40.4596 36.741 40.4075 36.6884 40.3539C36.4318 40.0983 36.2031 39.8866 35.8599 39.7616C35.3338 39.7884 34.9853 39.9838 34.5415 40.256C33.0647 41.1318 31.4879 41.6134 29.8481 42.0819C29.9874 42.6388 30.1266 43.1957 30.27 43.7694C30.5767 43.8021 30.5767 43.8021 30.8897 43.8354C31.8359 43.9845 32.4982 44.3338 33.1111 45.0746C33.7854 46.0368 33.8535 46.9412 33.7505 48.0937C33.5399 48.9773 32.9114 49.6997 32.1619 50.1899C31.3018 50.7099 30.3071 50.7782 29.3365 50.5561C28.3759 50.2097 27.6541 49.5389 27.2114 48.621C26.8764 47.7681 26.8526 46.7997 27.1785 45.9381C27.4597 45.3339 27.795 44.7653 28.3716 44.4023C28.3218 43.8846 28.2322 43.3987 28.1034 42.8944C28.0747 42.7814 28.046 42.6685 28.0164 42.5521C27.9944 42.4666 27.9724 42.381 27.9497 42.2929C27.8425 42.2914 27.8425 42.2914 27.7331 42.2899C23.1394 42.2109 19.5491 40.8564 16.1372 37.7577C15.7609 37.9174 15.5216 38.138 15.2358 38.4276C15.1467 38.5173 15.0577 38.6071 14.9659 38.6995C14.8739 38.7933 14.7818 38.8871 14.687 38.9838C14.5933 39.0784 14.4997 39.173 14.4032 39.2705C14.1721 39.5041 13.9415 39.7381 13.7114 39.9726C13.7674 40.0669 13.8235 40.1613 13.8812 40.2585C15.0924 42.3216 15.6094 44.4684 15.0166 46.8544C14.3351 48.9921 12.945 50.6231 10.9692 51.6796C9.19078 52.5798 7.16724 52.6128 5.27393 52.1015C3.24254 51.4301 1.68288 50.082 0.679033 48.207C0.545324 47.9248 0.424204 47.6487 0.316896 47.3554C0.276046 47.248 0.276046 47.248 0.23437 47.1385C-0.0341779 46.3602 -0.0523806 45.6158 -0.0456524 44.7978C-0.0447771 44.6617 -0.0439019 44.5256 -0.0430002 44.3854C-0.00705855 42.3655 0.704005 40.7093 2.10987 39.2343C2.44476 38.9261 2.79275 38.6526 3.16455 38.3905C3.24558 38.3332 3.32661 38.2758 3.4101 38.2167C5.1226 37.0996 7.33215 36.853 9.32253 37.1896C10.415 37.4531 11.409 37.9806 12.3403 38.6015C12.6744 38.2804 13.0067 37.9577 13.3375 37.6333C13.4503 37.5232 13.5635 37.4135 13.6773 37.3043C13.8406 37.1474 14.0021 36.9889 14.1634 36.8299C14.2611 36.7349 14.3589 36.6399 14.4596 36.5421C14.6861 36.3061 14.6861 36.3061 14.6508 36.0547C14.5035 35.7537 14.3157 35.4825 14.1267 35.2067C12.7045 33.0566 11.7731 30.4342 11.813 27.8437C11.2213 27.8437 10.6296 27.8437 10.02 27.8437C9.98522 28.0525 9.95041 28.2613 9.91455 28.4765C9.46994 29.3445 8.83101 29.919 7.93248 30.2835C7.03082 30.5273 5.9255 30.5005 5.08112 30.0911C4.20776 29.5648 3.71754 28.9149 3.37549 27.9491C3.13529 26.8121 3.31098 25.8919 3.93538 24.9214C4.43828 24.2397 5.07841 23.8164 5.90674 23.6249C6.84889 23.532 7.71846 23.5265 8.54346 24.0468C8.60899 24.0838 8.67452 24.1208 8.74204 24.1588C9.27506 24.4911 9.6396 24.9614 9.91455 25.5234C9.94936 25.7322 9.98416 25.941 10.02 26.1562C10.6117 26.1562 11.2034 26.1562 11.813 26.1562C11.8065 26.0365 11.7999 25.9169 11.7932 25.7936C11.8025 22.8358 13.1806 19.5625 15.1484 17.3957C15.4272 17.1246 15.4272 17.1246 15.3795 16.8755C15.2852 16.6436 15.188 16.5202 15.0104 16.345C14.9217 16.2564 14.9217 16.2564 14.8313 16.1659C14.7672 16.1035 14.7032 16.0411 14.6372 15.9768C14.5718 15.9118 14.5064 15.8469 14.439 15.78C14.2302 15.5729 14.0203 15.367 13.8103 15.161C13.6684 15.0208 13.5266 14.8804 13.3849 14.74C13.0376 14.3961 12.6892 14.0532 12.3403 13.7109C12.2402 13.7689 12.1402 13.8269 12.037 13.8866C11.9037 13.9634 11.7704 14.0403 11.6371 14.1171C11.5713 14.1552 11.5056 14.1934 11.4379 14.2327C9.62756 15.2734 7.49206 15.5213 5.4585 15.016C3.33913 14.3404 1.66034 12.9474 0.633303 10.9687C-0.163963 9.16986 -0.392535 6.83597 0.282702 4.95241C1.23524 2.82535 2.60853 1.30668 4.7643 0.384298C7.10991 -0.492536 9.82608 -0.173361 11.9185 1.16007ZM3.48096 3.37491C2.2428 4.64642 1.74763 6.10424 1.75512 7.84124C1.78192 9.13925 2.18835 10.138 2.95362 11.1796C3.00637 11.2542 3.05912 11.3289 3.11347 11.4058C3.91815 12.436 5.25841 13.1891 6.53955 13.3944C8.29963 13.5579 9.7311 13.2907 11.1802 12.2343C11.2471 12.1881 11.314 12.1418 11.3829 12.0942C12.4603 11.2738 13.1065 9.94118 13.395 8.64835C13.5443 6.89108 13.2951 5.4508 12.2349 4.00773C12.1821 3.93309 12.1294 3.85845 12.075 3.78155C11.1262 2.56683 9.62426 1.92181 8.13477 1.7006C6.33807 1.58393 4.81058 2.19596 3.48096 3.37491ZM25.5898 5.86661C25.3574 6.34942 25.3344 6.7505 25.4185 7.27726C25.6642 7.78758 25.9628 8.08624 26.4731 8.33195C26.9999 8.41602 27.401 8.39302 27.8838 8.16056C28.2618 7.81855 28.5398 7.54465 28.6229 7.0243C28.6499 6.42484 28.5758 6.04861 28.1606 5.58976C27.7018 5.1746 27.3256 5.10051 26.7261 5.12751C26.2058 5.21056 25.9319 5.48861 25.5898 5.86661ZM42.8208 6.32804C42.7539 6.37426 42.687 6.42049 42.6181 6.46812C41.5407 7.28851 40.8945 8.62115 40.606 9.91398C40.4567 11.6712 40.7059 13.1115 41.7661 14.5546C41.8189 14.6292 41.8716 14.7039 41.926 14.7808C42.7307 15.811 44.0709 16.5641 45.3521 16.7694C47.1083 16.9326 48.5494 16.6697 49.9927 15.6093C50.0673 15.5565 50.142 15.5038 50.2189 15.4494C51.2491 14.6448 52.0022 13.3045 52.2075 12.0234C52.3707 10.2671 52.1077 8.826 51.0474 7.38273C50.9946 7.30809 50.9419 7.23345 50.8875 7.15655C50.0828 6.1263 48.7426 5.37325 47.4614 5.16788C45.7014 5.00439 44.2699 5.27162 42.8208 6.32804ZM18.1411 16.8749C18.0721 16.9312 18.003 16.9875 17.9318 17.0455C16.0029 18.6244 14.7528 20.9632 14.0278 23.3085C14.004 23.3843 13.9802 23.4602 13.9556 23.5383C13.2974 25.7396 13.3407 28.5044 14.0278 30.6913C14.0533 30.7737 14.0788 30.856 14.105 30.9409C14.6807 32.7491 15.5627 34.2968 16.77 35.7538C16.8757 35.8837 16.8757 35.8837 16.9834 36.0163C17.5154 36.6448 18.1233 37.1504 18.7739 37.6523C18.8639 37.724 18.9539 37.7958 19.0467 37.8698C21.7068 39.9148 25.2602 40.784 28.5689 40.4054C30.6028 40.1321 32.4988 39.4266 34.2594 38.3834C34.9647 37.9666 35.6003 37.8458 36.4089 38.0183C37.336 38.3331 37.9383 39.0143 38.606 39.6954C38.7407 39.8305 38.8756 39.9655 39.0107 40.1003C39.3751 40.465 39.7375 40.8315 40.0996 41.1985C40.4792 41.5825 40.8607 41.9646 41.242 42.3469C41.9631 43.0706 42.6827 43.7958 43.4016 44.5216C44.4585 45.5884 45.5178 46.6529 46.577 47.7174C46.7332 47.8742 46.8893 48.0311 47.0454 48.188C47.1216 48.2646 47.1978 48.3411 47.2763 48.42C47.7298 48.8759 48.1829 49.3323 48.6356 49.789C48.9164 50.0723 49.1974 50.3554 49.4785 50.6384C49.6091 50.7701 49.7396 50.9018 49.8701 51.0337C50.0475 51.2131 50.2253 51.3921 50.4031 51.5711C50.4551 51.6239 50.5071 51.6766 50.5607 51.731C50.8629 52.0343 51.0231 52.1928 51.4561 52.2399C51.7904 52.2331 51.7904 52.2331 52.0361 52.0356C52.2234 51.793 52.2234 51.793 52.28 51.495C52.0768 50.5344 50.8793 49.7087 50.1916 49.0289C50.0633 48.9017 49.935 48.7744 49.8068 48.6471C49.532 48.3745 49.2571 48.102 48.9821 47.8295C48.5467 47.3982 48.1121 46.9661 47.6777 46.5339C47.6042 46.4608 47.5306 46.3876 47.4549 46.3122C47.3046 46.1627 47.1543 46.0132 47.004 45.8637C45.9936 44.8586 44.9828 43.8539 43.97 42.8512C43.2852 42.1732 42.6016 41.4941 41.9192 40.8137C41.5587 40.4544 41.1976 40.0956 40.8352 39.7381C40.4944 39.402 40.1551 39.0645 39.8169 38.7258C39.6929 38.6022 39.5685 38.4791 39.4434 38.3567C38.6469 37.576 38.0053 36.8631 37.9165 35.7011C37.9629 34.8695 38.3743 34.1923 38.7932 33.4928C40.4812 30.6348 40.8877 27.0961 40.1181 23.8913C39.171 20.2491 36.9807 17.2836 33.7582 15.3133C28.7653 12.4387 22.4573 13.1161 18.1411 16.8749ZM5.33985 26.1166C5.10738 26.5994 5.08438 27.0005 5.16846 27.5273C5.41417 28.0376 5.71283 28.3362 6.22315 28.5819C6.74991 28.666 7.15099 28.643 7.63379 28.4106C8.0118 28.0686 8.28984 27.7946 8.3729 27.2743C8.3999 26.6748 8.3258 26.2986 7.91065 25.8398C7.45179 25.4246 7.07557 25.3505 6.47611 25.3775C5.95576 25.4606 5.68185 25.7386 5.33985 26.1166ZM45.8398 31.1791C45.6074 31.6619 45.5844 32.063 45.6685 32.5898C45.9142 33.1001 46.2128 33.3987 46.7231 33.6444C47.2499 33.7285 47.651 33.7055 48.1338 33.4731C48.5118 33.1311 48.7898 32.8571 48.8729 32.3368C48.8999 31.7373 48.8258 31.3611 48.4106 30.9023C47.9518 30.4871 47.5756 30.413 46.9761 30.44C46.4558 30.5231 46.1819 30.8011 45.8398 31.1791ZM3.48096 40.4999C2.2428 41.7714 1.74763 43.2292 1.75512 44.9662C1.78192 46.2642 2.18835 47.263 2.95362 48.3046C3.00637 48.3792 3.05912 48.4539 3.11347 48.5308C3.91815 49.561 5.25841 50.3141 6.53955 50.5194C8.29963 50.6829 9.7311 50.4157 11.1802 49.3593C11.2471 49.3131 11.314 49.2668 11.3829 49.2192C12.4603 48.3988 13.1065 47.0662 13.395 45.7733C13.5443 44.0161 13.2951 42.5758 12.2349 41.1327C12.1821 41.0581 12.1294 40.9834 12.075 40.9065C11.1262 39.6918 9.62426 39.0468 8.13477 38.8256C6.33807 38.7089 4.81058 39.321 3.48096 40.4999ZM28.9648 46.3666C28.7324 46.8494 28.7094 47.2505 28.7935 47.7773C29.0392 48.2876 29.3378 48.5862 29.8481 48.8319C30.3749 48.916 30.776 48.893 31.2588 48.6606C31.6368 48.3186 31.9148 48.0446 31.9979 47.5243C32.0249 46.9248 31.9508 46.5486 31.5356 46.0898C31.0768 45.6746 30.7006 45.6005 30.1011 45.6275C29.5808 45.7106 29.3069 45.9886 28.9648 46.3666Z" fill="black"/>
<path d="M30.1646 15.5039C30.2701 15.5353 30.2701 15.5353 30.3778 15.5674C33.0687 16.3831 33.0687 16.3831 33.7505 17.2968C33.8221 17.6204 33.8127 17.9211 33.7505 18.246C33.4928 18.5569 33.3388 18.6528 32.9393 18.705C32.4725 18.6554 32.1658 18.4616 31.7664 18.2263C29.4515 16.9383 26.7732 16.6637 24.2287 17.385C23.656 17.5643 23.1122 17.7765 22.5709 18.0351C22.4735 18.0816 22.3762 18.1281 22.2759 18.176C21.5185 18.5632 20.8838 19.0519 20.2505 19.6171C20.1601 19.6975 20.0697 19.7778 19.9766 19.8606C18.0514 21.6727 17.1209 24.239 16.9872 26.8402C16.9275 29.3849 17.8919 31.8891 19.6177 33.75C19.6948 33.8342 19.7719 33.9185 19.8513 34.0054C21.6619 35.9019 24.1529 36.8932 26.7457 37.0149C29.3379 37.0611 31.8469 36.1483 33.7505 34.3828C33.8348 34.3057 33.9191 34.2286 34.006 34.1492C35.6276 32.601 36.7956 30.3249 36.9333 28.0646C36.9857 25.4793 36.6545 23.135 35.0359 21.008C34.7952 20.6573 34.6998 20.4626 34.6998 20.039C34.8302 19.737 34.9457 19.5652 35.2073 19.3666C35.5394 19.2718 35.7407 19.3051 36.0709 19.4062C37.9223 21.0696 38.753 23.8978 38.9053 26.3078C39.0481 29.6515 37.94 32.6746 35.7083 35.154C33.5221 37.5007 30.5917 38.7332 27.4224 38.9179C24.1079 39.0192 21.0984 37.8057 18.6891 35.5611C16.3943 33.3521 15.1545 30.3326 15.0763 27.1675C15.0622 23.9566 16.2513 21.1604 18.3521 18.7734C18.4353 18.6769 18.4353 18.6769 18.5202 18.5785C19.9177 17.0705 21.8935 16.0874 23.8365 15.5039C23.9462 15.4701 24.0559 15.4364 24.169 15.4017C25.9926 14.9421 28.3667 14.9498 30.1646 15.5039Z" fill="black"/>
<path d="M28.6761 18.8517C29.556 19.3764 30.1038 20.103 30.3751 21.0937C30.4001 21.3739 30.4153 21.6379 30.4147 21.9177C30.4146 21.9919 30.4146 22.0661 30.4146 22.1425C30.3977 22.9151 30.1605 23.4196 29.7423 24.0468C29.829 24.0967 29.9158 24.1466 30.0051 24.198C31.7797 25.2493 33.1164 26.6247 33.6595 28.6776C33.7948 29.3346 33.7932 30.0022 33.795 30.6704C33.7963 30.895 33.8015 31.1193 33.8068 31.3438C33.8171 32.2084 33.7539 32.9335 33.2228 33.6445C32.3923 34.449 31.2448 34.7819 30.1642 35.1211C29.981 35.1788 29.981 35.1788 29.7942 35.2377C27.8189 35.735 25.4556 35.6418 23.5196 35.0156C23.4455 34.9924 23.3714 34.9693 23.295 34.9454C22.2147 34.6002 21.0905 34.2173 20.4887 33.1975C20.1722 32.5292 20.1778 31.8566 20.1929 31.132C20.1974 30.9096 20.1973 30.6875 20.1966 30.465C20.2019 29.2914 20.4099 28.2621 20.9423 27.2109C20.9785 27.1393 21.0147 27.0678 21.0521 26.994C21.7752 25.6309 22.9242 24.7717 24.2579 24.0468C24.16 23.9098 24.16 23.9098 24.0602 23.77C23.539 22.9422 23.5285 22.042 23.6251 21.0937C23.831 20.1893 24.3315 19.5097 25.1017 19.0041C26.1309 18.3759 27.5886 18.3298 28.6761 18.8517ZM25.5895 21.0542C25.357 21.537 25.334 21.9381 25.4181 22.4648C25.6638 22.9751 25.9624 23.2738 26.4728 23.5195C26.9995 23.6036 27.4006 23.5806 27.8834 23.3481C28.2614 23.0061 28.5395 22.7322 28.6225 22.2119C28.6495 21.6124 28.5754 21.2362 28.1603 20.7773C27.7014 20.3622 27.3252 20.2881 26.7257 20.3151C26.2054 20.3981 25.9315 20.6762 25.5895 21.0542ZM23.1604 27.112C22.0362 28.4786 21.8149 30.1299 21.9376 31.8515C22.0846 32.3519 22.2722 32.5196 22.7105 32.7732C23.3097 33.0561 23.9404 33.2455 24.5743 33.4336C24.7 33.4713 24.7 33.4713 24.8281 33.5098C27.0632 34.0901 29.533 33.6535 31.5542 32.6018C31.7825 32.4622 31.9305 32.3482 32.0218 32.0917C32.2646 30.6623 32.0636 28.9363 31.2716 27.7028C30.4162 26.5425 29.3598 25.754 27.9493 25.4179C26.057 25.214 24.4869 25.7104 23.1604 27.112Z" fill="#28A745"/>
<path d="M8.80054 39.8144C9.41421 40.1852 9.91403 40.7626 10.1255 41.4492C10.1976 42.2413 10.2095 42.9634 9.80909 43.664C9.86565 43.6879 9.9222 43.7119 9.98048 43.7365C10.8564 44.2205 11.4836 45.0532 11.7623 46.0144C11.9081 46.8383 12.0032 47.7901 11.5625 48.5353C11.1697 49.0171 10.7014 49.2538 10.1255 49.4648C10.0396 49.4984 9.95365 49.5319 9.86512 49.5665C8.18604 50.1024 6.0869 49.946 4.48209 49.2435C3.95029 48.9541 3.56341 48.5702 3.37549 47.9882C3.22656 46.744 3.39518 45.6501 4.15333 44.6264C4.46215 44.2565 4.77753 43.9458 5.16846 43.664C5.23807 43.664 5.30768 43.664 5.3794 43.664C5.32719 43.5726 5.27499 43.4813 5.2212 43.3871C4.93533 42.7156 4.9502 41.8918 5.1285 41.1921C5.40879 40.5542 5.95736 40.054 6.57416 39.7435C7.25697 39.5319 8.13981 39.5216 8.80054 39.8144ZM7.02735 41.6205C6.80459 41.9461 6.79142 42.1166 6.85596 42.5038C7.01417 42.7675 7.01417 42.7675 7.27784 42.9257C7.66509 42.9903 7.83557 42.9771 8.16114 42.7543C8.3839 42.4288 8.39707 42.2583 8.33253 41.871C8.17432 41.6074 8.17432 41.6074 7.91065 41.4492C7.5234 41.3846 7.35292 41.3978 7.02735 41.6205ZM5.6233 45.6757C5.26012 46.2339 5.04622 46.7892 5.16846 47.4609C5.80682 48.0412 6.87759 48.086 7.69971 48.0937C8.94543 48.026 8.94543 48.026 10.02 47.4609C10.0793 46.7849 9.97162 46.3409 9.59815 45.7734C9.1448 45.2343 8.69434 44.8757 7.99387 44.7759C7.02534 44.7308 6.25563 44.8985 5.6233 45.6757Z" fill="black"/>
<path d="M47.613 6.06439C48.2267 6.43523 48.7265 7.01263 48.938 7.69915C49.0101 8.49127 49.022 9.21336 48.6216 9.914C48.6781 9.93792 48.7347 9.96185 48.793 9.98651C49.6689 10.4705 50.2961 11.3032 50.5748 12.2644C50.7206 13.0883 50.8157 14.0401 50.375 14.7853C49.9822 15.2671 49.5139 15.5038 48.938 15.7148C48.8521 15.7484 48.7661 15.7819 48.6776 15.8165C46.9985 16.3524 44.8994 16.196 43.2946 15.4935C42.7628 15.2041 42.3759 14.8202 42.188 14.2382C42.0391 12.994 42.2077 11.9001 42.9658 10.8764C43.2746 10.5065 43.59 10.1958 43.981 9.914C44.0506 9.914 44.1202 9.914 44.1919 9.914C44.1397 9.82263 44.0875 9.73127 44.0337 9.63714C43.7478 8.96556 43.7627 8.14182 43.941 7.44207C44.2213 6.80425 44.7699 6.30399 45.3867 5.99352C46.0695 5.78189 46.9523 5.77159 47.613 6.06439ZM45.8399 7.87054C45.6171 8.19611 45.6039 8.36659 45.6685 8.75384C45.8267 9.01751 45.8267 9.01751 46.0903 9.17571C46.4776 9.24026 46.6481 9.22708 46.9736 9.00433C47.1964 8.67876 47.2096 8.50828 47.145 8.12103C46.9868 7.85735 46.9868 7.85735 46.7232 7.69915C46.3359 7.63461 46.1654 7.64778 45.8399 7.87054ZM44.4358 11.9257C44.0726 12.4839 43.8587 13.0392 43.981 13.7109C44.6193 14.2912 45.6901 14.336 46.5122 14.3437C47.7579 14.276 47.7579 14.276 48.8325 13.7109C48.8918 13.0349 48.7841 12.5909 48.4107 12.0234C47.9573 11.4843 47.5068 11.1257 46.8064 11.0259C45.8378 10.9808 45.0681 11.1485 44.4358 11.9257Z" fill="black"/>
<path d="M8.80054 2.68939C9.41421 3.06023 9.91403 3.63763 10.1255 4.32415C10.1976 5.11627 10.2095 5.83836 9.80909 6.539C9.86565 6.56292 9.9222 6.58685 9.98048 6.61151C10.8564 7.09554 11.4836 7.92816 11.7623 8.88938C11.9081 9.71332 12.0032 10.6651 11.5625 11.4103C11.1697 11.8921 10.7014 12.1288 10.1255 12.3398C10.0396 12.3734 9.95365 12.4069 9.86512 12.4415C8.18604 12.9774 6.0869 12.821 4.48209 12.1185C3.95029 11.8291 3.56341 11.4452 3.37549 10.8632C3.22656 9.61901 3.39518 8.52515 4.15333 7.5014C4.46215 7.13148 4.77753 6.82083 5.16846 6.539C5.23807 6.539 5.30768 6.539 5.3794 6.539C5.32719 6.44763 5.27499 6.35627 5.2212 6.26214C4.93533 5.59056 4.9502 4.76682 5.1285 4.06707C5.40879 3.42925 5.95736 2.92899 6.57416 2.61852C7.25697 2.40689 8.13981 2.39659 8.80054 2.68939ZM7.02735 4.49554C6.80459 4.82111 6.79142 4.99159 6.85596 5.37884C7.01417 5.64251 7.01417 5.64251 7.27784 5.80071C7.66509 5.86526 7.83557 5.85208 8.16114 5.62933C8.3839 5.30376 8.39707 5.13328 8.33253 4.74603C8.17432 4.48235 8.17432 4.48235 7.91065 4.32415C7.5234 4.25961 7.35292 4.27278 7.02735 4.49554ZM5.6233 8.55073C5.26012 9.1089 5.04622 9.66423 5.16846 10.3359C5.80682 10.9162 6.87759 10.961 7.69971 10.9687C8.94543 10.901 8.94543 10.901 10.02 10.3359C10.0793 9.65993 9.97162 9.21589 9.59815 8.64837C9.1448 8.10925 8.69434 7.75065 7.99387 7.65095C7.02534 7.60578 6.25563 7.77348 5.6233 8.55073Z" fill="black"/>
</g>
<defs>
<clipPath id="clip0_976_860">
<rect width="54" height="54" fill="white"/>
</clipPath>
</defs>
</svg>
