<svg width="96" height="95" viewBox="0 0 96 95" fill="none" xmlns="http://www.w3.org/2000/svg">
<g clip-path="url(#clip0_737_1251)">
<path d="M77.316 2.04089C79.4499 3.76627 80.8355 6.19855 81.2125 8.90613C81.4307 12.404 80.6647 15.6329 79.5426 18.9257C79.6909 19.0359 79.8392 19.1462 79.992 19.2598C81.4688 20.3695 82.8466 21.5458 84.1813 22.8221C84.3532 22.9843 84.5252 23.1465 84.7024 23.3136C90.2537 28.6837 93.7707 36.0541 95.1285 43.6034C95.1617 43.7842 95.1949 43.9649 95.229 44.1512C95.5452 46.0761 95.5657 47.9771 95.5576 49.9236C95.5571 50.1765 95.5571 50.1765 95.5566 50.4344C95.5482 52.896 95.4772 55.2929 94.943 57.705C94.9111 57.8553 94.8793 58.0056 94.8465 58.1605C94.1251 61.5 93.0529 64.7273 91.4261 67.7365C91.2291 68.1009 91.0371 68.4678 90.845 68.8349C89.3698 71.6023 87.4723 74.0121 85.2945 76.2596C85.2077 76.3493 85.1209 76.4389 85.0315 76.5312C83.3466 78.2635 83.3466 78.2635 82.5461 78.3702C81.9547 78.3007 81.9547 78.3007 81.4212 77.9064C81.027 77.3729 81.027 77.3729 80.8878 76.8511C81.1448 75.7589 81.9991 75.0891 82.7882 74.331C84.4872 72.6886 85.9391 70.8694 87.15 68.8378C86.9594 68.8069 86.9594 68.8069 86.7649 68.7755C85.1804 68.5157 83.602 68.2265 82.0243 67.9289C81.8227 67.8909 81.8227 67.8909 81.6171 67.8521C80.907 67.718 80.1971 67.5836 79.4871 67.4489C78.9058 67.3387 78.3242 67.2293 77.7426 67.1207C77.0323 66.9881 76.3224 66.854 75.6126 66.7188C75.3453 66.6682 75.0778 66.618 74.8103 66.5684C71.9854 66.044 69.5019 65.5342 67.7024 63.1322C67.0756 62.1819 66.7177 61.1935 66.3688 60.1171C66.2473 59.8069 66.1243 59.4974 65.9977 59.1893C63.4309 62.6932 62.309 66.0456 61.7959 70.3408C61.0034 76.8225 61.0034 76.8225 58.3663 78.9812C57.7664 79.4492 57.1501 79.8942 56.5348 80.3417C54.8091 81.6801 53.9707 83.1497 53.1949 85.1659C60.4705 85.2923 67.7621 84.7529 74.1743 80.8937C74.7544 80.601 75.2014 80.6015 75.8316 80.7128C76.2839 80.9911 76.2839 80.9911 76.5738 81.455C76.6763 81.9704 76.7092 82.4297 76.5738 82.9393C75.9587 83.7661 75.0244 84.1349 74.1153 84.5629C73.944 84.6435 73.7728 84.7242 73.5963 84.8073C64.3789 89.0313 53.838 89.4869 44.2887 86.0936C42.9587 85.5993 41.6596 85.0637 40.3922 84.4237C40.3938 84.5277 40.3955 84.6318 40.3972 84.739C40.4137 85.8256 40.4248 86.9122 40.433 87.999C40.4367 88.4041 40.4417 88.8092 40.4482 89.2143C40.4572 89.7979 40.4614 90.3813 40.4647 90.965C40.4685 91.145 40.4723 91.3249 40.4763 91.5104C40.4767 92.6521 40.363 93.3481 39.65 94.2577C38.7052 94.9071 37.9959 95.1083 36.8442 95.0941C36.6978 95.0953 36.5514 95.0964 36.4005 95.0976C35.9126 95.1006 35.4249 95.0983 34.937 95.0959C34.5861 95.0969 34.2352 95.0982 33.8844 95.0999C32.9332 95.1032 31.9822 95.1019 31.0311 95.0996C30.0349 95.0977 29.0388 95.0994 28.0427 95.1006C26.37 95.102 24.6973 95.1002 23.0246 95.0966C21.0917 95.0926 19.1589 95.0939 17.226 95.098C15.5654 95.1014 13.9048 95.1018 12.2442 95.0999C11.2529 95.0987 10.2616 95.0986 9.27022 95.101C8.33814 95.1032 7.40614 95.1017 6.47407 95.0974C6.13232 95.0964 5.79057 95.0967 5.44883 95.0984C4.98166 95.1004 4.51473 95.0978 4.04758 95.0941C3.91291 95.0958 3.77824 95.0974 3.63949 95.0991C2.62333 95.0836 2.06036 94.8185 1.2418 94.2577C0.325116 93.1305 0.393952 92.015 0.403574 90.606C0.402273 90.3714 0.400973 90.1369 0.399633 89.8952C0.396264 89.255 0.397556 88.6149 0.399916 87.9747C0.401801 87.3039 0.400049 86.6331 0.398885 85.9623C0.397537 84.8368 0.399309 83.7113 0.402849 82.5858C0.406895 81.2844 0.405576 79.9831 0.401496 78.6817C0.398129 77.5634 0.39765 76.445 0.399593 75.3267C0.40075 74.6591 0.400906 73.9916 0.398455 73.3241C0.395916 72.5808 0.39943 71.8378 0.403574 71.0946C0.402071 70.8731 0.400569 70.6516 0.399021 70.4234C0.401114 70.2215 0.403207 70.0197 0.405363 69.8117C0.405643 69.636 0.405924 69.4603 0.406212 69.2793C0.49961 68.8378 0.499607 68.8378 0.836003 68.5029C1.4298 68.1784 1.87552 68.2099 2.54062 68.2811C2.94629 68.505 2.94629 68.505 3.28281 68.8378C3.37703 69.2656 3.37703 69.2656 3.37911 69.7782C3.38169 69.9721 3.38427 70.1661 3.38693 70.3659C3.38599 70.5795 3.38506 70.793 3.3841 71.013C3.38603 71.2411 3.38796 71.4693 3.38995 71.7043C3.39446 72.3217 3.39579 72.939 3.39558 73.5564C3.39605 74.1356 3.40052 74.7148 3.40467 75.294C3.41446 76.9881 3.41782 78.6823 3.42197 80.3765C3.43728 84.1613 3.45259 87.9461 3.46836 91.8456C14.6735 91.9068 25.8787 91.968 37.4234 92.0311C37.4234 80.826 37.4234 69.6208 37.4234 58.076C34.3619 58.076 31.3004 58.076 28.1461 58.076C28.1504 59.0988 28.1547 60.1215 28.1591 61.1753C28.161 61.823 28.1628 62.4707 28.1642 63.1184C28.1664 64.1466 28.1691 65.1749 28.1741 66.2031C28.1781 67.032 28.1803 67.8609 28.1813 68.6898C28.182 69.0061 28.1833 69.3224 28.1853 69.6388C28.188 70.0817 28.1884 70.5245 28.1882 70.9674C28.1896 71.0983 28.1909 71.2292 28.1923 71.3641C28.1895 72.0316 28.1823 72.5599 27.775 73.1053C27.1394 73.5697 26.5008 73.5246 25.734 73.5274C25.5402 73.5288 25.5402 73.5288 25.3424 73.5303C24.9163 73.5328 24.4902 73.5327 24.0641 73.5322C23.7674 73.533 23.4707 73.5338 23.174 73.5347C22.5526 73.536 21.9312 73.536 21.3099 73.535C20.5137 73.5339 19.7176 73.5371 18.9215 73.5414C18.309 73.5441 17.6965 73.5443 17.0839 73.5437C16.7904 73.5438 16.4969 73.5448 16.2033 73.5466C15.7929 73.5489 15.3827 73.5477 14.9723 73.5455C14.6221 73.5457 14.6221 73.5457 14.2649 73.5459C13.6302 73.4714 13.3736 73.3728 12.9312 72.9198C12.7123 72.263 12.7212 71.6716 12.7246 70.9885C12.7246 70.849 12.7246 70.7096 12.7246 70.5659C12.7247 70.1051 12.7261 69.6443 12.7276 69.1835C12.7279 68.864 12.7282 68.5444 12.7284 68.2249C12.7291 67.3839 12.7309 66.543 12.733 65.702C12.7352 64.6929 12.736 63.6839 12.7371 62.6748C12.7389 61.1419 12.7425 59.609 12.7457 58.076C9.68418 58.1373 6.62266 58.1985 3.46836 58.2616C3.43675 59.8852 3.43675 59.8852 3.41309 61.5089C3.40457 61.8119 3.40457 61.8119 3.39588 62.1211C3.39199 62.3281 3.38811 62.535 3.3841 62.7483C3.28281 63.2714 3.28281 63.2714 2.94524 63.6172C2.35098 63.9268 1.90099 63.8986 1.2418 63.828C0.836275 63.63 0.836275 63.63 0.499609 63.2714C0.424039 62.7932 0.395406 62.3949 0.401037 61.9167C0.399972 61.718 0.399972 61.718 0.398885 61.5153C0.39838 61.235 0.399748 60.9547 0.402849 60.6745C0.406804 60.248 0.402896 59.822 0.398138 59.3955C0.398629 59.1227 0.39958 58.8498 0.401037 58.5769C0.399535 58.4504 0.398032 58.324 0.396484 58.1937C0.414395 57.2696 0.670437 56.7505 1.2418 56.035C2.24307 55.1314 3.01678 55.0806 4.3223 55.0862C4.56674 55.0862 4.56673 55.0862 4.81611 55.0862C5.35524 55.0863 5.89436 55.0877 6.43349 55.0892C6.80709 55.0895 7.1807 55.0898 7.5543 55.09C8.53804 55.0907 9.52178 55.0925 10.5055 55.0946C11.5092 55.0965 12.5129 55.0973 13.5165 55.0982C15.4861 55.1002 17.4558 55.1034 19.4254 55.1073C19.3813 54.8961 19.3813 54.8961 19.3363 54.6806C17.6796 46.0736 20.4416 36.3684 25.1759 29.2003C26.4793 27.2792 27.9545 25.5135 29.557 23.8359C29.7295 23.6551 29.9009 23.4733 30.0714 23.2906C36.8536 16.0351 46.7462 12.2773 56.5348 11.8749C57.5382 11.8532 58.5274 11.8652 59.5267 11.9677C59.6994 11.9849 59.8721 12.0021 60.05 12.0198C60.1758 12.0332 60.3016 12.0466 60.4312 12.0604C60.37 11.938 60.3088 11.8155 60.2457 11.6893C59.9695 8.81853 60.7619 6.03212 62.5005 3.74126C66.2788 -0.729014 72.6147 -1.28042 77.316 2.04089ZM64.8902 5.60615C63.3769 7.58425 62.9966 9.74111 63.2956 12.1604C64.2458 18.0869 67.4246 23.6041 70.6363 28.5741C71.5789 27.7476 72.1483 26.7543 72.7701 25.6749C72.9387 25.3832 72.9387 25.3832 73.1108 25.0856C77.5644 17.2766 77.5644 17.2766 78.1155 8.50967C77.3774 6.29546 76.0053 4.61677 73.9298 3.54846C70.7915 2.03927 67.1494 3.06451 64.8902 5.60615ZM52.4527 15.4003C52.3051 17.0489 52.3831 18.2864 53.429 19.5881C54.2492 20.4104 55.3111 20.8046 56.3748 21.2222C57.6759 21.746 58.5833 22.4177 59.1687 23.7238C59.5544 24.7499 59.6874 25.7656 59.7895 26.8542C60.0015 28.9691 60.6974 30.5574 62.1628 32.1263C63.7483 33.89 64.189 36.023 64.1342 38.3443C64.1301 38.6132 64.1261 38.8821 64.1223 39.151C64.1154 39.5688 64.1074 39.9864 64.0964 40.4041C64.0862 40.8115 64.0809 41.2187 64.0762 41.6262C64.0712 41.8676 64.0661 42.1091 64.0609 42.3578C64.1627 43.2207 64.3861 43.6378 64.8844 44.3456C65.4956 44.6406 65.4956 44.6406 66.1832 44.5311C67.352 43.8511 67.8191 42.8456 68.4142 41.6762C69.5731 39.42 71.2212 38.257 73.6215 37.4598C75.1472 36.9975 76.7236 36.7361 78.2871 36.4363C80.6572 35.9778 82.9766 35.3694 85.2945 34.6971C85.5383 34.627 85.5383 34.627 85.7869 34.5554C87.0372 34.1986 87.0372 34.1986 88.2633 33.7694C88.3245 33.6469 88.3857 33.5245 88.4488 33.3983C88.2362 32.9707 88.0141 32.5748 87.7646 32.1691C87.6896 32.0461 87.6146 31.923 87.5373 31.7963C86.0952 29.4782 84.4055 27.3812 82.5113 25.4198C82.2828 25.1769 82.2828 25.1769 82.0496 24.9291C80.9452 23.7824 79.7624 22.7677 78.4293 21.8944C78.3068 21.8944 78.1844 21.8944 78.0582 21.8944C78.0024 22.0052 77.9466 22.116 77.8891 22.2302C76.8765 24.2315 75.8462 26.2121 74.6488 28.1102C74.5607 28.2507 74.4726 28.3912 74.3819 28.5359C73.008 30.6738 73.008 30.6738 72.0511 31.2529C70.8635 31.5074 70.0263 31.4318 68.9648 30.8734C68.2938 30.4043 67.9347 29.7587 67.5284 29.0612C67.4352 28.9072 67.342 28.7532 67.2459 28.5945C66.1515 26.7658 65.1258 24.898 64.1422 23.0077C64.0714 22.8725 64.0007 22.7373 63.9277 22.598C62.6778 20.1787 61.8402 17.6097 60.9879 15.0292C56.5532 14.4354 56.5532 14.4354 52.4527 15.4003ZM32.7848 24.8632C32.6397 25.0025 32.6397 25.0025 32.4918 25.1447C30.7197 26.6867 30.7197 26.6867 29.4449 28.5741C29.4959 29.5466 29.7919 30.3463 30.1987 31.2181C30.3161 31.4787 30.4333 31.7394 30.5502 32.0002C30.6118 32.1365 30.6735 32.2728 30.737 32.4132C33.7849 39.2025 33.7849 39.2025 32.7036 42.9076C31.8742 45.0042 30.457 46.7293 29.0284 48.4424C27.7839 49.95 26.4777 51.5641 26.4334 53.5802C26.4893 54.1208 26.6707 54.5949 26.8473 55.1073C26.9866 55.1084 27.1259 55.1095 27.2695 55.1106C28.5853 55.1214 29.901 55.1347 31.2168 55.151C31.8932 55.1593 32.5695 55.1666 33.2459 55.1716C33.8992 55.1764 34.5525 55.1839 35.2057 55.1932C35.5751 55.1978 35.9445 55.1997 36.3138 55.2015C36.5403 55.2052 36.7669 55.2088 37.0002 55.2126C37.2981 55.2157 37.2981 55.2157 37.6021 55.2189C38.5019 55.337 39.1026 55.6541 39.708 56.325C40.1611 56.9795 40.2306 57.312 40.236 58.1016C40.2378 58.3035 40.2396 58.5054 40.2415 58.7135C40.2426 58.9359 40.2436 59.1584 40.2447 59.3877C40.2466 59.6212 40.2484 59.8547 40.2503 60.0953C40.2553 60.7366 40.2592 61.3779 40.2629 62.0192C40.267 62.6891 40.2721 63.3589 40.277 64.0288C40.2863 65.2977 40.2946 66.5666 40.3026 67.8355C40.3118 69.2799 40.322 70.7244 40.3323 72.1688C40.3534 75.1405 40.3732 78.1122 40.3922 81.0839C41.0045 81.3812 41.6176 81.6766 42.231 81.9717C42.4022 82.0549 42.5733 82.138 42.7497 82.2237C45.1502 83.3757 47.6092 84.1296 50.2262 84.6093C50.2668 84.5011 50.3075 84.393 50.3494 84.2816C51.5296 81.2305 52.9744 79.1673 55.6041 77.2294C57.3947 75.9074 58.1087 74.7265 58.5758 72.5487C58.6938 71.7083 58.7687 70.8659 58.8425 70.0206C59.3161 65.213 60.6162 60.3094 64.1422 56.7772C64.8645 56.2174 65.4868 55.9728 66.4035 56.0466C67.3351 56.2757 67.8228 56.4883 68.4011 57.2621C68.8851 58.063 69.1679 58.8791 69.4694 59.7605C69.9282 61.0528 70.469 62.0036 71.684 62.7021C72.5225 63.0826 73.3996 63.2328 74.3009 63.3989C74.6344 63.4641 74.6344 63.4641 74.9748 63.5306C75.4987 63.6329 76.0231 63.7331 76.5477 63.8322C77.4652 64.0058 78.3815 64.1849 79.2979 64.3643C80.3843 64.5769 81.471 64.7881 82.5577 64.9993C82.772 65.041 82.9862 65.0827 83.2069 65.1256C83.8263 65.2459 84.4459 65.3652 85.0655 65.4842C85.2509 65.5202 85.4362 65.5563 85.6272 65.5935C86.69 65.7965 87.743 65.9495 88.8199 66.0546C90.5098 62.9985 91.5586 59.6553 92.1598 56.2206C92.1925 56.0367 92.2253 55.8528 92.2591 55.6634C92.5534 53.8424 92.6052 52.0531 92.6004 50.2135C92.6003 50.0588 92.6001 49.9041 92.5999 49.7447C92.5842 45.1758 91.9239 40.4523 89.7477 36.3671C88.6809 36.6522 87.618 36.9473 86.56 37.2636C83.6303 38.1341 80.7044 38.8092 77.7073 39.4049C73.9892 40.1142 73.9892 40.1142 71.193 42.4901C70.8864 43.0027 70.62 43.5308 70.358 44.0673C69.5712 45.6783 68.8015 46.9604 67.0472 47.576C66.0095 47.8064 65.1021 47.6343 64.1074 47.3027C62.6432 46.294 61.7015 44.7893 61.359 43.0468C61.3501 42.6115 61.352 42.176 61.3604 41.7407C61.3637 41.481 61.3668 41.2212 61.3699 40.9615C61.3756 40.5561 61.3821 40.1507 61.3908 39.7452C61.4305 37.7797 61.4284 35.9401 60.1877 34.3029C60.0741 34.1491 59.9605 33.9953 59.8434 33.8368C59.6322 33.5643 59.4194 33.293 59.2042 33.0236C57.8393 31.292 57.2662 29.4773 57.0073 27.3151C56.9923 27.1918 56.9773 27.0684 56.9618 26.9413C56.9194 26.584 56.881 26.2262 56.8428 25.8684C56.6829 25.0406 56.3759 24.5324 55.8042 23.9238C55.2484 23.5722 54.7934 23.4092 54.169 23.2164C52.4339 22.6622 51.3259 21.9565 50.4516 20.3289C49.736 18.8194 49.5588 17.4398 49.484 15.7714C43.6138 15.7714 36.7884 20.9759 32.7848 24.8632ZM27.2184 31.9139C22.8838 37.1784 21.5144 45.9844 22.0611 52.599C22.1479 53.4389 22.262 54.2732 22.3941 55.1073C22.8228 55.1073 23.2514 55.1073 23.693 55.1073C23.6844 54.9167 23.6757 54.726 23.6669 54.5296C23.5598 51.1669 24.9444 49.0218 26.9949 46.4504C29.6806 43.1037 29.6806 43.1037 30.1871 38.9647C29.7823 37.2622 29.0982 35.6713 28.378 34.0825C28.284 33.8722 28.19 33.6618 28.0932 33.4451C27.8647 32.9341 27.6349 32.4238 27.4039 31.9139C27.3427 31.9139 27.2814 31.9139 27.2184 31.9139ZM15.7145 58.076C15.7145 62.1785 15.7145 66.2809 15.7145 70.5077C18.8372 70.5077 21.96 70.5077 25.1773 70.5077C25.1773 66.4053 25.1773 62.3028 25.1773 58.076C22.0546 58.076 18.9318 58.076 15.7145 58.076Z" fill="black"/>
<path d="M73.2682 6.40766C74.2542 7.20447 75.2577 8.17283 75.46 9.46266C75.5815 11.0787 75.4638 12.281 74.5903 13.6723C73.5184 14.7442 72.2652 15.3865 70.7387 15.406C69.2449 15.3146 68.1737 14.8719 67.1452 13.7766C66.2316 12.6461 65.8813 11.5702 65.9326 10.115C66.1179 8.7746 66.8351 7.56204 67.8526 6.67946C69.3402 5.6427 71.6931 5.45373 73.2682 6.40766ZM69.1514 9.64821C68.9445 10.3594 68.8949 10.7633 69.163 11.4573C69.6183 11.986 69.973 12.2105 70.6358 12.4314C71.3452 12.3179 71.6688 12.1363 72.1897 11.6428C72.554 11.0264 72.6087 10.724 72.4913 10.0193C72.1573 9.51834 71.9191 9.17657 71.378 8.90602C70.3748 8.81138 69.8287 8.87128 69.1514 9.64821Z" fill="black"/>
<path d="M25.1768 18.2529C25.9328 18.4104 26.2055 18.6801 26.6612 19.2966C26.7772 19.8533 26.7772 19.8533 26.6612 20.4099C26.2055 21.0264 25.9328 21.2961 25.1768 21.4536C24.4208 21.2961 24.1481 21.0264 23.6924 20.4099C23.5765 19.8533 23.5765 19.8533 23.6924 19.2966C24.1481 18.6801 24.4208 18.4104 25.1768 18.2529Z" fill="#28A745"/>
<path d="M14.415 43.2323C14.8906 43.6464 14.9601 43.8966 15.0529 44.5195C14.9494 45.2435 14.7808 45.5348 14.2295 46.0155C13.5917 46.1314 13.5917 46.1314 12.9307 46.0155C12.2947 45.5554 12.0376 45.3002 11.9102 44.5195C12.0117 43.9227 12.1342 43.6576 12.5596 43.2323C13.2637 42.9975 13.6958 43.0653 14.415 43.2323Z" fill="#28A745"/>
<path d="M21.6531 22.5205C22.4091 22.678 22.6818 22.9477 23.1375 23.5642C23.2389 24.1855 23.2006 24.5314 22.9519 25.1066C22.4706 25.5126 22.0907 25.5991 21.469 25.6473C21.0964 25.6052 21.0964 25.6052 20.5398 25.2225C20.1687 24.6775 20.1687 24.6775 20.0527 24.1208C20.2466 23.1905 20.7227 22.7143 21.6531 22.5205Z" fill="#28A745"/>
<path d="M14.0444 48.7986C14.565 49.2353 14.5971 49.5137 14.6938 50.1902C14.601 50.8396 14.601 50.8396 14.2067 51.2919C13.5845 51.63 13.2577 51.6857 12.56 51.5818C12.1309 51.3846 12.1309 51.3846 11.8178 51.0252C11.6146 50.2938 11.5591 49.8945 11.8642 49.1929C12.4898 48.4332 13.1558 48.5923 14.0444 48.7986Z" fill="#28A745"/>
<path d="M15.1582 37.6661C15.5989 37.8748 15.5989 37.8748 15.9004 38.2227C16.1183 38.8908 16.1467 39.2023 15.854 39.8463C15.5293 40.2638 15.5293 40.2638 14.9727 40.6349C14.3539 40.6017 13.862 40.5525 13.3143 40.2522C12.9885 39.658 13.0021 39.0583 13.1172 38.4083C13.6461 37.5621 14.2079 37.5473 15.1582 37.6661Z" fill="#28A745"/>
<path d="M17.0146 32.4708C17.5713 32.8419 17.5713 32.8419 17.7568 33.5493C17.8135 34.1981 17.7698 34.3069 17.3857 34.8829C16.6952 35.3433 16.3452 35.3874 15.5302 35.254C15.078 34.9641 15.078 34.9641 14.7881 34.5118C14.701 33.8154 14.6895 33.3914 15.0316 32.7723C15.6647 32.1626 16.214 32.2873 17.0146 32.4708Z" fill="#28A745"/>
<path d="M34.4551 11.3185C34.9073 11.5968 34.9073 11.5968 35.1973 12.0607C35.3105 12.5819 35.3185 13.0249 35.1973 13.5451C34.8146 14.0205 34.8146 14.0205 34.2695 14.2872C33.6207 14.2761 33.1751 14.2312 32.6228 13.8814C32.3171 13.3888 32.2516 13.0101 32.2285 12.4318C32.751 11.3122 33.247 11.2144 34.4551 11.3185Z" fill="#28A745"/>
<path d="M18.8005 27.2754C19.6855 27.5376 19.6855 27.5376 19.9834 28.0176C20.1899 28.696 20.2282 29.0038 19.9254 29.6527C19.6123 30.0586 19.6123 30.0586 19.2412 30.2441C18.5294 30.31 18.1008 30.3457 17.4901 29.9542C17.0832 29.3195 17.0833 28.9435 17.2002 28.2031C17.6985 27.4783 17.9097 27.2754 18.8005 27.2754Z" fill="#28A745"/>
<path d="M55.4218 4.63861C55.8741 4.92853 55.8741 4.92853 56.164 5.3808C56.2985 6.20252 56.2558 6.54616 55.7813 7.23627C55.2363 7.60736 55.2363 7.60736 54.5637 7.60736C53.6787 7.34516 53.6787 7.34516 53.3808 6.86517C53.1743 6.18676 53.136 5.87892 53.4388 5.23004C54 4.50252 54.5376 4.56238 55.4218 4.63861Z" fill="#28A745"/>
<path d="M39.4651 8.72083C39.9281 9.00459 39.9977 9.20722 40.1725 9.71815C40.2139 10.2982 40.1001 10.6189 39.8362 11.1329C39.3862 11.5829 39.1644 11.6313 38.5374 11.6896C37.9628 11.5159 37.6645 11.3734 37.2385 10.9474C37.1148 9.66919 37.1148 9.66919 37.5169 8.99916C38.2139 8.58095 38.6572 8.63107 39.4651 8.72083Z" fill="#28A745"/>
<path d="M44.4749 6.67951C44.9271 6.95783 44.9271 6.95783 45.2171 7.42169C45.3327 8.07458 45.3509 8.67557 45.0083 9.26557C44.507 9.54964 44.1234 9.62521 43.5471 9.64826C43.1153 9.43714 42.7737 9.24592 42.4339 8.90607C42.259 7.46698 42.259 7.46698 42.7238 6.85346C43.3519 6.61187 43.8075 6.59609 44.4749 6.67951Z" fill="#28A745"/>
<path d="M50.0407 5.38071C50.4657 5.6738 50.5771 5.88378 50.7597 6.36643C50.7909 7.03719 50.5732 7.41293 50.2262 7.97836C49.6526 8.2652 49.1882 8.21839 48.5563 8.16391C48.104 7.88559 48.104 7.88559 47.8141 7.42172C47.6967 6.75858 47.6664 6.15538 48.0576 5.57785C48.762 5.13437 49.2575 5.18491 50.0407 5.38071Z" fill="#28A745"/>
<path d="M30.0013 14.658C30.4652 14.9595 30.4652 14.9595 30.7435 15.4002C30.8616 16.0941 30.791 16.4225 30.4652 17.0469C29.9008 17.5267 29.5931 17.5693 28.8706 17.5181C28.5169 17.4412 28.5169 17.4412 28.0531 17.1513C27.6664 16.523 27.6712 16.125 27.7747 15.4002C28.3111 14.5286 29.0577 14.4685 30.0013 14.658Z" fill="#28A745"/>
</g>
<defs>
<clipPath id="clip0_737_1251">
<rect width="95" height="95" fill="white" transform="translate(0.5)"/>
</clipPath>
</defs>
</svg>
