<svg width="80" height="81" viewBox="0 0 80 81" fill="none" xmlns="http://www.w3.org/2000/svg">
<g clip-path="url(#clip0_880_1950)">
<path d="M41.6352 14.2038C42.6036 14.3974 43.5726 14.5869 44.542 14.7755C44.8756 14.8409 45.2089 14.9079 45.5422 14.9751C46.6737 15.1996 47.7826 15.3613 48.9363 15.415C50.1686 15.5379 51.3064 16.1665 52.1877 17.0213C53.5853 18.7294 53.6587 20.225 53.594 22.3338C53.6887 22.3626 53.7833 22.3914 53.8809 22.4211C55.4167 22.9527 56.6408 23.9472 57.3605 25.4222C57.8598 26.6695 57.8498 27.8773 57.8127 29.2088C57.939 29.2692 58.0653 29.3296 58.1954 29.3919C58.3624 29.4733 58.5294 29.5546 58.7014 29.6385C58.8664 29.7182 59.0313 29.798 59.2013 29.8802C60.5053 30.5935 61.3697 31.7325 61.8038 33.1541C61.9643 34.1197 61.9075 35.1087 61.8752 36.0838C61.9717 36.1144 62.0682 36.145 62.1676 36.1765C63.6257 36.6914 64.667 37.5518 65.4733 38.8725C66.0989 40.257 66.1854 41.8867 65.79 43.3488C65.442 44.2255 65.0327 44.9388 64.3752 45.615C65.2826 46.7274 66.3069 47.7203 67.3245 48.7303C67.5084 48.9134 67.6923 49.0966 67.8762 49.2799C68.3234 49.7253 68.7711 50.1703 69.219 50.615C69.3322 50.582 69.4454 50.5489 69.562 50.5149C71.3053 50.0199 72.8838 49.8744 74.5315 50.7713C75.5774 51.5001 76.4856 52.3603 77.3831 53.2615C77.5649 53.4396 77.5649 53.4396 77.7505 53.6213C79.1166 54.9863 79.9167 56.3028 80.0265 58.2737C79.9494 60.4543 78.6704 61.9277 77.1872 63.3881C77.0137 63.5624 76.8404 63.7369 76.6672 63.9116C76.2006 64.3812 75.7311 64.8478 75.2609 65.3138C74.7671 65.804 74.2757 66.2967 73.7839 66.7891C72.9585 67.6148 72.1312 68.4387 71.3027 69.2614C70.3471 70.2103 69.3943 71.1621 68.443 72.1153C67.5244 73.0357 66.6041 73.9542 65.6829 74.8719C65.2923 75.2611 64.9023 75.6508 64.5128 76.0409C64.0537 76.5006 63.593 76.9587 63.1312 77.4157C62.9627 77.5829 62.7947 77.7506 62.6273 77.9189C61.1778 79.3747 59.8286 80.4393 57.6992 80.4637C55.7549 80.3541 54.5815 79.5614 53.228 78.2155C52.9519 77.9418 52.6717 77.6729 52.391 77.404C52.1961 77.2148 52.0014 77.0254 51.8069 76.8357C51.7164 76.7486 51.6259 76.6616 51.5327 76.5718C50.4585 75.5054 49.7587 74.4018 49.6462 72.8575C49.647 72.6653 49.6479 72.4732 49.6487 72.2752C49.6479 72.0838 49.6471 71.8925 49.6462 71.6954C49.6877 71.0838 49.6877 71.0838 49.8002 70.7679C49.9349 70.3851 50.0015 70.0847 50.0002 69.6775C49.7173 69.1026 49.3029 68.6733 48.8625 68.2127C48.7395 68.0796 48.6165 67.9464 48.4897 67.8093C48.0884 67.3833 47.679 66.967 47.2659 66.5525C47.0583 66.3418 47.0583 66.3418 46.8465 66.1267C44.7289 63.9691 44.7289 63.9691 41.9348 63.1024C41.1774 63.1313 40.447 63.2077 39.7019 63.3467C39.0154 63.4616 38.358 63.4263 37.6663 63.3885C36.4675 63.3633 35.6968 63.6501 34.826 64.4535C34.591 64.6822 34.3578 64.9129 34.1262 65.1451C33.9407 65.3286 33.9407 65.3286 33.7514 65.5158C33.4917 65.7737 33.2328 66.0325 32.9746 66.292C32.578 66.6896 32.1774 67.0828 31.7764 67.476C31.5242 67.7274 31.2724 67.9791 31.0208 68.231C30.8401 68.4073 30.8401 68.4073 30.6559 68.5872C30.4922 68.7537 30.4922 68.7537 30.3253 68.9237C30.2283 69.0204 30.1313 69.1172 30.0314 69.2169C29.8033 69.519 29.8033 69.519 29.8819 69.9213C29.9683 70.1996 30.0631 70.4754 30.1626 70.7493C30.5616 72.0533 30.4528 73.5191 29.916 74.7648C29.2007 75.9602 28.2681 76.9311 27.2854 77.91C27.1585 78.0394 27.0316 78.1688 26.9009 78.3021C25.6527 79.5512 24.4796 80.4791 22.6465 80.5183C19.6214 80.5099 18.2268 78.8693 16.1624 76.8064C16.0217 76.6677 15.881 76.5289 15.736 76.3859C15.6026 76.2528 15.4691 76.1196 15.3317 75.9825C15.2115 75.8629 15.0914 75.7434 14.9676 75.6203C14.5925 75.1944 14.5364 74.8768 14.4729 74.3162C14.5494 73.5642 14.7467 73.2978 15.3127 72.8025C15.7381 72.649 16.1139 72.5842 16.5627 72.6463C17.1953 72.9766 17.6486 73.3868 18.1448 73.8963C18.2181 73.9708 18.2915 74.0453 18.367 74.1221C18.6782 74.4383 18.9874 74.7564 19.2968 75.0743C19.5241 75.3072 19.7524 75.5393 19.9807 75.7713C20.1157 75.9099 20.2506 76.0484 20.3896 76.1912C20.9481 76.7062 21.4626 77.0878 22.2366 77.1189C22.838 77.0872 23.1177 76.9569 23.5574 76.5489C23.665 76.4497 23.7726 76.3506 23.8835 76.2485C23.9942 76.1426 24.1049 76.0367 24.219 75.9275C24.3286 75.823 24.4382 75.7185 24.5511 75.6108C24.883 75.2897 25.2107 74.9648 25.5374 74.6385C25.7058 74.4729 25.7058 74.4729 25.8776 74.304C25.9843 74.1976 26.0909 74.0913 26.2008 73.9817C26.2968 73.8864 26.3927 73.7911 26.4916 73.6929C26.9636 73.1421 26.9117 72.5571 26.8752 71.865C26.713 71.3634 26.4121 71.0823 26.0427 70.717C25.7229 70.4008 25.4053 70.0824 25.0878 69.764C24.9537 69.6297 24.8197 69.4954 24.6816 69.3571C24.5366 69.2119 24.3916 69.0666 24.2422 68.917C22.6698 67.342 21.0969 65.7674 19.5238 64.193C18.5721 63.2405 17.6205 62.2878 16.6693 61.3347C15.8376 60.5015 15.0057 59.6686 14.1734 58.836C13.7335 58.3959 13.2937 57.9556 12.8543 57.515C12.4411 57.1008 12.0276 56.687 11.6138 56.2734C11.3903 56.0498 11.1671 55.8258 10.9439 55.6018C10.8099 55.4679 10.6758 55.3341 10.5377 55.1962C10.4219 55.0803 10.3061 54.9644 10.1868 54.8449C9.38901 54.0691 9.38901 54.0691 8.35962 53.7498C8.24521 53.7355 8.13081 53.7212 8.01294 53.7065C7.21244 53.7818 6.66362 54.3816 6.12085 54.9272C5.9142 55.1343 5.9142 55.1343 5.70337 55.3456C5.56157 55.4893 5.41978 55.633 5.27368 55.781C5.12947 55.9254 4.98525 56.0697 4.83667 56.2184C3.86644 57.1077 3.86644 57.1077 3.54517 58.3103C3.53932 58.4272 3.53348 58.544 3.52747 58.6643C3.68031 59.5562 4.39368 60.1996 5.021 60.8061C5.17421 60.9561 5.32741 61.1061 5.48059 61.2562C5.71954 61.4883 5.95887 61.7201 6.19859 61.9514C6.43208 62.1773 6.66408 62.4047 6.896 62.6322C7.03439 62.7662 7.17279 62.9001 7.31538 63.0382C7.78299 63.5719 7.97908 63.9667 7.94946 64.6775C7.7917 65.2184 7.5722 65.5198 7.18774 65.9275C6.70895 66.1669 6.31016 66.1196 5.78149 66.0838C5.12401 65.7561 4.62167 65.2911 4.10242 64.7807C4.01904 64.6991 3.93567 64.6175 3.84977 64.5334C3.67404 64.3606 3.49875 64.1874 3.32388 64.0137C3.06036 63.7532 2.7937 63.4963 2.52679 63.2392C1.1351 61.8749 0.0437042 60.4623 -0.0253906 58.4294C0.104293 56.0487 1.37194 54.6293 2.99829 53.0076C3.13616 52.8653 3.27403 52.723 3.41608 52.5764C4.78281 51.2057 6.11999 50.284 8.08618 50.2732C8.26907 50.271 8.45195 50.2688 8.64038 50.2665C9.13621 50.2974 9.36557 50.3561 9.8063 50.5253C10.2171 50.6299 10.3891 50.6581 10.7665 50.4548C11.0836 50.1817 11.3665 49.8932 11.6506 49.586C11.7564 49.478 11.8621 49.3701 11.9711 49.2588C12.3076 48.9136 12.6382 48.5634 12.969 48.2127C13.1963 47.9775 13.4239 47.7428 13.652 47.5083C14.2098 46.9333 14.7625 46.3536 15.3127 45.7713C15.0244 45.1794 14.671 44.6667 14.2874 44.1325C13.5496 42.8435 13.519 41.1903 13.887 39.7776C14.5549 38.0462 15.5708 37.0989 17.1877 36.24C17.1444 36.1363 17.1011 36.0326 17.0565 35.9257C16.9999 35.7877 16.9433 35.6498 16.885 35.5076C16.8007 35.3037 16.8007 35.3037 16.7147 35.0956C16.1975 33.6728 16.3479 32.3225 16.8752 30.9275C17.5802 29.5461 18.6697 28.4448 20.1565 27.9588C20.3627 27.9588 20.569 27.9588 20.7815 27.9588C20.7299 27.8557 20.6784 27.7525 20.6252 27.6463C20.4697 25.7846 20.6523 24.2012 21.8264 22.6658C22.6124 21.8372 23.685 21.1448 24.844 21.0838C24.8065 20.9563 24.8065 20.9563 24.7683 20.8262C24.4632 19.4349 24.6334 17.9192 25.3524 16.685C26.2817 15.3658 27.4431 14.3453 29.0627 14.0525C29.7266 14.0299 30.3895 14.0546 31.0532 14.0755C31.8086 14.0884 32.3296 14.0733 32.9885 13.6619C35.2425 12.2848 39.2009 13.7162 41.6352 14.2038ZM34.6877 16.5525C34.8968 18.3175 36.2084 19.6454 37.5002 20.7713C38.0079 21.1578 38.526 21.5201 39.0627 21.865C39.6664 21.6174 40.0454 21.2307 40.5007 20.7701C40.6139 20.6563 40.6139 20.6563 40.7293 20.5402C40.9688 20.2989 41.2072 20.0566 41.4456 19.8142C41.6082 19.65 41.771 19.4858 41.9338 19.3217C42.3318 18.9203 42.7288 18.5179 43.1252 18.115C42.776 17.7658 42.6534 17.7408 42.1828 17.6523C42.0529 17.6273 41.9229 17.6023 41.789 17.5765C41.6481 17.5508 41.5071 17.5251 41.3619 17.4986C41.2166 17.4713 41.0712 17.444 40.9215 17.4158C40.613 17.3582 40.3045 17.3013 39.9959 17.2449C39.5271 17.159 39.0589 17.0704 38.5906 16.9816C38.2905 16.9259 37.9903 16.8704 37.6901 16.815C37.482 16.7754 37.482 16.7754 37.2697 16.7351C36.3951 16.5776 35.5765 16.5284 34.6877 16.5525ZM28.392 18.1944C27.972 18.8106 27.866 19.3551 28.0043 20.0888C28.139 20.501 28.2963 20.7111 28.5876 21.0299C28.6864 21.1382 28.7852 21.2465 28.887 21.3581C29.5024 22.0081 30.1268 22.6485 30.7571 23.2841C30.9021 23.4303 31.0471 23.5766 31.1964 23.7273C31.5013 24.0345 31.8066 24.3413 32.112 24.6479C32.5015 25.0392 32.8892 25.4323 33.2765 25.8257C33.6496 26.2038 34.0248 26.5797 34.3997 26.956C34.5375 27.0966 34.6754 27.2372 34.8175 27.3821C35.5145 28.0767 36.0773 28.6176 37.0315 28.8963C37.8812 28.8814 38.4136 28.6609 39.0627 28.115C39.5205 27.4284 39.6058 26.9011 39.5315 26.0838C39.3668 25.4903 39.3668 25.4903 38.9016 25.1225C38.7743 25.082 38.647 25.0415 38.5159 24.9998C37.0566 24.4714 35.9657 23.6793 34.8489 22.6084C34.5621 22.2997 34.5621 22.2997 34.219 22.3338C34.1761 22.2403 34.1332 22.1469 34.089 22.0506C33.9142 21.7233 33.7405 21.5071 33.4866 21.24C32.6842 20.3275 32.0478 19.2288 31.6116 18.0955C31.4452 17.6471 31.4452 17.6471 31.1428 17.4217C29.9999 17.1437 29.1829 17.272 28.392 18.1944ZM44.3222 21.3743C44.0508 21.6426 43.7762 21.9074 43.5015 22.1723C43.3285 22.3433 43.1557 22.5145 42.983 22.686C42.9007 22.7644 42.8184 22.8429 42.7336 22.9237C42.4775 23.1724 42.4775 23.1724 42.1877 23.5838C42.1846 23.9984 42.1846 23.9984 42.344 24.365C42.8191 25.8992 42.9327 27.5384 42.2274 29.0202C41.4237 30.4348 40.4458 31.3472 38.8674 31.8357C38.3634 31.9716 37.8564 32.0785 37.344 32.1775C37.321 32.306 37.2981 32.4345 37.2744 32.5669C36.9574 34.1448 36.447 35.5015 35.1418 36.5147C34.1251 37.1772 33.064 37.4577 31.8752 37.6463C31.8523 37.7748 31.8293 37.9033 31.8057 38.0357C31.4886 39.6135 30.9782 40.9702 29.6731 41.9834C28.6564 42.646 27.5952 42.9264 26.4065 43.115C26.3723 43.2679 26.338 43.4208 26.3027 43.5783C25.9082 45.2469 25.4158 46.5999 23.934 47.6017C22.4725 48.465 20.9248 48.7428 19.2471 48.3152C18.8772 48.1834 18.8772 48.1834 18.5677 48.0461C18.1983 47.9334 18.0202 47.9905 17.6565 48.115C17.3944 48.3099 17.3944 48.3099 17.1552 48.5631C17.0614 48.6569 16.9676 48.7507 16.871 48.8474C16.7717 48.9491 16.6724 49.0509 16.5701 49.1557C16.4669 49.2595 16.3637 49.3633 16.2575 49.4703C15.9284 49.802 15.601 50.1352 15.2737 50.4685C15.0508 50.6938 14.8278 50.9189 14.6047 51.1439C14.0582 51.6956 13.5132 52.2486 12.969 52.8025C13.6832 53.6593 14.4418 54.453 15.2321 55.2396C15.3618 55.3693 15.4915 55.499 15.6251 55.6327C16.0508 56.0583 16.477 56.4833 16.9033 56.9084C17.1998 57.2045 17.4962 57.5007 17.7926 57.797C18.4912 58.4951 19.1901 59.1927 19.8893 59.8903C20.6857 60.685 21.4818 61.4802 22.2778 62.2754C23.9139 63.91 25.5507 65.5439 27.1877 67.1775C27.6817 66.9421 28.0113 66.7022 28.3946 66.3088C28.5062 66.1951 28.6179 66.0814 28.7329 65.9642C28.8522 65.8413 28.9716 65.7184 29.0945 65.5918C29.3502 65.3322 29.6059 65.0726 29.8617 64.813C30.2631 64.4039 30.664 63.9943 31.064 63.5838C31.451 63.1873 31.84 62.7928 32.2292 62.3985C32.3473 62.2762 32.4653 62.154 32.587 62.028C33.832 60.7714 35.1361 60.1387 36.9258 60.1207C37.2388 60.125 37.5517 60.1307 37.8646 60.1377C38.2088 60.1417 38.5529 60.1455 38.897 60.1493C39.4339 60.1571 39.9708 60.1658 40.5076 60.1763C41.0296 60.1858 41.5516 60.1913 42.0736 60.1963C42.2317 60.2005 42.3898 60.2047 42.5527 60.2091C43.8686 60.2182 45.1826 59.9861 46.1758 59.0611C46.3273 58.8982 46.4759 58.7326 46.6213 58.5642C47.5539 57.5217 47.5539 57.5217 48.2815 57.3338C48.8385 57.3818 49.314 57.4696 49.844 57.6463C50.0595 58.2927 50.1311 58.8474 50.0002 59.5213C49.7038 60.0091 49.3174 60.3783 48.9065 60.7713C48.7156 60.9646 48.7156 60.9646 48.5208 61.1619C48.1834 61.5035 47.8432 61.8416 47.5002 62.1775C48.4076 63.2899 49.4319 64.2828 50.4495 65.2928C50.6334 65.4759 50.8173 65.6591 51.0012 65.8424C51.4484 66.2878 51.8961 66.7328 52.344 67.1775C52.8453 66.9566 53.1803 66.6924 53.5662 66.3054C53.6827 66.1893 53.7993 66.0732 53.9193 65.9536C54.1088 65.7624 54.1088 65.7624 54.3022 65.5673C54.5035 65.3661 54.5035 65.3661 54.7088 65.1608C55.0761 64.7934 55.4426 64.4253 55.8089 64.0568C56.192 63.6717 56.5761 63.2875 56.96 62.9032C57.6866 62.1756 58.4125 61.4472 59.138 60.7185C59.9642 59.8889 60.7912 59.0601 61.6184 58.2314C63.3196 56.5269 65.0196 54.8213 66.719 53.115C66.5089 52.6796 66.3136 52.3586 65.9694 52.0175C65.8818 51.9299 65.7943 51.8424 65.704 51.7522C65.61 51.6597 65.5159 51.5672 65.4189 51.472C65.3223 51.3757 65.2256 51.2795 65.126 51.1804C64.8179 50.874 64.5087 50.5687 64.1995 50.2635C63.99 50.0556 63.7807 49.8477 63.5714 49.6397C63.0589 49.1306 62.5455 48.6226 62.0315 48.115C61.5842 48.3187 61.3552 48.4788 60.9963 48.8377C60.4567 49.3016 59.9552 49.3131 59.2623 49.2735C58.9065 49.2088 58.9065 49.2088 58.5061 48.9646C58.2043 48.4529 58.1355 48.0844 58.1252 47.49C58.4288 46.735 58.8693 46.2174 59.4491 45.6626C59.5309 45.5822 59.6128 45.5018 59.6971 45.4189C59.9565 45.1641 60.2175 44.9109 60.4788 44.658C60.7404 44.4038 61.0018 44.1493 61.2621 43.8937C61.4236 43.7353 61.5858 43.5777 61.7489 43.421C62.3678 42.815 62.6302 42.4449 62.7151 41.5818C62.6945 40.8466 62.4619 40.427 62.0315 39.8338C61.4536 39.3069 60.8427 39.2659 60.0869 39.2906C59.0319 39.4874 58.2799 40.4267 57.5698 41.1747C57.0919 41.6436 56.6057 41.6034 55.9683 41.5983C55.6252 41.5525 55.6252 41.5525 55.2346 41.2596C54.8381 40.6979 54.7766 40.3056 54.8637 39.6106C55.1521 38.762 55.8974 38.207 56.5432 37.617C56.8303 37.3489 57.1164 37.0798 57.4014 36.8095C57.5288 36.6924 57.6563 36.5754 57.7876 36.4548C58.2369 35.9611 58.5613 35.4525 58.6331 34.7801C58.5289 33.882 58.3146 33.43 57.6565 32.8025C56.9918 32.4037 56.3821 32.3889 55.6252 32.49C54.7554 32.8972 54.1512 33.6384 53.4951 34.3272C53.0137 34.7832 52.6984 34.969 52.0413 35.0389C51.4869 34.9823 51.2146 34.8701 50.7815 34.5213C50.3851 33.8726 50.4611 33.3713 50.6252 32.6463C50.9368 32.2333 50.9368 32.2333 51.3418 31.8492C51.4872 31.7082 51.6326 31.5672 51.7825 31.4219C51.937 31.2765 52.0916 31.1313 52.2463 30.9861C52.5482 30.6988 52.8484 30.4099 53.1484 30.1206C53.2825 29.9942 53.4165 29.8678 53.5546 29.7376C54.1191 29.14 54.4423 28.6432 54.4436 27.8123C54.4194 27.0718 54.2567 26.645 53.7502 26.0838C53.1691 25.5857 52.6545 25.5605 51.9192 25.5528C51.0465 25.7052 50.4978 26.335 49.9124 26.9529C48.8368 28.0876 48.8368 28.0876 48.0911 28.1388C47.467 28.0801 47.1241 28.0356 46.6311 27.6267C46.3446 27.0537 46.3175 26.7181 46.4065 26.0838C46.9347 25.1153 47.7503 24.4041 48.5354 23.6424C48.8051 23.3807 49.0741 23.1182 49.3423 22.855C49.5204 22.6823 49.5204 22.6823 49.7022 22.5061C50.2436 21.9093 50.385 21.4353 50.3622 20.6187C50.2543 19.9288 49.8047 19.4957 49.3557 18.9939C47.291 17.8269 45.6603 20.0454 44.3222 21.3743ZM24.1604 25.2635C23.8586 25.8671 23.7411 26.3596 23.9065 27.0213C24.4342 27.9327 25.1566 28.6317 25.8981 29.3724C26.0306 29.5055 26.1631 29.6387 26.2996 29.776C26.5791 30.0563 26.859 30.3363 27.1393 30.6159C27.5679 31.0441 27.9945 31.4743 28.421 31.9047C28.6932 32.1772 28.9655 32.4497 29.2379 32.722C29.3652 32.8507 29.4925 32.9794 29.6237 33.1121C29.8036 33.2905 29.8036 33.2905 29.9871 33.4725C30.0917 33.5773 30.1964 33.682 30.3042 33.7899C30.8736 34.2556 31.2879 34.3688 32.0217 34.3455C32.6655 34.2398 33.0944 34.0136 33.594 33.5838C34.0496 32.9003 34.175 32.3667 34.0627 31.5525C33.5834 30.5482 32.8285 29.7807 32.0474 29.0061C31.9297 28.888 31.812 28.7699 31.6907 28.6482C31.4431 28.4002 31.1949 28.1529 30.9461 27.9061C30.5672 27.5297 30.1909 27.1508 29.8147 26.7716C29.5727 26.53 29.3306 26.2885 29.0884 26.0472C28.9769 25.9347 28.8653 25.8222 28.7504 25.7063C28.0532 25.0188 27.3518 24.36 26.3717 24.1258C25.3441 24.1432 24.8169 24.5033 24.1604 25.2635ZM20.01 32.0408C19.7619 32.7121 19.6709 33.3534 19.844 34.0525C20.4909 35.1961 21.5372 36.1112 22.4611 37.0314C22.7251 37.295 22.987 37.5606 23.2488 37.8263C23.4189 37.9967 23.5891 38.167 23.7594 38.3372C23.8363 38.4155 23.9131 38.4938 23.9923 38.5745C24.6744 39.2477 25.3629 39.774 26.3284 39.9119C27.1198 39.7988 27.6932 39.5659 28.182 38.9329C28.5377 38.312 28.715 37.7448 28.5566 37.0352C28.0875 35.747 26.5204 34.6061 25.5601 33.646C25.2816 33.3671 25.0043 33.087 24.7271 32.8068C24.5491 32.6283 24.3709 32.4499 24.1927 32.2715C24.1105 32.1882 24.0283 32.1049 23.9436 32.019C23.3168 31.396 22.9408 31.1117 22.0608 31.0252C21.1931 31.0495 20.5978 31.3961 20.01 32.0408ZM17.344 40.3025C16.997 40.8945 16.9722 41.3334 17.0315 42.0213C17.3646 42.8545 17.8672 43.3971 18.4963 44.0135C18.6287 44.1485 18.6287 44.1485 18.7637 44.2863C19.4121 44.9302 19.9117 45.258 20.8401 45.3611C21.5737 45.2852 21.8988 45.1054 22.5002 44.6775C22.9283 44.1353 23.0982 43.6486 23.1252 42.9588C22.8307 41.9399 22.4154 41.3557 21.6506 40.6346C21.5611 40.5459 21.4716 40.4573 21.3793 40.366C20.72 39.7256 20.1973 39.3228 19.2483 39.2869C18.3756 39.3024 17.8848 39.6327 17.344 40.3025ZM69.7059 54.6009C69.5604 54.7453 69.4149 54.8897 69.2651 55.0384C69.1066 55.198 68.9482 55.3577 68.7898 55.5173C68.6209 55.6858 68.4519 55.8542 68.2829 56.0225C67.8254 56.4785 67.3693 56.9361 66.9136 57.3939C66.4361 57.8731 65.9574 58.3512 65.4789 58.8294C64.6758 59.6323 63.8737 60.4362 63.0721 61.2406C62.1455 62.1706 61.2174 63.0992 60.2885 64.0271C59.3946 64.9201 58.5016 65.814 57.609 66.7084C57.2293 67.0888 56.8492 67.469 56.4689 67.849C56.0214 68.2962 55.5746 68.7442 55.1285 69.1929C54.9646 69.3574 54.8004 69.5217 54.636 69.6857C54.4117 69.9095 54.1885 70.1344 53.9653 70.3593C53.84 70.4848 53.7148 70.6104 53.5858 70.7398C53.146 71.237 52.9851 71.5662 52.9104 72.2264C53.0452 73.5519 54.0048 74.3753 54.9124 75.2635C55.0297 75.3813 55.147 75.4991 55.2679 75.6205C56.3182 76.7086 56.3182 76.7086 57.7249 77.0896C57.8374 77.0927 57.95 77.0957 58.066 77.0988C58.9042 76.924 59.5374 76.2732 60.1265 75.6847C60.2693 75.5427 60.4122 75.4008 60.5593 75.2545C60.7148 75.0984 60.8703 74.9423 61.0258 74.7862C61.1916 74.6208 61.3575 74.4554 61.5234 74.2902C61.9722 73.8428 62.42 73.3945 62.8676 72.9459C63.3366 72.4761 63.8063 72.0071 64.276 71.538C65.0641 70.7504 65.8515 69.9622 66.6386 69.1737C67.5485 68.2621 68.4595 67.3517 69.3711 66.4418C70.1543 65.66 70.9369 64.8775 71.719 64.0946C72.1859 63.6272 72.653 63.1601 73.1207 62.6934C73.56 62.255 73.9986 61.8158 74.4365 61.3761C74.5974 61.2148 74.7585 61.0538 74.9199 60.8931C75.1401 60.6737 75.3592 60.4533 75.5783 60.2329C75.7013 60.1098 75.8242 59.9868 75.9509 59.86C76.5002 59.2385 76.668 58.6975 76.6374 57.8768C76.5487 57.4171 76.407 57.2408 76.0903 56.9004C75.9415 56.7391 75.9415 56.7391 75.7896 56.5745C75.6838 56.4641 75.578 56.3537 75.469 56.24C75.3653 56.1313 75.2616 56.0225 75.1548 55.9104C74.8362 55.5809 74.5137 55.2557 74.1897 54.9314C74.0261 54.765 74.0261 54.765 73.8592 54.5951C73.7004 54.4359 73.7004 54.4359 73.5385 54.2735C73.4439 54.1783 73.3494 54.0832 73.2521 53.9852C72.8144 53.6062 72.4707 53.4413 71.8948 53.3787C70.9621 53.472 70.3524 53.9542 69.7059 54.6009Z" fill="black"/>
<path d="M14.7975 0.803189C16.2824 1.31703 17.7236 3.30884 18.8229 4.40831C19.1443 4.72933 19.4669 5.04908 19.7896 5.36881C19.9951 5.57391 20.2006 5.77909 20.406 5.98435C20.502 6.07925 20.5981 6.17414 20.697 6.27191C20.7858 6.36117 20.8746 6.45044 20.966 6.5424C21.0439 6.62004 21.1218 6.69769 21.202 6.77768C21.5882 7.23671 21.7138 7.58395 21.7683 8.18345C21.716 8.78017 21.6221 9.05716 21.2508 9.52134C20.7152 9.92301 20.182 9.90108 19.532 9.83384C18.6566 9.34213 17.989 8.65121 17.2835 7.9448C17.1607 7.82268 17.0379 7.70057 16.9114 7.57475C16.6531 7.31735 16.3952 7.05954 16.1377 6.80134C15.7434 6.40661 15.3472 6.014 14.9507 5.6215C14.6995 5.37067 14.4485 5.11971 14.1975 4.86863C14.079 4.75158 13.9606 4.63453 13.8385 4.51394C13.7289 4.4034 13.6193 4.29286 13.5065 4.17897C13.3618 4.03451 13.3618 4.03451 13.2143 3.88713C12.7869 3.35766 12.6547 2.93333 12.6668 2.25571C12.8409 1.60545 13.082 1.35262 13.5945 0.927586C14.0078 0.720935 14.3464 0.735729 14.7975 0.803189Z" fill="#28A745"/>
<path d="M66.25 0.927957C66.6807 1.19304 66.8276 1.39022 66.9684 1.874C67.0977 2.61996 67.063 2.9816 66.6219 3.62018C66.1748 4.19337 65.6514 4.69583 65.1367 5.20774C65.0142 5.33053 64.8917 5.45331 64.7655 5.57982C64.5074 5.8381 64.249 6.096 63.9901 6.35353C63.594 6.74803 63.1995 7.14417 62.8051 7.54051C62.5538 7.79166 62.3023 8.04273 62.0508 8.29368C61.9329 8.41217 61.815 8.53065 61.6936 8.65273C61.5831 8.7623 61.4725 8.87186 61.3586 8.98475C61.262 9.08116 61.1653 9.17756 61.0657 9.27689C60.5967 9.68053 60.2439 9.82284 59.6289 9.90257C58.8875 9.81309 58.6147 9.61263 58.125 9.05296C57.8661 8.39474 57.9196 7.92931 58.1738 7.27561C58.8438 6.26013 59.8143 5.43837 60.7318 4.65232C61.6868 3.82214 62.5566 2.90379 63.4402 1.99912C63.5741 1.86357 63.7079 1.72802 63.8458 1.58836C63.9663 1.46522 64.0868 1.34208 64.211 1.2152C64.8338 0.656575 65.4804 0.734012 66.25 0.927957Z" fill="#28A745"/>
<path d="M40.2524 0.381533C40.822 0.500312 41.0722 0.778278 41.4053 1.2403C41.5555 1.69086 41.583 1.98164 41.5868 2.4502C41.5883 2.60043 41.5898 2.75065 41.5913 2.90542C41.592 3.06754 41.5926 3.22965 41.5933 3.39667C41.5942 3.56372 41.5951 3.73077 41.596 3.90289C41.5975 4.25659 41.5985 4.6103 41.5991 4.96401C41.6006 5.50412 41.6055 6.04414 41.6104 6.58423C41.6114 6.92796 41.6122 7.27169 41.6128 7.61542C41.6148 7.77658 41.6167 7.93774 41.6187 8.10379C41.6161 8.94888 41.5916 9.58399 41.0928 10.3028C40.4705 10.6857 40.1488 10.7944 39.4229 10.6837C38.889 10.4519 38.6434 10.2812 38.2803 9.83405C38.1999 9.43789 38.1999 9.43789 38.197 8.98661C38.1945 8.81713 38.192 8.64764 38.1895 8.47302C38.1903 8.29072 38.191 8.10842 38.1918 7.9206C38.1909 7.73259 38.1899 7.54458 38.1889 7.35087C38.1878 6.9533 38.1883 6.55573 38.1903 6.15817C38.1924 5.54973 38.1871 4.94166 38.1811 4.33325C38.181 3.947 38.1813 3.56075 38.1821 3.1745C38.18 2.99252 38.1779 2.81053 38.1758 2.62303C38.192 1.21835 38.192 1.21835 38.6527 0.73527C39.2214 0.351054 39.5843 0.348678 40.2524 0.381533Z" fill="#28A745"/>
<path d="M54.2193 52.3339C54.6678 52.6143 54.9211 52.8 55.1568 53.2714C55.2345 54.0486 55.242 54.3751 54.8443 55.0586C54.338 55.4911 54.0748 55.6079 53.4265 55.6421C52.8203 55.588 52.4831 55.2805 52.0611 54.873C51.7892 54.3579 51.8062 54.0026 51.8756 53.4277C52.4817 52.3367 53.0189 52.1785 54.2193 52.3339Z" fill="black"/>
<path d="M11.5627 67.6466C12.1242 67.931 12.4452 68.2789 12.6662 68.8771C12.6535 69.5126 12.5003 69.9069 12.1877 70.4591C11.7643 70.8139 11.4921 70.9151 10.9475 70.9963C10.3125 70.9055 10.0068 70.735 9.53147 70.3029C9.25961 69.7317 9.18015 69.2427 9.30686 68.6232C9.86107 67.7558 10.5395 67.4168 11.5627 67.6466Z" fill="black"/>
</g>
<defs>
<clipPath id="clip0_880_1950">
<rect width="80" height="80" fill="white" transform="translate(0 0.458984)"/>
</clipPath>
</defs>
</svg>
