<?xml version="1.0" encoding="utf-8"?>
<svg xmlns="http://www.w3.org/2000/svg" width="82" height="74" viewBox="0 0 82 74" fill="none">
  <path d="M25.4502 67.4214H17.9835C17.0169 67.4214 16.2336 66.6381 16.2336 65.6714V53.7214" stroke="#121225" stroke-width="2" stroke-linecap="round" stroke-linejoin="round"/>
  <path d="M58.133 67.4194H36.0163" stroke="#121225" stroke-width="2" stroke-linecap="round" stroke-linejoin="round"/>
  <path d="M49.1331 31.0198H52.7665C54.1332 31.0198 55.2332 32.1198 55.2332 33.4864V49.3698C55.2332 53.3198 58.4332 56.5198 62.3832 56.5198H77.0165V62.8031C77.0165 65.3364 74.9498 67.4031 72.4165 67.4031H68.6999" stroke="#121225" stroke-width="2" stroke-linecap="round" stroke-linejoin="round"/>
  <path d="M55.2497 37.3674C65.633 37.7841 77.033 46.2008 77.033 56.5174" stroke="#121225" stroke-width="2" stroke-linecap="round" stroke-linejoin="round"/>
  <path d="M30.7336 72.1667C33.6607 72.1667 36.0336 69.7938 36.0336 66.8667C36.0336 63.9395 33.6607 61.5667 30.7336 61.5667C27.8065 61.5667 25.4336 63.9395 25.4336 66.8667C25.4336 69.7938 27.8065 72.1667 30.7336 72.1667Z" stroke="#121225" stroke-width="2" stroke-linecap="round" stroke-linejoin="round"/>
  <path d="M63.4167 72.1667C66.3438 72.1667 68.7167 69.7938 68.7167 66.8667C68.7167 63.9395 66.3438 61.5667 63.4167 61.5667C60.4896 61.5667 58.1167 63.9395 58.1167 66.8667C58.1167 69.7938 60.4896 72.1667 63.4167 72.1667Z" stroke="#121225" stroke-width="2" stroke-linecap="round" stroke-linejoin="round"/>
  <path d="M39.5164 63.2659H54.6331" stroke="#121225" stroke-width="2" stroke-linecap="round" stroke-linejoin="round"/>
  <path d="M16.4663 63.2659H21.9496" stroke="#121225" stroke-width="2" stroke-linecap="round" stroke-linejoin="round"/>
  <path d="M60.2 43.2659C63.3834 44.3492 66.3501 46.2825 68.5001 48.7659" stroke="#121225" stroke-width="2" stroke-linecap="round" stroke-linejoin="round"/>
  <path d="M8.8833 49.1382H30.8166" stroke="#121225" stroke-width="2" stroke-linecap="round" stroke-linejoin="round"/>
  <path d="M7.1499 37.3022H12.7166" stroke="#121225" stroke-width="2" stroke-linecap="round" stroke-linejoin="round"/>
  <path d="M1 31.0198H29.8666" stroke="#121225" stroke-width="2" stroke-linecap="round" stroke-linejoin="round"/>
  <path d="M17.1499 37.3022H17.7999" stroke="#121225" stroke-width="2" stroke-linecap="round" stroke-linejoin="round"/>
  <path d="M3.95004 49.1382H4.53339" stroke="#121225" stroke-width="2" stroke-linecap="round" stroke-linejoin="round"/>
  <path d="M13.1167 43.2659H27.4667" stroke="#121225" stroke-width="2" stroke-linecap="round" stroke-linejoin="round"/>
  <path d="M71.5331 56.521V58.971C71.5331 60.0043 72.3664 60.8377 73.3997 60.8377H77.0164" stroke="#121225" stroke-width="2" stroke-linecap="round" stroke-linejoin="round"/>
  <path d="M39.6164 34.7517C39.6164 34.7517 29.8664 26.0517 29.8664 15.6851C29.8664 10.3017 34.233 5.93506 39.6164 5.93506C44.9997 5.93506 49.3664 10.3017 49.3664 15.6851C49.3664 26.0684 39.6164 34.7517 39.6164 34.7517Z" stroke="#121225" stroke-width="2" stroke-linecap="round" stroke-linejoin="round"/>
  <path d="M44.6832 15.6826C44.6832 12.8826 42.4165 10.616 39.6165 10.616C36.8165 10.616 34.5498 12.8826 34.5498 15.6826C34.5498 18.4826 36.8165 20.7493 39.6165 20.7493C42.4165 20.7493 44.6832 18.4826 44.6832 15.6826Z" stroke="#121225" stroke-width="2" stroke-linecap="round" stroke-linejoin="round"/>
  <path d="M72.4499 38.3826C77.5666 35.2993 80.9999 29.6826 80.9999 23.266C80.9999 13.516 73.0999 5.61597 63.3499 5.61597C59.6499 5.61597 56.2165 6.7493 53.3665 8.6993" stroke-width="2" stroke-linecap="round" stroke-linejoin="round" style="stroke: rgb(40, 167, 69);"/>
  <path d="M63.3503 12.4714V12.7048" stroke-width="2" stroke-linecap="round" stroke-linejoin="round" style="stroke: rgb(40, 167, 69);"/>
  <path d="M63.3503 33.8323V34.0656" stroke-width="2" stroke-linecap="round" stroke-linejoin="round" style="stroke: rgb(40, 167, 69);"/>
  <path d="M52.5503 23.2659H52.7836" stroke-width="2" stroke-linecap="round" stroke-linejoin="round" style="stroke: rgb(40, 167, 69);"/>
  <path d="M73.933 23.2659H74.1663" stroke-width="2" stroke-linecap="round" stroke-linejoin="round" style="stroke: rgb(40, 167, 69);"/>
  <path d="M55.7168 15.6355L55.8835 15.7855" stroke-width="2" stroke-linecap="round" stroke-linejoin="round" style="stroke: rgb(40, 167, 69);"/>
  <path d="M70.8332 30.7527L70.9998 30.9027" stroke-width="2" stroke-linecap="round" stroke-linejoin="round" style="stroke: rgb(40, 167, 69);"/>
  <path d="M63.3503 23.2687L70.8336 15.7854" stroke-width="2" stroke-linecap="round" stroke-linejoin="round" style="stroke: rgb(40, 167, 69);"/>
  <path d="M63.3503 5.61683V1.8335" stroke-width="2" stroke-linecap="round" stroke-linejoin="round" style="stroke: rgb(40, 167, 69);"/>
  <path d="M60.4832 1.8335H66.2333" stroke-width="2" stroke-linecap="round" stroke-linejoin="round" style="stroke: rgb(40, 167, 69);"/>
  <path d="M78.4666 8.25269L80.2833 10.336" stroke-width="2" stroke-linecap="round" stroke-linejoin="round" style="stroke: rgb(40, 167, 69);"/>
  <path d="M11.4996 6.70337L10.633 7.57004" stroke="#121225" stroke-width="2" stroke-linecap="round" stroke-linejoin="round"/>
  <path d="M6.7666 11.4363L5.8999 12.3029" stroke="#121225" stroke-width="2" stroke-linecap="round" stroke-linejoin="round"/>
  <path d="M5.8999 6.70337L6.7666 7.57004" stroke="#121225" stroke-width="2" stroke-linecap="round" stroke-linejoin="round"/>
  <path d="M10.633 11.4363L11.4996 12.3029" stroke="#121225" stroke-width="2" stroke-linecap="round" stroke-linejoin="round"/>
  <path d="M20.7664 24.0667L21.0498 24.3667" stroke="#121225" stroke-width="2" stroke-linecap="round" stroke-linejoin="round"/>
  <path d="M16.6836 19.9846L16.9669 20.2846" stroke="#121225" stroke-width="2" stroke-linecap="round" stroke-linejoin="round"/>
  <path d="M20.7664 20.2846L21.0498 19.9846" stroke="#121225" stroke-width="2" stroke-linecap="round" stroke-linejoin="round"/>
  <path d="M16.6836 24.3667L16.9669 24.0667" stroke="#121225" stroke-width="2" stroke-linecap="round" stroke-linejoin="round"/>
</svg>