<svg width="54" height="54" viewBox="0 0 54 54" fill="none" xmlns="http://www.w3.org/2000/svg">
<path d="M5.48449 26.9437C5.61164 26.9424 5.61164 26.9424 5.74136 26.941C6.02127 26.9386 6.30107 26.9393 6.58099 26.9402C6.77565 26.9397 6.9703 26.939 7.16495 26.9383C7.57279 26.9372 7.98059 26.9377 8.38843 26.9392C8.91124 26.941 9.43393 26.9385 9.95672 26.9348C10.3586 26.9325 10.7605 26.9327 11.1624 26.9335C11.3552 26.9336 11.548 26.9329 11.7407 26.9313C12.0102 26.9295 12.2794 26.931 12.5488 26.9334C12.6285 26.9322 12.7082 26.931 12.7903 26.9297C13.1907 26.9369 13.3595 26.9675 13.6541 27.248C13.8529 27.5921 13.8807 27.7686 13.8155 28.1601C13.6763 28.3342 13.5371 28.5082 13.3936 28.6875C10.9225 28.6875 8.45135 28.6875 5.90533 28.6875C5.90533 34.2562 5.90533 39.825 5.90533 45.5625C13.1447 45.5625 20.3841 45.5625 27.8428 45.5625C27.8428 42.6737 27.8428 39.7849 27.8428 36.8086C28.3702 36.3867 28.3702 36.3867 28.6866 36.334C29.0931 36.4017 29.2466 36.5097 29.5303 36.8086C29.5808 37.1135 29.5974 37.3557 29.5902 37.6601C29.5903 37.7455 29.5904 37.8309 29.5904 37.919C29.5901 38.201 29.586 38.4827 29.5818 38.7647C29.5808 38.9604 29.5801 39.156 29.5796 39.3517C29.5776 39.8663 29.5724 40.3809 29.5665 40.8955C29.5611 41.4208 29.5587 41.9461 29.5561 42.4713C29.5504 43.5018 29.5414 44.5321 29.5303 45.5625C29.592 45.5603 29.6537 45.5581 29.7173 45.5558C29.9977 45.547 30.2781 45.5415 30.5587 45.5361C30.6557 45.5326 30.7528 45.529 30.8528 45.5254C31.5721 45.515 31.5721 45.515 31.9148 45.7557C32.1142 46.0663 32.1161 46.286 32.1176 46.6538C32.1182 46.7852 32.1187 46.9166 32.1193 47.052C32.1176 47.1891 32.116 47.3262 32.1143 47.4675C32.1159 47.6018 32.1176 47.736 32.1193 47.8744C32.1139 49.1811 31.8136 50.1968 30.9014 51.1523C29.5992 52.3955 28.1897 52.3741 26.4907 52.3671C26.2576 52.3676 26.0244 52.3684 25.7913 52.3693C25.1607 52.3712 24.5301 52.3705 23.8995 52.3692C23.2381 52.3681 22.5768 52.3691 21.9155 52.3697C20.7341 52.3706 19.5527 52.3692 18.3713 52.3671C17.3021 52.3652 16.2329 52.3655 15.1637 52.3675C13.9194 52.3697 12.6751 52.3706 11.4307 52.3693C10.773 52.3687 10.1153 52.3686 9.45764 52.37C8.83918 52.3712 8.22075 52.3704 7.60229 52.3679C7.3759 52.3674 7.14951 52.3675 6.92311 52.3685C5.33108 52.3744 4.05644 52.3071 2.84674 51.1523C1.81343 50.0699 1.61612 48.9269 1.63385 47.4675C1.63222 47.3304 1.63059 47.1933 1.62891 47.052C1.62945 46.9206 1.62999 46.7892 1.63055 46.6538C1.63103 46.5353 1.63151 46.4167 1.632 46.2946C1.70263 45.8932 1.77405 45.7973 2.10846 45.5625C2.47006 45.5102 2.82514 45.5229 3.18951 45.5361C3.28822 45.538 3.38692 45.5399 3.48862 45.5419C3.7318 45.5469 3.97476 45.5538 4.21783 45.5625C4.21745 45.4694 4.21706 45.3763 4.21666 45.2804C4.20735 43.0164 4.20036 40.7525 4.19598 38.4886C4.1938 37.3938 4.19083 36.299 4.18601 35.2042C4.18181 34.2501 4.17908 33.2961 4.17814 32.342C4.17759 31.8367 4.17629 31.3314 4.17323 30.826C4.17037 30.3506 4.16948 29.8752 4.17012 29.3998C4.17 29.2251 4.16916 29.0504 4.16754 28.8758C4.16545 28.6376 4.16595 28.3995 4.1671 28.1613C4.16671 28.0279 4.16632 27.8945 4.16592 27.7571C4.21783 27.4219 4.21783 27.4219 4.40818 27.1681C4.74874 26.9208 5.07934 26.9402 5.48449 26.9437ZM3.37408 47.25C3.37408 48.2608 3.4322 49.0961 4.11237 49.8867C5.11642 50.7505 6.34946 50.6524 7.59283 50.625C7.59678 50.5373 7.60072 50.4496 7.60478 50.3593C7.61172 50.2446 7.61865 50.13 7.62579 50.0119C7.63497 49.8413 7.63497 49.8413 7.64433 49.6671C7.6983 49.3594 7.6983 49.3594 7.83467 49.1628C8.05184 49.0182 8.17711 49.0005 8.43658 49.0034C8.50837 49.0026 8.58015 49.0018 8.65411 49.0009C8.85846 49.043 8.85846 49.043 9.17487 49.3594C9.22707 49.9858 9.22707 49.9858 9.28033 50.625C14.2922 50.625 19.3041 50.625 24.4678 50.625C24.5026 50.2073 24.5374 49.7897 24.5733 49.3594C24.8897 49.043 24.8897 49.043 25.0941 49.0009C25.1658 49.0017 25.2376 49.0026 25.3116 49.0034C25.3834 49.0026 25.4552 49.0018 25.5291 49.0009C25.8039 49.0574 25.8897 49.1286 26.0499 49.3594C26.1038 49.6671 26.1038 49.6671 26.1224 50.0119C26.1293 50.1266 26.1362 50.2412 26.1434 50.3593C26.1493 50.4908 26.1493 50.4908 26.1553 50.625C27.895 50.7114 27.895 50.7114 29.4249 49.9922C30.2609 49.1501 30.3741 48.4346 30.3741 47.25C21.4641 47.25 12.5541 47.25 3.37408 47.25Z" fill="black"/>
<path d="M27.6326 19.4062C28.2908 19.8557 28.8634 20.8381 29.0169 21.6145C29.0016 21.9909 28.9203 22.1715 28.6873 22.4648C28.3463 22.6354 28 22.6472 27.6326 22.5703C27.3999 22.3817 27.277 22.1899 27.1053 21.9375C27.0009 21.8331 27.0009 21.8331 26.8944 21.7266C26.8305 21.7853 26.7666 21.844 26.7007 21.9045C26.1789 22.3798 25.6488 22.8356 25.0948 23.2727C24.7045 23.5836 24.3195 23.9007 23.9346 24.2183C23.8582 24.2813 23.7817 24.3444 23.703 24.4094C23.5453 24.5396 23.3876 24.6698 23.2299 24.7999C22.9955 24.9932 22.7609 25.1861 22.5261 25.3788C21.836 25.9456 21.1475 26.5137 20.4674 27.0923C20.0106 27.4808 19.5478 27.86 19.0777 28.2323C18.5779 28.6334 18.0851 29.0432 17.592 29.4525C17.5175 29.5141 17.4431 29.5757 17.3663 29.6392C17.2996 29.6946 17.2328 29.75 17.1641 29.807C17.0037 29.9345 16.8343 30.0504 16.6639 30.1641C16.726 30.5919 16.8635 30.893 17.0841 31.2632C17.148 31.3715 17.2119 31.4797 17.2778 31.5912C17.3449 31.7032 17.4121 31.8152 17.4813 31.9307C17.7367 32.361 17.9917 32.7916 18.2459 33.2227C18.3004 33.3145 18.3549 33.4062 18.4111 33.5008C18.4592 33.584 18.5074 33.6672 18.557 33.7529C18.6199 33.8605 18.6199 33.8605 18.6842 33.9704C18.8369 34.3157 18.784 34.5615 18.6678 34.9102C18.4964 35.1672 18.4964 35.1672 18.2459 35.332C17.8225 35.3936 17.6016 35.395 17.2427 35.1546C16.9621 34.8932 16.8066 34.6582 16.6243 34.3218C16.5305 34.1511 16.5305 34.1511 16.4348 33.977C16.3712 33.8586 16.3076 33.7402 16.242 33.6182C16.1148 33.3846 15.9873 33.1511 15.8597 32.9178C15.7995 32.8075 15.7392 32.6971 15.6772 32.5835C15.4568 32.1895 15.2207 31.8092 14.9764 31.4297C14.44 31.7195 13.905 32.0115 13.3746 32.3122C13.2993 32.3548 13.2241 32.3974 13.1466 32.4413C12.9969 32.5263 12.8473 32.6115 12.6979 32.6969C12.4053 32.863 12.1324 33.0105 11.8123 33.1172C11.5539 33.5406 11.4246 33.9954 11.3905 34.4883C11.6063 35.3296 12.1031 36.0988 12.5374 36.8416C12.6007 36.9531 12.6639 37.0647 12.729 37.1796C13.1095 37.8338 13.4393 38.3603 14.1326 38.707C14.9111 38.8215 15.4265 38.5857 16.0838 38.1929C16.2214 38.1144 16.2214 38.1144 16.3617 38.0344C16.7971 37.7846 17.2266 37.5263 17.6527 37.261C18.374 36.8142 19.0662 36.438 19.8745 36.1745C20.8419 35.8469 21.7989 35.4945 22.7543 35.1339C22.8286 35.1059 22.9028 35.0779 22.9794 35.049C23.4462 34.8729 23.9129 34.6965 24.3796 34.5199C24.7854 34.3665 25.1914 34.2134 25.5974 34.0603C26.967 33.5435 28.3361 33.0258 29.7037 32.5037C29.8886 32.4333 30.0734 32.3629 30.2583 32.2924C30.5816 32.1692 30.9046 32.0453 31.2274 31.921C31.3665 31.8679 31.5055 31.8148 31.6446 31.7617C31.7601 31.7173 31.8756 31.6729 31.9946 31.6272C32.2733 31.5352 32.2733 31.5352 32.5897 31.5352C31.7358 29.9976 30.8697 28.4688 29.9797 26.9518C29.9243 26.857 29.8688 26.7621 29.8117 26.6644C29.6868 26.4524 29.5604 26.2413 29.433 26.0309C29.3662 25.9196 29.2995 25.8083 29.2307 25.6936C29.1697 25.5929 29.1086 25.4922 29.0457 25.3884C28.847 25.0019 28.7541 24.7218 28.8653 24.2974C29.0247 24.009 29.1341 23.8843 29.4256 23.7305C29.8175 23.6721 29.9914 23.6848 30.3212 23.9096C30.5963 24.162 30.7462 24.3802 30.9232 24.7073C30.9827 24.8156 31.0421 24.924 31.1034 25.0356C31.1653 25.1509 31.2273 25.2662 31.2911 25.385C31.4233 25.6262 31.5557 25.8674 31.6882 26.1085C31.7525 26.2259 31.8167 26.3433 31.8829 26.4642C32.109 26.8736 32.3437 27.2772 32.5831 27.679C33.0507 28.4664 33.5098 29.2587 33.9674 30.052C34.003 30.1137 34.0387 30.1755 34.0754 30.2391C34.9587 31.7691 34.9587 31.7691 34.8045 32.3789C34.4548 32.6967 34.1283 32.884 33.6869 33.0466C33.5697 33.0904 33.4525 33.1342 33.3318 33.1792C33.2047 33.2257 33.0775 33.2721 32.9465 33.3199C32.8107 33.3702 32.6751 33.4207 32.5394 33.4713C32.2498 33.5791 31.96 33.6865 31.67 33.7936C30.9887 34.0456 30.3096 34.3034 29.6302 34.5605C29.2405 34.7079 28.8506 34.8547 28.4607 35.0016C28.3034 35.0609 28.1461 35.1202 27.9887 35.1795C27.9106 35.2089 27.8324 35.2384 27.7519 35.2687C27.5124 35.359 27.273 35.4493 27.0336 35.5396C26.0031 35.9282 24.9724 36.3162 23.9412 36.7031C23.827 36.746 23.7127 36.7889 23.595 36.8331C23.3066 36.9413 23.0179 37.0489 22.7292 37.1563C22.649 37.1864 22.5689 37.2164 22.4864 37.2474C21.9618 37.4414 21.9618 37.4414 21.7264 37.4414C21.7732 37.5244 21.82 37.6073 21.8683 37.6928C22.0429 38.0027 22.217 38.3129 22.3907 38.6233C22.4658 38.7572 22.5411 38.891 22.6166 39.0247C22.7255 39.2176 22.8337 39.4109 22.9418 39.6043C23.0395 39.7783 23.0395 39.7783 23.1393 39.9558C23.5128 40.6917 23.6442 41.3309 23.458 42.1368C23.1762 42.9744 22.6232 43.5217 21.845 43.9277C20.9541 44.0703 20.178 44.0628 19.4061 43.5586C18.7258 42.9227 18.2721 42.1683 17.8306 41.3569C17.7699 41.2482 17.7092 41.1394 17.6467 41.0273C17.2096 40.2385 17.2096 40.2385 17.0858 39.8672C17.0054 39.9104 16.9251 39.9537 16.8423 39.9982C15.7943 40.5451 14.8969 40.8853 13.7108 40.6055C13.3692 40.4599 13.0471 40.2975 12.7224 40.1177C12.3875 39.9396 12.3875 39.9396 12.0233 39.8672C11.7821 39.9649 11.7821 39.9649 11.5487 40.1177C10.8895 40.5218 10.2454 40.6109 9.48337 40.4551C8.78118 40.2293 8.23834 39.7545 7.81111 39.1619C7.50711 38.5002 7.45953 37.6756 7.66939 36.9787C7.92649 36.4345 8.26922 36.0027 8.81101 35.7189C9.12847 35.542 9.35817 35.3962 9.59749 35.1211C9.6574 34.7129 9.63659 34.3429 9.60985 33.9317C9.58163 33.0352 10.018 32.421 10.6011 31.7793C11.0762 31.3366 11.6335 31.0457 12.2013 30.7375C12.3251 30.6684 12.4488 30.599 12.5723 30.5294C12.8115 30.395 13.051 30.2611 13.2909 30.128C14.3533 29.5373 15.2812 28.8824 16.1929 28.083C16.4066 27.8981 16.6268 27.7223 16.8485 27.5471C17.8902 26.7205 18.914 25.8709 19.9268 25.0093C20.3855 24.6191 20.8505 24.2386 21.3222 23.8644C21.9458 23.3647 22.5598 22.8533 23.176 22.3446C23.4104 22.1513 23.6451 21.9584 23.8799 21.7657C24.6464 21.1361 25.411 20.505 26.1632 19.8583C26.6432 19.448 26.992 19.3044 27.6326 19.4062ZM10.3358 36.8086C10.1973 36.9118 10.0589 37.0151 9.92049 37.1184C9.8434 37.1759 9.76632 37.2334 9.68689 37.2927C9.50115 37.4276 9.50115 37.4276 9.38655 37.5469C9.33375 37.9027 9.33375 37.9027 9.38655 38.2852C9.59646 38.5656 9.59646 38.5656 9.9139 38.707C10.4409 38.707 10.7635 38.4867 11.1795 38.1797C11.0789 37.9905 10.9777 37.8016 10.8763 37.6128C10.7919 37.4549 10.7919 37.4549 10.7057 37.2939C10.5592 37.0139 10.5592 37.0139 10.3358 36.8086ZM19.828 38.1797C19.2015 38.5451 19.2015 38.5451 18.5623 38.918C18.6135 39.0074 18.6646 39.0969 18.7172 39.1891C18.751 39.2482 18.7847 39.3073 18.8195 39.3681C18.8949 39.4999 18.9703 39.6316 19.0459 39.7633C19.2452 40.1108 19.4423 40.4591 19.6351 40.8102C19.6903 40.9096 19.6903 40.9096 19.7466 41.011C19.8496 41.1967 19.9517 41.3829 20.0537 41.5691C20.2416 41.8584 20.372 42.0215 20.6717 42.1875C21.0699 42.1805 21.3124 42.1644 21.6209 41.9041C21.7652 41.5704 21.7021 41.3792 21.6209 41.0273C21.4928 40.7349 21.4928 40.7349 21.3255 40.4497C21.2361 40.2915 21.2361 40.2915 21.1449 40.13C21.0823 40.0215 21.0197 39.913 20.9552 39.8013C20.8938 39.692 20.8324 39.5827 20.7691 39.47C20.4819 38.9665 20.2435 38.5953 19.828 38.1797Z" fill="black"/>
<path d="M40.0296 27.813C40.1415 27.8123 40.2533 27.8116 40.3686 27.8109C40.7383 27.8089 41.1081 27.8084 41.4778 27.8082C41.7351 27.8075 41.9925 27.8068 42.2498 27.8061C42.7893 27.8048 43.3288 27.8044 43.8683 27.8046C44.5588 27.8046 45.2492 27.8017 45.9397 27.7981C46.4713 27.7957 47.0029 27.7953 47.5345 27.7954C47.789 27.7952 48.0435 27.7942 48.298 27.7926C48.6545 27.7905 49.0108 27.7911 49.3673 27.7924C49.4719 27.7912 49.5765 27.79 49.6843 27.7888C50.4527 27.7958 51.0167 27.9617 51.5999 28.4728C51.6567 28.5414 51.7136 28.6101 51.7721 28.6808C51.8306 28.7492 51.889 28.8176 51.9493 28.888C52.2565 29.3339 52.3393 29.7241 52.3433 30.261C52.3446 30.3842 52.346 30.5074 52.3474 30.6343C52.3476 30.7664 52.3478 30.8984 52.3481 31.0345C52.3491 31.2391 52.3491 31.2391 52.3502 31.4477C52.3515 31.7358 52.3519 32.0238 52.3517 32.3118C52.3517 32.6806 52.3546 33.0492 52.3582 33.4179C52.3611 33.7704 52.361 34.1229 52.3613 34.4754C52.3628 34.6077 52.3643 34.74 52.3659 34.8763C52.3652 34.9991 52.3646 35.122 52.3639 35.2485C52.3642 35.3565 52.3645 35.4646 52.3648 35.5759C52.299 35.9333 52.1711 36.0575 51.8908 36.2812C51.6798 36.3372 51.6798 36.3372 51.4689 36.3339C51.3645 36.3355 51.3645 36.3355 51.258 36.3372C50.9514 36.2558 50.8264 36.1008 50.6251 35.8593C50.5718 35.6039 50.5718 35.6039 50.5709 35.3163C50.5695 35.2082 50.5681 35.1002 50.5667 34.9888C50.5675 34.8146 50.5675 34.8146 50.5683 34.6369C50.567 34.517 50.5658 34.3971 50.5645 34.2736C50.5608 33.8903 50.5598 33.507 50.5592 33.1237C50.5575 32.7407 50.5552 32.3578 50.5517 31.9749C50.5496 31.7366 50.5486 31.4983 50.5488 31.26C50.5481 31.1516 50.5474 31.0432 50.5466 30.9315C50.5465 30.8365 50.5463 30.7416 50.5462 30.6437C50.5156 30.3332 50.4627 30.1201 50.3087 29.8476C49.8517 29.5577 49.3237 29.6069 48.8005 29.6093C48.7025 29.609 48.6045 29.6086 48.5035 29.6082C48.1802 29.6073 47.8569 29.6079 47.5336 29.6086C47.3086 29.6085 47.0836 29.6083 46.8586 29.608C46.3873 29.6077 45.916 29.6081 45.4447 29.6091C44.8407 29.6103 44.2368 29.6096 43.6328 29.6084C43.1683 29.6076 42.7038 29.6078 42.2392 29.6084C42.0165 29.6085 41.7938 29.6084 41.5711 29.6079C41.2599 29.6073 40.9486 29.6082 40.6373 29.6093C40.5454 29.6089 40.4534 29.6085 40.3587 29.608C39.7149 29.6067 39.7149 29.6067 39.1291 29.8476C38.8392 30.3046 38.8884 30.8326 38.8908 31.3558C38.8905 31.4538 38.8901 31.5518 38.8897 31.6528C38.8888 31.9761 38.8894 32.2994 38.8901 32.6227C38.89 32.8477 38.8898 33.0727 38.8895 33.2977C38.8892 33.769 38.8896 34.2403 38.8906 34.7116C38.8918 35.3156 38.8911 35.9195 38.8899 36.5235C38.8891 36.988 38.8893 37.4525 38.8899 37.9171C38.89 38.1398 38.8899 38.3625 38.8894 38.5852C38.8888 38.8964 38.8896 39.2077 38.8908 39.519C38.8904 39.6109 38.89 39.7029 38.8895 39.7976C38.8882 40.4414 38.8882 40.4414 39.1291 41.0272C39.5861 41.3171 40.1141 41.2679 40.6373 41.2655C40.7353 41.2658 40.8333 41.2662 40.9343 41.2666C41.2576 41.2675 41.5809 41.2669 41.9042 41.2662C42.1292 41.2663 42.3542 41.2665 42.5792 41.2668C43.0505 41.2671 43.5218 41.2667 43.9931 41.2657C44.5971 41.2645 45.201 41.2652 45.805 41.2664C46.2695 41.2672 46.734 41.267 47.1986 41.2664C47.4213 41.2663 47.644 41.2664 47.8666 41.2669C48.1779 41.2675 48.4892 41.2667 48.8005 41.2655C48.8924 41.2659 48.9844 41.2663 49.0791 41.2668C49.5317 41.2636 49.9025 41.2525 50.3087 41.0272C50.6519 40.4958 50.5574 39.7626 50.5609 39.1517C50.5795 38.4566 50.5795 38.4566 50.8138 38.1174C51.0587 37.9612 51.1815 37.9114 51.4689 37.9159C51.5733 37.9143 51.5733 37.9143 51.6798 37.9126C51.9895 37.9949 52.1117 38.1438 52.3126 38.3905C52.3672 38.6864 52.3672 38.6864 52.3687 39.025C52.3695 39.21 52.3695 39.21 52.3703 39.3987C52.3687 39.5271 52.3671 39.6556 52.3654 39.788C52.3678 39.9783 52.3678 39.9783 52.3703 40.1724C52.3665 41.0473 52.2657 41.654 51.6835 42.3184C51.6149 42.3752 51.5462 42.4321 51.4755 42.4906C51.4071 42.5491 51.3387 42.6075 51.2683 42.6678C50.6701 43.0799 50.1117 43.0624 49.4082 43.0618C49.2963 43.0625 49.1845 43.0632 49.0692 43.0639C48.6995 43.0659 48.3297 43.0664 47.96 43.0666C47.7027 43.0673 47.4453 43.068 47.188 43.0687C46.6485 43.07 46.109 43.0704 45.5695 43.0702C44.879 43.0702 44.1886 43.0731 43.4981 43.0767C42.9665 43.0791 42.4349 43.0795 41.9033 43.0794C41.6488 43.0796 41.3943 43.0806 41.1398 43.0822C40.7833 43.0843 40.427 43.0837 40.0705 43.0824C39.9136 43.0842 39.9136 43.0842 39.7535 43.086C38.9851 43.079 38.4211 42.9132 37.8379 42.402C37.7526 42.2991 37.7526 42.2991 37.6657 42.194C37.6072 42.1256 37.5488 42.0572 37.4885 41.9868C37.0764 41.3886 37.0939 40.8302 37.0945 40.1267C37.0938 40.0148 37.0931 39.903 37.0924 39.7877C37.0904 39.418 37.0899 39.0482 37.0897 38.6785C37.089 38.4212 37.0883 38.1638 37.0876 37.9065C37.0863 37.367 37.0859 36.8275 37.0861 36.288C37.0861 35.5975 37.0832 34.9071 37.0796 34.2166C37.0772 33.685 37.0768 33.1534 37.0769 32.6218C37.0767 32.3673 37.0757 32.1128 37.0741 31.8583C37.072 31.5018 37.0726 31.1455 37.0739 30.789C37.0727 30.6844 37.0715 30.5798 37.0703 30.472C37.0772 29.7036 37.2431 29.1396 37.7543 28.5564C37.8229 28.4996 37.8916 28.4427 37.9623 28.3842C38.0307 28.3257 38.0991 28.2673 38.1695 28.207C38.7677 27.7949 39.3261 27.8124 40.0296 27.813Z" fill="black"/>
<path d="M40.0285 1.65676C40.1404 1.65605 40.2523 1.65534 40.3675 1.65461C40.7373 1.65261 41.107 1.6522 41.4767 1.65197C41.7341 1.65129 41.9914 1.65058 42.2487 1.64984C42.7882 1.64858 43.3277 1.64819 43.8672 1.64831C44.5577 1.64834 45.2482 1.64546 45.9387 1.64182C46.4702 1.63947 47.0018 1.63905 47.5334 1.63916C47.7879 1.63891 48.0424 1.63798 48.297 1.63635C48.6534 1.63428 49.0098 1.63489 49.3662 1.63616C49.4708 1.63498 49.5755 1.63379 49.6832 1.63257C50.4516 1.6395 51.0156 1.8054 51.5988 2.31651C51.6557 2.38516 51.7125 2.45382 51.7711 2.52456C51.8295 2.59295 51.888 2.66133 51.9482 2.73179C52.3604 3.32996 52.3429 3.88838 52.3422 4.59183C52.3429 4.70371 52.3436 4.81559 52.3444 4.93086C52.3464 5.30059 52.3468 5.67031 52.347 6.04005C52.3477 6.29738 52.3484 6.55472 52.3491 6.81205C52.3504 7.35155 52.3508 7.89103 52.3507 8.43053C52.3507 9.12103 52.3535 9.81149 52.3572 10.502C52.3595 11.0336 52.3599 11.5651 52.3598 12.0967C52.3601 12.3512 52.361 12.6058 52.3626 12.8603C52.3647 13.2167 52.3641 13.5731 52.3628 13.9295C52.364 14.0341 52.3652 14.1388 52.3664 14.2466C52.3595 15.0149 52.1936 15.5789 51.6825 16.1622C51.6138 16.219 51.5452 16.2758 51.4744 16.3344C51.406 16.3928 51.3377 16.4513 51.2672 16.5115C50.669 16.9237 50.1106 16.9062 49.4072 16.9055C49.2953 16.9063 49.1834 16.907 49.0681 16.9077C48.6984 16.9097 48.3287 16.9101 47.9589 16.9103C47.7016 16.911 47.4443 16.9117 47.1869 16.9125C46.6474 16.9137 46.108 16.9141 45.5685 16.914C44.878 16.914 44.1875 16.9168 43.497 16.9205C42.9654 16.9228 42.4339 16.9233 41.9023 16.9231C41.6478 16.9234 41.3932 16.9243 41.1387 16.926C40.7823 16.928 40.4259 16.9274 40.0695 16.9261C39.9125 16.9279 39.9125 16.9279 39.7524 16.9297C38.9841 16.9228 38.4201 16.7569 37.8368 16.2458C37.7516 16.1428 37.7516 16.1428 37.6646 16.0377C37.6062 15.9694 37.5477 15.901 37.4875 15.8305C37.1803 15.3847 37.0974 14.9944 37.0934 14.4575C37.0921 14.3344 37.0908 14.2112 37.0894 14.0843C37.0891 13.9522 37.0889 13.8201 37.0887 13.6841C37.088 13.5477 37.0872 13.4113 37.0865 13.2708C37.0853 12.9828 37.0849 12.6948 37.085 12.4067C37.085 12.038 37.0821 11.6693 37.0785 11.3006C37.0756 10.9481 37.0757 10.5956 37.0755 10.2431C37.074 10.1109 37.0724 9.97858 37.0709 9.84229C37.0715 9.71944 37.0722 9.59659 37.0728 9.47002C37.0725 9.362 37.0722 9.25399 37.0719 9.1427C37.1377 8.78529 37.2656 8.66106 37.546 8.4374C37.7569 8.38137 37.7569 8.38137 37.9678 8.38467C38.0722 8.38304 38.0722 8.38304 38.1788 8.38137C38.4853 8.4628 38.6103 8.61779 38.8116 8.85928C38.8649 9.11467 38.8649 9.11467 38.8658 9.40225C38.8679 9.56435 38.8679 9.56435 38.8701 9.72973C38.8695 9.84586 38.869 9.96199 38.8684 10.0816C38.8697 10.2015 38.8709 10.3214 38.8722 10.4449C38.8759 10.8283 38.8769 11.2115 38.8775 11.5949C38.8792 11.9778 38.8816 12.3607 38.8851 12.7437C38.8871 12.982 38.8881 13.2203 38.8879 13.4585C38.8886 13.5669 38.8894 13.6753 38.8901 13.787C38.8903 13.882 38.8904 13.977 38.8905 14.0749C38.9212 14.3854 38.9741 14.5985 39.128 14.871C39.585 15.1609 40.113 15.1117 40.6363 15.1092C40.7343 15.1096 40.8322 15.11 40.9332 15.1103C41.2565 15.1113 41.5798 15.1107 41.9031 15.1099C42.1281 15.1101 42.3531 15.1103 42.5781 15.1106C43.0494 15.1109 43.5207 15.1104 43.992 15.1094C44.596 15.1082 45.2 15.1089 45.8039 15.1102C46.2685 15.1109 46.733 15.1107 47.1975 15.1102C47.4202 15.11 47.6429 15.1102 47.8656 15.1107C48.1769 15.1112 48.4881 15.1104 48.7994 15.1092C48.8913 15.1097 48.9833 15.1101 49.078 15.1105C49.7218 15.1118 49.7218 15.1118 50.3077 14.871C50.5976 14.414 50.5483 13.886 50.5459 13.3627C50.5463 13.2647 50.5466 13.1667 50.547 13.0658C50.548 12.7425 50.5473 12.4192 50.5466 12.0958C50.5468 11.8709 50.547 11.6459 50.5472 11.4209C50.5476 10.9496 50.5471 10.4783 50.5461 10.007C50.5449 9.40299 50.5456 8.79903 50.5469 8.19505C50.5476 7.73053 50.5474 7.26601 50.5468 6.80149C50.5467 6.57879 50.5469 6.3561 50.5474 6.1334C50.5479 5.82212 50.5471 5.51087 50.5459 5.19959C50.5463 5.10764 50.5468 5.01569 50.5472 4.92095C50.5485 4.27715 50.5485 4.27715 50.3077 3.69131C49.8507 3.40143 49.3226 3.45065 48.7994 3.45308C48.7014 3.45271 48.6034 3.45234 48.5025 3.45196C48.1791 3.45103 47.8559 3.45164 47.5325 3.45235C47.3075 3.45221 47.0826 3.45201 46.8576 3.45174C46.3863 3.45143 45.915 3.45188 45.4437 3.45287C44.8397 3.45407 44.2357 3.45338 43.6317 3.45212C43.1672 3.45135 42.7027 3.4516 42.2382 3.45214C42.0155 3.45228 41.7928 3.45211 41.5701 3.45162C41.2588 3.45108 40.9476 3.4519 40.6363 3.45308C40.5443 3.45265 40.4524 3.45222 40.3576 3.45178C39.905 3.45494 39.5342 3.46607 39.128 3.69131C38.7848 4.22275 38.8794 4.95591 38.8759 5.56688C38.8573 6.26192 38.8573 6.26192 38.6229 6.60117C38.3781 6.75732 38.2552 6.80713 37.9678 6.80264C37.8634 6.80427 37.8634 6.80427 37.7569 6.80593C37.4473 6.72369 37.325 6.57472 37.1241 6.32803C37.0695 6.03212 37.0695 6.03212 37.0681 5.69357C37.0675 5.57025 37.067 5.44694 37.0664 5.31989C37.0689 5.12718 37.0689 5.12718 37.0714 4.93057C37.0697 4.80372 37.0681 4.67687 37.0664 4.54618C37.0702 3.67127 37.171 3.06453 37.7532 2.40014C37.8218 2.34331 37.8905 2.28648 37.9612 2.22793C38.0296 2.16947 38.098 2.11101 38.1685 2.05077C38.7666 1.63863 39.3251 1.65612 40.0285 1.65676Z" fill="black"/>
<path d="M2.57314 9.22765C2.66541 9.22646 2.75767 9.22527 2.85273 9.22405C3.00331 9.22533 3.00331 9.22533 3.15693 9.22664C3.2633 9.2259 3.36967 9.22516 3.47926 9.2244C3.83107 9.22254 4.1828 9.22377 4.53461 9.22519C4.77892 9.22491 5.02323 9.2245 5.26754 9.22397C5.77965 9.22335 6.29173 9.22425 6.80384 9.22622C7.4607 9.22863 8.11749 9.22724 8.77435 9.22472C9.27886 9.22319 9.78335 9.22368 10.2879 9.22477C10.5301 9.22505 10.7723 9.22471 11.0145 9.22372C11.3529 9.22265 11.6911 9.22428 12.0295 9.22664C12.1801 9.22535 12.1801 9.22535 12.3337 9.22405C12.4721 9.22583 12.4721 9.22583 12.6133 9.22765C12.6932 9.22781 12.7732 9.22797 12.8555 9.22813C13.1772 9.30504 13.3015 9.44177 13.4995 9.7031C13.5525 9.97784 13.5525 9.97784 13.553 10.2955C13.5542 10.4162 13.5554 10.5369 13.5566 10.6612C13.5558 10.7931 13.5549 10.9251 13.554 11.061C13.5546 11.2017 13.5554 11.3424 13.5563 11.4831C13.5582 11.8649 13.5575 12.2466 13.5561 12.6284C13.5551 13.028 13.556 13.4275 13.5567 13.8271C13.5575 14.4981 13.5565 15.1691 13.5545 15.8401C13.5522 16.6158 13.5529 17.3915 13.5552 18.1672C13.5571 18.8333 13.5574 19.4993 13.5563 20.1654C13.5557 20.5632 13.5556 20.9609 13.557 21.3587C13.5582 21.7327 13.5573 22.1067 13.5549 22.4807C13.5541 22.6834 13.5553 22.8861 13.5566 23.0888C13.5548 23.2698 13.5548 23.2698 13.553 23.4544C13.5529 23.5592 13.5527 23.6641 13.5525 23.7721C13.4837 24.1285 13.3657 24.2529 13.0776 24.4687C12.8555 24.5218 12.8555 24.5218 12.6133 24.5223C12.4749 24.5241 12.4749 24.5241 12.3337 24.5259C12.2333 24.525 12.1329 24.5242 12.0295 24.5233C11.9231 24.5241 11.8168 24.5248 11.7072 24.5256C11.3553 24.5274 11.0036 24.5262 10.6518 24.5248C10.4075 24.525 10.1632 24.5254 9.91888 24.526C9.40676 24.5266 8.89468 24.5257 8.38258 24.5237C7.72571 24.5213 7.06892 24.5227 6.41207 24.5252C5.90756 24.5268 5.40306 24.5263 4.89855 24.5252C4.65634 24.5249 4.41412 24.5252 4.17191 24.5262C3.83354 24.5273 3.49529 24.5257 3.15693 24.5233C3.05654 24.5242 2.95616 24.525 2.85273 24.5259C2.76046 24.5247 2.6682 24.5235 2.57314 24.5223C2.49319 24.5221 2.41324 24.522 2.33087 24.5218C2.00923 24.4449 1.88488 24.3082 1.68696 24.0468C1.63387 23.7721 1.63387 23.7721 1.63339 23.4544C1.6322 23.3337 1.63101 23.2131 1.62978 23.0888C1.63064 22.9568 1.63149 22.8249 1.63237 22.6889C1.6318 22.5482 1.63105 22.4075 1.63013 22.2669C1.62821 21.8851 1.62895 21.5033 1.63029 21.1215C1.63136 20.722 1.63037 20.3224 1.6297 19.9229C1.62894 19.2519 1.62995 18.5809 1.63196 17.9099C1.63425 17.1342 1.63351 16.3585 1.63119 15.5827C1.62927 14.9167 1.629 14.2506 1.63011 13.5846C1.63076 13.1868 1.63085 12.789 1.62946 12.3912C1.62824 12.0172 1.62909 11.6433 1.63152 11.2693C1.63235 11.0666 1.63109 10.8639 1.62978 10.6612C1.63097 10.5405 1.63216 10.4199 1.63339 10.2955C1.63355 10.1907 1.63371 10.0859 1.63387 9.97784C1.73557 9.45153 2.05263 9.22869 2.57314 9.22765ZM3.37446 10.9687C3.37446 14.8668 3.37446 18.765 3.37446 22.7812C6.15883 22.7812 8.94321 22.7812 11.812 22.7812C11.812 18.8831 11.812 14.985 11.812 10.9687C9.02758 10.9687 6.24321 10.9687 3.37446 10.9687Z" fill="black"/>
<path d="M27.3896 2.24433C28.9037 3.47936 30.139 5.18599 30.3751 7.17186C30.529 9.46268 30.2351 11.5968 28.6898 13.3849C27.2969 14.9106 25.5622 15.9664 23.4611 16.0642C21.2789 16.1266 19.3209 15.7034 17.6727 14.1987C16.1178 12.7074 15.2076 10.9673 15.1454 8.79236C15.1204 6.64115 15.6588 4.74825 17.1704 3.17213C19.8653 0.474022 24.2491 -0.129154 27.3896 2.24433ZM19.1954 3.79686C19.1208 3.84961 19.0461 3.90236 18.9692 3.95671C17.939 4.76139 17.1859 6.10165 16.9806 7.38279C16.8174 9.13902 17.0804 10.5801 18.1407 12.0234C18.1935 12.0981 18.2462 12.1727 18.3006 12.2496C19.1053 13.2798 20.4455 14.0329 21.7267 14.2383C23.4829 14.4014 24.924 14.1385 26.3673 13.0781C26.4419 13.0254 26.5166 12.9726 26.5935 12.9183C27.6237 12.1136 28.3768 10.7733 28.5821 9.49217C28.7453 7.73594 28.4823 6.29481 27.422 4.85154C27.3692 4.7769 27.3165 4.70226 27.2621 4.62536C26.4574 3.59512 25.1172 2.84206 23.836 2.6367C22.0798 2.47356 20.6387 2.73649 19.1954 3.79686Z" fill="black"/>
<path d="M46.3953 32.3516C47.2754 32.8764 47.8227 33.6028 48.0943 34.5937C48.1996 35.7643 48.1312 36.7805 47.3824 37.7379C46.7857 38.3768 46.0425 38.7693 45.1692 38.8478C44.0376 38.8733 43.1049 38.7413 42.2441 37.9373C41.4643 37.07 41.283 36.151 41.3114 35.0143C41.3614 34.1299 41.7424 33.391 42.399 32.8007C43.5316 31.949 45.0955 31.7279 46.3953 32.3516ZM43.3087 34.5541C43.0762 35.0369 43.0532 35.438 43.1373 35.9647C43.383 36.4751 43.6817 36.7737 44.192 37.0194C44.7187 37.1035 45.1198 37.0805 45.6026 36.848C45.9806 36.506 46.2587 36.2321 46.3417 35.7118C46.3687 35.1123 46.2946 34.7361 45.8795 34.2772C45.4206 33.8621 45.0444 33.788 44.4449 33.815C43.9246 33.898 43.6507 34.1761 43.3087 34.5541Z" fill="black"/>
<path d="M21.2667 5.01295C21.7978 5.11863 22.266 5.38246 22.7442 5.62814C22.9172 5.71481 22.9172 5.71481 23.0938 5.80322C23.3365 5.92522 23.5788 6.04805 23.8208 6.17163C24.192 6.36109 24.5644 6.54779 24.9372 6.73412C25.1731 6.8531 25.4089 6.97223 25.6446 7.09152C25.7562 7.14757 25.8678 7.20361 25.9828 7.26135C26.0856 7.31411 26.1885 7.36688 26.2944 7.42124C26.3851 7.46738 26.4758 7.51352 26.5692 7.56106C26.7891 7.6992 26.7891 7.6992 27 8.01561C27.0566 8.60959 27.0566 8.60959 27 8.85936C26.7225 9.17346 26.4509 9.37204 26.0789 9.56149C25.9803 9.61214 25.8817 9.66278 25.7801 9.71496C25.6742 9.76815 25.5683 9.82134 25.4592 9.87615C25.3494 9.93173 25.2397 9.98732 25.1266 10.0446C24.8945 10.1617 24.6622 10.2783 24.4297 10.3945C24.0751 10.5723 23.722 10.7527 23.3688 10.9333C23.1428 11.0469 22.9168 11.1603 22.6906 11.2736C22.5856 11.3277 22.4805 11.3817 22.3723 11.4374C21.778 11.7307 21.3368 11.919 20.6719 11.8125C20.3909 11.5956 20.2657 11.4704 20.1965 11.1185C20.1961 11.0158 20.1958 10.9131 20.1954 10.8072C20.1941 10.6904 20.1928 10.5735 20.1914 10.4531C20.1923 10.3274 20.1931 10.2018 20.194 10.0723C20.1936 9.94275 20.1932 9.81326 20.1928 9.67983C20.1925 9.40607 20.1933 9.1323 20.195 8.85854C20.1973 8.43907 20.195 8.01979 20.1923 7.60033C20.1926 7.33446 20.1932 7.06859 20.194 6.80272C20.1931 6.67703 20.1923 6.55134 20.1914 6.42184C20.1927 6.30498 20.1941 6.18813 20.1954 6.06773C20.1958 5.96502 20.1961 5.86231 20.1965 5.75648C20.311 5.17471 20.6966 4.98184 21.2667 5.01295ZM21.9375 7.3828C21.9375 8.07889 21.9375 8.77499 21.9375 9.49217C22.4636 9.31965 22.4636 9.31965 22.9551 9.09914C23.0197 9.06651 23.0843 9.03388 23.1508 9.00026C23.2159 8.96682 23.2811 8.93337 23.3482 8.89891C23.4157 8.86465 23.4833 8.83039 23.5529 8.79509C23.7178 8.71143 23.8824 8.62725 24.0469 8.54295C24.0469 8.47335 24.0469 8.40374 24.0469 8.33202C23.7352 8.17313 23.4231 8.01518 23.1109 7.85741C23.0221 7.81213 22.9333 7.76686 22.8418 7.72022C22.7144 7.65598 22.7144 7.65598 22.5843 7.59044C22.5059 7.55067 22.4275 7.51091 22.3467 7.46993C22.1524 7.36865 22.1524 7.36865 21.9375 7.3828Z" fill="black"/>
<path d="M46.254 5.02292C46.3839 5.02034 46.5138 5.01775 46.6477 5.01509C46.8348 5.01448 46.8348 5.01448 47.0257 5.01386C47.1394 5.01299 47.2532 5.01212 47.3703 5.01123C47.7412 5.07437 47.8635 5.19271 48.0931 5.48435C48.1492 5.69528 48.1492 5.69528 48.1459 5.90622C48.1475 6.01064 48.1475 6.01064 48.1492 6.11716C48.0614 6.44746 47.9544 6.55435 47.6713 6.74997C47.3225 6.81175 46.9768 6.81386 46.6232 6.81589C45.7997 6.80379 45.7997 6.80379 45.0345 7.06638C44.7863 7.48838 44.7668 7.95858 44.7181 8.43747C44.8046 8.43258 44.8911 8.42768 44.9802 8.42264C45.0938 8.41883 45.2075 8.41503 45.3246 8.4111C45.4934 8.40376 45.4934 8.40376 45.6657 8.39627C45.9838 8.43747 45.9838 8.43747 46.2326 8.62369C46.4152 8.87231 46.4631 8.97797 46.4584 9.28122C46.4595 9.35083 46.4605 9.42044 46.4617 9.49216C46.3791 9.80316 46.2332 9.92494 45.9838 10.125C45.6657 10.1662 45.6657 10.1662 45.3246 10.1513C45.2109 10.1475 45.0973 10.1437 44.9802 10.1398C44.8937 10.1349 44.8072 10.13 44.7181 10.125C44.7203 10.2122 44.7226 10.2995 44.7248 10.3894C44.7336 10.7846 44.7391 11.1799 44.7445 11.5752C44.748 11.7125 44.7516 11.8498 44.7552 11.9913C44.7566 12.1232 44.7579 12.255 44.7593 12.3909C44.7615 12.5124 44.7638 12.6339 44.766 12.7591C44.7081 13.1447 44.6004 13.2646 44.2963 13.5C44.0853 13.556 44.0853 13.556 43.8744 13.5527C43.8048 13.5538 43.7352 13.5549 43.6635 13.556C43.3517 13.4732 43.231 13.3286 43.0306 13.0781C42.9827 12.7591 42.9827 12.7591 42.9894 12.3909C42.9908 12.259 42.9922 12.1271 42.9936 11.9913C42.9971 11.854 43.0006 11.7166 43.0043 11.5752C43.0062 11.4362 43.0081 11.2973 43.01 11.1541C43.015 10.811 43.022 10.468 43.0306 10.125C42.9442 10.1299 42.8577 10.1348 42.7686 10.1398C42.5981 10.1455 42.5981 10.1455 42.4242 10.1513C42.3116 10.1562 42.1991 10.1611 42.0831 10.1662C41.6945 10.1158 41.5802 10.0076 41.3431 9.7031C41.2871 9.49216 41.2871 9.49216 41.2904 9.28122C41.2893 9.21161 41.2882 9.142 41.2871 9.07028C41.3706 8.7558 41.5063 8.6311 41.765 8.43747C42.0831 8.39627 42.0831 8.39627 42.4242 8.4111C42.5379 8.41491 42.6515 8.41872 42.7686 8.42264C42.8983 8.42998 42.8983 8.42998 43.0306 8.43747C43.0257 8.33306 43.0209 8.22864 43.0158 8.12107C42.9652 6.60629 42.9652 6.60629 43.4525 6.01169C44.3199 5.10264 45.0292 5.02421 46.254 5.02292Z" fill="black"/>
<path d="M41.2245 23.7436C41.4117 24.0556 41.4362 24.3188 41.4486 24.6797C41.3563 24.9697 41.3563 24.9697 41.1322 25.207C40.3842 25.4979 39.6148 25.6606 38.8291 25.8177C38.6219 25.8594 38.4152 25.9031 38.2085 25.9467C36.47 26.2976 36.47 26.2976 35.7533 26.1562C35.3562 25.8277 35.3562 25.8277 35.2754 25.5234C35.2765 25.4538 35.2776 25.3842 35.2787 25.3125C35.2771 25.2081 35.2771 25.2081 35.2754 25.1016C35.3571 24.7939 35.5114 24.6728 35.7533 24.4687C36.0472 24.3678 36.0472 24.3678 36.3849 24.3002C36.5088 24.2746 36.6327 24.249 36.7603 24.2226C36.9568 24.1846 36.9568 24.1846 37.1573 24.1457C37.2906 24.1188 37.4239 24.0919 37.5612 24.0641C37.8246 24.011 38.0881 23.9585 38.3517 23.9067C38.6445 23.8483 38.9359 23.7867 39.2272 23.7214C39.362 23.6918 39.4969 23.6621 39.6359 23.6316C39.7475 23.6067 39.8591 23.5818 39.9741 23.5562C40.4084 23.5055 40.8424 23.5144 41.2245 23.7436Z" fill="#28A745"/>
<path d="M37.5476 18.5626C37.8112 18.7208 37.8112 18.7208 37.9694 18.9845C38.0511 19.5559 38.0511 19.5559 37.9694 19.8282C37.5176 20.3665 36.9259 20.7651 36.3676 21.1861C36.2732 21.258 36.1788 21.33 36.0815 21.4041C35.7981 21.6189 35.5132 21.8315 35.2272 22.043C35.1315 22.1142 35.0357 22.1853 34.9371 22.2585C34.7987 22.3589 34.7987 22.3589 34.6575 22.4612C34.5341 22.5511 34.5341 22.5511 34.4082 22.6429C34.0153 22.8737 33.7742 22.8658 33.3288 22.7813C33.0651 22.6231 33.0651 22.6231 32.9069 22.3595C32.8253 21.788 32.8253 21.788 32.9069 21.5157C33.3588 20.9774 33.9504 20.5788 34.5087 20.1578C34.6032 20.0859 34.6976 20.014 34.7949 19.9399C35.0783 19.725 35.3632 19.5124 35.6491 19.3009C35.7927 19.1942 35.7927 19.1942 35.9393 19.0854C36.0777 18.985 36.0777 18.985 36.2189 18.8827C36.3423 18.7928 36.3423 18.7928 36.4681 18.701C36.861 18.4702 37.1021 18.4781 37.5476 18.5626Z" fill="#28A745"/>
<path d="M34.1711 14.3438C34.4348 14.502 34.4348 14.502 34.593 14.7657C34.6847 15.4467 34.5432 15.7701 34.132 16.3107C34.0666 16.3925 34.0012 16.4743 33.9338 16.5586C33.8675 16.6447 33.8013 16.7307 33.733 16.8194C33.5962 16.9971 33.4586 17.1742 33.3203 17.3508C33.1244 17.603 32.9333 17.858 32.744 18.1151C32.6866 18.1929 32.6293 18.2706 32.5702 18.3508C32.4616 18.4982 32.353 18.6457 32.2445 18.7932C31.8746 19.2889 31.8746 19.2889 31.6398 19.4063C30.8961 19.4663 30.8961 19.4663 30.5324 19.2481C30.3106 18.8785 30.2937 18.5551 30.3742 18.1407C30.5544 17.7925 30.7891 17.4969 31.0334 17.1914C31.0996 17.1054 31.1659 17.0193 31.2341 16.9307C31.371 16.753 31.5085 16.5759 31.6468 16.3993C31.8427 16.1471 32.0338 15.8921 32.2232 15.6349C32.2805 15.5572 32.3379 15.4794 32.397 15.3993C32.5056 15.2518 32.6141 15.1044 32.7226 14.9568C33.1541 14.3787 33.4443 14.2447 34.1711 14.3438Z" fill="#28A745"/>
<path d="M6.43298 19.3502C6.52503 19.3498 6.61707 19.3494 6.7119 19.349C6.90622 19.3487 7.10055 19.3495 7.29486 19.3513C7.59213 19.3535 7.88914 19.3513 8.1864 19.3486C8.37537 19.3489 8.56433 19.3494 8.7533 19.3502C8.84208 19.3494 8.93085 19.3485 9.02232 19.3477C9.63788 19.3575 9.63788 19.3575 9.96928 19.6075C10.1372 19.8464 10.1816 19.9611 10.1771 20.25C10.1782 20.3196 10.1793 20.3892 10.1804 20.461C10.0949 20.783 9.96937 20.8924 9.70251 21.0938C9.38639 21.1572 9.07486 21.1529 8.7533 21.1498C8.66125 21.1502 8.56921 21.1506 8.47438 21.151C8.28006 21.1513 8.08573 21.1505 7.89142 21.1488C7.59415 21.1465 7.29714 21.1488 6.99988 21.1515C6.81091 21.1512 6.62195 21.1506 6.43298 21.1498C6.3442 21.1507 6.25543 21.1515 6.16396 21.1524C5.5484 21.1425 5.5484 21.1425 5.217 20.8925C5.04908 20.6537 5.00464 20.5389 5.00916 20.25C5.00752 20.1456 5.00752 20.1456 5.00586 20.0391C5.19999 19.3082 5.80547 19.3442 6.43298 19.3502Z" fill="black"/>
<path d="M6.43298 15.9752C6.52503 15.9748 6.61707 15.9744 6.7119 15.974C6.90622 15.9737 7.10055 15.9745 7.29486 15.9763C7.59213 15.9785 7.88914 15.9763 8.1864 15.9736C8.37537 15.9739 8.56433 15.9744 8.7533 15.9752C8.84208 15.9744 8.93085 15.9735 9.02232 15.9727C9.63788 15.9825 9.63788 15.9825 9.96928 16.2325C10.1372 16.4714 10.1816 16.5861 10.1771 16.875C10.1782 16.9446 10.1793 17.0142 10.1804 17.086C10.0949 17.408 9.96937 17.5174 9.70251 17.7188C9.38639 17.7822 9.07486 17.7779 8.7533 17.7748C8.66125 17.7752 8.56921 17.7756 8.47438 17.776C8.28006 17.7763 8.08573 17.7755 7.89142 17.7738C7.59415 17.7715 7.29714 17.7738 6.99988 17.7765C6.81091 17.7762 6.62195 17.7756 6.43298 17.7748C6.3442 17.7757 6.25543 17.7765 6.16396 17.7774C5.5484 17.7675 5.5484 17.7675 5.217 17.5175C5.04908 17.2787 5.00464 17.1639 5.00916 16.875C5.00752 16.7706 5.00752 16.7706 5.00586 16.6641C5.19999 15.9332 5.80547 15.9692 6.43298 15.9752Z" fill="black"/>
<path d="M7.75134 12.6003C7.86228 12.5997 7.97322 12.5992 8.08752 12.5986C8.20281 12.6003 8.31811 12.6019 8.43689 12.6036C8.60983 12.6011 8.60983 12.6011 8.78625 12.5986C8.89719 12.5992 9.00813 12.5997 9.12244 12.6003C9.27416 12.601 9.27416 12.601 9.42896 12.6017C9.77771 12.6713 9.90386 12.8051 10.1244 13.0782C10.1804 13.2891 10.1804 13.2891 10.1771 13.5001C10.1782 13.5697 10.1793 13.6393 10.1804 13.711C10.0987 14.0188 9.94604 14.1427 9.70251 14.3438C9.42896 14.3984 9.42896 14.3984 9.12244 14.3998C9.0115 14.4004 8.90056 14.4009 8.78625 14.4015C8.67096 14.3999 8.55567 14.3982 8.43689 14.3965C8.26395 14.399 8.26395 14.399 8.08752 14.4015C7.97658 14.4009 7.86564 14.4004 7.75134 14.3998C7.65019 14.3994 7.54904 14.3989 7.44482 14.3984C7.09607 14.3288 6.96992 14.195 6.74939 13.9219C6.69336 13.711 6.69336 13.711 6.69666 13.5001C6.69502 13.3956 6.69502 13.3956 6.69336 13.2891C6.83878 12.7416 7.23023 12.6027 7.75134 12.6003Z" fill="black"/>
</svg>
