<svg width="57" height="57" viewBox="0 0 57 57" fill="none" xmlns="http://www.w3.org/2000/svg">
<path d="M28.8062 3.52769C28.8935 3.52793 28.9808 3.52817 29.0708 3.52842C30.4641 3.53453 31.8089 3.60859 33.1758 3.89646C33.2825 3.91799 33.3891 3.93952 33.499 3.96169C39.3933 5.17539 39.3933 5.17539 40.6348 6.79099C40.6929 7.2391 40.6741 7.49332 40.4678 7.89732C40.1462 8.16266 39.957 8.17425 39.5476 8.16289C39.0965 8.09768 38.724 7.88525 38.3247 7.67466C33.1054 5.07344 27.0169 4.78267 21.5003 6.60313C17.9409 7.82392 14.8526 9.76776 12.1348 12.3574C12.0481 12.4382 11.9614 12.519 11.8721 12.6022C8.13126 16.1905 5.64788 21.7505 5.53991 26.9196C5.44368 33.4509 7.29893 39.8462 11.9069 44.6334C12.0196 44.7481 12.1327 44.8625 12.2461 44.9765C12.3019 45.0327 12.3576 45.0889 12.4151 45.1469C16.5912 49.3003 22.609 51.3777 28.4235 51.364C28.5696 51.3639 28.5696 51.3639 28.7187 51.3638C35.0264 51.3459 40.8334 48.8913 45.2875 44.4434C48.425 41.1565 50.2633 36.9312 51.0996 32.5078C51.1179 32.4142 51.1361 32.3206 51.1549 32.2241C51.9818 27.8111 51.4074 22.967 49.4371 18.9214C49.3832 18.8104 49.3832 18.8104 49.3281 18.6972C49.2276 18.4939 49.124 18.2923 49.0201 18.0908C48.8405 17.6148 48.8285 17.3155 48.8731 16.8105C49.157 16.4766 49.3327 16.3814 49.7637 16.3095C50.1968 16.3817 50.3385 16.5027 50.6543 16.8105C50.863 17.1402 51.0269 17.4863 51.1901 17.8403C51.238 17.9431 51.2859 18.0459 51.3352 18.1517C52.8213 21.4281 53.4869 24.8835 53.4723 28.4652C53.472 28.6201 53.472 28.6201 53.4717 28.7781C53.4668 30.268 53.4232 31.7154 53.1035 33.1758C53.0844 33.2688 53.0653 33.3619 53.0456 33.4577C52.1741 37.6613 50.3458 41.5022 47.5371 44.7539C47.4503 44.8552 47.3635 44.9565 47.274 45.0609C47.0329 45.3351 46.7864 45.6022 46.5352 45.8672C46.483 45.9223 46.4309 45.9775 46.3772 46.0344C45.493 46.9635 44.5579 47.7745 43.5293 48.539C43.4672 48.5862 43.4052 48.6334 43.3412 48.682C39.2356 51.7993 34.0635 53.4614 28.9314 53.4653C28.8423 53.4654 28.7532 53.4655 28.6614 53.4655C27.1742 53.4636 25.7344 53.3755 24.2696 53.1035C24.1684 53.0856 24.0672 53.0677 23.963 53.0492C19.3183 52.2076 14.8651 50.1868 11.4277 46.9217C11.2167 46.7248 11.0069 46.54 10.7841 46.3577C10.3665 46.0073 10.0359 45.6149 9.68557 45.1992C9.60306 45.1055 9.52054 45.0118 9.43552 44.9152C6.68344 41.7316 4.92097 37.7976 4.08438 33.6907C4.06798 33.6102 4.05159 33.5298 4.03469 33.4469C3.72676 31.8157 3.63169 30.1983 3.63907 28.5417C3.63943 28.3955 3.63943 28.3955 3.63979 28.2463C3.64582 26.7142 3.70565 25.2192 4.00784 23.7129C4.04013 23.5495 4.04013 23.5495 4.07307 23.3829C4.98946 18.902 6.92469 14.746 10.0891 11.4168C10.3559 11.1376 10.3559 11.1376 10.5871 10.8393C10.9103 10.4377 11.2977 10.1296 11.6895 9.79685C11.7915 9.70601 11.8935 9.61517 11.9987 9.52158C12.9791 8.65627 14.0354 7.93283 15.1407 7.23631C15.2067 7.19428 15.2728 7.15225 15.3409 7.10894C19.2747 4.63694 24.1932 3.50463 28.8062 3.52769Z" fill="black"/>
<path d="M32.3961 11.9122C32.4733 11.9307 32.5504 11.9492 32.6298 11.9683C36.3499 12.8887 36.3499 12.8887 37.1832 14.1387C37.2363 14.5451 37.2073 14.7586 37.0232 15.1268C36.6977 15.3967 36.4777 15.462 36.0552 15.4399C35.5501 15.3188 35.111 15.0713 34.655 14.83C33.0367 13.9789 31.2128 13.5578 29.3903 13.4708C29.2877 13.4649 29.1851 13.459 29.0793 13.4529C25.21 13.3378 21.2697 14.8325 18.4245 17.4438C18.2184 17.6391 18.0153 17.8369 17.8122 18.0352C17.6948 18.1422 17.6948 18.1422 17.5751 18.2513C15.0137 20.6472 13.6529 24.2468 13.4786 27.6986C13.3588 31.6114 14.5762 35.3288 17.1442 38.2969C17.2585 38.4334 17.2585 38.4334 17.3751 38.5726C19.8539 41.4475 23.5561 43.1334 27.302 43.478C31.2538 43.7667 35.0731 42.6095 38.0997 40.0283C41.2377 37.2727 43.1853 33.4157 43.5111 29.2446C43.6713 26.557 43.1522 23.5375 41.6364 21.2637C41.5767 20.9224 41.5766 20.6032 41.6364 20.2618C41.9197 19.9202 42.0916 19.8334 42.527 19.7608C42.9538 19.8319 43.1048 19.9628 43.4176 20.2618C43.5925 20.5325 43.7247 20.8167 43.856 21.1107C43.9129 21.2358 43.9129 21.2358 43.9709 21.3634C44.3754 22.2744 44.7085 23.1983 44.9762 24.1583C45.0116 24.2827 45.0116 24.2827 45.0476 24.4097C46.213 28.7221 45.3083 33.4604 43.1164 37.2762C42.4223 38.4396 41.5724 39.4403 40.6344 40.4122C40.5466 40.507 40.4588 40.6019 40.3683 40.6996C37.6478 43.5597 33.5264 45.3297 29.5986 45.4532C28.0176 45.4819 26.4817 45.44 24.9372 45.0879C24.8493 45.0683 24.7615 45.0486 24.671 45.0283C21.5805 44.3169 18.8945 42.9268 16.5875 40.7462C16.4973 40.6631 16.407 40.58 16.314 40.4944C13.374 37.6933 11.7017 33.4224 11.5778 29.3907C11.5733 29.2581 11.5689 29.1255 11.5643 28.9889C11.4854 24.2899 13.0905 19.8662 16.3492 16.4548C20.3297 12.39 26.8504 10.5429 32.3961 11.9122Z" fill="black"/>
<path d="M46.5349 4.8985C46.7982 5.10636 46.9424 5.26818 47.0916 5.56647C47.1246 5.86621 47.1521 6.1644 47.1755 6.46492C47.1828 6.55356 47.19 6.6422 47.1975 6.73353C47.2206 7.01709 47.2431 7.30068 47.2655 7.58429C47.2811 7.77636 47.2967 7.96843 47.3123 8.1605C47.3505 8.63172 47.3882 9.10299 47.4256 9.57428C47.5441 9.58265 47.6626 9.59102 47.7846 9.59964C48.2257 9.63117 48.6665 9.66461 49.1073 9.69863C49.2979 9.71306 49.4884 9.72698 49.6791 9.74037C49.9536 9.75975 50.2279 9.78099 50.5023 9.80259C50.5871 9.80817 50.6719 9.81375 50.7593 9.8195C51.2506 9.86031 51.5961 9.93987 51.99 10.2422C52.1715 10.6052 52.1534 10.841 52.1014 11.2442C51.5246 12.0953 50.6659 12.8072 49.9387 13.533C49.8056 13.6662 49.6724 13.7994 49.5393 13.9327C49.2621 14.2101 48.9846 14.4873 48.707 14.7644C48.3509 15.1199 47.9952 15.4759 47.6397 15.8321C47.3658 16.1064 47.0915 16.3806 46.8172 16.6546C46.6858 16.7859 46.5546 16.9172 46.4234 17.0487C46.2409 17.2314 46.0581 17.4139 45.8751 17.5962C45.7712 17.7 45.6672 17.8039 45.5601 17.9109C45.1713 18.2777 44.9528 18.2757 44.4267 18.2787C44.2811 18.2808 44.1356 18.2829 43.9856 18.285C43.5602 18.2777 43.1735 18.2125 42.7582 18.1216C41.8432 17.9451 40.9176 17.7848 40.0537 18.2126C39.2193 18.7954 38.5319 19.5353 37.8439 20.2795C37.5435 20.6008 37.2337 20.9126 36.9247 21.2257C36.3431 21.8178 35.7702 22.4176 35.2001 23.0208C34.5505 23.7074 33.8919 24.385 33.2323 25.0619C32.4283 25.887 31.6255 26.7132 30.8302 27.5467C30.7743 27.6053 30.7183 27.6639 30.6607 27.7243C30.3985 27.9989 30.1368 28.2739 29.8756 28.5495C29.7851 28.6446 29.6945 28.7396 29.6012 28.8376C29.483 28.9623 29.483 28.9623 29.3624 29.0894C29.0619 29.3827 28.9499 29.3903 28.5137 29.4255C28.1848 29.4189 28.0667 29.398 27.7762 29.2237C27.5876 28.9095 27.5255 28.6585 27.5456 28.2909C27.7716 27.4512 28.8411 26.7155 29.4513 26.1399C29.666 25.9359 29.8805 25.7319 30.095 25.5278C30.1788 25.4481 30.1788 25.4481 30.2644 25.3668C31.0489 24.6203 31.8246 23.8648 32.6009 23.1098C33.2317 22.4969 33.8652 21.8873 34.5056 21.2844C35.0672 20.7557 35.6227 20.2214 36.1719 19.6799C36.4618 19.3945 36.7538 19.1125 37.0533 18.8372C38.4925 17.5578 38.4925 17.5578 39.0561 15.7927C39.0319 15.1494 38.9366 14.5302 38.8044 13.9008C38.72 13.4701 38.6967 13.0531 38.6794 12.6149C38.6723 12.4974 38.6653 12.3799 38.658 12.2588C38.9053 11.2377 40.1704 10.3561 40.9046 9.62342C41.0378 9.49019 41.1709 9.35695 41.304 9.22369C41.5813 8.94627 41.8587 8.66906 42.1363 8.39199C42.4925 8.03648 42.8481 7.68047 43.2036 7.32432C43.4776 7.04993 43.7518 6.7758 44.0262 6.50176C44.1575 6.37049 44.2888 6.23915 44.4199 6.10772C44.6024 5.92494 44.7853 5.74252 44.9682 5.56019C45.0722 5.45632 45.1761 5.35246 45.2832 5.24545C45.6948 4.85722 45.9732 4.85008 46.5349 4.8985ZM45.199 8.01569C44.5946 8.56283 43.9974 9.11681 43.4078 9.67995C43.1337 9.9414 42.8578 10.2001 42.5763 10.4536C41.1907 11.6158 41.1907 11.6158 40.5133 13.2105C40.5141 13.7091 40.5855 14.1837 40.693 14.6697C40.7641 15.0036 40.7869 15.3362 40.8085 15.6765C40.8242 15.8319 40.8401 15.9873 40.8572 16.1426C41.2839 16.1804 41.7107 16.2172 42.1375 16.254C42.2575 16.2646 42.3774 16.2752 42.501 16.2861C42.6187 16.2962 42.7364 16.3062 42.8576 16.3166C43.0185 16.3306 43.0185 16.3306 43.1827 16.3449C43.297 16.3516 43.4113 16.3583 43.5291 16.3653C43.7367 16.3977 43.7367 16.3977 43.9485 16.4307C44.5265 16.4246 44.8271 16.0591 45.2165 15.6694C45.3118 15.5695 45.407 15.4697 45.5052 15.3668C45.6052 15.2655 45.7053 15.1642 45.8084 15.0598C46.0728 14.7912 46.3352 14.5208 46.5968 14.2494C46.8646 13.9724 47.135 13.698 47.4051 13.4234C47.9339 12.8848 48.46 12.3438 48.9842 11.8008C48.7089 11.5256 48.6042 11.5429 48.2236 11.5195C48.1163 11.5117 48.009 11.5038 47.8985 11.4958C47.6727 11.4812 47.4468 11.467 47.221 11.4532C46.1363 11.373 46.1363 11.373 45.7557 11.0215C45.6565 10.7758 45.6565 10.7758 45.6165 10.4858C45.601 10.3784 45.5855 10.2711 45.5695 10.1605C45.5159 9.62717 45.4834 9.09343 45.4599 8.55798C45.4534 8.22417 45.4534 8.22417 45.199 8.01569Z" fill="#28A745"/>
<path d="M31.7282 20.1503C32.0023 20.5615 32.0257 20.8977 31.9509 21.3749C31.7839 21.6532 31.7839 21.6532 31.5055 21.8202C30.943 21.8765 30.5201 21.8029 29.9735 21.6554C28.2354 21.2519 26.422 21.5931 24.8946 22.4856C23.2254 23.5521 22.1553 25.0562 21.643 26.963C21.3526 28.949 21.67 30.7921 22.7106 32.5077C23.0177 32.9103 23.3494 33.2688 23.7126 33.621C23.7753 33.6847 23.838 33.7484 23.9026 33.8141C25.1115 34.9553 26.8748 35.4101 28.4997 35.4579C30.489 35.3994 32.2132 34.7123 33.6208 33.287C33.6835 33.2267 33.7462 33.1665 33.8108 33.1044C35.187 31.6664 35.4567 29.7241 35.4355 27.8267C35.4177 27.3175 35.3151 26.8748 35.1794 26.3847C35.1182 25.9491 35.1132 25.6044 35.3464 25.2157C35.7397 24.9797 36.0679 24.9602 36.5153 25.0487C36.9885 25.3557 37.148 25.8598 37.2946 26.3847C37.7866 28.9961 37.3114 31.4702 35.8821 33.6901C35.6964 33.9405 35.501 34.1702 35.2907 34.4003C35.2016 34.4996 35.1125 34.5989 35.0206 34.7012C33.9637 35.8209 32.7344 36.5592 31.2829 37.0722C31.1883 37.1077 31.0937 37.1433 30.9963 37.18C28.8062 37.8706 26.2322 37.468 24.2264 36.4273C22.0845 35.2585 20.6997 33.5685 19.9196 31.2653C19.2048 28.7427 19.538 26.1643 20.7485 23.8589C21.0571 23.3255 21.4222 22.8466 21.82 22.3768C21.8755 22.3105 21.9311 22.2442 21.9883 22.1759C24.1068 19.86 28.8675 18.451 31.7282 20.1503Z" fill="black"/>
</svg>
