<svg width="96" height="95" viewBox="0 0 96 95" fill="none" xmlns="http://www.w3.org/2000/svg">
<g clip-path="url(#clip0_737_1291)">
<path d="M48.0004 48.8713C48.0004 48.1202 47.4135 47.5086 46.6922 47.5086H30.9948C27.0871 47.5086 28.0599 44.399 29.0996 43.3684C30.391 42.093 32.2023 40.2239 32.2023 37.9352C32.2023 34.2666 29.1835 32.3799 25.4603 32.3799C21.7373 32.3799 18.7184 34.2666 18.7184 37.9352C18.7184 40.2063 20.6639 42.2852 21.7707 43.3684C22.8106 44.399 23.7665 47.5086 19.8589 47.5086H3.70852C2.98738 47.5086 2.40039 48.1202 2.40039 48.8713V84.6142C2.40039 88.6322 5.51977 91.8816 9.37708 91.8816H46.6922C47.4135 91.8816 48.0004 91.2702 48.0004 90.5189" stroke="#121225" stroke-width="3" stroke-linecap="round" stroke-linejoin="round"/>
<path d="M6.94531 72.4546V84.6134C6.94531 86.0109 8.03542 87.1291 9.36033 87.1291H18.165" stroke="#28A745" stroke-width="3" stroke-linecap="round" stroke-linejoin="round"/>
<path d="M46.6922 47.5085C47.4135 47.5085 48.0004 46.8972 48.0004 46.1459V31.3492C48.0004 27.2787 50.9857 28.292 51.975 29.3576C53.1994 30.7028 54.9939 32.5894 57.1909 32.5894C60.7127 32.5894 62.524 29.4449 62.524 25.5667C62.524 21.6883 60.7127 18.5439 57.1909 18.5439C55.0106 18.5439 53.0149 20.5703 51.975 21.7234C50.9857 22.8066 48.0004 23.8023 48.0004 19.7318V4.4808C48.0004 3.72961 47.4135 3.11816 46.6922 3.11816H9.37708C5.51977 3.11816 2.40039 6.36754 2.40039 10.3856V46.1285C2.40039 46.8796 2.98738 47.4911 3.70852 47.4911" stroke="#121225" stroke-width="3" stroke-linecap="round" stroke-linejoin="round"/>
<path d="M18.1807 7.88672H9.37595C8.03429 7.88672 6.96094 9.02225 6.96094 10.4024V22.7009" stroke="#28A745" stroke-width="3" stroke-linecap="round" stroke-linejoin="round"/>
<path d="M48 4.49787C48 3.74668 48.5869 3.13525 49.3081 3.13525H86.6234C90.4806 3.13525 93.6 6.38461 93.6 10.4026V46.1455C93.6 46.8968 93.0131 47.5082 92.2919 47.5082" stroke="#121225" stroke-width="3" stroke-linecap="round" stroke-linejoin="round"/>
<path d="M89.0565 22.7181V10.4194C89.0565 9.02186 87.9663 7.90381 86.6414 7.90381H77.6523" stroke="#28A745" stroke-width="3" stroke-linecap="round" stroke-linejoin="round"/>
<path d="M92.3072 47.5073H76.6096C72.7021 47.5073 73.6747 50.617 74.6978 51.6475C75.9891 52.9229 77.8004 54.7922 77.8004 57.0807C77.8004 60.7493 74.7816 62.6361 71.0586 62.6361C67.3354 62.6361 64.3166 60.7493 64.3166 57.0807C64.3166 54.8097 66.262 52.7307 67.369 51.6475C68.4087 50.617 69.3646 47.5073 65.457 47.5073H49.3066C48.5856 47.5073 47.9985 48.1187 47.9985 48.87V63.0727C47.9985 67.0209 45.0972 66.0426 44.158 65.0119C42.9673 63.7017 41.24 61.8848 39.0932 61.8848C35.672 61.8848 33.2402 64.9246 33.2402 68.6804C33.2402 72.4365 35.672 75.4763 39.0932 75.4763C41.2064 75.4763 43.1351 73.5021 44.158 72.4015C45.1139 71.3533 47.9985 70.375 47.9985 74.3232V90.5002C47.9985 91.2513 48.5856 91.8628 49.3066 91.8628H86.6219C90.4793 91.8628 93.5985 88.6134 93.5985 84.5953V48.87C93.5985 48.1187 93.0116 47.5073 92.2903 47.5073H92.3072Z" stroke="#121225" stroke-width="3" stroke-linecap="round" stroke-linejoin="round"/>
<path d="M89.0565 72.4546V84.6134C89.0565 86.0109 87.9663 87.1291 86.6414 87.1291H77.6523" stroke="#28A745" stroke-width="3" stroke-linecap="round" stroke-linejoin="round"/>
</g>
<defs>
<clipPath id="clip0_737_1291">
<rect width="95" height="95" fill="white" transform="translate(0.5)"/>
</clipPath>
</defs>
</svg>
