<?xml version="1.0" encoding="utf-8"?>
<svg xmlns="http://www.w3.org/2000/svg" width="59" height="44" viewBox="0 0 59 44" fill="none">
  <g id="Group">
    <g id="Group_2">
      <path id="Vector" d="M5.51599 0.873978H18.662C19.012 0.873978 19.292 1.16097 19.292 1.50397V11.836C19.292 12.186 19.005 12.466 18.662 12.466H5.51599C5.16599 12.466 4.88599 12.179 4.88599 11.836V1.50397C4.88599 1.15397 5.17299 0.873978 5.51599 0.873978Z" stroke="#121225" stroke-width="1.5" stroke-linecap="round" stroke-linejoin="round"/>
      <path id="Vector_2" d="M13.7409 0.873978V5.03897C13.7409 5.30497 13.5239 5.51498 13.2649 5.51498H10.9059C10.6399 5.51498 10.4299 5.29797 10.4299 5.03897V0.873978" stroke="#121225" stroke-width="1.5" stroke-linecap="round" stroke-linejoin="round"/>
      <path id="Vector_3" d="M16.275 9.51187H19.292" stroke="#121225" stroke-width="1.5" stroke-linecap="round" stroke-linejoin="round"/>
      <path id="Vector_4" d="M4.87903 9.51187H12.978" stroke="#121225" stroke-width="1.5" stroke-linecap="round" stroke-linejoin="round"/>
      <path id="Vector_5" d="M35.9729 0.873978H22.8199C22.472 0.873978 22.1899 1.15603 22.1899 1.50397V11.843C22.1899 12.1909 22.472 12.473 22.8199 12.473H35.9729C36.3209 12.473 36.6029 12.1909 36.6029 11.843V1.50397C36.6029 1.15603 36.3209 0.873978 35.9729 0.873978Z" stroke="#121225" stroke-width="1.5" stroke-linecap="round" stroke-linejoin="round"/>
      <path id="Vector_6" d="M31.0589 0.873978V5.03897C31.0589 5.30497 30.8419 5.51498 30.5829 5.51498H28.2239C27.9579 5.51498 27.7479 5.29797 27.7479 5.03897V0.873978" stroke="#121225" stroke-width="1.5" stroke-linecap="round" stroke-linejoin="round"/>
      <path id="Vector_7" d="M33.5861 9.51187H36.6101" stroke="#121225" stroke-width="1.5" stroke-linecap="round" stroke-linejoin="round"/>
      <path id="Vector_8" d="M22.1899 9.51187H30.2889" stroke="#121225" stroke-width="1.5" stroke-linecap="round" stroke-linejoin="round"/>
      <path id="Vector_9" d="M40.1379 0.873978H53.2839C53.6339 0.873978 53.9139 1.16097 53.9139 1.50397V11.836C53.9139 12.186 53.6269 12.466 53.2839 12.466H40.1379C39.7879 12.466 39.5079 12.179 39.5079 11.836V1.50397C39.5079 1.15397 39.7949 0.873978 40.1379 0.873978Z" stroke="#121225" stroke-width="1.5" stroke-linecap="round" stroke-linejoin="round"/>
      <path id="Vector_10" d="M48.3701 0.873978V5.03897C48.3701 5.30497 48.1531 5.51498 47.8941 5.51498H45.5351C45.2691 5.51498 45.0591 5.29797 45.0591 5.03897V0.873978" stroke="#121225" stroke-width="1.5" stroke-linecap="round" stroke-linejoin="round"/>
      <path id="Vector_11" d="M50.9041 9.51187H53.9211" stroke="#121225" stroke-width="1.5" stroke-linecap="round" stroke-linejoin="round"/>
      <path id="Vector_12" d="M39.5079 9.51187H47.6069" stroke="#121225" stroke-width="1.5" stroke-linecap="round" stroke-linejoin="round"/>
      <path id="Vector_13" d="M1.40002 12.4725H57.4" stroke-width="1.5" stroke-linecap="round" stroke-linejoin="round" style="stroke: rgb(40, 167, 69);"/>
      <path id="Vector_14" d="M5.51599 16.2036H18.662C19.012 16.2036 19.292 16.4906 19.292 16.8336V27.1656C19.292 27.5156 19.005 27.7956 18.662 27.7956H5.51599C5.16599 27.7956 4.88599 27.5086 4.88599 27.1656V16.8336C4.88599 16.4836 5.17299 16.2036 5.51599 16.2036Z" stroke="#121225" stroke-width="1.5" stroke-linecap="round" stroke-linejoin="round"/>
      <path id="Vector_15" d="M13.7409 16.2036V20.3686C13.7409 20.6346 13.5239 20.8446 13.2649 20.8446H10.9059C10.6399 20.8446 10.4299 20.6276 10.4299 20.3686V16.2036" stroke="#121225" stroke-width="1.5" stroke-linecap="round" stroke-linejoin="round"/>
      <path id="Vector_16" d="M16.275 24.8415H19.292" stroke="#121225" stroke-width="1.5" stroke-linecap="round" stroke-linejoin="round"/>
      <path id="Vector_17" d="M4.87903 24.8415H12.978" stroke="#121225" stroke-width="1.5" stroke-linecap="round" stroke-linejoin="round"/>
      <path id="Vector_18" d="M35.9729 16.2036H22.8199C22.472 16.2036 22.1899 16.4856 22.1899 16.8336V27.1726C22.1899 27.5205 22.472 27.8026 22.8199 27.8026H35.9729C36.3209 27.8026 36.6029 27.5205 36.6029 27.1726V16.8336C36.6029 16.4856 36.3209 16.2036 35.9729 16.2036Z" stroke="#121225" stroke-width="1.5" stroke-linecap="round" stroke-linejoin="round"/>
      <path id="Vector_19" d="M31.0589 16.2036V20.3686C31.0589 20.6346 30.8419 20.8446 30.5829 20.8446H28.2239C27.9579 20.8446 27.7479 20.6276 27.7479 20.3686V16.2036" stroke="#121225" stroke-width="1.5" stroke-linecap="round" stroke-linejoin="round"/>
      <path id="Vector_20" d="M33.5861 24.8415H36.6101" stroke="#121225" stroke-width="1.5" stroke-linecap="round" stroke-linejoin="round"/>
      <path id="Vector_21" d="M22.1899 24.8415H30.2889" stroke="#121225" stroke-width="1.5" stroke-linecap="round" stroke-linejoin="round"/>
      <path id="Vector_22" d="M40.1379 16.2036H53.2839C53.6339 16.2036 53.9139 16.4906 53.9139 16.8336V27.1656C53.9139 27.5156 53.6269 27.7956 53.2839 27.7956H40.1379C39.7879 27.7956 39.5079 27.5086 39.5079 27.1656V16.8336C39.5079 16.4836 39.7949 16.2036 40.1379 16.2036Z" stroke="#121225" stroke-width="1.5" stroke-linecap="round" stroke-linejoin="round"/>
      <path id="Vector_23" d="M48.3701 16.2036V20.3686C48.3701 20.6346 48.1531 20.8446 47.8941 20.8446H45.5351C45.2691 20.8446 45.0591 20.6276 45.0591 20.3686V16.2036" stroke="#121225" stroke-width="1.5" stroke-linecap="round" stroke-linejoin="round"/>
      <path id="Vector_24" d="M50.9041 24.8415H53.9211" stroke="#121225" stroke-width="1.5" stroke-linecap="round" stroke-linejoin="round"/>
      <path id="Vector_25" d="M39.5079 24.8415H47.6069" stroke="#121225" stroke-width="1.5" stroke-linecap="round" stroke-linejoin="round"/>
      <path id="Vector_26" d="M1.40002 27.7959H57.4" stroke-width="1.5" stroke-linecap="round" stroke-linejoin="round" style="stroke: rgb(40, 167, 69);"/>
      <path id="Vector_27" d="M5.51599 31.527H18.662C19.012 31.527 19.292 31.814 19.292 32.157V42.489C19.292 42.839 19.005 43.119 18.662 43.119H5.51599C5.16599 43.119 4.88599 42.832 4.88599 42.489V32.157C4.88599 31.807 5.17299 31.527 5.51599 31.527Z" stroke="#121225" stroke-width="1.5" stroke-linecap="round" stroke-linejoin="round"/>
      <path id="Vector_28" d="M13.7409 31.527V35.692C13.7409 35.958 13.5239 36.168 13.2649 36.168H10.9059C10.6399 36.168 10.4299 35.951 10.4299 35.692V31.527" stroke="#121225" stroke-width="1.5" stroke-linecap="round" stroke-linejoin="round"/>
      <path id="Vector_29" d="M16.275 40.1649H19.292" stroke="#121225" stroke-width="1.5" stroke-linecap="round" stroke-linejoin="round"/>
      <path id="Vector_30" d="M4.87903 40.1649H12.978" stroke="#121225" stroke-width="1.5" stroke-linecap="round" stroke-linejoin="round"/>
      <path id="Vector_31" d="M35.9729 31.527H22.8199C22.472 31.527 22.1899 31.8091 22.1899 32.157V42.496C22.1899 42.844 22.472 43.126 22.8199 43.126H35.9729C36.3209 43.126 36.6029 42.844 36.6029 42.496V32.157C36.6029 31.8091 36.3209 31.527 35.9729 31.527Z" stroke="#121225" stroke-width="1.5" stroke-linecap="round" stroke-linejoin="round"/>
      <path id="Vector_32" d="M31.0589 31.527V35.692C31.0589 35.958 30.8419 36.168 30.5829 36.168H28.2239C27.9579 36.168 27.7479 35.951 27.7479 35.692V31.527" stroke="#121225" stroke-width="1.5" stroke-linecap="round" stroke-linejoin="round"/>
      <path id="Vector_33" d="M33.5861 40.1649H36.6101" stroke="#121225" stroke-width="1.5" stroke-linecap="round" stroke-linejoin="round"/>
      <path id="Vector_34" d="M22.1899 40.1649H30.2889" stroke="#121225" stroke-width="1.5" stroke-linecap="round" stroke-linejoin="round"/>
      <path id="Vector_35" d="M40.1379 31.527H53.2839C53.6339 31.527 53.9139 31.814 53.9139 32.157V42.489C53.9139 42.839 53.6269 43.119 53.2839 43.119H40.1379C39.7879 43.119 39.5079 42.832 39.5079 42.489V32.157C39.5079 31.807 39.7949 31.527 40.1379 31.527Z" stroke="#121225" stroke-width="1.5" stroke-linecap="round" stroke-linejoin="round"/>
      <path id="Vector_36" d="M48.3701 31.527V35.692C48.3701 35.958 48.1531 36.168 47.8941 36.168H45.5351C45.2691 36.168 45.0591 35.951 45.0591 35.692V31.527" stroke="#121225" stroke-width="1.5" stroke-linecap="round" stroke-linejoin="round"/>
      <path id="Vector_37" d="M50.9041 40.1649H53.9211" stroke="#121225" stroke-width="1.5" stroke-linecap="round" stroke-linejoin="round"/>
      <path id="Vector_38" d="M39.5079 40.1649H47.6069" stroke="#121225" stroke-width="1.5" stroke-linecap="round" stroke-linejoin="round"/>
      <path id="Vector_39" d="M1.40002 43.1255H57.4" stroke-width="1.5" stroke-linecap="round" stroke-linejoin="round" style="stroke: rgb(40, 167, 69);"/>
      <path id="Vector_40" d="M1.40002 43.1255V9.81949" stroke-width="1.5" stroke-linecap="round" stroke-linejoin="round" style="stroke: rgb(40, 167, 69);"/>
      <path id="Vector_41" d="M57.4 43.1255V9.81949" stroke-width="1.5" stroke-linecap="round" stroke-linejoin="round" style="stroke: rgb(40, 167, 69);"/>
    </g>
  </g>
</svg>