<svg width="80" height="80" viewBox="0 0 80 80" fill="none" xmlns="http://www.w3.org/2000/svg">
<path d="M40.6245 4.9999C41.2117 5.38338 41.6018 5.82448 42.0503 6.35733C44.3613 9.04754 47.7366 10.9383 51.1995 11.5705C52.1461 11.76 52.8028 12.0664 53.437 12.8124C53.7701 13.3472 53.7906 13.7792 53.7949 14.4035C53.7969 14.5992 53.7989 14.7949 53.801 14.9966C53.8014 15.2103 53.8018 15.424 53.802 15.6377C53.803 15.8589 53.8041 16.0801 53.8052 16.3013C53.807 16.7659 53.8076 17.2304 53.8074 17.695C53.8074 18.2837 53.8116 18.8723 53.8171 19.4609C53.8206 19.9187 53.8212 20.3766 53.821 20.8344C53.8214 21.051 53.8227 21.2675 53.8252 21.4841C53.8397 22.9019 53.6651 24.1171 53.2587 25.4643C53.1032 25.9306 53.1032 25.9306 53.1245 26.4062C53.3202 26.4482 53.5158 26.4902 53.7173 26.5335C55.5615 26.9298 57.4053 27.3275 59.2488 27.7264C60.1966 27.9315 61.1445 28.1361 62.0926 28.3396C63.0077 28.5361 63.9225 28.7338 64.8371 28.9323C65.186 29.0078 65.535 29.0829 65.884 29.1575C66.3732 29.2621 66.862 29.3683 67.3507 29.4749C67.4949 29.5053 67.6391 29.5358 67.7876 29.5672C69.5765 29.9617 69.5765 29.9617 70.1801 30.7552C70.2862 30.9347 70.3896 31.1158 70.4909 31.2981C70.5483 31.3966 70.6057 31.4951 70.6648 31.5966C70.8522 31.9192 71.0362 32.2437 71.2202 32.5683C71.4164 32.908 71.6135 33.2473 71.8105 33.5865C71.9449 33.8181 72.079 34.0498 72.2128 34.2818C72.6533 35.0444 73.1036 35.8001 73.564 36.5508C73.6536 36.6971 73.6536 36.6971 73.7451 36.8463C74.0265 37.3049 74.3089 37.7628 74.592 38.2204C76.742 41.7287 76.742 41.7287 76.3307 43.6278C76.0073 44.6472 75.4132 45.4036 74.4723 45.907C73.6279 46.3223 72.7522 46.6549 71.8745 46.9921C71.7088 47.0563 71.543 47.1206 71.3722 47.1868C70.9669 47.3438 70.5615 47.5002 70.1558 47.6562C70.1552 47.8315 70.1546 48.0069 70.1541 48.1875C70.1483 49.8427 70.1392 51.4979 70.127 53.1531C70.1209 54.004 70.1158 54.8548 70.1134 55.7057C70.1111 56.5274 70.1057 57.349 70.0982 58.1706C70.0959 58.4836 70.0947 58.7965 70.0945 59.1095C70.0942 59.549 70.0899 59.9883 70.0848 60.4278C70.0856 60.5562 70.0864 60.6847 70.0872 60.817C70.0686 61.8573 69.7605 62.6534 69.1001 63.4601C68.2727 64.1721 67.4311 64.5743 66.4155 64.9608C66.1477 65.0665 66.1477 65.0665 65.8745 65.1742C65.3429 65.3835 64.8101 65.5891 64.2769 65.7943C63.7355 66.0031 63.1948 66.2136 62.6541 66.424C61.3752 66.9217 60.0957 67.4177 58.8156 67.9124C56.6198 68.7612 54.4271 69.618 52.2359 70.4784C51.9064 70.6078 51.5769 70.7371 51.2474 70.8665C50.755 71.0598 50.2627 71.2531 49.7703 71.4464C48.0803 72.11 46.3899 72.7727 44.6992 73.4346C44.3808 73.5593 44.0625 73.684 43.7441 73.8088C43.3065 73.9803 42.8688 74.1517 42.4312 74.323C42.237 74.3992 42.237 74.3992 42.0388 74.4769C41.8611 74.5464 41.8611 74.5464 41.6798 74.6173C41.5772 74.6575 41.4746 74.6977 41.3689 74.7391C40.2388 75.1677 39.3259 75.0557 38.2271 74.6081C38.1176 74.5655 38.008 74.5229 37.8952 74.479C37.5281 74.3356 37.1623 74.1892 36.7964 74.0429C36.5306 73.9384 36.2647 73.8341 35.9987 73.73C35.4125 73.5 34.8269 73.2688 34.2416 73.0366C33.2239 72.6331 32.2047 72.2334 31.1854 71.834C29.6972 71.2506 28.2094 70.666 26.7219 70.0805C24.8696 69.3514 23.0162 68.6251 21.1621 67.9004C20.7182 67.7268 20.2743 67.553 19.8304 67.3791C18.6088 66.9006 17.3871 66.4225 16.1635 65.9491C15.6792 65.7615 15.1951 65.5731 14.7111 65.3845C14.4906 65.2989 14.27 65.2136 14.0491 65.1288C13.7503 65.014 13.452 64.8979 13.1538 64.7814C12.9885 64.7175 12.8231 64.6535 12.6527 64.5877C11.9133 64.2498 11.2668 63.8374 10.7417 63.2128C10.6668 63.126 10.5919 63.0392 10.5147 62.9497C9.96548 62.1541 9.95214 61.4148 9.94971 60.481C9.94814 60.3422 9.94657 60.2034 9.94496 60.0604C9.94014 59.603 9.93748 59.1456 9.93484 58.6883C9.93191 58.3706 9.92885 58.0529 9.92567 57.7352C9.91765 56.9002 9.91146 56.0651 9.90564 55.23C9.89939 54.3774 9.8914 53.5249 9.88357 52.6723C9.86845 51.0003 9.85526 49.3282 9.84328 47.6562C9.71648 47.609 9.58968 47.5618 9.45903 47.5133C8.98336 47.3351 8.50853 47.1549 8.03416 46.9733C7.82975 46.8956 7.62503 46.8186 7.42 46.7425C5.77171 46.1296 4.54114 45.5503 3.74953 43.9062C3.38478 42.687 3.48533 41.6662 4.06875 40.5358C4.11766 40.4409 4.16658 40.346 4.21698 40.2482C4.73689 39.2539 5.31689 38.2972 5.90774 37.3437C6.14129 36.9649 6.37432 36.5858 6.6072 36.2066C6.66692 36.1095 6.72664 36.0124 6.78817 35.9124C7.2386 35.1777 7.67542 34.4357 8.10866 33.6907C8.29702 33.3689 8.48556 33.0473 8.67413 32.7256C8.79518 32.518 8.91538 32.3099 9.03471 32.1012C9.20175 31.8094 9.37173 31.5195 9.54238 31.2298C9.63839 31.0637 9.7344 30.8976 9.83333 30.7265C10.5265 29.8364 11.5995 29.6964 12.6484 29.4749C12.8024 29.4413 12.9565 29.4077 13.1152 29.3731C13.6222 29.2628 14.1296 29.1544 14.637 29.0459C14.9895 28.9696 15.342 28.8932 15.6944 28.8167C16.6205 28.616 17.5468 28.4168 18.4732 28.218C19.4192 28.0146 20.3649 27.8098 21.3106 27.6052C23.1649 27.2041 25.0196 26.8046 26.8745 26.4062C26.8262 26.1852 26.7777 25.9643 26.7291 25.7434C26.7021 25.6204 26.6751 25.4973 26.6472 25.3706C26.5688 25.0293 26.4809 24.6922 26.3895 24.3543C26.1655 23.3385 26.1981 22.3028 26.197 21.2676C26.196 21.0442 26.195 20.8207 26.1939 20.5973C26.192 20.1314 26.1914 19.6657 26.1916 19.1998C26.1917 18.6046 26.1874 18.0094 26.182 17.4142C26.1785 16.9537 26.1779 16.4933 26.1781 16.0328C26.1777 15.8134 26.1763 15.5939 26.1739 15.3744C26.1708 15.0676 26.1721 14.7607 26.1736 14.4538C26.1732 14.2797 26.1727 14.1056 26.1723 13.9263C26.2916 13.1713 26.6906 12.6915 27.2102 12.1502C27.8318 11.7662 28.4486 11.6701 29.1597 11.5331C32.8522 10.7268 36.3057 8.52461 38.7038 5.58462C39.2546 4.92584 39.7926 4.86568 40.6245 4.9999ZM39.5534 8.56253C39.4331 8.69204 39.3129 8.82155 39.189 8.95498C36.3509 11.8421 32.6928 13.5999 28.7495 14.3749C28.7417 15.3556 28.7361 16.3363 28.7324 17.317C28.7308 17.6496 28.7287 17.9822 28.726 18.3148C28.6912 22.6584 29.2605 26.1296 32.187 29.5312C32.2982 29.6615 32.4094 29.7918 32.5239 29.9261C34.1227 31.7528 35.9744 33.1652 37.9683 34.5312C38.0657 34.5979 38.1632 34.6647 38.2635 34.7336C39.1996 35.4371 39.1996 35.4371 40.2943 35.5376C40.8604 35.2755 41.3714 34.9612 41.8843 34.6093C41.9866 34.5397 42.0889 34.4702 42.1944 34.3986C46.1393 31.6917 50.1255 28.2052 51.0933 23.2812C51.2386 22.1286 51.2711 20.9826 51.2648 19.8223C51.2646 19.6652 51.2643 19.5081 51.2641 19.3462C51.2633 18.8512 51.2613 18.3562 51.2593 17.8612C51.2585 17.5228 51.2578 17.1844 51.2572 16.8459C51.2555 16.0222 51.2528 15.1986 51.2495 14.3749C51.0698 14.3339 50.8901 14.2928 50.7049 14.2505C50.4653 14.1952 50.2257 14.1398 49.9861 14.0844C49.8681 14.0575 49.7501 14.0306 49.6285 14.003C46.0506 13.1718 42.8728 11.142 40.367 8.47586C40.0119 8.14853 39.8863 8.23941 39.5534 8.56253ZM26.8611 29.1307C26.749 29.1546 26.6369 29.1785 26.5214 29.2031C26.1507 29.2822 25.7802 29.3621 25.4097 29.442C25.1522 29.4974 24.8948 29.5527 24.6374 29.6079C24.0977 29.724 23.5581 29.8404 23.0186 29.9571C22.3269 30.1066 21.6348 30.2548 20.9427 30.4026C20.4109 30.5164 19.8794 30.6311 19.3479 30.746C19.0928 30.8011 18.8376 30.8558 18.5823 30.9101C18.2257 30.9862 17.8693 31.0635 17.513 31.1412C17.4073 31.1634 17.3016 31.1857 17.1927 31.2086C16.6892 31.3197 16.3731 31.428 15.937 31.7187C19.2717 33.0242 22.6063 34.3296 25.9426 35.631C28.2493 36.5307 30.5557 37.431 32.8616 38.3326C33.167 38.4519 33.4723 38.5713 33.7777 38.6905C34.0663 38.8033 34.3549 38.9162 34.6435 39.0291C34.9229 39.1383 35.2026 39.247 35.4825 39.3551C36.1874 39.6287 36.8838 39.9137 37.5748 40.2209C37.7839 40.3114 37.7839 40.3114 37.9972 40.4037C38.2602 40.5181 38.5216 40.636 38.7811 40.758C39.4329 41.0377 39.8545 41.1502 40.5406 40.9279C40.7783 40.8303 41.0146 40.7292 41.2495 40.6249C41.4945 40.5319 41.7398 40.4399 41.9855 40.3488C42.251 40.246 42.5163 40.143 42.7815 40.0396C42.9277 39.9829 43.0739 39.9262 43.2245 39.8678C43.7056 39.681 44.1866 39.4938 44.6675 39.3065C45.0088 39.1739 45.3502 39.0413 45.6916 38.9086C48.9248 37.6517 52.154 36.3847 55.3829 35.1166C57.2434 34.386 59.1049 33.6578 60.9663 32.9296C61.2815 32.8063 61.5967 32.683 61.9119 32.5597C62.6286 32.2793 63.3453 31.999 64.062 31.7187C63.5457 31.3744 63.0833 31.2656 62.4886 31.1387C62.3767 31.114 62.2649 31.0893 62.1497 31.0639C61.7801 30.9827 61.4101 30.9029 61.0402 30.8233C60.7831 30.7673 60.526 30.7114 60.269 30.6553C59.7302 30.5382 59.1913 30.4218 58.6522 30.3059C57.9613 30.1572 57.2708 30.0064 56.5805 29.855C56.0498 29.7389 55.5188 29.6241 54.9877 29.5096C54.733 29.4545 54.4784 29.399 54.2239 29.3431C53.8681 29.265 53.512 29.1888 53.1557 29.1129C53.0506 29.0895 52.9454 29.0661 52.8371 29.0419C52.3189 28.9336 51.902 28.8485 51.4058 29.0624C51.1052 29.4042 51.1052 29.4042 50.8296 29.8339C50.1974 30.7378 49.5083 31.5442 48.7495 32.3437C48.5516 32.5539 48.5516 32.5539 48.3498 32.7685C46.4188 34.7639 42.8744 38.0261 40.0215 38.3495C39.2693 38.3183 38.7141 38.0129 38.0757 37.6366C37.9555 37.5676 37.8354 37.4986 37.7116 37.4275C35.5268 36.14 33.5308 34.5818 31.7183 32.8124C31.5862 32.6899 31.454 32.5675 31.3179 32.4413C30.4239 31.592 29.7021 30.6761 29.0098 29.6601C28.8296 29.401 28.6344 29.1524 28.437 28.9062C27.8905 28.9062 27.3921 29.0157 26.8611 29.1307ZM11.7183 32.9687C11.4891 33.284 11.2972 33.5876 11.1055 33.9251C11.0465 34.0256 10.9876 34.126 10.9269 34.2296C10.7333 34.5603 10.5422 34.8924 10.3511 35.2245C10.1516 35.5675 9.95151 35.9101 9.75146 36.2528C9.61601 36.4849 9.48079 36.7172 9.34578 36.9496C8.91838 37.6843 8.48261 38.4131 8.03786 39.1375C7.98321 39.2268 7.92856 39.3162 7.87225 39.4083C7.61707 39.8254 7.36076 40.2418 7.10235 40.6569C7.01226 40.8047 6.92218 40.9524 6.82937 41.1046C6.75089 41.2316 6.67241 41.3585 6.59156 41.4892C6.36827 41.9528 6.26338 42.296 6.24953 42.8124C6.70113 43.7468 7.68543 43.98 8.59695 44.323C8.7707 44.3906 8.94444 44.4581 9.12346 44.5277C9.59614 44.7109 10.0696 44.8921 10.5434 45.0724C11.0415 45.2626 11.5387 45.4555 12.0359 45.6483C12.8458 45.9619 13.6562 46.2741 14.467 46.5855C15.9416 47.1521 17.4121 47.729 18.8825 48.3064C19.4598 48.5329 20.0375 48.7586 20.6151 48.9842C21.843 49.4639 23.0703 49.945 24.2968 50.4283C24.9577 50.6886 25.6187 50.9485 26.2798 51.2084C26.5939 51.3321 26.9079 51.4559 27.2219 51.58C27.6568 51.7519 28.0921 51.923 28.5274 52.094C28.6537 52.1442 28.78 52.1943 28.9101 52.246C30.4351 52.9494 30.4351 52.9494 32.01 52.9803C32.4141 52.5873 32.704 52.1715 32.9878 51.6894C33.0823 51.5339 33.0823 51.5339 33.1787 51.3752C33.4235 50.9703 33.6647 50.5633 33.9058 50.1562C34.0205 49.963 34.1353 49.7699 34.2501 49.5768C35.0276 48.2687 35.0276 48.2687 35.8019 46.9587C35.9256 46.7491 36.0494 46.5395 36.1732 46.3299C36.2329 46.2289 36.2925 46.1279 36.3539 46.0238C36.8099 45.2555 37.2877 44.5032 37.7802 43.7577C37.9947 43.4544 37.9947 43.4544 37.9683 43.1249C35.3955 42.0536 32.8041 41.0337 30.2046 40.0292C27.3204 38.9146 24.4397 37.7915 21.562 36.6601C21.1903 36.514 20.8185 36.3679 20.4467 36.2219C18.8502 35.5944 17.2543 34.9654 15.6605 34.331C15.3 34.1877 14.9395 34.0446 14.579 33.9014C14.2578 33.7735 13.937 33.6447 13.6162 33.5159C13.4304 33.4421 13.2446 33.3682 13.0531 33.2921C12.8163 33.1973 12.8163 33.1973 12.5747 33.1006C12.1813 32.9435 12.1813 32.9435 11.7183 32.9687ZM67.0696 33.2396C66.9174 33.2994 66.7652 33.3593 66.6083 33.4209C66.4422 33.4872 66.2761 33.5535 66.1049 33.6217C65.9309 33.6904 65.7569 33.759 65.5777 33.8297C65.1029 34.0172 64.6284 34.2053 64.1539 34.3938C63.6556 34.5915 63.157 34.7883 62.6583 34.9851C62.0485 35.2258 61.4387 35.4666 60.8291 35.7078C59.1557 36.3698 57.4804 37.0271 55.8042 37.682C55.3701 37.8517 54.9361 38.0214 54.5021 38.1912C53.1409 38.7238 51.7796 39.2558 50.418 39.7871C49.7676 40.041 49.1172 40.295 48.4669 40.5491C48.1604 40.6688 47.8538 40.7884 47.5472 40.9079C45.7002 41.6277 43.8607 42.3625 42.0308 43.1249C42.2681 43.7763 42.5908 44.3575 42.9463 44.9499C43.0059 45.0501 43.0655 45.1504 43.1269 45.2537C43.3208 45.5796 43.5156 45.905 43.7105 46.2304C43.8446 46.455 43.9786 46.6797 44.1127 46.9043C44.4484 47.4663 44.7849 48.0278 45.1218 48.5891C45.3009 48.8875 45.4797 49.1861 45.6584 49.4847C45.9587 49.9858 46.2601 50.4862 46.562 50.9862C46.6508 51.1341 46.7396 51.2821 46.831 51.4345C46.9131 51.5695 46.9951 51.7046 47.0796 51.8438C47.1499 51.9601 47.2202 52.0763 47.2926 52.1961C47.5884 52.6303 47.8067 52.8996 48.2963 53.1088C49.0028 53.1339 49.5721 52.8626 50.2205 52.6006C50.3675 52.543 50.5146 52.4855 50.6661 52.4261C51.1543 52.2345 51.6413 52.04 52.1284 51.8456C52.4726 51.7099 52.8168 51.5745 53.161 51.4392C53.8815 51.1557 54.6015 50.8711 55.3211 50.5857C56.3573 50.1749 57.3948 49.7676 58.4328 49.3615C58.7649 49.2315 59.097 49.1015 59.4291 48.9716C59.6744 48.8756 59.6744 48.8756 59.9247 48.7777C60.7494 48.4547 61.5738 48.1308 62.3982 47.8069C63.7382 47.2806 65.0785 46.7553 66.4192 46.231C66.5844 46.1664 66.7496 46.1017 66.9198 46.0352C67.5561 45.7863 68.1924 45.5376 68.8287 45.2889C69.2583 45.121 69.6878 44.953 70.1173 44.7851C70.3031 44.7125 70.3031 44.7125 70.4926 44.6385C70.7284 44.5463 70.9641 44.4537 71.1997 44.3608C71.4607 44.2584 71.7223 44.1575 71.9843 44.0576C72.1239 44.0036 72.2635 43.9496 72.4073 43.8939C72.5344 43.8454 72.6616 43.7968 72.7925 43.7467C73.2769 43.5234 73.5118 43.2879 73.7495 42.8124C73.6925 42.0776 73.4646 41.5744 73.0903 40.9459C73.0388 40.8585 72.9872 40.771 72.9341 40.6808C72.7647 40.3943 72.5931 40.1092 72.4214 39.8241C72.3026 39.6249 72.1838 39.4255 72.0652 39.2262C71.8173 38.8104 71.5685 38.3953 71.319 37.9805C71.0005 37.4506 70.6855 36.9188 70.3716 36.3862C70.131 35.9786 69.8889 35.572 69.6464 35.1657C69.5304 34.9707 69.4149 34.7755 69.2999 34.5799C69.1397 34.3078 68.977 34.037 68.8142 33.7664C68.7223 33.6119 68.6304 33.4575 68.5357 33.2984C68.4516 33.1896 68.3674 33.0808 68.2808 32.9687C67.7869 32.9687 67.5248 33.0592 67.0696 33.2396ZM38.5933 47.3437C38.3811 47.6796 38.178 48.0173 37.978 48.3605C37.9157 48.4663 37.8534 48.5721 37.7891 48.6811C37.5879 49.0227 37.3874 49.3648 37.187 49.7069C36.4265 51.0045 35.6646 52.3005 34.8585 53.5705C34.7486 53.7438 34.6386 53.9171 34.5253 54.0957C33.9414 54.9238 33.2289 55.3979 32.2252 55.5834C30.737 55.7597 29.4088 55.178 28.0562 54.6386C27.8289 54.5496 27.6015 54.4608 27.374 54.3722C26.8669 54.1742 26.3603 53.9749 25.8539 53.7747C24.9144 53.4033 23.9734 53.0355 23.0324 52.6678C20.651 51.7364 18.271 50.8017 15.8923 49.8636C15.5699 49.7365 15.2474 49.6094 14.925 49.4824C14.5565 49.3371 14.1881 49.1916 13.8198 49.0458C13.6641 48.9844 13.5084 48.923 13.3479 48.8598C13.2162 48.8077 13.0844 48.7555 12.9487 48.7018C12.6834 48.5846 12.6834 48.5846 12.4995 48.5937C12.4923 50.1692 12.4867 51.7448 12.4833 53.3203C12.4817 54.052 12.4795 54.7836 12.476 55.5152C12.4726 56.2213 12.4707 56.9274 12.4699 57.6336C12.4693 57.9029 12.4682 58.1722 12.4665 58.4415C12.4642 58.8189 12.4639 59.1963 12.4641 59.5737C12.4629 59.6848 12.4618 59.796 12.4607 59.9105C12.4632 60.5283 12.4955 61.0249 12.812 61.5624C13.2941 61.9127 13.8055 62.1344 14.3587 62.3503C14.5833 62.4386 14.5833 62.4386 14.8124 62.5286C15.0555 62.6229 15.0555 62.6228 15.3035 62.719C15.4749 62.7861 15.6463 62.8533 15.8229 62.9224C16.2904 63.1054 16.7582 63.2877 17.226 63.4698C17.72 63.6622 18.2137 63.8554 18.7073 64.0485C19.5218 64.3671 20.3365 64.6853 21.1513 65.0032C22.249 65.4316 23.3461 65.8615 24.4429 66.292C24.6089 66.3572 24.7748 66.4223 24.9458 66.4895C25.2759 66.619 25.606 66.7486 25.9361 66.8782C29.0501 68.1005 32.1654 69.3195 35.281 70.5378C35.425 70.5941 35.5689 70.6504 35.7173 70.7084C35.9844 70.8129 36.2515 70.9173 36.5186 71.0217C36.637 71.068 36.7555 71.1144 36.8775 71.1621C36.9863 71.2045 37.0951 71.2468 37.2072 71.2905C37.4551 71.3886 37.701 71.4917 37.9464 71.5959C38.2948 71.7456 38.2948 71.7456 38.7495 71.7187C38.7495 63.6749 38.7495 55.6312 38.7495 47.3437C38.698 47.3437 38.6464 47.3437 38.5933 47.3437ZM41.2495 47.3437C41.2495 55.3874 41.2495 63.4312 41.2495 71.7187C41.917 71.5852 42.5037 71.4003 43.1325 71.1553C43.2426 71.1129 43.3528 71.0705 43.4663 71.0269C43.8377 70.8838 44.2087 70.7397 44.5796 70.5956C44.8476 70.492 45.1157 70.3884 45.3837 70.2848C48.6717 69.0124 51.9514 67.7183 55.2321 66.4271C57.1003 65.692 58.9697 64.9598 60.8394 64.2284C60.9843 64.1717 61.1293 64.115 61.2786 64.0565C61.5587 63.9469 61.8388 63.8374 62.1189 63.7279C62.3841 63.6241 62.6493 63.5201 62.9143 63.4158C63.5641 63.1606 64.2152 62.9108 64.8703 62.6695C64.9999 62.6211 65.1294 62.5727 65.263 62.5228C65.5072 62.4318 65.752 62.3422 65.9975 62.2546C66.6158 62.0224 67.0241 61.8426 67.3433 61.2499C67.529 60.6927 67.5202 60.1888 67.5173 59.6092C67.5173 59.4308 67.5173 59.4308 67.5173 59.2487C67.5172 58.8556 67.516 58.4625 67.5148 58.0694C67.5145 57.7968 67.5143 57.5242 67.5141 57.2516C67.5135 56.5342 67.512 55.8167 67.5103 55.0993C67.5087 54.3672 67.5079 53.6351 67.5072 52.903C67.5055 51.4666 67.5028 50.0301 67.4995 48.5937C64.8338 49.5988 62.1739 50.6168 59.5236 51.662C58.6699 51.9983 57.8155 52.3329 56.9612 52.6678C56.0223 53.0358 55.0836 53.4039 54.1458 53.7747C53.5238 54.0206 52.9011 54.2649 52.2779 54.5076C52.0582 54.5935 51.8387 54.6801 51.6196 54.7675C48.7423 55.9138 48.7423 55.9138 47.3042 55.4491C47.1842 55.4133 47.0641 55.3774 46.9404 55.3405C45.9746 54.87 45.4429 54.1842 44.9275 53.2763C44.8659 53.1712 44.8043 53.0662 44.7408 52.9579C44.5454 52.6239 44.3525 52.2885 44.1597 51.953C44.0317 51.7328 43.9035 51.5127 43.7752 51.2926C43.5856 50.9676 43.3961 50.6426 43.207 50.3173C42.7935 49.6068 42.3745 48.9 41.9465 48.1981C41.8459 48.0329 41.7453 47.8676 41.6416 47.6974C41.5638 47.5806 41.486 47.4639 41.4058 47.3437C41.3542 47.3437 41.3027 47.3437 41.2495 47.3437Z" fill="black"/>
<path d="M44.1211 17.4414C44.616 17.455 44.8125 17.4809 45.2441 17.7441C45.5702 18.2971 45.5731 18.5822 45.4688 19.2188C44.8835 20.2702 44.0933 21.218 43.3594 22.168C42.4052 23.4098 41.4673 24.6619 40.5496 25.931C39.4354 27.4603 39.4354 27.4603 38.6328 27.6074C38.0678 27.5772 37.8024 27.4114 37.3895 27.0325C37.2813 26.9335 37.1731 26.8345 37.0615 26.7324C36.4734 26.1728 35.8948 25.6048 35.3223 25.0293C35.2025 24.9102 35.0828 24.791 34.9594 24.6683C34.8457 24.5544 34.732 24.4405 34.6149 24.3231C34.5124 24.2204 34.4099 24.1178 34.3042 24.012C33.9789 23.6594 33.911 23.48 33.8574 22.998C33.9188 22.3715 34.0706 22.1431 34.5312 21.7188C35.0527 21.5412 35.3212 21.492 35.8228 21.7316C36.3826 22.1243 36.839 22.5869 37.3145 23.0762C37.4078 23.1709 37.5012 23.2657 37.5974 23.3633C37.826 23.5957 38.0537 23.829 38.2812 24.0625C38.9243 23.4761 39.4044 22.7816 39.9121 22.0801C40.6736 21.0371 41.4422 20.0005 42.2266 18.9746C42.3123 18.8622 42.3979 18.7498 42.4862 18.6339C42.5657 18.5302 42.6452 18.4265 42.7271 18.3197C42.7966 18.229 42.8661 18.1382 42.9378 18.0447C43.3265 17.5627 43.5073 17.4516 44.1211 17.4414Z" fill="#28A745"/>
</svg>
