<svg width="80" height="81" viewBox="0 0 80 81" fill="none" xmlns="http://www.w3.org/2000/svg">
<g clip-path="url(#clip0_863_2039)">
<path d="M12.9377 0.900954C13.047 0.90054 13.1563 0.900126 13.2689 0.899699C13.6379 0.898495 14.0068 0.898409 14.3758 0.898316C14.6419 0.897689 14.908 0.896995 15.1741 0.896241C15.9076 0.894369 16.6411 0.893488 17.3745 0.892775C18.1647 0.891845 18.955 0.890031 19.7452 0.888355C21.6548 0.884521 23.5644 0.882237 25.474 0.88022C26.0132 0.87964 26.5524 0.87902 27.0917 0.878384C30.4392 0.874441 33.7868 0.870994 37.1343 0.869051C37.9099 0.868594 38.6855 0.868131 39.4612 0.86766C39.6539 0.867543 39.8467 0.867427 40.0453 0.867307C43.1684 0.86533 46.2915 0.860138 49.4145 0.853628C52.6199 0.847002 55.8252 0.843318 59.0306 0.842501C60.8307 0.841968 62.6308 0.840129 64.4309 0.834985C65.964 0.830612 67.497 0.828891 69.0301 0.830641C69.8122 0.831452 70.5943 0.830998 71.3765 0.827131C72.0929 0.823618 72.8093 0.82373 73.5258 0.826694C73.7845 0.827131 74.0433 0.826255 74.3021 0.82391C75.7379 0.8117 76.8885 0.882588 78.1241 1.70361C78.2659 1.79062 78.4077 1.87764 78.5538 1.96728C79.5406 2.98143 80.0222 4.08791 80.0232 5.48532C80.0239 5.60074 80.0246 5.71616 80.0253 5.83509C80.0274 6.22298 80.0283 6.61086 80.0293 6.99876C80.0305 7.27646 80.0318 7.55416 80.0332 7.83186C80.0373 8.74504 80.0396 9.65823 80.0419 10.5714C80.0427 10.8859 80.0435 11.2004 80.0444 11.5149C80.0478 12.8235 80.0507 14.1322 80.0525 15.4408C80.055 17.3151 80.0602 19.1894 80.0691 21.0637C80.0751 22.3821 80.0782 23.7004 80.079 25.0188C80.0796 25.8059 80.0815 26.5929 80.0865 27.38C80.0912 28.1212 80.0922 28.8622 80.0904 29.6034C80.0903 29.8746 80.0916 30.1459 80.0944 30.4171C80.1085 31.8874 80.0712 33.0982 79.2179 34.3599C79.1309 34.5017 79.0439 34.6435 78.9542 34.7896C78.2863 35.4394 77.4455 35.9402 76.5616 36.2349C76.2394 36.2243 75.9174 36.2026 75.5961 36.1752C69.2726 35.4664 69.2726 35.4664 63.6289 37.6771C62.2573 38.9239 61.0821 40.3831 60.0451 41.9164C59.772 42.2621 59.497 42.4575 59.0647 42.5538C58.3914 42.5908 57.9343 42.5387 57.4143 42.0924C56.8911 41.6172 56.5073 41.1026 56.1127 40.5227C54.8728 38.7312 53.3449 36.7064 51.0948 36.2446C47.7339 35.691 44.1596 35.9894 40.7804 36.2349C40.7823 36.3504 40.7843 36.4659 40.7863 36.585C40.7878 36.7378 40.7893 36.8907 40.7908 37.0482C40.7927 37.1992 40.7947 37.3502 40.7967 37.5058C40.772 38.1836 40.5924 38.7785 40.38 39.4185C40.3445 39.5323 40.3089 39.6461 40.2723 39.7633C39.7859 41.3021 39.2608 42.8293 38.7491 44.3599C38.9137 44.3585 39.0782 44.3571 39.2477 44.3557C40.8039 44.343 42.36 44.3336 43.9162 44.3275C44.7161 44.3242 45.516 44.3198 46.3159 44.3127C47.0889 44.3059 47.8618 44.3022 48.6349 44.3006C48.9287 44.2994 49.2225 44.2972 49.5164 44.2938C51.8597 44.2678 53.6629 44.4818 55.4185 46.1763C56.6298 47.4812 56.918 48.9275 56.9108 50.6556C56.8598 51.4624 56.6667 52.1916 56.4054 52.9536C56.5037 52.9955 56.602 53.0374 56.7032 53.0806C58.1509 53.7433 59.1822 54.6375 59.8472 56.1049C60.4576 57.8822 60.4333 59.5679 59.6573 61.2739C58.9608 62.5553 58.009 63.2558 56.7179 63.8911C56.7517 63.988 56.7856 64.0849 56.8204 64.1847C57.3998 66.0273 57.4672 67.9285 56.5616 69.6724C55.7901 70.9487 54.7399 71.7933 53.4366 72.4849C53.4687 72.5701 53.5007 72.6553 53.5337 72.743C54.1674 74.5168 54.215 76.0988 53.3976 77.8364C52.6091 79.2809 51.5877 80.1768 50.0388 80.7758C49.4989 80.9314 49.0565 80.9625 48.4955 80.9642C48.2897 80.9655 48.0839 80.9668 47.8718 80.9682C47.6456 80.9681 47.4193 80.9679 47.193 80.9678C46.9531 80.9687 46.7133 80.9698 46.4735 80.9709C45.8228 80.9737 45.1722 80.9744 44.5216 80.9746C44.1137 80.9749 43.7059 80.9755 43.298 80.9764C41.871 80.9793 40.444 80.9805 39.0169 80.9803C37.694 80.9801 36.371 80.9834 35.0481 80.9883C33.9075 80.9924 32.7669 80.9941 31.6263 80.9939C30.9473 80.9938 30.2684 80.9947 29.5894 80.998C26.2139 81.0135 23.0283 80.9746 19.8429 79.6919C19.5866 79.5892 19.3295 79.4886 19.0714 79.3904C18.9637 79.3469 18.8559 79.3034 18.7449 79.2586C18.3318 79.1849 18.1586 79.2907 17.8116 79.5161C17.6989 79.6386 17.5861 79.761 17.4698 79.8872C16.141 81.1275 14.5529 81.0172 12.8416 81.0109C12.5706 81.0117 12.2996 81.0127 12.0286 81.0138C11.4624 81.0154 10.8963 81.0147 10.3301 81.0124C9.60802 81.0098 8.88617 81.0134 8.16414 81.0189C7.605 81.0224 7.0459 81.0221 6.48675 81.0208C6.22071 81.0207 5.95466 81.0218 5.68863 81.0241C3.96697 81.0368 2.65434 80.9111 1.27844 79.7798C0.401879 78.7029 -0.0239486 77.8566 -0.0249015 76.4564C-0.0255862 76.3345 -0.0262714 76.2127 -0.0269769 76.0872C-0.029069 75.6778 -0.0300338 75.2683 -0.0309907 74.8588C-0.0322252 74.5657 -0.0335172 74.2726 -0.0348626 73.9795C-0.0389603 73.0156 -0.0413518 72.0517 -0.0435792 71.0878C-0.0444167 70.7559 -0.0452575 70.4239 -0.0461005 70.092C-0.0494804 68.711 -0.0524075 67.33 -0.0541662 65.949C-0.0567021 63.9707 -0.0618818 61.9924 -0.0707911 60.0141C-0.0768429 58.6227 -0.0798908 57.2314 -0.0807165 55.8401C-0.0812867 55.0093 -0.0831588 54.1786 -0.0882326 53.3479C-0.0929414 52.5657 -0.0939152 51.7835 -0.0920783 51.0013C-0.0920439 50.715 -0.0933362 50.4286 -0.0960873 50.1423C-0.111831 48.4087 -0.029744 47.0546 1.12036 45.6691C1.28562 45.5286 1.28562 45.5286 1.45422 45.3853C1.56319 45.2888 1.67216 45.1923 1.78442 45.0929C2.69688 44.4934 3.58226 44.2896 4.66067 44.2967C4.83357 44.2951 4.83357 44.2951 5.00997 44.2935C5.38705 44.2906 5.76403 44.2912 6.14111 44.2921C6.4057 44.2914 6.67029 44.2906 6.93488 44.2896C7.48793 44.2882 8.04095 44.2886 8.594 44.2902C9.29976 44.292 10.0054 44.2888 10.7111 44.2842C11.2571 44.2814 11.8031 44.2814 12.3491 44.2823C12.6091 44.2823 12.8692 44.2814 13.1293 44.2795C15.1026 44.2668 16.3847 44.5534 17.9679 45.7661C23.3184 43.0408 25.7124 40.1801 27.7238 34.5064C27.8381 34.1862 27.9525 33.8661 28.0671 33.546C28.1233 33.3887 28.1796 33.2314 28.2375 33.0694C28.3498 32.7557 28.4622 32.442 28.5748 32.1284C28.841 31.3863 29.1045 30.6436 29.3614 29.8983C29.4553 29.6311 29.5493 29.3639 29.6433 29.0968C29.704 28.9158 29.704 28.9158 29.7659 28.7312C30.0267 27.999 30.3055 27.507 30.9366 27.0161C31.9974 26.7423 33.1306 27.1437 34.13 27.4946C34.2738 27.5443 34.4175 27.594 34.5657 27.6452C37.2974 28.6251 39.0302 30.3832 40.3116 32.9536C40.5472 32.9519 40.5472 32.9519 40.7875 32.9501C42.2725 32.94 43.7573 32.9373 45.2423 32.9419C46.0057 32.944 46.7688 32.9435 47.5322 32.937C48.2698 32.9309 49.0072 32.9316 49.7448 32.937C50.0253 32.9379 50.3057 32.9364 50.5861 32.9322C53.0548 32.8988 53.0548 32.8988 54.0272 33.7617C54.2526 34.0082 54.4731 34.2593 54.6866 34.5161C54.8633 34.6909 55.0418 34.8639 55.2226 35.0343C55.3801 35.1918 55.5371 35.3497 55.6937 35.5079C55.8205 35.635 55.8205 35.635 55.9498 35.7646C56.2127 36.0284 56.4751 36.2928 56.7374 36.5571C56.9185 36.739 57.0995 36.9207 57.2806 37.1025C57.7185 37.542 58.1558 37.9821 58.5929 38.4224C59.3327 37.8056 60.0295 37.162 60.7053 36.476C60.7967 36.384 60.888 36.2921 60.9821 36.1973C61.2701 35.9075 61.5575 35.6171 61.8448 35.3267C62.2263 34.9411 62.6082 34.556 62.9905 34.1713C63.1213 34.0385 63.1213 34.0385 63.2548 33.903C63.9656 33.1877 64.2511 33.0905 65.2544 33.0827C65.3609 33.0817 65.4674 33.0807 65.5771 33.0796C65.8087 33.0774 66.0404 33.0755 66.272 33.074C66.6393 33.0714 67.0065 33.0678 67.3737 33.0638C68.418 33.0528 69.4622 33.0434 70.5065 33.0354C71.1452 33.0304 71.7838 33.0239 72.4224 33.0166C72.6653 33.0141 72.9081 33.0122 73.151 33.0108C73.4921 33.0089 73.833 33.0051 74.1741 33.001C74.4646 32.9985 74.4646 32.9985 74.7611 32.9961C75.3707 32.9491 75.8449 32.892 76.4054 32.6411C76.685 31.8972 76.7571 31.2285 76.7576 30.4385C76.7581 30.3324 76.7586 30.2264 76.7591 30.1171C76.7603 29.7645 76.7593 29.4121 76.7583 29.0596C76.7588 28.8056 76.7593 28.5517 76.76 28.2978C76.7614 27.6102 76.7609 26.9226 76.7599 26.2349C76.7591 25.5143 76.7598 24.7938 76.7603 24.0732C76.7609 22.8632 76.7601 21.6532 76.7586 20.4432C76.7569 19.0456 76.7575 17.648 76.7592 16.2503C76.7606 15.049 76.7608 13.8477 76.76 12.6463C76.7595 11.9294 76.7595 11.2125 76.7605 10.4956C76.7614 9.82151 76.7608 9.14744 76.759 8.47335C76.7585 8.22639 76.7587 7.97942 76.7594 7.73245C76.7602 7.39452 76.7591 7.05665 76.7576 6.71872C76.7575 6.52988 76.7573 6.34103 76.7572 6.14647C76.7129 5.54108 76.6542 5.07287 76.4054 4.51611C75.6634 4.23723 74.9969 4.1645 74.2089 4.16429C74.103 4.16383 73.997 4.16338 73.8879 4.16291C73.5341 4.16177 73.1804 4.16285 72.8266 4.16393C72.5699 4.16357 72.3132 4.16307 72.0566 4.16245C71.3521 4.16115 70.6477 4.16179 69.9432 4.16276C69.1832 4.16347 68.4231 4.16238 67.663 4.16152C66.1744 4.16013 64.6858 4.16043 63.1972 4.16133C61.9874 4.16204 60.7776 4.16214 59.5679 4.1618C59.3958 4.16175 59.2236 4.1617 59.0463 4.16165C58.6966 4.16155 58.347 4.16145 57.9973 4.16135C54.7179 4.16046 51.4384 4.16148 48.159 4.16316C45.3447 4.16456 42.5303 4.16431 39.7159 4.16287C36.4483 4.1612 33.1807 4.16054 29.9131 4.1615C29.5647 4.1616 29.2163 4.1617 28.8679 4.1618C28.6108 4.16187 28.6108 4.16187 28.3485 4.16194C27.14 4.16221 25.9316 4.16176 24.7232 4.16102C23.2507 4.16014 21.7783 4.16038 20.3058 4.16205C19.5544 4.16287 18.803 4.16319 18.0516 4.16216C17.3638 4.16122 16.6761 4.16174 15.9883 4.1634C15.7395 4.16375 15.4906 4.16357 15.2417 4.16281C14.9034 4.16186 14.5652 4.16284 14.2269 4.16429C14.039 4.16434 13.8511 4.16439 13.6575 4.16444C13.0717 4.20747 12.5804 4.30939 12.0304 4.51611C11.7061 5.24184 11.6787 5.93148 11.6782 6.71872C11.6777 6.8248 11.6772 6.93088 11.6767 7.04017C11.6755 7.39268 11.6765 7.74515 11.6775 8.09766C11.677 8.35158 11.6765 8.60551 11.6758 8.85943C11.6744 9.54705 11.6749 10.2347 11.6759 10.9223C11.6767 11.6429 11.676 12.3635 11.6755 13.0841C11.6749 14.2941 11.6757 15.504 11.6772 16.714C11.6789 18.1116 11.6783 19.5093 11.6766 20.9069C11.6752 22.1082 11.675 23.3096 11.6758 24.5109C11.6763 25.2278 11.6763 25.9447 11.6753 26.6616C11.6744 27.3357 11.675 28.0098 11.6768 28.6839C11.6772 28.9308 11.6771 29.1778 11.6764 29.4248C11.6756 29.7627 11.6767 30.1006 11.6782 30.4385C11.6783 30.6274 11.6784 30.8162 11.6786 31.0108C11.7215 31.5969 11.8262 32.09 12.0304 32.6411C13.0569 33.1433 14.3053 33.0044 15.4252 33.0009C16.5966 33.0246 16.5966 33.0246 17.2135 33.4584C17.5138 33.9134 17.6052 34.1335 17.5968 34.6724C17.5998 34.8657 17.5998 34.8657 17.6029 35.063C17.4515 35.6331 17.1693 35.8625 16.7179 36.2349C16.2094 36.336 16.2094 36.336 15.637 36.3386C15.5343 36.3394 15.4316 36.3401 15.3257 36.3409C15.1089 36.3414 14.8921 36.34 14.6753 36.3367C14.3483 36.3326 14.0221 36.3367 13.6951 36.3417C12.3927 36.3448 11.4125 36.17 10.3116 35.4536C10.1698 35.3666 10.0281 35.2796 9.88196 35.1899C8.89523 34.1758 8.4136 33.0693 8.4126 31.6719C8.41157 31.4988 8.41157 31.4988 8.41052 31.3221C8.40843 30.9343 8.40747 30.5464 8.40651 30.1585C8.40527 29.8808 8.40398 29.6031 8.40264 29.3254C8.39854 28.4122 8.39615 27.499 8.39392 26.5858C8.39308 26.2713 8.39224 25.9568 8.3914 25.6423C8.38802 24.3337 8.38509 23.0251 8.38333 21.7165C8.3808 19.8421 8.37562 17.9678 8.36671 16.0935C8.36066 14.7752 8.35761 13.4568 8.35678 12.1384C8.35621 11.3514 8.35434 10.5643 8.34927 9.77725C8.34456 9.03608 8.34359 8.29499 8.34542 7.55381C8.34546 7.2826 8.34417 7.01138 8.34141 6.74018C8.32731 5.26978 8.36455 4.05906 9.2179 2.79736C9.30491 2.65557 9.39192 2.51377 9.48157 2.36768C10.4752 1.40092 11.5636 0.903514 12.9377 0.900954ZM32.6554 30.6099C32.619 30.712 32.5826 30.8141 32.5452 30.9193C32.1976 31.894 31.8485 32.8682 31.4978 33.8418C31.3177 34.342 31.1381 34.8424 30.9598 35.3434C28.9764 40.9089 26.7044 44.8883 21.3761 47.729C21.1696 47.8408 20.9632 47.9528 20.7569 48.065C19.4238 48.7882 19.4238 48.7882 18.9054 49.0474C18.9054 57.8646 18.9054 66.6817 18.9054 75.7661C23.3286 77.5354 26.8829 77.8479 31.5604 77.8445C32.021 77.8443 32.4816 77.8451 32.9421 77.8458C34.0285 77.8476 35.1148 77.8476 36.2011 77.8467C37.3172 77.8457 38.4332 77.8477 39.5493 77.851C40.5142 77.8538 41.4791 77.8547 42.444 77.8542C43.0175 77.8539 43.591 77.8543 44.1645 77.8565C44.8023 77.8588 45.44 77.8574 46.0778 77.8555C46.3587 77.8573 46.3587 77.8573 46.6453 77.8592C47.9001 77.8513 49.0064 77.7746 49.9894 76.938C50.6161 76.1783 50.6926 75.7476 50.6736 74.7859C50.5812 73.9897 50.1732 73.5794 49.5988 73.061C49.0933 72.7111 48.7062 72.6219 48.1059 72.6165C47.9771 72.6149 47.8483 72.6133 47.7155 72.6116C47.5768 72.6105 47.4382 72.6093 47.2953 72.6082C47.0013 72.6038 46.7073 72.5993 46.4133 72.5947C45.9501 72.5883 45.4869 72.5825 45.0236 72.5784C44.5764 72.5741 44.1292 72.5669 43.682 72.5593C43.544 72.5588 43.4059 72.5583 43.2637 72.5578C42.5199 72.543 42.0063 72.5042 41.4054 72.0161C41.1309 71.5545 41.0893 71.2936 41.1222 70.7564C41.2529 70.2839 41.3796 70.0237 41.7179 69.6724C42.2241 69.5036 42.596 69.4946 43.1286 69.4915C43.3226 69.4899 43.5166 69.4883 43.7165 69.4866C43.8202 69.4861 43.9238 69.4855 44.0306 69.485C44.3558 69.4831 44.6809 69.4801 45.0061 69.4767C45.9306 69.4671 46.8552 69.4586 47.7797 69.4534C48.3456 69.4501 48.9114 69.4446 49.4773 69.4377C49.6924 69.4355 49.9075 69.4341 50.1226 69.4336C50.4243 69.4328 50.7261 69.4289 51.0278 69.4249C51.1992 69.4237 51.3705 69.4224 51.5471 69.4211C52.3037 69.3252 52.9347 69.0294 53.4073 68.4224C53.9557 67.6704 54.017 66.9837 53.9054 66.0786C53.5097 65.3019 52.9697 64.7514 52.1866 64.3599C51.8845 64.3435 51.5818 64.3371 51.2792 64.3352C51.0888 64.3336 50.8984 64.332 50.7023 64.3304C50.6002 64.3298 50.4981 64.3293 50.393 64.3287C50.073 64.3269 49.753 64.3239 49.4331 64.3204C48.5232 64.3108 47.6133 64.3024 46.7034 64.2972C46.1469 64.2939 45.5903 64.2883 45.0338 64.2814C44.7199 64.2781 44.406 64.2773 44.0921 64.2765C42.2749 64.2522 42.2749 64.2522 41.4054 63.7349C41.0762 63.2411 41.0905 62.9813 41.1417 62.3872C41.2491 61.8599 41.2491 61.8599 41.4054 61.3911C41.9725 61.2021 42.4932 61.2111 43.0837 61.2102C43.2067 61.2094 43.3297 61.2086 43.4565 61.2078C43.7238 61.2061 43.991 61.2048 44.2583 61.2037C44.6821 61.2019 45.1058 61.1989 45.5295 61.1954C46.7343 61.1858 47.9392 61.1774 49.144 61.1722C49.8811 61.1689 50.6181 61.1633 51.3552 61.1564C51.6355 61.1542 51.9157 61.1528 52.196 61.1523C52.5894 61.1516 52.9827 61.1479 53.376 61.1437C53.4906 61.1442 53.6052 61.1446 53.7232 61.1451C54.7572 61.1287 55.6129 60.9055 56.3859 60.1997C56.8434 59.473 57.1136 58.7936 56.9767 57.9255C56.72 57.1157 56.3195 56.7077 55.6241 56.2349C54.9535 55.8935 54.3279 55.8784 53.5905 55.8825C53.4666 55.8819 53.3428 55.8813 53.2152 55.8808C52.9473 55.8797 52.6793 55.8793 52.4114 55.8795C51.987 55.8796 51.5628 55.8776 51.1385 55.875C49.9325 55.8677 48.7265 55.8639 47.5205 55.8629C46.782 55.8621 46.0436 55.8583 45.3052 55.8527C45.0241 55.8511 44.743 55.8508 44.4619 55.8516C44.0688 55.8527 43.6759 55.85 43.2828 55.8465C43.1671 55.8477 43.0513 55.849 42.932 55.8503C42.3729 55.8414 42.0505 55.7786 41.5713 55.4816C41.1238 55.0087 41.0929 54.692 41.0929 54.0474C41.2795 53.4979 41.388 53.1989 41.9122 52.93C42.3889 52.7832 42.7788 52.757 43.2773 52.755C43.4619 52.7534 43.6465 52.7518 43.8367 52.7502C44.0348 52.7498 44.2329 52.7495 44.437 52.7492C44.7499 52.7462 45.0627 52.7433 45.3756 52.7402C46.1453 52.7331 46.915 52.7294 47.6847 52.7261C48.1172 52.7241 48.5496 52.7208 48.9821 52.7163C49.3888 52.7122 49.7956 52.7101 50.2024 52.71C50.3875 52.7079 50.5726 52.7059 50.7633 52.7037C51.0064 52.7025 51.0064 52.7025 51.2545 52.7013C52.0013 52.6043 52.6287 52.3022 53.0948 51.7036C53.6101 50.9969 53.6807 50.3717 53.5929 49.5161C53.3025 48.6933 52.8737 48.2983 52.1866 47.7974C51.759 47.6548 51.5077 47.6211 51.0677 47.6196C50.9354 47.6187 50.8031 47.6178 50.6668 47.617C50.4498 47.6167 50.4498 47.6167 50.2284 47.6165C50.0757 47.6157 49.9229 47.6149 49.7656 47.6141C49.4336 47.6124 49.1016 47.611 48.7696 47.61C48.2443 47.6081 47.7189 47.6051 47.1936 47.6017C45.6998 47.5921 44.2061 47.5836 42.7123 47.5784C41.7989 47.5751 40.8856 47.5696 39.9723 47.5627C39.624 47.5604 39.2758 47.5591 38.9275 47.5586C38.4405 47.5578 37.9536 47.5542 37.4666 47.5499C37.2505 47.5507 37.2505 47.5507 37.0301 47.5514C36.2785 47.5416 35.7636 47.509 35.1554 47.0161C34.8861 46.6298 34.8257 46.3705 34.885 45.9033C35.0794 44.945 35.3422 44.0308 35.6589 43.1062C35.7067 42.9642 35.7544 42.8223 35.8036 42.676C35.9545 42.2279 36.1066 41.7802 36.2589 41.3325C36.4115 40.8814 36.5638 40.4303 36.7159 39.979C36.8101 39.6996 36.9047 39.4203 36.9997 39.1412C37.0425 39.0149 37.0852 38.8886 37.1293 38.7584C37.1669 38.648 37.2045 38.5375 37.2432 38.4236C37.7028 36.9774 37.7258 35.3083 37.0713 33.9235C36.075 32.1807 34.8661 31.2609 32.9679 30.6099C32.8648 30.6099 32.7616 30.6099 32.6554 30.6099ZM3.2804 48.2661C3.07739 48.8358 3.10403 49.4056 3.10325 50.005C3.1029 50.1173 3.10254 50.2296 3.10218 50.3453C3.10119 50.7215 3.10132 51.0978 3.10145 51.4741C3.10098 51.7438 3.10045 52.0136 3.09986 52.2834C3.09848 53.0162 3.09811 53.749 3.09801 54.4818C3.09786 55.0934 3.09729 55.705 3.09673 56.3166C3.09546 57.7592 3.09508 59.2019 3.09519 60.6446C3.09529 62.1334 3.09364 63.6222 3.09117 65.111C3.08913 66.3889 3.08829 67.6667 3.08839 68.9446C3.08843 69.708 3.08798 70.4714 3.08633 71.2347C3.08482 71.9525 3.0848 72.6703 3.08594 73.3882C3.0861 73.6516 3.08573 73.9151 3.08479 74.1786C3.08359 74.5382 3.08431 74.8978 3.08551 75.2574C3.08543 75.4586 3.08534 75.6599 3.08526 75.8673C3.13187 76.4951 3.2617 76.9497 3.65149 77.4458C4.19637 77.865 4.82911 77.8178 5.49258 77.8201C5.68709 77.8211 5.8816 77.8221 6.082 77.8231C6.29376 77.8233 6.50552 77.8235 6.71729 77.8236C6.93522 77.8241 7.15315 77.8246 7.37109 77.8252C7.8275 77.8261 8.28392 77.8264 8.74033 77.8263C9.32422 77.8263 9.90808 77.8284 10.492 77.8311C10.942 77.8329 11.3919 77.8332 11.8419 77.8331C12.0572 77.8333 12.2724 77.834 12.4876 77.8352C12.789 77.8367 13.0904 77.8361 13.3917 77.8353C13.563 77.8355 13.7343 77.8358 13.9107 77.836C14.5065 77.7863 14.9576 77.6403 15.4288 77.27C15.8778 76.6864 15.8004 75.9849 15.8013 75.2772C15.8016 75.1649 15.802 75.0527 15.8024 74.937C15.8033 74.5607 15.8032 74.1844 15.8031 73.8082C15.8036 73.5384 15.8041 73.2686 15.8047 72.9989C15.8061 72.2661 15.8064 71.5332 15.8065 70.8004C15.8067 70.1888 15.8073 69.5773 15.8078 68.9657C15.8091 67.523 15.8095 66.0803 15.8093 64.6376C15.8093 63.1488 15.8109 61.66 15.8134 60.1713C15.8154 58.8934 15.8163 57.6155 15.8162 56.3376C15.8161 55.5742 15.8166 54.8109 15.8182 54.0475C15.8197 53.3297 15.8197 52.6119 15.8186 51.8941C15.8184 51.6306 15.8188 51.3671 15.8197 51.1037C15.821 50.744 15.8202 50.3845 15.819 50.0249C15.8191 49.8236 15.8192 49.6223 15.8193 49.415C15.7694 48.743 15.6695 48.3139 15.1909 47.8295C14.753 47.5925 14.4581 47.5874 13.9615 47.5953C13.7944 47.5969 13.6272 47.5984 13.455 47.5999C13.2813 47.6038 13.1077 47.6078 12.9288 47.6118C12.7528 47.6139 12.5768 47.6161 12.3954 47.6182C11.9611 47.6238 11.5271 47.6315 11.0929 47.6411C11.0925 47.7411 11.0921 47.841 11.0918 47.944C11.0825 50.3761 11.0707 52.8082 11.0561 55.2403C11.049 56.4165 11.0429 57.5926 11.0388 58.7688C11.0352 59.794 11.03 60.8191 11.0228 61.8443C11.019 62.3871 11.0161 62.9299 11.0151 63.4727C11.014 64.0787 11.0093 64.6847 11.0042 65.2908C11.0044 65.4706 11.0047 65.6504 11.0049 65.8357C11.0029 66.0011 11.001 66.1665 10.9989 66.3369C10.9979 66.5519 10.9979 66.5519 10.9968 66.7712C10.9089 67.3578 10.6648 67.7932 10.2042 68.1685C9.64947 68.3184 9.1455 68.2545 8.5929 68.1099C8.17982 67.8167 8.13158 67.6634 7.9679 67.1724C7.95203 66.9068 7.94504 66.6406 7.94317 66.3745C7.94164 66.2095 7.94011 66.0445 7.93854 65.8746C7.93719 65.6031 7.93719 65.6031 7.93581 65.3262C7.93427 65.1357 7.93272 64.9451 7.93113 64.7488C7.92703 64.2262 7.92362 63.7035 7.9205 63.1809C7.91708 62.6348 7.91281 62.0886 7.90862 61.5425C7.90082 60.5082 7.8938 59.474 7.88705 58.4397C7.87934 57.2623 7.87076 56.0849 7.8621 54.9074C7.84432 52.4853 7.82762 50.0632 7.81165 47.6411C7.20296 47.6229 6.59435 47.6119 5.98547 47.6021C5.81316 47.5968 5.64085 47.5916 5.46332 47.5862C4.22623 47.5433 4.22623 47.5433 3.2804 48.2661Z" fill="black"/>
<path d="M46.2592 10.3691C46.7946 10.8313 46.9371 11.2006 47.1901 11.8449C47.6756 13.0861 47.6756 13.0861 48.6555 13.9212C49.3636 14.1242 50.0608 14.1954 50.7928 14.251C51.6208 14.3239 52.0336 14.5975 52.6562 15.1409C53.134 15.8036 53.2276 16.4374 53.1976 17.238C52.9932 18.3721 52.2032 19.0455 51.3379 19.7307C50.7679 20.2075 50.7679 20.2075 50.5542 20.891C50.5949 21.3337 50.671 21.7418 50.7812 22.1721C50.9838 23.32 51.1528 24.2821 50.4688 25.2971C49.9829 25.8331 49.5509 26.1782 48.8574 26.4006C47.5374 26.3783 46.5023 25.8434 45.3973 25.158C44.9033 24.9424 44.7255 24.9676 44.2188 25.1409C43.7601 25.3621 43.3133 25.5954 42.8668 25.8397C42.1071 26.2388 41.4115 26.4574 40.5505 26.3366C39.6839 26.0482 39.2658 25.7422 38.75 24.9846C38.5292 24.543 38.5672 24.1691 38.5645 23.676C38.5624 23.478 38.5604 23.28 38.5583 23.0761C38.5924 22.507 38.7172 22.0927 38.8965 21.5569C39.0212 21.0973 39.0212 21.0973 38.9062 20.6096C38.4092 19.9081 37.7593 19.3533 37.1167 18.7889C36.4866 18.2267 36.2793 17.8015 36.2012 16.9573C36.2786 16.0588 36.5186 15.4972 37.1582 14.8577C38.0428 14.2506 38.9389 14.1353 39.9805 14.0276C40.1029 14.0141 40.2254 14.0006 40.3516 13.9867C40.6509 13.9538 40.9505 13.9222 41.25 13.8909C41.2907 13.7575 41.3314 13.6242 41.3733 13.4868C41.5702 12.9318 41.8116 12.437 42.0898 11.9182C42.1813 11.7454 42.2727 11.5726 42.3669 11.3945C42.732 10.7984 43.0645 10.4055 43.6914 10.092C44.6075 9.90544 45.4125 9.96475 46.2592 10.3691ZM44.5312 14.3596C44.4745 14.4877 44.4177 14.6158 44.3591 14.7478C43.5441 16.495 43.5441 16.495 42.6562 16.8596C41.9315 17.0436 41.2045 17.1953 40.4688 17.3284C40.5292 17.3965 40.5896 17.4645 40.6519 17.5347C41.6502 18.6764 42.2593 19.5182 42.1875 21.0784C42.1462 21.4975 42.0908 21.9113 42.0312 22.3284C42.5385 22.1675 43.0076 21.9968 43.4863 21.762C44.3443 21.442 45.0351 21.3682 45.8948 21.7229C46.169 21.862 46.4405 22.0066 46.7084 22.1575C47.0164 22.3527 47.0164 22.3527 47.3438 22.3284C47.327 22.1719 47.3103 22.0154 47.2931 21.8541C47.0779 19.6001 47.0779 19.6001 47.926 18.5601C48.1174 18.3387 48.3125 18.1205 48.512 17.9064C48.7623 17.6507 48.7623 17.6507 48.9062 17.3284C48.7367 17.2959 48.5671 17.2635 48.3923 17.2301C46.2105 16.7759 46.2105 16.7759 45.6311 15.9142C45.5775 15.8137 45.524 15.7132 45.4688 15.6096C45.3739 15.4371 45.3739 15.4371 45.2771 15.2611C45.1232 14.9653 44.9821 14.663 44.8438 14.3596C44.7406 14.3596 44.6375 14.3596 44.5312 14.3596Z" fill="#28A745"/>
<path d="M26.2202 10.3365C26.9542 10.9237 27.3674 11.6813 27.7729 12.5142C27.8223 12.6124 27.8716 12.7106 27.9225 12.8117C28.2807 13.5368 28.2807 13.5368 28.2807 13.8912C28.458 13.9083 28.6352 13.9254 28.8179 13.943C29.0555 13.968 29.2931 13.993 29.5307 14.0181C29.647 14.0291 29.7632 14.0401 29.8829 14.0514C31.1082 14.1846 32.1602 14.4555 32.9682 15.4537C33.3262 16.0844 33.4004 16.7732 33.2807 17.4849C32.9996 18.2214 32.6222 18.6245 32.0403 19.1238C31.1254 19.9031 31.1254 19.9031 30.677 20.9767C30.7228 21.4966 30.8146 21.9778 30.937 22.4849C31.2123 24.3493 31.2123 24.3493 30.6245 25.2974C29.9783 25.9736 29.3621 26.3172 28.437 26.3912C27.3667 26.2642 26.5623 25.7505 25.6477 25.1979C25.0611 24.9439 24.8239 24.9543 24.2182 25.1412C23.8803 25.3122 23.5483 25.4954 23.2221 25.688C22.313 26.1896 21.6697 26.5279 20.6166 26.3313C19.7688 26.0791 19.1741 25.6073 18.7495 24.8287C18.4551 23.8217 18.6259 22.8474 18.8319 21.8379C18.999 20.9514 18.999 20.9514 18.694 20.1448C18.5995 20.0598 18.505 19.9748 18.4077 19.8872C18.3078 19.795 18.2079 19.7028 18.105 19.6077C17.8742 19.4125 17.6345 19.2278 17.3921 19.0474C16.8044 18.5392 16.4735 18.0257 16.3398 17.267C16.292 16.403 16.4612 15.8183 16.9245 15.0929C17.6264 14.3862 18.5303 14.2459 19.4721 14.0962C19.648 14.0659 19.648 14.0659 19.8274 14.0349C20.3633 13.9451 20.8609 13.8912 21.4057 13.8912C21.4486 13.7558 21.4915 13.6205 21.5357 13.481C21.9822 12.191 22.5176 10.8527 23.7495 10.1412C24.5668 9.86213 25.443 9.99105 26.2202 10.3365ZM24.687 14.3599C24.5299 14.6394 24.3739 14.9195 24.2182 15.1997C24.1312 15.3556 24.0442 15.5115 23.9546 15.6722C23.726 16.0493 23.726 16.0493 23.7495 16.3912C22.762 16.9229 21.7164 17.1258 20.6245 17.3287C20.6849 17.3967 20.7453 17.4648 20.8076 17.535C21.892 18.775 22.4257 19.6536 22.3164 21.3356C22.2808 21.6675 22.2349 21.9983 22.187 22.3287C22.6963 22.1672 23.1695 21.9945 23.6518 21.7623C24.497 21.4417 25.0867 21.3985 25.9187 21.7232C26.223 21.863 26.5251 22.0077 26.8244 22.1578C27.1673 22.3509 27.1673 22.3509 27.4995 22.3287C27.481 22.1627 27.4624 21.9967 27.4433 21.8257C27.2325 19.6614 27.2325 19.6614 27.751 18.8417C28.1547 18.353 28.5908 17.9085 29.062 17.4849C28.4801 17.097 27.9929 17.0599 27.3103 16.9631C26.5606 16.7856 26.1985 16.5546 25.7777 15.901C25.6852 15.718 25.5928 15.5349 25.4975 15.3462C25.4489 15.2515 25.4003 15.1567 25.3501 15.0591C25.2314 14.827 25.1152 14.5936 24.9995 14.3599C24.8964 14.3599 24.7932 14.3599 24.687 14.3599Z" fill="#28A745"/>
<path d="M66.1035 10.3692C66.6382 10.8314 66.781 11.2011 67.0338 11.845C67.5205 13.0871 67.5205 13.0871 68.5018 13.9238C69.213 14.1312 69.9156 14.2079 70.6518 14.2663C71.5693 14.3418 72.094 14.7153 72.7148 15.3851C73.0683 16.1327 73.1187 16.828 72.9687 17.6409C72.6147 18.4005 72.2482 18.8528 71.606 19.3784C71.1654 19.7461 70.7612 20.1112 70.4687 20.6097C70.3953 21.4383 70.5784 22.153 70.7812 22.9534C70.9031 23.9702 70.7697 24.7701 70.1562 25.6097C69.5103 26.1695 68.9787 26.3767 68.125 26.3909C67.0476 26.199 66.1639 25.7305 65.2411 25.158C64.747 24.9425 64.5693 24.9677 64.0625 25.1409C63.6038 25.3621 63.157 25.5954 62.7106 25.8398C61.9509 26.2388 61.2552 26.4575 60.3943 26.3366C59.5283 26.0485 59.1026 25.7479 58.5937 24.9847C58.4429 24.5321 58.4117 24.2354 58.4082 23.764C58.4064 23.6109 58.4046 23.4578 58.4027 23.3001C58.4375 22.7972 58.4375 22.7972 58.5846 22.2747C58.7489 21.6641 58.8321 21.2399 58.75 20.6097C58.3832 20.0556 57.9036 19.6244 57.3977 19.1986C56.6579 18.575 56.3485 18.1145 56.0937 17.1722C56.0545 16.2957 56.3123 15.6538 56.875 14.9847C57.691 14.3018 58.4725 14.2059 59.5117 14.0862C59.664 14.0667 59.8162 14.0472 59.9731 14.027C60.3464 13.9794 60.7199 13.9341 61.0937 13.8909C61.1346 13.7576 61.1755 13.6242 61.2176 13.4869C61.4131 12.9339 61.65 12.4367 61.9238 11.9183C62.0583 11.659 62.0583 11.659 62.1954 11.3946C63.1245 9.9534 64.591 9.64764 66.1035 10.3692ZM64.5312 14.2034C64.4632 14.3428 64.3951 14.4822 64.3249 14.6258C64.2319 14.8087 64.1388 14.9915 64.0429 15.18C63.9523 15.3612 63.8617 15.5425 63.7683 15.7293C63.2775 16.4791 62.7854 16.7778 61.9299 17.0232C61.7378 17.0595 61.5456 17.0957 61.3476 17.1331C61.1531 17.171 60.9585 17.2088 60.758 17.2478C60.611 17.2744 60.464 17.301 60.3125 17.3284C60.4031 17.4332 60.4031 17.4332 60.4956 17.5402C61.5992 18.8214 62.097 19.516 62.0312 21.2347C61.9921 21.6547 61.9368 22.0671 61.875 22.4847C62.0053 22.417 62.1356 22.3493 62.2699 22.2796C64.2695 21.2901 64.2695 21.2901 65.3125 21.5472C65.7424 21.7279 66.1458 21.9286 66.5521 22.1575C66.8601 22.3528 66.8601 22.3528 67.1875 22.3284C67.1802 22.1381 67.173 21.9477 67.1655 21.7516C67.1596 21.4979 67.154 21.2442 67.1484 20.9905C67.1432 20.8655 67.1379 20.7406 67.1325 20.6118C67.1151 19.5454 67.3569 18.8953 68.1128 18.1103C68.2542 17.9988 68.2542 17.9988 68.3984 17.8851C68.4943 17.8079 68.5902 17.7308 68.6889 17.6513C68.7606 17.5963 68.8324 17.5413 68.9062 17.4847C68.3246 17.1603 67.7824 17.0742 67.1301 16.9781C66.3546 16.7548 65.8914 16.403 65.4504 15.7293C65.3598 15.548 65.2691 15.3667 65.1758 15.18C65.0827 14.9971 64.9897 14.8142 64.8938 14.6258C64.8257 14.4864 64.7576 14.347 64.6875 14.2034C64.6359 14.2034 64.5844 14.2034 64.5312 14.2034Z" fill="#28A745"/>
<path d="M10.352 70.8637C10.777 71.1976 10.9152 71.5074 11.0942 72.016C11.1248 72.6282 11.0295 73.1232 10.6938 73.6469C10.1633 73.9869 9.69057 74.0785 9.06293 74.0473C8.56596 73.8485 8.33499 73.6407 7.98871 73.2367C7.7483 72.6357 7.77619 72.1622 7.96918 71.5473C8.62165 70.7264 9.33386 70.5809 10.352 70.8637Z" fill="black"/>
<path d="M23.2814 33.1097C23.712 33.4505 23.9745 33.7146 24.2189 34.2034C24.3125 35.0267 24.1023 35.4354 23.5939 36.0784C23.0513 36.3497 22.467 36.3287 21.8752 36.2347C21.4446 35.8938 21.182 35.6297 20.9377 35.1409C20.8441 34.3177 21.0542 33.9089 21.5627 33.2659C22.1052 32.9946 22.6895 33.0156 23.2814 33.1097Z" fill="black"/>
</g>
<defs>
<clipPath id="clip0_863_2039">
<rect width="80" height="80" fill="white" transform="translate(0 0.922363)"/>
</clipPath>
</defs>
</svg>
