<svg width="80" height="80" viewBox="0 0 80 80" fill="none" xmlns="http://www.w3.org/2000/svg">
<path d="M15.3974 8.4747C16.4339 9.21788 17.0297 10.1647 17.3438 11.4062C17.3438 11.7672 17.3438 12.1281 17.3438 12.5C20.0766 12.5 22.8094 12.5 25.625 12.5C25.6766 11.9843 25.7282 11.4687 25.7813 10.9375C25.975 10.4766 26.1476 10.103 26.4063 9.68747C26.4901 9.55212 26.5739 9.41677 26.6602 9.27731C27.7497 8.18778 28.9038 7.77771 30.4102 7.76364C31.8408 7.76364 32.8862 8.02385 33.9649 9.01364C34.9695 10.1095 35.1476 11.0154 35.3125 12.5C37.9938 12.4484 40.675 12.3968 43.4375 12.3437C43.5407 11.8281 43.6438 11.3125 43.75 10.7812C44.2239 9.53024 45.1056 8.55522 46.3282 7.96872C47.5455 7.59398 49.2848 7.5741 50.4786 8.05661C51.8551 8.81688 52.6331 9.77402 53.125 11.25C53.145 11.6678 53.1319 12.0814 53.125 12.5C53.4252 12.4938 53.4252 12.4938 53.7314 12.4876C54.4797 12.4733 55.2281 12.4644 55.9765 12.4571C56.2993 12.4531 56.6221 12.4478 56.9449 12.441C57.4111 12.4315 57.8772 12.4271 58.3436 12.4237C58.557 12.4176 58.557 12.4176 58.7748 12.4115C59.8461 12.411 60.6701 12.6816 61.5625 13.2812C62.5485 14.2723 62.8439 15.3933 62.8551 16.765C62.8545 16.8837 62.8539 17.0023 62.8533 17.1245C62.8539 17.2539 62.8545 17.3833 62.8551 17.5166C62.8567 17.9471 62.8561 18.3776 62.8555 18.8081C62.8561 19.1179 62.857 19.4278 62.8579 19.7377C62.86 20.577 62.8601 21.4163 62.8597 22.2556C62.8595 22.9566 62.8603 23.6575 62.861 24.3584C62.8627 26.0115 62.8628 27.6645 62.8619 29.3176C62.8609 31.0233 62.8629 32.729 62.8662 34.4347C62.8689 35.8997 62.8699 37.3647 62.8694 38.8297C62.8691 39.7045 62.8695 40.5793 62.8717 41.4541C62.8736 42.276 62.8733 43.098 62.8713 43.9199C62.8709 44.2217 62.8713 44.5235 62.8726 44.8252C62.8743 45.2369 62.873 45.6483 62.871 46.0599C62.8722 46.1796 62.8733 46.2993 62.8745 46.4226C62.8674 47.1219 62.7798 47.5717 62.3438 48.125C61.875 48.4375 61.875 48.4375 61.3282 48.4082C60.6095 48.2413 60.6095 48.2413 60.3125 47.8125C57.8584 40.4501 60.1563 32.2918 60.1563 24.5312C41.336 24.5312 22.5157 24.5312 3.12505 24.5312C3.12505 35.9265 3.12505 47.3218 3.12505 59.0625C5.7346 59.0552 8.34414 59.048 11.0328 59.0405C12.6819 59.0373 14.3311 59.0343 15.9803 59.032C16.8463 59.0307 17.7124 59.0295 18.5784 59.0281C18.6869 59.028 18.7955 59.0278 18.9073 59.0276C20.6606 59.0249 22.414 59.02 24.1673 59.0142C25.9661 59.0084 27.7649 59.005 29.5638 59.0037C30.5744 59.0028 31.585 59.0009 32.5956 58.9964C33.5462 58.9922 34.4967 58.9908 35.4473 58.9918C35.7968 58.9916 36.1462 58.9904 36.4957 58.988C36.9717 58.9849 37.4476 58.9856 37.9237 58.9873C38.0629 58.9855 38.2022 58.9837 38.3456 58.9818C39.2794 58.9909 39.2794 58.9909 39.7727 59.3601C40.017 59.7119 40.0888 59.8881 40.0879 60.3125C40.0931 60.4672 40.0931 60.4672 40.0983 60.625C39.938 61.1349 39.6695 61.2826 39.2188 61.5625C38.7108 61.6545 38.2097 61.6468 37.6946 61.6418C37.4628 61.6433 37.4628 61.6433 37.2263 61.6448C36.708 61.6473 36.1898 61.6453 35.6714 61.6433C35.3001 61.6442 34.9287 61.6453 34.5573 61.6467C33.653 61.6492 32.7487 61.6488 31.8444 61.647C31.1094 61.6456 30.3744 61.6454 29.6395 61.6461C29.4825 61.6462 29.4825 61.6462 29.3225 61.6464C29.1099 61.6466 28.8974 61.6468 28.6849 61.647C26.6922 61.6488 24.6995 61.6467 22.7068 61.6434C20.9971 61.6406 19.2873 61.6411 17.5776 61.644C15.592 61.6473 13.6064 61.6486 11.6208 61.6467C11.4091 61.6465 11.1974 61.6463 10.9856 61.6461C10.8815 61.646 10.7773 61.6459 10.6699 61.6458C9.93587 61.6453 9.20181 61.6462 8.46774 61.6477C7.4797 61.6495 6.49171 61.6482 5.50368 61.6446C5.14068 61.6438 4.77767 61.644 4.41467 61.6454C3.91989 61.6471 3.42527 61.645 2.9305 61.6418C2.71402 61.6439 2.71403 61.6439 2.49317 61.6461C1.84587 61.6381 1.49445 61.6158 0.930179 61.2743C0.476762 60.7738 0.449234 60.3685 0.448702 59.7195C0.448198 59.5643 0.447694 59.4091 0.447175 59.2492C0.447417 59.0783 0.447659 58.9074 0.447908 58.7312C0.447554 58.55 0.4472 58.3687 0.446835 58.182C0.446015 57.678 0.4459 57.1741 0.446084 56.6701C0.446116 56.1269 0.445255 55.5837 0.444513 55.0405C0.443214 53.9757 0.442786 52.9109 0.442699 51.8461C0.442625 50.9804 0.442304 50.1147 0.441808 49.249C0.440432 46.7947 0.439711 44.3403 0.439828 41.886C0.439834 41.7536 0.439841 41.6212 0.439847 41.4848C0.439854 41.3523 0.43986 41.2197 0.439866 41.0832C0.43993 38.9365 0.438436 36.7899 0.436232 34.6433C0.433986 32.4392 0.432909 30.2352 0.433044 28.0311C0.433096 26.7937 0.432667 25.5563 0.430984 24.3188C0.42956 23.2649 0.429223 22.2109 0.430283 21.1569C0.430793 20.6194 0.430804 20.0819 0.429446 19.5444C0.428241 18.9609 0.428965 18.3775 0.43017 17.794C0.429366 17.6251 0.428562 17.4563 0.427734 17.2823C0.434876 15.7157 0.575147 14.4233 1.7188 13.2812C2.9327 12.4084 4.11697 12.4026 5.56646 12.4511C5.76807 12.4547 5.96969 12.4582 6.17742 12.4618C6.67057 12.471 7.16334 12.4837 7.6563 12.5C7.67399 12.3735 7.69167 12.2469 7.7099 12.1166C7.73511 11.9494 7.76033 11.7823 7.78631 11.6101C7.81044 11.4449 7.83457 11.2797 7.85943 11.1095C8.13012 9.91026 8.99701 8.95568 10.0001 8.28122C11.6314 7.37491 13.8225 7.55045 15.3974 8.4747ZM10.4688 11.4062C10.4172 11.7672 10.3657 12.1281 10.3126 12.5C11.8079 12.5 13.3032 12.5 14.8438 12.5C14.6833 11.5368 14.5608 11.2947 13.9063 10.625C12.6602 9.86795 11.2769 10.2099 10.4688 11.4062ZM28.75 10.9375C28.385 11.4395 28.125 11.8628 28.125 12.5C29.6719 12.5 31.2188 12.5 32.8125 12.5C32.4784 11.3303 32.2234 10.9614 31.25 10.3125C30.264 10.1665 29.5022 10.2391 28.75 10.9375ZM47.0313 10.625C46.371 11.1853 46.2406 11.619 46.0938 12.5C47.5891 12.5 49.0844 12.5 50.625 12.5C50.4793 11.6254 50.3591 11.1705 49.6875 10.625C48.7446 10.0969 47.9535 10.0343 47.0313 10.625ZM3.12505 15.625C3.12505 17.739 3.12505 19.8531 3.12505 22.0312C21.9454 22.0312 40.7657 22.0312 60.1563 22.0312C60.1563 19.9172 60.1563 17.8031 60.1563 15.625C59.343 14.9744 59.0317 14.9112 58.0672 14.929C57.8727 14.9289 57.8727 14.9289 57.6743 14.9287C57.2473 14.9292 56.8205 14.934 56.3935 14.9389C56.0968 14.9401 55.8002 14.941 55.5035 14.9416C54.7239 14.944 53.9443 14.9501 53.1647 14.9571C52.3687 14.9635 51.5727 14.9663 50.7767 14.9695C49.2157 14.9761 47.6548 14.9868 46.0938 15C46.2022 15.8532 46.4235 16.253 47.0313 16.875C47.5803 17.1991 48.1264 17.2967 48.7464 17.4121C49.0625 17.5 49.0625 17.5 49.375 17.8125C49.433 18.1341 49.433 18.1341 49.4434 18.5058C49.4497 18.6281 49.4559 18.7503 49.4623 18.8763C49.375 19.2187 49.375 19.2187 49.0406 19.5019C48.0964 19.894 47.032 19.5661 46.1158 19.1931C44.8882 18.5272 44.2148 17.5491 43.75 16.25C43.6954 15.8858 43.6429 15.5212 43.5938 15.1562C43.2936 14.856 42.8458 14.9812 42.4464 14.9805C42.3037 14.9811 42.1611 14.9817 42.0142 14.9822C41.8648 14.9822 41.7154 14.9822 41.5615 14.9822C41.0652 14.9823 40.569 14.9835 40.0727 14.9847C39.7296 14.985 39.3865 14.9852 39.0434 14.9854C38.1385 14.986 37.2335 14.9875 36.3285 14.9892C35.4059 14.9908 34.4832 14.9916 33.5605 14.9923C31.7487 14.994 29.9369 14.9967 28.125 15C28.1911 15.2254 28.2595 15.45 28.3289 15.6744C28.3857 15.8622 28.3857 15.8622 28.4436 16.0538C28.6963 16.6466 29.1125 16.9269 29.6875 17.1875C30.0556 17.2965 30.416 17.3787 30.7941 17.4438C31.0938 17.5 31.0938 17.5 31.4063 17.6562C31.6346 18.9224 31.6346 18.9224 31.4063 19.5312C30.1807 19.7905 29.0069 19.6298 27.9053 19.0057C26.484 17.9795 25.9089 16.7029 25.625 15C20.5719 15 15.5188 15 10.3126 15C10.4731 15.9632 10.5956 16.2053 11.2501 16.875C11.8 17.2008 12.3423 17.2903 12.9651 17.3968C13.2813 17.5 13.2813 17.5 13.5938 17.9687C13.6644 18.9566 13.6644 18.9566 13.2813 19.5312C12.0671 19.8533 11.0434 19.5559 9.97075 18.9648C8.44794 17.9779 8.06209 16.6995 7.6563 15C7.04762 14.9818 6.439 14.9707 5.83013 14.9609C5.65782 14.9557 5.48551 14.9504 5.30797 14.945C5.05797 14.942 5.05797 14.942 4.80291 14.9389C4.64989 14.9357 4.49688 14.9324 4.33923 14.929C3.79884 14.9813 3.79884 14.9813 3.12505 15.625Z" fill="black"/>
<path d="M44.1745 50.6019C44.3607 50.6008 44.5469 50.5997 44.7388 50.5985C44.9433 50.5981 45.1479 50.5977 45.3587 50.5973C45.5761 50.5963 45.7934 50.5952 46.0108 50.5941C46.7249 50.5909 47.4389 50.5892 48.1529 50.5877C48.3988 50.587 48.6446 50.5864 48.8904 50.5857C50.0452 50.5828 51.1999 50.5805 52.3546 50.5792C53.6877 50.5777 55.0207 50.5736 56.3538 50.5673C57.3842 50.5626 58.4146 50.5603 59.445 50.5597C60.0604 50.5594 60.6758 50.558 61.2913 50.5541C61.8702 50.5504 62.4491 50.5498 63.028 50.5514C63.3415 50.5515 63.6551 50.5485 63.9686 50.5454C64.1556 50.5465 64.3427 50.5476 64.5355 50.5487C64.6978 50.5483 64.8601 50.548 65.0273 50.5476C65.5829 50.6449 65.846 50.8644 66.2498 51.2499C66.5114 51.8132 66.4079 52.5162 66.4061 53.1249C66.4985 53.1211 66.591 53.1173 66.6862 53.1133C67.6545 53.0751 68.6225 53.0493 69.5914 53.0305C69.9521 53.0219 70.3128 53.0102 70.6734 52.9952C73.832 52.8677 73.832 52.8677 74.6268 53.4781C75.0249 53.9124 75.3261 54.3372 75.6248 54.8437C75.7758 55.0343 75.9295 55.2228 76.0875 55.4076C76.212 55.5696 76.3364 55.7315 76.4647 55.8983C76.6072 56.083 76.7498 56.2675 76.8925 56.4519C77.0015 56.5928 77.0015 56.5928 77.1127 56.7366C77.3575 57.0489 77.6071 57.3568 77.8581 57.6641C77.986 57.8211 77.986 57.8211 78.1164 57.9813C78.2808 58.1828 78.4459 58.3838 78.6118 58.584C78.6866 58.676 78.7613 58.768 78.8383 58.8628C78.9043 58.943 78.9703 59.0232 79.0383 59.1058C79.4517 59.7228 79.5703 60.2866 79.5715 61.0213C79.5725 61.1908 79.5735 61.3603 79.5745 61.5349C79.5736 61.8071 79.5736 61.8071 79.5726 62.0849C79.5729 62.2727 79.5732 62.4604 79.5735 62.6539C79.5737 63.0506 79.5731 63.4472 79.5718 63.8438C79.5702 64.4508 79.5718 65.0576 79.5738 65.6646C79.5736 66.0501 79.5732 66.4357 79.5726 66.8212C79.5732 67.0027 79.5739 67.1842 79.5745 67.3712C79.573 67.6254 79.573 67.6254 79.5715 67.8847C79.5713 68.0333 79.571 68.1819 79.5708 68.335C79.527 68.7932 79.4289 69.1221 79.2186 69.5312C78.718 69.8649 78.5942 69.8815 78.0205 69.8742C77.881 69.8732 77.7415 69.8722 77.5978 69.8711C77.3801 69.8672 77.3801 69.8672 77.1581 69.8632C77.0111 69.8618 76.8642 69.8604 76.7128 69.8589C76.3501 69.8552 75.9875 69.8501 75.6248 69.8437C75.5856 69.9863 75.5463 70.1289 75.5058 70.2758C75.3041 70.8026 75.143 71.0117 74.7166 71.3671C74.6125 71.4565 74.5084 71.546 74.4011 71.6381C73.3847 72.3487 72.2919 72.2959 71.0936 72.1874C70.1552 71.9309 69.6142 71.4041 69.0623 70.6249C68.9592 70.4187 68.8561 70.2124 68.7498 69.9999C63.542 69.9483 58.3342 69.8968 52.9686 69.8437C52.8655 70.153 52.7623 70.4624 52.6561 70.7812C52.3796 71.101 52.3796 71.101 52.0604 71.3671C51.9563 71.4565 51.8521 71.546 51.7448 71.6381C50.7278 72.3491 49.6362 72.2947 48.4373 72.1874C47.4626 71.9311 46.8032 71.2939 46.2498 70.4687C46.1983 70.314 46.1467 70.1593 46.0936 69.9999C46.0022 69.9984 45.9108 69.997 45.8167 69.9955C45.401 69.9871 44.9857 69.974 44.5702 69.9608C44.3544 69.9575 44.3544 69.9575 44.1344 69.9541C43.9954 69.9491 43.8564 69.9441 43.7132 69.9389C43.5856 69.9356 43.4579 69.9323 43.3264 69.929C42.804 69.8044 42.6592 69.6607 42.3436 69.2187C42.248 68.6543 42.2599 68.0937 42.2652 67.5225C42.2644 67.3497 42.2635 67.1768 42.2626 66.9988C42.2607 66.4269 42.2633 65.855 42.2661 65.2831C42.2661 64.8861 42.2658 64.4892 42.2654 64.0922C42.2652 63.26 42.2671 62.4278 42.2707 61.5955C42.2749 60.6337 42.2751 59.672 42.2733 58.7102C42.2716 57.7845 42.2726 56.8588 42.2748 55.9331C42.2755 55.5394 42.2755 55.1457 42.2749 54.7519C42.2745 54.202 42.2771 53.6522 42.2805 53.1023C42.2798 52.939 42.2791 52.7757 42.2783 52.6074C42.2799 52.4575 42.2814 52.3077 42.283 52.1533C42.2836 51.9584 42.2836 51.9584 42.2842 51.7595C42.3584 51.3182 42.5071 51.1048 42.8123 50.7812C43.306 50.6166 43.656 50.604 44.1745 50.6019ZM44.8436 53.1249C44.8436 55.4452 44.8436 57.7655 44.8436 60.1562C51.0827 60.1562 57.3217 60.1562 63.7498 60.1562C63.7498 57.8358 63.7498 55.5155 63.7498 53.1249C57.5108 53.1249 51.2717 53.1249 44.8436 53.1249ZM66.4061 55.6249C66.4061 59.4921 66.4061 63.3593 66.4061 67.3437C67.2311 67.3437 68.0561 67.3437 68.9061 67.3437C69.0608 67.0343 69.2155 66.7249 69.3748 66.4062C70.0721 65.5985 70.8337 65.2286 71.8999 65.1226C72.9529 65.0774 73.764 65.3356 74.6483 65.8983C75.0924 66.3425 75.3358 66.7869 75.6248 67.3437C76.0373 67.3437 76.4498 67.3437 76.8748 67.3437C76.8748 65.4358 76.8748 63.528 76.8748 61.5624C76.3407 61.5584 75.8065 61.5544 75.2562 61.5502C74.7391 61.5442 74.222 61.5371 73.7048 61.53C73.3454 61.5256 72.9858 61.5223 72.6263 61.5201C72.1097 61.5167 71.5931 61.5094 71.0765 61.5014C70.9157 61.5012 70.7549 61.501 70.5892 61.5008C69.497 61.4784 69.497 61.4784 68.9619 61.162C68.6729 60.643 68.6556 60.1719 68.6546 59.5922C68.6521 59.4786 68.6495 59.3651 68.6468 59.2481C68.6392 58.8867 68.6359 58.5254 68.6327 58.164C68.6283 57.9184 68.6236 57.6728 68.6186 57.4273C68.6071 56.8265 68.5993 56.2258 68.5936 55.6249C67.8717 55.6249 67.1498 55.6249 66.4061 55.6249ZM71.0936 55.6249C71.0936 56.7593 71.0936 57.8937 71.0936 59.0624C72.5373 59.0624 73.9811 59.0624 75.4686 59.0624C75.1579 58.5447 74.8895 58.1202 74.5152 57.6635C74.4258 57.5539 74.3364 57.4443 74.2442 57.3315C74.152 57.2195 74.0597 57.1075 73.9647 56.9921C73.8245 56.8205 73.8245 56.8205 73.6815 56.6454C73.2635 56.1204 73.2635 56.1204 72.8123 55.6249C72.2452 55.6249 71.678 55.6249 71.0936 55.6249ZM44.8436 62.8124C44.8436 64.3077 44.8436 65.803 44.8436 67.3437C45.9912 67.4717 45.9912 67.4717 46.3866 67.1154C46.4446 67.0167 46.5026 66.918 46.5623 66.8163C46.6542 66.6695 46.6542 66.6695 46.7479 66.5197C46.897 66.2525 46.897 66.2525 46.8748 65.9374C48.1094 65.2687 49.2665 64.9043 50.6621 65.2404C51.8711 65.6548 52.3185 66.206 52.9686 67.3437C56.5264 67.3437 60.0842 67.3437 63.7498 67.3437C63.7498 65.8483 63.7498 64.353 63.7498 62.8124C57.5108 62.8124 51.2717 62.8124 44.8436 62.8124ZM48.7791 67.8319C48.3881 68.2518 48.3881 68.2518 48.4373 68.7694C48.6255 69.3296 48.6255 69.3296 49.0623 69.6874C49.6273 69.7716 49.8969 69.7534 50.3807 69.4433C50.6749 69.0597 50.6749 69.0597 50.6248 68.5058C50.513 67.9704 50.513 67.9704 50.1854 67.6659C49.5895 67.3765 49.297 67.4406 48.7791 67.8319ZM71.5331 67.6757C71.1397 68.0826 71.0936 68.3439 71.0936 68.9062C71.3032 69.3764 71.3032 69.3764 71.7186 69.6874C72.2721 69.8046 72.2721 69.8046 72.8123 69.6874C73.2207 69.345 73.2719 69.1176 73.3592 68.5937C73.3216 68.0984 73.3216 68.0984 72.9295 67.7538C72.4081 67.4457 72.0825 67.3931 71.5331 67.6757Z" fill="black"/>
<path d="M8.57334 43.4124C8.68188 43.4116 8.79042 43.4108 8.90225 43.41C9.26118 43.4077 9.62011 43.4067 9.97905 43.4058C10.2287 43.4049 10.4784 43.404 10.7281 43.4031C11.2517 43.4015 11.7752 43.4006 12.2988 43.4C12.969 43.3992 13.6392 43.3954 14.3095 43.391C14.8253 43.388 15.3411 43.3872 15.8569 43.387C16.104 43.3865 16.351 43.3853 16.5981 43.3832C16.944 43.3805 17.2899 43.3808 17.6358 43.3819C17.8325 43.3813 18.0292 43.3807 18.2319 43.3801C18.7989 43.443 19.0861 43.5536 19.5311 43.9063C19.8984 44.4159 19.8839 44.892 19.8865 45.5078C19.888 45.7055 19.8894 45.9031 19.891 46.1067C19.8909 46.3219 19.8908 46.5372 19.8906 46.7524C19.8912 46.9738 19.8918 47.1952 19.8926 47.4167C19.8937 47.8805 19.8937 48.3442 19.8929 48.808C19.892 49.4014 19.8946 49.9946 19.8982 50.588C19.9005 51.0452 19.9007 51.5025 19.9002 51.9597C19.9003 52.1784 19.9011 52.3971 19.9027 52.6158C19.9046 52.9221 19.9032 53.2283 19.9017 53.5346C19.9018 53.7086 19.9019 53.8826 19.902 54.0619C19.8355 54.5957 19.6953 54.8839 19.3748 55.3125C18.7974 55.6975 18.5075 55.6655 17.8182 55.668C17.7081 55.6688 17.598 55.6696 17.4846 55.6704C17.1206 55.6726 16.7567 55.6724 16.3926 55.672C16.1394 55.6727 15.8862 55.6733 15.6331 55.6741C15.1021 55.6752 14.5712 55.6752 14.0403 55.6744C13.3606 55.6735 12.681 55.6761 12.0013 55.6797C11.4782 55.682 10.9552 55.6822 10.4321 55.6817C10.1816 55.6818 9.93102 55.6826 9.68047 55.6842C9.32964 55.6861 8.97894 55.685 8.62811 55.6832C8.42863 55.6833 8.22915 55.6834 8.02362 55.6835C7.41533 55.6156 6.99808 55.4358 6.5623 55C6.54511 54.6679 6.539 54.3351 6.53713 54.0025C6.53596 53.8463 6.53596 53.8463 6.53478 53.6869C6.53249 53.3407 6.53143 52.9945 6.53057 52.6484C6.52967 52.4084 6.52877 52.1684 6.52787 51.9284C6.52622 51.4244 6.52531 50.9204 6.52477 50.4163C6.52391 49.7706 6.52016 49.1249 6.51571 48.4791C6.5128 47.983 6.51199 47.487 6.51175 46.9908C6.51127 46.7528 6.51002 46.5148 6.50797 46.2767C6.5053 45.9434 6.50559 45.6103 6.50661 45.277C6.50604 45.0873 6.50547 44.8976 6.50488 44.7022C6.56737 44.1761 6.65672 43.9623 7.03105 43.5938C7.57383 43.4129 8.00054 43.4155 8.57334 43.4124ZM9.0623 46.0938C9.0623 48.4141 9.0623 50.7344 9.0623 53.125C11.7436 53.125 14.4248 53.125 17.1873 53.125C17.1873 50.8047 17.1873 48.4844 17.1873 46.0938C14.5061 46.0938 11.8248 46.0938 9.0623 46.0938Z" fill="black"/>
<path d="M26.5258 43.4124C26.6326 43.4116 26.7393 43.4108 26.8493 43.41C27.2025 43.4077 27.5556 43.4067 27.9087 43.4058C28.1545 43.4049 28.4003 43.404 28.6461 43.4031C29.1616 43.4015 29.6772 43.4006 30.1927 43.4C30.8521 43.3992 31.5114 43.3954 32.1708 43.391C32.6787 43.388 33.1866 43.3872 33.6945 43.387C33.9375 43.3865 34.1805 43.3853 34.4235 43.3832C34.7642 43.3805 35.1048 43.3808 35.4455 43.3819C35.6391 43.3813 35.8327 43.3807 36.0321 43.3801C36.62 43.4437 36.9982 43.5986 37.5004 43.9063C37.7218 44.3493 37.6789 44.7243 37.6818 45.2197C37.6829 45.3737 37.6829 45.3737 37.6841 45.5308C37.6864 45.8711 37.6875 46.2113 37.6883 46.5516C37.6892 46.7878 37.6901 47.0241 37.691 47.2604C37.6927 47.7561 37.6936 48.2518 37.6941 48.7475C37.695 49.3826 37.6988 50.0176 37.7032 50.6527C37.7061 51.1409 37.7069 51.629 37.7072 52.1172C37.7076 52.3513 37.7089 52.5855 37.7109 52.8196C37.7136 53.1472 37.7133 53.4748 37.7123 53.8025C37.7132 54.0821 37.7132 54.0821 37.714 54.3674C37.6511 54.8892 37.5586 55.1024 37.1879 55.4688C36.6398 55.6515 36.2072 55.646 35.6287 55.6477C35.5184 55.6483 35.4081 55.6488 35.2945 55.6493C34.9297 55.6508 34.5649 55.6511 34.2002 55.6513C33.9466 55.6518 33.6931 55.6523 33.4395 55.6529C32.9079 55.6538 32.3764 55.6541 31.8448 55.654C31.1637 55.654 30.4826 55.6561 29.8015 55.6588C29.2778 55.6605 28.7541 55.6609 28.2304 55.6608C27.9792 55.661 27.7281 55.6617 27.477 55.6629C27.1258 55.6644 26.7746 55.6639 26.4234 55.663C26.2236 55.6632 26.0238 55.6634 25.8179 55.6637C25.3358 55.6268 25.0742 55.5964 24.6879 55.3125C24.318 54.7953 24.3341 54.3046 24.33 53.6823C24.327 53.3765 24.327 53.3765 24.3239 53.0645C24.3234 52.8424 24.3231 52.6202 24.3229 52.3981C24.3219 52.1697 24.3208 51.9412 24.3197 51.7128C24.3178 51.2343 24.3173 50.7558 24.3174 50.2773C24.3175 49.665 24.3132 49.0529 24.3078 48.4406C24.3044 47.9689 24.3037 47.4972 24.3039 47.0255C24.3035 46.7998 24.3021 46.5741 24.2997 46.3484C24.2967 46.0324 24.298 45.7164 24.2994 45.4005C24.299 45.2209 24.2986 45.0413 24.2981 44.8563C24.3924 44.2688 24.5826 44.0107 25.0004 43.5938C25.5384 43.4144 25.9581 43.4155 26.5258 43.4124ZM26.8754 46.0938C26.8754 48.4141 26.8754 50.7344 26.8754 53.125C29.6082 53.125 32.341 53.125 35.1566 53.125C35.1566 50.8047 35.1566 48.4844 35.1566 46.0938C32.4238 46.0938 29.691 46.0938 26.8754 46.0938Z" fill="black"/>
<path d="M8.4843 27.8929C8.65212 27.892 8.65212 27.892 8.82334 27.8911C9.19155 27.8899 9.55955 27.8933 9.92774 27.8968C10.1844 27.8972 10.441 27.8973 10.6976 27.8972C11.2347 27.8977 11.7717 27.9003 12.3088 27.9045C12.9969 27.9098 13.6849 27.911 14.3731 27.9108C14.9027 27.9108 15.4323 27.9126 15.9619 27.9148C16.2156 27.9158 16.4694 27.9164 16.7231 27.9167C17.0776 27.9173 17.4321 27.9201 17.7867 27.9234C17.9883 27.9246 18.19 27.9258 18.3978 27.927C18.88 27.9666 19.145 27.9973 19.5316 28.2813C19.8987 28.796 19.8845 29.2783 19.887 29.8972C19.8885 30.0979 19.89 30.2987 19.8915 30.5056C19.8915 30.7242 19.8914 30.9429 19.8911 31.1616C19.8917 31.3865 19.8924 31.6114 19.8931 31.8364C19.8943 32.3075 19.8943 32.7786 19.8934 33.2498C19.8925 33.8526 19.8952 34.4553 19.8988 35.0581C19.9011 35.5226 19.9012 35.9871 19.9008 36.4516C19.9008 36.6738 19.9017 36.896 19.9032 37.1182C19.9052 37.4293 19.9038 37.7404 19.9023 38.0515C19.9024 38.2283 19.9025 38.4051 19.9026 38.5872C19.8314 39.1657 19.6342 39.585 19.2191 40.0001C18.8469 40.0182 18.4792 40.0263 18.1069 40.0277C17.9323 40.0293 17.9323 40.0293 17.7542 40.0308C17.3675 40.0339 16.9808 40.0357 16.594 40.0373C16.4622 40.0379 16.3304 40.0386 16.1946 40.0392C15.4968 40.0425 14.7991 40.0447 14.1014 40.0462C13.3799 40.0479 12.6586 40.0533 11.9371 40.0595C11.3831 40.0636 10.8292 40.0649 10.2751 40.0654C10.0092 40.0662 9.74325 40.068 9.47731 40.0709C9.10507 40.0747 8.73303 40.0746 8.36078 40.0735C8.25077 40.0755 8.14076 40.0775 8.02742 40.0796C7.52782 40.0742 7.22745 40.0262 6.80727 39.7486C6.48174 39.251 6.48257 38.9176 6.47952 38.3243C6.47817 38.2201 6.47683 38.1159 6.47544 38.0085C6.4719 37.6648 6.47295 37.3213 6.47437 36.9776C6.47355 36.7383 6.47257 36.4989 6.47143 36.2596C6.46981 35.7584 6.47052 35.2572 6.47281 34.756C6.47549 34.1139 6.47182 33.472 6.46632 32.8299C6.46289 32.3358 6.46311 31.8417 6.46441 31.3476C6.46454 31.1109 6.46347 30.8742 6.46117 30.6374C6.45844 30.3063 6.46071 29.9756 6.46426 29.6445C6.46441 29.4563 6.46456 29.268 6.46472 29.0741C6.56287 28.5938 6.56287 28.5938 6.8884 28.2204C7.45802 27.9059 7.83467 27.8915 8.4843 27.8929ZM9.06287 30.4688C9.06287 32.7891 9.06287 35.1094 9.06287 37.5001C11.7441 37.5001 14.4254 37.5001 17.1879 37.5001C17.1879 35.1797 17.1879 32.8594 17.1879 30.4688C14.5066 30.4688 11.8254 30.4688 9.06287 30.4688Z" fill="black"/>
<path d="M26.4328 27.9056C26.5444 27.9045 26.656 27.9034 26.771 27.9023C27.1393 27.8995 27.5074 27.9001 27.8757 27.901C28.1322 27.9003 28.3887 27.8994 28.6451 27.8985C29.1825 27.8971 29.7198 27.8975 30.2571 27.899C30.9451 27.9008 31.6329 27.8977 32.3209 27.8931C32.8505 27.8902 33.3801 27.8903 33.9097 27.8912C34.1633 27.8912 34.4169 27.8903 34.6705 27.8883C35.0255 27.886 35.3802 27.8877 35.7352 27.8903C35.937 27.8904 36.1387 27.8904 36.3467 27.8904C36.9793 27.9841 37.2366 28.1121 37.6566 28.5937C37.7548 29.074 37.7548 29.074 37.7552 29.6444C37.7563 29.7487 37.7574 29.8529 37.7586 29.9603C37.7612 30.3041 37.7582 30.6475 37.7549 30.9912C37.755 31.2305 37.7554 31.4698 37.756 31.7092C37.7565 32.2104 37.7542 32.7116 37.7499 33.2128C37.7445 33.8549 37.7455 34.4968 37.7484 35.1389C37.7501 35.633 37.7487 36.1271 37.7463 36.6212C37.7455 36.8579 37.7456 37.0946 37.7466 37.3314C37.7474 37.6624 37.7442 37.9932 37.74 38.3243C37.739 38.5125 37.738 38.7008 37.737 38.8947C37.6566 39.375 37.6566 39.375 37.4108 39.7482C36.9043 40.0845 36.4686 40.0866 35.8805 40.0784C35.7656 40.0792 35.6507 40.0801 35.5323 40.0809C35.1531 40.0829 34.7741 40.0803 34.3949 40.0775C34.131 40.0775 33.8672 40.0777 33.6033 40.0782C33.0506 40.0784 32.4979 40.0764 31.9452 40.0729C31.2369 40.0684 30.5288 40.0689 29.8205 40.0709C29.2757 40.0719 28.731 40.0707 28.1862 40.0688C27.9251 40.0681 27.6639 40.068 27.4028 40.0686C27.0377 40.0691 26.6728 40.0665 26.3077 40.0631C26.1999 40.0638 26.0921 40.0645 25.981 40.0652C25.5184 40.0581 25.1932 40.0195 24.7819 39.8007C24.2837 39.2644 24.3551 38.6614 24.3527 37.9584C24.3517 37.767 24.3507 37.5756 24.3496 37.3784C24.3495 37.1722 24.3493 36.966 24.3491 36.7535C24.3486 36.5391 24.3481 36.3246 24.3475 36.1102C24.3466 35.6612 24.3463 35.2121 24.3464 34.763C24.3464 34.1886 24.3443 33.6142 24.3416 33.0398C24.3398 32.597 24.3395 32.1543 24.3396 31.7115C24.3393 31.3971 24.3377 31.0827 24.3359 30.7682C24.3364 30.5763 24.3369 30.3845 24.3374 30.1868C24.3372 30.0183 24.3369 29.8498 24.3367 29.6762C24.39 29.0457 24.5131 28.6237 24.9499 28.1582C25.4571 27.8934 25.8617 27.908 26.4328 27.9056ZM27.0316 30.4687C27.0316 32.789 27.0316 35.1093 27.0316 37.5C29.7129 37.5 32.3941 37.5 35.1566 37.5C35.1566 35.1797 35.1566 32.8593 35.1566 30.4687C32.4754 30.4687 29.7941 30.4687 27.0316 30.4687Z" fill="black"/>
<path d="M43.9045 27.8676C44.0552 27.8651 44.2059 27.8626 44.3612 27.8601C44.5222 27.8617 44.6831 27.8633 44.849 27.8649C45.016 27.8642 45.183 27.8634 45.355 27.8626C45.7075 27.8621 46.06 27.8635 46.4125 27.8668C46.9517 27.871 47.4904 27.8668 48.0295 27.8618C48.3724 27.8624 48.7152 27.8634 49.058 27.8649C49.219 27.8633 49.38 27.8617 49.5458 27.8601C50.2885 27.8722 50.6629 27.8814 51.2745 28.331C51.6533 28.8812 51.67 29.1888 51.5629 29.8437C51.332 30.1859 51.332 30.1859 50.9379 30.4687C50.4724 30.5544 50.0158 30.5414 49.5438 30.5297C49.4247 30.5291 49.3055 30.5284 49.1827 30.5278C48.7391 30.5245 48.2955 30.5158 47.8519 30.5077C46.8594 30.4948 45.8668 30.4819 44.8441 30.4687C44.8441 32.789 44.8441 35.1093 44.8441 37.4999C47.5769 37.4999 50.3097 37.4999 53.1254 37.4999C53.1254 36.5202 53.1254 35.5405 53.1254 34.5312C53.6479 34.0087 53.8158 33.9491 54.5316 33.9062C54.9836 34.0191 55.2271 34.0895 55.4878 34.4821C55.7897 35.2756 55.6831 36.1833 55.684 37.0214C55.6878 37.2207 55.6916 37.42 55.6956 37.6253C55.6962 37.8174 55.6968 38.0094 55.6974 38.2073C55.6987 38.3825 55.7 38.5577 55.7013 38.7383C55.6052 39.3464 55.4428 39.5734 55.0004 39.9999C54.5794 40.079 54.2557 40.1071 53.8349 40.101C53.6603 40.1031 53.6603 40.1031 53.4821 40.1051C53.0978 40.1086 52.7138 40.1063 52.3295 40.1037C52.0621 40.1042 51.7948 40.105 51.5274 40.1059C50.9673 40.1071 50.4073 40.1054 49.8473 40.1018C49.1295 40.0973 48.4119 40.0999 47.6941 40.1046C47.1421 40.1074 46.5902 40.1065 46.0381 40.1045C45.7735 40.1039 45.5089 40.1046 45.2442 40.1064C44.8742 40.1084 44.5046 40.1053 44.1346 40.101C43.9707 40.1034 43.9707 40.1034 43.8035 40.1058C43.2552 40.0939 43.0063 40.0324 42.589 39.6678C42.2967 39.1317 42.264 38.7905 42.2608 38.1814C42.2594 38.0804 42.2581 37.9794 42.2567 37.8754C42.2532 37.5435 42.2542 37.2117 42.2556 36.8798C42.2548 36.6481 42.2538 36.4163 42.2527 36.1846C42.2511 35.6997 42.2518 35.2148 42.2541 34.7299C42.2567 34.1093 42.2531 33.489 42.2476 32.8685C42.2441 32.3902 42.2444 31.9119 42.2457 31.4336C42.2458 31.2049 42.2447 30.9761 42.2424 30.7474C42.2397 30.4272 42.242 30.1074 42.2455 29.7872C42.2457 29.6053 42.2458 29.4234 42.246 29.236C42.4284 28.3326 42.9941 27.8719 43.9045 27.8676Z" fill="black"/>
<path d="M44.497 43.4124C44.6575 43.4112 44.6575 43.4112 44.8213 43.41C45.1751 43.4077 45.529 43.4067 45.8828 43.4058C46.129 43.4049 46.3752 43.404 46.6214 43.4031C47.1376 43.4015 47.6538 43.4006 48.17 43.4C48.8308 43.3992 49.4915 43.3954 50.1523 43.391C50.6609 43.388 51.1694 43.3872 51.678 43.387C51.9216 43.3865 52.1652 43.3853 52.4087 43.3832C52.7498 43.3805 53.0908 43.3808 53.4319 43.3819C53.6258 43.3813 53.8198 43.3807 54.0196 43.3801C54.5798 43.443 54.8672 43.5668 55.3128 43.9063C55.7553 44.5701 55.6769 45.1377 55.6741 45.918C55.6766 46.0584 55.6791 46.1988 55.6817 46.3434C55.6827 47.6907 55.6827 47.6907 55.1565 48.2813C54.7429 48.4691 54.3563 48.4769 53.9065 48.4375C53.4378 48.2422 53.4378 48.2422 53.1253 47.8125C53.1253 47.2454 53.1253 46.6782 53.1253 46.0938C50.3925 46.0938 47.6596 46.0938 44.844 46.0938C44.844 46.6094 44.844 47.125 44.844 47.6563C44.3753 48.2813 44.3753 48.2813 43.8479 48.4278C43.2238 48.4385 42.9883 48.342 42.5003 47.9688C42.1122 47.5808 42.2999 46.5658 42.2952 46.045C42.2907 45.8795 42.2861 45.714 42.2815 45.5436C42.2801 45.3841 42.2788 45.2247 42.2775 45.0605C42.2752 44.9142 42.2729 44.7679 42.2706 44.6172C42.3662 44.0982 42.5619 43.919 42.969 43.5938C43.5078 43.4142 43.9285 43.4155 44.497 43.4124Z" fill="black"/>
<path d="M56.2502 28.1251C56.553 28.2911 56.553 28.2911 56.719 28.5939C56.8253 29.2212 56.8835 29.6076 56.5132 30.1393C56.4239 30.2363 56.3345 30.3333 56.2425 30.4332C56.143 30.5417 56.0436 30.6502 55.9411 30.7621C55.4344 31.2943 54.9219 31.8195 54.4015 32.3384C54.2893 32.4507 54.1772 32.563 54.0616 32.6787C53.8269 32.9135 53.592 33.1481 53.3569 33.3826C52.996 33.7426 52.6359 34.1035 52.2759 34.4645C52.047 34.6934 51.818 34.9221 51.589 35.1509C51.4812 35.2589 51.3735 35.367 51.2625 35.4783C51.1628 35.5775 51.0631 35.6767 50.9604 35.7789C50.8728 35.8664 50.7852 35.9538 50.695 36.044C50.2718 36.43 49.8416 36.5079 49.2721 36.4998C48.4569 36.2914 47.9085 35.5787 47.344 34.9903C47.1401 34.7917 47.1401 34.7917 46.932 34.589C45.968 33.6092 45.968 33.6092 45.8291 32.8224C45.9742 32.1834 46.1892 31.9427 46.719 31.5626C47.1584 31.4454 47.1584 31.4454 47.6565 31.5626C48.1123 31.8893 48.5097 32.2612 48.9065 32.6564C48.9961 32.7456 49.0858 32.8348 49.1781 32.9267C49.2432 32.9922 49.3082 33.0577 49.3752 33.1251C49.8278 32.9206 50.147 32.7034 50.4941 32.3493C50.6325 32.2093 50.6325 32.2093 50.7737 32.0665C50.9205 31.9159 50.9205 31.9159 51.0702 31.7622C51.1722 31.659 51.2743 31.5557 51.3794 31.4494C51.705 31.12 52.0295 30.7897 52.3538 30.4591C52.7811 30.0234 53.2095 29.5888 53.6385 29.1548C53.7367 29.054 53.8349 28.9533 53.936 28.8495C54.0278 28.7566 54.1196 28.6638 54.2141 28.5682C54.2945 28.4862 54.3748 28.4042 54.4576 28.3197C55.0243 27.8404 55.573 27.98 56.2502 28.1251Z" fill="#28A745"/>
</svg>
