<svg width="70" height="70" viewBox="0 0 70 70" fill="none" xmlns="http://www.w3.org/2000/svg">
<path d="M35.6094 1.02301C35.726 1.02205 35.8425 1.02109 35.9626 1.0201C36.3476 1.0177 36.7325 1.01929 37.1176 1.02114C37.3852 1.02077 37.6529 1.02024 37.9205 1.01955C38.4814 1.01875 39.0422 1.01992 39.6031 1.02247C40.3222 1.02559 41.0411 1.0238 41.7602 1.02052C42.3129 1.01854 42.8655 1.01917 43.4182 1.02059C43.6833 1.02095 43.9484 1.02051 44.2136 1.01923C44.5841 1.01785 44.9545 1.01996 45.325 1.02301C45.4347 1.0219 45.5443 1.02079 45.6573 1.01965C46.139 1.02699 46.4273 1.05365 46.8228 1.33959C47.073 1.70362 47.1326 2.00245 47.1066 2.44333C46.9494 3.03848 46.5022 3.40957 46.0727 3.82815C45.9396 3.96233 45.8069 4.09674 45.6743 4.23136C45.3086 4.60123 44.9395 4.96733 44.5688 5.33205C44.7582 5.76054 44.9776 6.0455 45.3127 6.37133C45.4037 6.46086 45.4948 6.55039 45.5885 6.64263C45.6834 6.73463 45.7784 6.82662 45.8761 6.92141C46.0646 7.10517 46.2528 7.28923 46.4406 7.47362C46.5241 7.55463 46.6076 7.63563 46.6935 7.71909C47.0711 8.11779 47.0584 8.47791 47.0879 9.01384C47.0008 9.43753 46.8221 9.57951 46.4828 9.84377C46.1245 9.89498 45.8244 9.91324 45.4669 9.90585C45.3148 9.90597 45.3148 9.90597 45.1596 9.9061C44.8251 9.90572 44.4909 9.90147 44.1565 9.89718C43.9243 9.89616 43.6921 9.89538 43.4599 9.89483C42.8494 9.89275 42.239 9.88737 41.6286 9.88132C41.0054 9.87572 40.3822 9.87323 39.759 9.87047C38.5367 9.86461 37.3145 9.85499 36.0922 9.84377C36.0922 11.2875 36.0922 12.7313 36.0922 14.2188C36.6738 14.2145 36.6738 14.2145 37.2671 14.2101C38.55 14.201 39.833 14.195 41.1159 14.1904C41.8936 14.1876 42.6712 14.1837 43.4488 14.1775C44.1996 14.1716 44.9504 14.1683 45.7013 14.1669C45.9874 14.1659 46.2734 14.1639 46.5595 14.1609C46.961 14.157 47.3624 14.1564 47.764 14.1567C47.8815 14.1547 47.9991 14.1528 48.1201 14.1507C49.0589 14.1571 49.7708 14.4121 50.4808 15.0343C50.5913 15.1678 50.5913 15.1678 50.704 15.304C50.7798 15.3926 50.8556 15.4813 50.9337 15.5726C51.298 16.1014 51.4387 16.5797 51.4405 17.2186C51.4415 17.3518 51.4425 17.4851 51.4436 17.6224C51.4432 17.8405 51.4432 17.8405 51.4428 18.0629C51.4436 18.2182 51.4444 18.3734 51.4452 18.5333C51.4475 19.0546 51.4479 19.5758 51.4483 20.097C51.4494 20.4703 51.4509 20.8435 51.4524 21.2167C51.4555 22.0207 51.4575 22.8248 51.4589 23.6288C51.4609 24.7914 51.4644 25.9539 51.4683 27.1164C51.4745 29.0026 51.4795 30.8887 51.4837 32.7748C51.4879 34.607 51.4926 36.4392 51.498 38.2714C51.4985 38.4408 51.4985 38.4408 51.499 38.6136C51.5007 39.1802 51.5024 39.7468 51.5041 40.3134C51.5183 45.0136 51.5305 49.7138 51.5414 54.4141C51.6716 54.4327 51.8017 54.4513 51.9359 54.4705C52.4292 54.5411 52.9225 54.6125 53.4157 54.6841C53.6273 54.7147 53.8388 54.7451 54.0504 54.7753C63.971 56.1931 63.971 56.1931 67.1273 59.1992C67.8309 60.15 67.8955 60.9123 67.8109 62.0703C67.6486 62.5318 67.6486 62.5318 67.4008 62.8906C67.3106 63.0232 67.2203 63.1557 67.1273 63.2923C63.1122 67.8538 53.5297 67.9585 47.9191 68.4651C47.693 68.4856 47.467 68.5064 47.241 68.5277C39.2382 69.2803 30.8883 69.2975 22.8861 68.5277C22.5507 68.4955 22.2152 68.4647 21.8796 68.434C6.67833 67.0291 6.67833 67.0291 2.86954 63.3008C2.16413 62.3541 2.10012 61.5854 2.18595 60.4297C2.35685 59.9597 2.35685 59.9597 2.59611 59.6094C2.70185 59.4444 2.70185 59.4444 2.80973 59.2761C5.96801 55.9559 11.9701 55.3378 16.2749 54.727C16.4884 54.6963 16.7019 54.6654 16.9153 54.6345C17.4286 54.5604 17.942 54.487 18.4555 54.4141C18.4556 54.2945 18.4556 54.2945 18.4557 54.1725C18.4606 49.4471 18.4684 44.7217 18.4798 39.9963C18.4812 39.4288 18.4825 38.8614 18.4839 38.2939C18.4843 38.1244 18.4842 38.1244 18.4847 37.9516C18.4889 36.1227 18.4912 34.2938 18.4928 32.4649C18.4945 30.5881 18.4983 28.7113 18.504 26.8345C18.5074 25.6765 18.5092 24.5186 18.509 23.3606C18.509 22.5664 18.511 21.7722 18.5146 20.978C18.5166 20.5199 18.5174 20.0618 18.5164 19.6037C18.5155 19.1065 18.518 18.6094 18.5212 18.1123C18.5202 17.9681 18.5191 17.8239 18.518 17.6754C18.5299 16.6575 18.7298 15.9163 19.4077 15.1427C19.4967 15.069 19.5857 14.9954 19.6774 14.9195C19.7661 14.8437 19.8547 14.7679 19.946 14.6898C20.6763 14.1866 21.3284 14.1806 22.1863 14.1877C22.3765 14.1877 22.3765 14.1877 22.5705 14.1876C22.9885 14.1878 23.4064 14.1899 23.8244 14.1921C24.1146 14.1926 24.4048 14.193 24.695 14.1932C25.4581 14.1943 26.2212 14.197 26.9842 14.2C27.7632 14.2028 28.5422 14.204 29.3211 14.2054C30.849 14.2083 32.3769 14.213 33.9047 14.2188C33.9035 14.0624 33.9023 13.906 33.901 13.7449C33.8899 12.2723 33.8817 10.7998 33.8764 9.32715C33.8735 8.57004 33.8696 7.81295 33.8634 7.05586C33.8575 6.3254 33.8542 5.59498 33.8528 4.86451C33.8518 4.58563 33.8498 4.30675 33.8469 4.02788C33.8429 3.63767 33.8424 3.24759 33.8426 2.85736C33.8406 2.74171 33.8387 2.62607 33.8367 2.50691C33.8401 2.01762 33.8565 1.72172 34.1096 1.29559C34.5993 1.00656 35.0568 1.01743 35.6094 1.02301ZM36.0922 3.28127C36.0922 4.72502 36.0922 6.16877 36.0922 7.65627C38.3932 7.65627 40.6942 7.65627 43.0649 7.65627C42.5059 6.99876 42.5059 6.99876 41.9198 6.36599C41.6733 5.97725 41.5955 5.67407 41.6165 5.21189C41.7508 4.7322 42.0615 4.43123 42.4053 4.08236C42.6989 3.7943 42.6989 3.7943 43.0649 3.28127C40.7639 3.28127 38.4629 3.28127 36.0922 3.28127ZM21.0531 16.8164C20.8018 17.3111 20.7456 17.7168 20.7461 18.2674C20.7455 18.4212 20.745 18.5749 20.7444 18.7333C20.7452 18.9016 20.746 19.0698 20.7468 19.2431C20.7466 19.4224 20.7463 19.6016 20.7461 19.7863C20.7455 20.2836 20.7466 20.7808 20.748 21.2781C20.7491 21.8145 20.7487 22.3508 20.7485 22.8871C20.7484 23.8163 20.7493 24.7455 20.7508 25.6746C20.753 27.018 20.7537 28.3614 20.7541 29.7049C20.7547 31.8844 20.7565 34.064 20.7591 36.2436C20.7616 38.3609 20.7635 40.4782 20.7647 42.5956C20.7647 42.7261 20.7648 42.8566 20.7649 42.991C20.7653 43.6457 20.7656 44.3004 20.7659 44.9551C20.7688 50.3867 20.7737 55.8184 20.7797 61.25C23.3063 61.25 25.8328 61.25 28.4359 61.25C28.4359 59.4453 28.4359 57.6406 28.4359 55.7813C28.075 55.7813 27.7141 55.7813 27.3422 55.7813C27.3422 55.0594 27.3422 54.3375 27.3422 53.5938C32.3953 53.5938 37.4484 53.5938 42.6547 53.5938C42.6547 54.3156 42.6547 55.0375 42.6547 55.7813C42.2938 55.7813 41.9328 55.7813 41.5609 55.7813C41.5609 57.586 41.5609 59.3906 41.5609 61.25C44.0875 61.25 46.6141 61.25 49.2172 61.25C49.2265 55.6905 49.2338 50.131 49.2381 44.5714C49.2387 43.9153 49.2392 43.2592 49.2397 42.6031C49.2398 42.4724 49.2399 42.3418 49.2401 42.2072C49.2418 40.0913 49.2451 37.9753 49.2488 35.8593C49.2527 33.6887 49.255 31.518 49.2558 29.3474C49.2564 28.0076 49.2581 26.6679 49.2615 25.3281C49.2636 24.4098 49.2643 23.4915 49.2637 22.5732C49.2635 22.0431 49.2639 21.5131 49.2661 20.983C49.2685 20.4085 49.2676 19.8341 49.2665 19.2596C49.2677 19.0917 49.2689 18.9239 49.2701 18.751C49.2818 17.6483 49.2818 17.6483 48.807 16.6797C48.2598 16.3412 47.6761 16.3674 47.0502 16.3706C46.943 16.3701 46.8358 16.3696 46.7254 16.369C46.3666 16.3676 46.0079 16.3682 45.6492 16.3687C45.3918 16.3681 45.1344 16.3674 44.877 16.3666C44.1782 16.3648 43.4794 16.3647 42.7805 16.365C42.1971 16.3652 41.6138 16.3645 41.0304 16.3639C39.6542 16.3623 38.2779 16.3623 36.9017 16.3631C35.4818 16.3639 34.062 16.3623 32.6421 16.3593C31.423 16.3569 30.204 16.3561 28.9849 16.3566C28.2568 16.3568 27.5288 16.3564 26.8007 16.3545C26.116 16.3528 25.4314 16.3531 24.7468 16.3549C24.4956 16.3552 24.2443 16.3548 23.9931 16.3537C23.6501 16.3523 23.3071 16.3534 22.964 16.3551C22.8648 16.3541 22.7655 16.3531 22.6632 16.3521C22.0285 16.3588 21.5802 16.4574 21.0531 16.8164ZM30.6234 55.7813C30.6234 57.586 30.6234 59.3906 30.6234 61.25C31.7063 61.25 32.7891 61.25 33.9047 61.25C33.9047 59.4453 33.9047 57.6406 33.9047 55.7813C32.8219 55.7813 31.7391 55.7813 30.6234 55.7813ZM36.0922 55.7813C36.0922 57.586 36.0922 59.3906 36.0922 61.25C37.175 61.25 38.2578 61.25 39.3734 61.25C39.3734 59.4453 39.3734 57.6406 39.3734 55.7813C38.2906 55.7813 37.2078 55.7813 36.0922 55.7813ZM15.7809 57.157C15.692 57.1719 15.6032 57.1868 15.5116 57.2022C9.46837 57.9752 9.46837 57.9752 4.51017 60.9766C4.46896 61.4044 4.46896 61.4044 4.64689 61.7969C8.82237 65.8238 18.5786 65.8652 24.0609 66.3086C24.2234 66.3222 24.3859 66.3357 24.5533 66.3497C35.2 67.2102 46.5333 67.073 57.0102 64.8047C57.155 64.7735 57.2998 64.7424 57.449 64.7102C61.8925 63.9255 61.8925 63.9255 65.4867 61.5235C65.5416 61.1704 65.5416 61.1704 65.35 60.8399C62.205 57.9907 55.5367 56.8425 51.4047 56.875C51.4028 57.1046 51.4028 57.1046 51.4008 57.3389C51.3954 57.9092 51.3864 58.4794 51.3763 59.0496C51.3725 59.296 51.3696 59.5424 51.3676 59.7888C51.3647 60.1439 51.3583 60.4987 51.3513 60.8538C51.3511 60.9632 51.351 61.0726 51.3508 61.1853C51.3322 61.9028 51.2065 62.329 50.7211 62.8906C50.1068 63.3739 49.567 63.3592 48.8189 63.3538C48.6961 63.3545 48.5733 63.3553 48.4467 63.356C48.0351 63.358 47.6235 63.357 47.2118 63.356C46.9167 63.3568 46.6216 63.3578 46.3265 63.3589C45.5249 63.3613 44.7232 63.3612 43.9216 63.3604C43.2526 63.36 42.5835 63.3608 41.9145 63.3616C40.3364 63.3636 38.7583 63.3633 37.1802 63.3618C35.5516 63.3602 33.923 63.3621 32.2943 63.3658C30.8965 63.3688 29.4986 63.3697 28.1008 63.3689C27.2657 63.3685 26.4306 63.3688 25.5956 63.3712C24.8104 63.3733 24.0252 63.3727 23.24 63.3702C22.9518 63.3697 22.6635 63.3701 22.3753 63.3715C21.9819 63.3733 21.5887 63.3717 21.1953 63.3693C21.0811 63.3706 20.967 63.372 20.8493 63.3733C20.1245 63.3641 19.7164 63.2308 19.1391 62.7539C18.6487 62.1685 18.6647 61.5972 18.659 60.8671C18.6565 60.7528 18.654 60.6384 18.6515 60.5206C18.6441 60.1571 18.6395 59.7935 18.6349 59.43C18.6304 59.1828 18.6257 58.9356 18.6208 58.6884C18.6092 58.084 18.6 57.4795 18.5922 56.875C17.6286 56.8586 16.7288 56.9973 15.7809 57.157Z" fill="black"/>
<path d="M42.2479 44.7712C42.3672 44.7707 42.4865 44.7701 42.6094 44.7696C42.8613 44.7692 43.1132 44.7702 43.3651 44.7725C43.7505 44.7754 44.1355 44.7725 44.5208 44.769C44.7658 44.7694 45.0107 44.7701 45.2557 44.7712C45.3708 44.7701 45.4858 44.769 45.6044 44.7678C46.0939 44.7757 46.4038 44.7959 46.8319 45.0449C47.1333 45.5632 47.1113 46.0312 47.1056 46.6212C47.1062 46.7405 47.1067 46.8598 47.1072 46.9827C47.1076 47.2346 47.1066 47.4865 47.1043 47.7384C47.1014 48.1238 47.1043 48.5088 47.1078 48.8941C47.1074 49.1391 47.1067 49.384 47.1056 49.629C47.1068 49.744 47.1079 49.8591 47.109 49.9777C47.1012 50.4672 47.0809 50.7771 46.8319 51.2052C46.3136 51.5066 45.8456 51.4846 45.2557 51.4789C45.1364 51.4795 45.017 51.48 44.8941 51.4805C44.6422 51.4809 44.3903 51.4799 44.1384 51.4776C43.7531 51.4747 43.3681 51.4776 42.9827 51.4811C42.7378 51.4807 42.4928 51.48 42.2479 51.4789C42.1328 51.48 42.0177 51.4812 41.8991 51.4823C41.4096 51.4745 41.0997 51.4542 40.6716 51.2052C40.3702 50.6869 40.3922 50.2189 40.3979 49.629C40.3974 49.5097 40.3968 49.3903 40.3963 49.2674C40.3959 49.0155 40.3969 48.7636 40.3992 48.5117C40.4021 48.1264 40.3992 47.7414 40.3957 47.356C40.3961 47.1111 40.3968 46.8661 40.3979 46.6212C40.3968 46.5061 40.3957 46.391 40.3945 46.2724C40.4024 45.7829 40.4226 45.473 40.6716 45.0449C41.1899 44.7435 41.6579 44.7655 42.2479 44.7712ZM42.658 47.0313C42.658 47.7532 42.658 48.4751 42.658 49.2188C43.3799 49.2188 44.1018 49.2188 44.8455 49.2188C44.8455 48.4969 44.8455 47.7751 44.8455 47.0313C44.1236 47.0313 43.4018 47.0313 42.658 47.0313Z" fill="black"/>
<path d="M33.4979 44.7712C33.6172 44.7707 33.7365 44.7701 33.8594 44.7696C34.1113 44.7692 34.3632 44.7702 34.6151 44.7725C35.0005 44.7754 35.3855 44.7725 35.7708 44.769C36.0158 44.7694 36.2607 44.7701 36.5057 44.7712C36.6208 44.7701 36.7358 44.769 36.8544 44.7678C37.3439 44.7757 37.6538 44.7959 38.0819 45.0449C38.3833 45.5632 38.3613 46.0312 38.3556 46.6212C38.3562 46.7405 38.3567 46.8598 38.3572 46.9827C38.3576 47.2346 38.3566 47.4865 38.3543 47.7384C38.3514 48.1238 38.3543 48.5088 38.3578 48.8941C38.3574 49.1391 38.3567 49.384 38.3556 49.629C38.3568 49.744 38.3579 49.8591 38.359 49.9777C38.3512 50.4672 38.3309 50.7771 38.0819 51.2052C37.5636 51.5066 37.0956 51.4846 36.5057 51.4789C36.3864 51.4795 36.267 51.48 36.1441 51.4805C35.8922 51.4809 35.6403 51.4799 35.3884 51.4776C35.0031 51.4747 34.6181 51.4776 34.2327 51.4811C33.9878 51.4807 33.7428 51.48 33.4979 51.4789C33.3828 51.48 33.2677 51.4812 33.1491 51.4823C32.6596 51.4745 32.3497 51.4542 31.9216 51.2052C31.6202 50.6869 31.6422 50.2189 31.6479 49.629C31.6474 49.5097 31.6468 49.3903 31.6463 49.2674C31.6459 49.0155 31.6469 48.7636 31.6492 48.5117C31.6521 48.1264 31.6492 47.7414 31.6457 47.356C31.6461 47.1111 31.6468 46.8661 31.6479 46.6212C31.6468 46.5061 31.6457 46.391 31.6445 46.2724C31.6524 45.7829 31.6726 45.473 31.9216 45.0449C32.4399 44.7435 32.9079 44.7655 33.4979 44.7712ZM33.908 47.0313C33.908 47.7532 33.908 48.4751 33.908 49.2188C34.6299 49.2188 35.3518 49.2188 36.0955 49.2188C36.0955 48.4969 36.0955 47.7751 36.0955 47.0313C35.3736 47.0313 34.6518 47.0313 33.908 47.0313Z" fill="#28A745"/>
<path d="M24.7479 44.7712C24.8672 44.7707 24.9865 44.7701 25.1094 44.7696C25.3613 44.7692 25.6132 44.7702 25.8651 44.7725C26.2505 44.7754 26.6355 44.7725 27.0208 44.769C27.2658 44.7694 27.5107 44.7701 27.7557 44.7712C27.8708 44.7701 27.9858 44.769 28.1044 44.7678C28.5939 44.7757 28.9038 44.7959 29.3319 45.0449C29.6333 45.5632 29.6113 46.0312 29.6056 46.6212C29.6062 46.7405 29.6067 46.8598 29.6072 46.9827C29.6076 47.2346 29.6066 47.4865 29.6043 47.7384C29.6014 48.1238 29.6043 48.5088 29.6078 48.8941C29.6074 49.1391 29.6067 49.384 29.6056 49.629C29.6068 49.744 29.6079 49.8591 29.609 49.9777C29.6012 50.4672 29.5809 50.7771 29.3319 51.2052C28.8136 51.5066 28.3456 51.4846 27.7557 51.4789C27.6364 51.4795 27.517 51.48 27.3941 51.4805C27.1422 51.4809 26.8903 51.4799 26.6384 51.4776C26.2531 51.4747 25.8681 51.4776 25.4827 51.4811C25.2378 51.4807 24.9928 51.48 24.7479 51.4789C24.6328 51.48 24.5177 51.4812 24.3991 51.4823C23.9096 51.4745 23.5997 51.4542 23.1716 51.2052C22.8702 50.6869 22.8922 50.2189 22.8979 49.629C22.8974 49.5097 22.8968 49.3903 22.8963 49.2674C22.8959 49.0155 22.8969 48.7636 22.8992 48.5117C22.9021 48.1264 22.8992 47.7414 22.8957 47.356C22.8961 47.1111 22.8968 46.8661 22.8979 46.6212C22.8968 46.5061 22.8957 46.391 22.8945 46.2724C22.9024 45.7829 22.9226 45.473 23.1716 45.0449C23.6899 44.7435 24.1579 44.7655 24.7479 44.7712ZM25.158 47.0313C25.158 47.7532 25.158 48.4751 25.158 49.2188C25.8799 49.2188 26.6018 49.2188 27.3455 49.2188C27.3455 48.4969 27.3455 47.7751 27.3455 47.0313C26.6236 47.0313 25.9018 47.0313 25.158 47.0313Z" fill="black"/>
<path d="M42.2479 36.0212C42.3672 36.0207 42.4865 36.0201 42.6094 36.0196C42.8613 36.0192 43.1132 36.0202 43.3651 36.0225C43.7505 36.0254 44.1355 36.0225 44.5208 36.019C44.7658 36.0194 45.0107 36.0201 45.2557 36.0212C45.3708 36.0201 45.4858 36.019 45.6044 36.0178C46.0939 36.0257 46.4038 36.0459 46.8319 36.2949C47.1333 36.8132 47.1113 37.2812 47.1056 37.8712C47.1062 37.9905 47.1067 38.1098 47.1072 38.2327C47.1076 38.4846 47.1066 38.7365 47.1043 38.9884C47.1014 39.3738 47.1043 39.7588 47.1078 40.1441C47.1074 40.3891 47.1067 40.634 47.1056 40.879C47.1068 40.994 47.1079 41.1091 47.109 41.2277C47.1012 41.7172 47.0809 42.0271 46.8319 42.4552C46.3136 42.7566 45.8456 42.7346 45.2557 42.7289C45.1364 42.7295 45.017 42.73 44.8941 42.7305C44.6422 42.7309 44.3903 42.7299 44.1384 42.7276C43.7531 42.7247 43.3681 42.7276 42.9827 42.7311C42.7378 42.7307 42.4928 42.73 42.2479 42.7289C42.1328 42.73 42.0177 42.7312 41.8991 42.7323C41.4096 42.7245 41.0997 42.7042 40.6716 42.4552C40.3702 41.9369 40.3922 41.4689 40.3979 40.879C40.3974 40.7597 40.3968 40.6403 40.3963 40.5174C40.3959 40.2655 40.3969 40.0136 40.3992 39.7617C40.4021 39.3764 40.3992 38.9914 40.3957 38.606C40.3961 38.3611 40.3968 38.1161 40.3979 37.8712C40.3968 37.7561 40.3957 37.641 40.3945 37.5224C40.4024 37.0329 40.4226 36.723 40.6716 36.2949C41.1899 35.9935 41.6579 36.0155 42.2479 36.0212ZM42.658 38.2813C42.658 39.0032 42.658 39.7251 42.658 40.4688C43.3799 40.4688 44.1018 40.4688 44.8455 40.4688C44.8455 39.7469 44.8455 39.0251 44.8455 38.2813C44.1236 38.2813 43.4018 38.2813 42.658 38.2813Z" fill="black"/>
<path d="M33.4979 36.0212C33.6172 36.0207 33.7365 36.0201 33.8594 36.0196C34.1113 36.0192 34.3632 36.0202 34.6151 36.0225C35.0005 36.0254 35.3855 36.0225 35.7708 36.019C36.0158 36.0194 36.2607 36.0201 36.5057 36.0212C36.6208 36.0201 36.7358 36.019 36.8544 36.0178C37.3439 36.0257 37.6538 36.0459 38.0819 36.2949C38.3833 36.8132 38.3613 37.2812 38.3556 37.8712C38.3562 37.9905 38.3567 38.1098 38.3572 38.2327C38.3576 38.4846 38.3566 38.7365 38.3543 38.9884C38.3514 39.3738 38.3543 39.7588 38.3578 40.1441C38.3574 40.3891 38.3567 40.634 38.3556 40.879C38.3568 40.994 38.3579 41.1091 38.359 41.2277C38.3512 41.7172 38.3309 42.0271 38.0819 42.4552C37.5636 42.7566 37.0956 42.7346 36.5057 42.7289C36.3864 42.7295 36.267 42.73 36.1441 42.7305C35.8922 42.7309 35.6403 42.7299 35.3884 42.7276C35.0031 42.7247 34.6181 42.7276 34.2327 42.7311C33.9878 42.7307 33.7428 42.73 33.4979 42.7289C33.3828 42.73 33.2677 42.7312 33.1491 42.7323C32.6596 42.7245 32.3497 42.7042 31.9216 42.4552C31.6202 41.9369 31.6422 41.4689 31.6479 40.879C31.6474 40.7597 31.6468 40.6403 31.6463 40.5174C31.6459 40.2655 31.6469 40.0136 31.6492 39.7617C31.6521 39.3764 31.6492 38.9914 31.6457 38.606C31.6461 38.3611 31.6468 38.1161 31.6479 37.8712C31.6468 37.7561 31.6457 37.641 31.6445 37.5224C31.6524 37.0329 31.6726 36.723 31.9216 36.2949C32.4399 35.9935 32.9079 36.0155 33.4979 36.0212ZM33.908 38.2813C33.908 39.0032 33.908 39.7251 33.908 40.4688C34.6299 40.4688 35.3518 40.4688 36.0955 40.4688C36.0955 39.7469 36.0955 39.0251 36.0955 38.2813C35.3736 38.2813 34.6518 38.2813 33.908 38.2813Z" fill="#28A745"/>
<path d="M24.7479 36.0212C24.8672 36.0207 24.9865 36.0201 25.1094 36.0196C25.3613 36.0192 25.6132 36.0202 25.8651 36.0225C26.2505 36.0254 26.6355 36.0225 27.0208 36.019C27.2658 36.0194 27.5107 36.0201 27.7557 36.0212C27.8708 36.0201 27.9858 36.019 28.1044 36.0178C28.5939 36.0257 28.9038 36.0459 29.3319 36.2949C29.6333 36.8132 29.6113 37.2812 29.6056 37.8712C29.6062 37.9905 29.6067 38.1098 29.6072 38.2327C29.6076 38.4846 29.6066 38.7365 29.6043 38.9884C29.6014 39.3738 29.6043 39.7588 29.6078 40.1441C29.6074 40.3891 29.6067 40.634 29.6056 40.879C29.6068 40.994 29.6079 41.1091 29.609 41.2277C29.6012 41.7172 29.5809 42.0271 29.3319 42.4552C28.8136 42.7566 28.3456 42.7346 27.7557 42.7289C27.6364 42.7295 27.517 42.73 27.3941 42.7305C27.1422 42.7309 26.8903 42.7299 26.6384 42.7276C26.2531 42.7247 25.8681 42.7276 25.4827 42.7311C25.2378 42.7307 24.9928 42.73 24.7479 42.7289C24.6328 42.73 24.5177 42.7312 24.3991 42.7323C23.9096 42.7245 23.5997 42.7042 23.1716 42.4552C22.8702 41.9369 22.8922 41.4689 22.8979 40.879C22.8974 40.7597 22.8968 40.6403 22.8963 40.5174C22.8959 40.2655 22.8969 40.0136 22.8992 39.7617C22.9021 39.3764 22.8992 38.9914 22.8957 38.606C22.8961 38.3611 22.8968 38.1161 22.8979 37.8712C22.8968 37.7561 22.8957 37.641 22.8945 37.5224C22.9024 37.0329 22.9226 36.723 23.1716 36.2949C23.6899 35.9935 24.1579 36.0155 24.7479 36.0212ZM25.158 38.2813C25.158 39.0032 25.158 39.7251 25.158 40.4688C25.8799 40.4688 26.6018 40.4688 27.3455 40.4688C27.3455 39.7469 27.3455 39.0251 27.3455 38.2813C26.6236 38.2813 25.9018 38.2813 25.158 38.2813Z" fill="black"/>
<path d="M42.2479 27.2712C42.3672 27.2707 42.4865 27.2701 42.6094 27.2696C42.8613 27.2692 43.1132 27.2702 43.3651 27.2725C43.7505 27.2754 44.1355 27.2725 44.5208 27.269C44.7658 27.2694 45.0107 27.2701 45.2557 27.2712C45.3708 27.2701 45.4858 27.269 45.6044 27.2678C46.0939 27.2757 46.4038 27.2959 46.8319 27.5449C47.1333 28.0632 47.1113 28.5312 47.1056 29.1212C47.1062 29.2405 47.1067 29.3598 47.1072 29.4827C47.1076 29.7346 47.1066 29.9865 47.1043 30.2384C47.1014 30.6238 47.1043 31.0088 47.1078 31.3941C47.1074 31.6391 47.1067 31.884 47.1056 32.129C47.1068 32.244 47.1079 32.3591 47.109 32.4777C47.1012 32.9672 47.0809 33.2771 46.8319 33.7052C46.3136 34.0066 45.8456 33.9846 45.2557 33.9789C45.1364 33.9795 45.017 33.98 44.8941 33.9805C44.6422 33.9809 44.3903 33.9799 44.1384 33.9776C43.7531 33.9747 43.3681 33.9776 42.9827 33.9811C42.7378 33.9807 42.4928 33.98 42.2479 33.9789C42.1328 33.98 42.0177 33.9812 41.8991 33.9823C41.4096 33.9745 41.0997 33.9542 40.6716 33.7052C40.3702 33.1869 40.3922 32.7189 40.3979 32.129C40.3974 32.0097 40.3968 31.8903 40.3963 31.7674C40.3959 31.5155 40.3969 31.2636 40.3992 31.0117C40.4021 30.6264 40.3992 30.2414 40.3957 29.856C40.3961 29.6111 40.3968 29.3661 40.3979 29.1212C40.3968 29.0061 40.3957 28.891 40.3945 28.7724C40.4024 28.2829 40.4226 27.973 40.6716 27.5449C41.1899 27.2435 41.6579 27.2655 42.2479 27.2712ZM42.658 29.5313C42.658 30.2532 42.658 30.9751 42.658 31.7188C43.3799 31.7188 44.1018 31.7188 44.8455 31.7188C44.8455 30.9969 44.8455 30.2751 44.8455 29.5313C44.1236 29.5313 43.4018 29.5313 42.658 29.5313Z" fill="black"/>
<path d="M33.4979 27.2712C33.6172 27.2707 33.7365 27.2701 33.8594 27.2696C34.1113 27.2692 34.3632 27.2702 34.6151 27.2725C35.0005 27.2754 35.3855 27.2725 35.7708 27.269C36.0158 27.2694 36.2607 27.2701 36.5057 27.2712C36.6208 27.2701 36.7358 27.269 36.8544 27.2678C37.3439 27.2757 37.6538 27.2959 38.0819 27.5449C38.3833 28.0632 38.3613 28.5312 38.3556 29.1212C38.3562 29.2405 38.3567 29.3598 38.3572 29.4827C38.3576 29.7346 38.3566 29.9865 38.3543 30.2384C38.3514 30.6238 38.3543 31.0088 38.3578 31.3941C38.3574 31.6391 38.3567 31.884 38.3556 32.129C38.3568 32.244 38.3579 32.3591 38.359 32.4777C38.3512 32.9672 38.3309 33.2771 38.0819 33.7052C37.5636 34.0066 37.0956 33.9846 36.5057 33.9789C36.3864 33.9795 36.267 33.98 36.1441 33.9805C35.8922 33.9809 35.6403 33.9799 35.3884 33.9776C35.0031 33.9747 34.6181 33.9776 34.2327 33.9811C33.9878 33.9807 33.7428 33.98 33.4979 33.9789C33.3828 33.98 33.2677 33.9812 33.1491 33.9823C32.6596 33.9745 32.3497 33.9542 31.9216 33.7052C31.6202 33.1869 31.6422 32.7189 31.6479 32.129C31.6474 32.0097 31.6468 31.8903 31.6463 31.7674C31.6459 31.5155 31.6469 31.2636 31.6492 31.0117C31.6521 30.6264 31.6492 30.2414 31.6457 29.856C31.6461 29.6111 31.6468 29.3661 31.6479 29.1212C31.6468 29.0061 31.6457 28.891 31.6445 28.7724C31.6524 28.2829 31.6726 27.973 31.9216 27.5449C32.4399 27.2435 32.9079 27.2655 33.4979 27.2712ZM33.908 29.5313C33.908 30.2532 33.908 30.9751 33.908 31.7188C34.6299 31.7188 35.3518 31.7188 36.0955 31.7188C36.0955 30.9969 36.0955 30.2751 36.0955 29.5313C35.3736 29.5313 34.6518 29.5313 33.908 29.5313Z" fill="#28A745"/>
<path d="M24.7479 27.2712C24.8672 27.2707 24.9865 27.2701 25.1094 27.2696C25.3613 27.2692 25.6132 27.2702 25.8651 27.2725C26.2505 27.2754 26.6355 27.2725 27.0208 27.269C27.2658 27.2694 27.5107 27.2701 27.7557 27.2712C27.8708 27.2701 27.9858 27.269 28.1044 27.2678C28.5939 27.2757 28.9038 27.2959 29.3319 27.5449C29.6333 28.0632 29.6113 28.5312 29.6056 29.1212C29.6062 29.2405 29.6067 29.3598 29.6072 29.4827C29.6076 29.7346 29.6066 29.9865 29.6043 30.2384C29.6014 30.6238 29.6043 31.0088 29.6078 31.3941C29.6074 31.6391 29.6067 31.884 29.6056 32.129C29.6068 32.244 29.6079 32.3591 29.609 32.4777C29.6012 32.9672 29.5809 33.2771 29.3319 33.7052C28.8136 34.0066 28.3456 33.9846 27.7557 33.9789C27.6364 33.9795 27.517 33.98 27.3941 33.9805C27.1422 33.9809 26.8903 33.9799 26.6384 33.9776C26.2531 33.9747 25.8681 33.9776 25.4827 33.9811C25.2378 33.9807 24.9928 33.98 24.7479 33.9789C24.6328 33.98 24.5177 33.9812 24.3991 33.9823C23.9096 33.9745 23.5997 33.9542 23.1716 33.7052C22.8702 33.1869 22.8922 32.7189 22.8979 32.129C22.8974 32.0097 22.8968 31.8903 22.8963 31.7674C22.8959 31.5155 22.8969 31.2636 22.8992 31.0117C22.9021 30.6264 22.8992 30.2414 22.8957 29.856C22.8961 29.6111 22.8968 29.3661 22.8979 29.1212C22.8968 29.0061 22.8957 28.891 22.8945 28.7724C22.9024 28.2829 22.9226 27.973 23.1716 27.5449C23.6899 27.2435 24.1579 27.2655 24.7479 27.2712ZM25.158 29.5313C25.158 30.2532 25.158 30.9751 25.158 31.7188C25.8799 31.7188 26.6018 31.7188 27.3455 31.7188C27.3455 30.9969 27.3455 30.2751 27.3455 29.5313C26.6236 29.5313 25.9018 29.5313 25.158 29.5313Z" fill="black"/>
<path d="M42.2479 18.5212C42.3672 18.5207 42.4865 18.5201 42.6094 18.5196C42.8613 18.5192 43.1132 18.5202 43.3651 18.5225C43.7505 18.5254 44.1355 18.5225 44.5208 18.519C44.7658 18.5194 45.0107 18.5201 45.2557 18.5212C45.3708 18.5201 45.4858 18.519 45.6044 18.5178C46.0939 18.5257 46.4038 18.5459 46.8319 18.7949C47.1333 19.3132 47.1113 19.7812 47.1056 20.3712C47.1062 20.4905 47.1067 20.6098 47.1072 20.7327C47.1076 20.9846 47.1066 21.2365 47.1043 21.4884C47.1014 21.8738 47.1043 22.2588 47.1078 22.6441C47.1074 22.8891 47.1067 23.134 47.1056 23.379C47.1068 23.494 47.1079 23.6091 47.109 23.7277C47.1012 24.2172 47.0809 24.5271 46.8319 24.9552C46.3136 25.2566 45.8456 25.2346 45.2557 25.2289C45.1364 25.2295 45.017 25.23 44.8941 25.2305C44.6422 25.2309 44.3903 25.2299 44.1384 25.2276C43.7531 25.2247 43.3681 25.2276 42.9827 25.2311C42.7378 25.2307 42.4928 25.23 42.2479 25.2289C42.1328 25.23 42.0177 25.2312 41.8991 25.2323C41.4096 25.2245 41.0997 25.2042 40.6716 24.9552C40.3702 24.4369 40.3922 23.9689 40.3979 23.379C40.3974 23.2597 40.3968 23.1403 40.3963 23.0174C40.3959 22.7655 40.3969 22.5136 40.3992 22.2617C40.4021 21.8764 40.3992 21.4914 40.3957 21.106C40.3961 20.8611 40.3968 20.6161 40.3979 20.3712C40.3968 20.2561 40.3957 20.141 40.3945 20.0224C40.4024 19.5329 40.4226 19.223 40.6716 18.7949C41.1899 18.4935 41.6579 18.5155 42.2479 18.5212ZM42.658 20.7813C42.658 21.5032 42.658 22.2251 42.658 22.9688C43.3799 22.9688 44.1018 22.9688 44.8455 22.9688C44.8455 22.2469 44.8455 21.5251 44.8455 20.7813C44.1236 20.7813 43.4018 20.7813 42.658 20.7813Z" fill="black"/>
<path d="M33.4979 18.5212C33.6172 18.5207 33.7365 18.5201 33.8594 18.5196C34.1113 18.5192 34.3632 18.5202 34.6151 18.5225C35.0005 18.5254 35.3855 18.5225 35.7708 18.519C36.0158 18.5194 36.2607 18.5201 36.5057 18.5212C36.6208 18.5201 36.7358 18.519 36.8544 18.5178C37.3439 18.5257 37.6538 18.5459 38.0819 18.7949C38.3833 19.3132 38.3613 19.7812 38.3556 20.3712C38.3562 20.4905 38.3567 20.6098 38.3572 20.7327C38.3576 20.9846 38.3566 21.2365 38.3543 21.4884C38.3514 21.8738 38.3543 22.2588 38.3578 22.6441C38.3574 22.8891 38.3567 23.134 38.3556 23.379C38.3568 23.494 38.3579 23.6091 38.359 23.7277C38.3512 24.2172 38.3309 24.5271 38.0819 24.9552C37.5636 25.2566 37.0956 25.2346 36.5057 25.2289C36.3864 25.2295 36.267 25.23 36.1441 25.2305C35.8922 25.2309 35.6403 25.2299 35.3884 25.2276C35.0031 25.2247 34.6181 25.2276 34.2327 25.2311C33.9878 25.2307 33.7428 25.23 33.4979 25.2289C33.3828 25.23 33.2677 25.2312 33.1491 25.2323C32.6596 25.2245 32.3497 25.2042 31.9216 24.9552C31.6202 24.4369 31.6422 23.9689 31.6479 23.379C31.6474 23.2597 31.6468 23.1403 31.6463 23.0174C31.6459 22.7655 31.6469 22.5136 31.6492 22.2617C31.6521 21.8764 31.6492 21.4914 31.6457 21.106C31.6461 20.8611 31.6468 20.6161 31.6479 20.3712C31.6468 20.2561 31.6457 20.141 31.6445 20.0224C31.6524 19.5329 31.6726 19.223 31.9216 18.7949C32.4399 18.4935 32.9079 18.5155 33.4979 18.5212ZM33.908 20.7813C33.908 21.5032 33.908 22.2251 33.908 22.9688C34.6299 22.9688 35.3518 22.9688 36.0955 22.9688C36.0955 22.2469 36.0955 21.5251 36.0955 20.7813C35.3736 20.7813 34.6518 20.7813 33.908 20.7813Z" fill="#28A745"/>
<path d="M24.7479 18.5212C24.8672 18.5207 24.9865 18.5201 25.1094 18.5196C25.3613 18.5192 25.6132 18.5202 25.8651 18.5225C26.2505 18.5254 26.6355 18.5225 27.0208 18.519C27.2658 18.5194 27.5107 18.5201 27.7557 18.5212C27.8708 18.5201 27.9858 18.519 28.1044 18.5178C28.5939 18.5257 28.9038 18.5459 29.3319 18.7949C29.6333 19.3132 29.6113 19.7812 29.6056 20.3712C29.6062 20.4905 29.6067 20.6098 29.6072 20.7327C29.6076 20.9846 29.6066 21.2365 29.6043 21.4884C29.6014 21.8738 29.6043 22.2588 29.6078 22.6441C29.6074 22.8891 29.6067 23.134 29.6056 23.379C29.6068 23.494 29.6079 23.6091 29.609 23.7277C29.6012 24.2172 29.5809 24.5271 29.3319 24.9552C28.8136 25.2566 28.3456 25.2346 27.7557 25.2289C27.6364 25.2295 27.517 25.23 27.3941 25.2305C27.1422 25.2309 26.8903 25.2299 26.6384 25.2276C26.2531 25.2247 25.8681 25.2276 25.4827 25.2311C25.2378 25.2307 24.9928 25.23 24.7479 25.2289C24.6328 25.23 24.5177 25.2312 24.3991 25.2323C23.9096 25.2245 23.5997 25.2042 23.1716 24.9552C22.8702 24.4369 22.8922 23.9689 22.8979 23.379C22.8974 23.2597 22.8968 23.1403 22.8963 23.0174C22.8959 22.7655 22.8969 22.5136 22.8992 22.2617C22.9021 21.8764 22.8992 21.4914 22.8957 21.106C22.8961 20.8611 22.8968 20.6161 22.8979 20.3712C22.8968 20.2561 22.8957 20.141 22.8945 20.0224C22.9024 19.5329 22.9226 19.223 23.1716 18.7949C23.6899 18.4935 24.1579 18.5155 24.7479 18.5212ZM25.158 20.7813C25.158 21.5032 25.158 22.2251 25.158 22.9688C25.8799 22.9688 26.6018 22.9688 27.3455 22.9688C27.3455 22.2469 27.3455 21.5251 27.3455 20.7813C26.6236 20.7813 25.9018 20.7813 25.158 20.7813Z" fill="black"/>
</svg>
