<svg width="120" height="21" viewBox="0 0 120 21" fill="none" xmlns="http://www.w3.org/2000/svg">
<path d="M10 0.8125L12.2451 7.72233H19.5106L13.6327 11.9928L15.8779 18.9027L10 14.6322L4.12215 18.9027L6.36729 11.9928L0.489435 7.72233H7.75486L10 0.8125Z" fill="#FFBF00"/>
<path d="M35 0.8125L37.2451 7.72233H44.5106L38.6327 11.9928L40.8779 18.9027L35 14.6322L29.1221 18.9027L31.3673 11.9928L25.4894 7.72233H32.7549L35 0.8125Z" fill="#FFBF00"/>
<path d="M60 0.8125L62.2451 7.72233H69.5106L63.6327 11.9928L65.8779 18.9027L60 14.6322L54.1221 18.9027L56.3673 11.9928L50.4894 7.72233H57.7549L60 0.8125Z" fill="#FFBF00"/>
<path d="M85 0.8125L87.2451 7.72233H94.5106L88.6327 11.9928L90.8779 18.9027L85 14.6322L79.1221 18.9027L81.3673 11.9928L75.4894 7.72233H82.7549L85 0.8125Z" fill="#FFBF00"/>
<path d="M110 0.8125L112.245 7.72233H119.511L113.633 11.9928L115.878 18.9027L110 14.6322L104.122 18.9027L106.367 11.9928L100.489 7.72233H107.755L110 0.8125Z" fill="#FFBF00"/>
</svg>
