<svg width="120" height="21" viewBox="0 0 120 21" fill="none" xmlns="http://www.w3.org/2000/svg">
<path d="M10 0.5L12.2451 7.40983H19.5106L13.6327 11.6803L15.8779 18.5902L10 14.3197L4.12215 18.5902L6.36729 11.6803L0.489435 7.40983H7.75486L10 0.5Z" fill="#FFBF00"/>
<path d="M35 0.5L37.2451 7.40983H44.5106L38.6327 11.6803L40.8779 18.5902L35 14.3197L29.1221 18.5902L31.3673 11.6803L25.4894 7.40983H32.7549L35 0.5Z" fill="#FFBF00"/>
<path d="M60 0.5L62.2451 7.40983H69.5106L63.6327 11.6803L65.8779 18.5902L60 14.3197L54.1221 18.5902L56.3673 11.6803L50.4894 7.40983H57.7549L60 0.5Z" fill="#FFBF00"/>
<path d="M85 0.5L87.2451 7.40983H94.5106L88.6327 11.6803L90.8779 18.5902L85 14.3197L79.1221 18.5902L81.3673 11.6803L75.4894 7.40983H82.7549L85 0.5Z" fill="#FFBF00"/>
<path d="M110 2.11804L111.77 7.56434L111.882 7.90983H112.245H117.972L113.339 11.2758L113.045 11.4894L113.157 11.8348L114.927 17.2812L110.294 13.9152L110 13.7016L109.706 13.9152L105.073 17.2812L106.843 11.8348L106.955 11.4894L106.661 11.2758L102.028 7.90983H107.755H108.118L108.23 7.56434L110 2.11804Z" stroke="#959899"/>
<mask id="mask0_993_2004" style="mask-type:alpha" maskUnits="userSpaceOnUse" x="100" y="0" width="20" height="19">
<path d="M110 0.5L107.755 7.40983H100.489L106.367 11.6803L104.122 18.5902L110 14.3197L115.878 18.5902L113.633 11.6803L119.511 7.40983H112.245L110 0.5Z" fill="#FFBF00"/>
</mask>
<g mask="url(#mask0_993_2004)">
</g>
</svg>
