<svg width="58" height="57" viewBox="0 0 58 57" fill="none" xmlns="http://www.w3.org/2000/svg">
<g clip-path="url(#clip0_585_1907)">
<path d="M8.02929 3.18903C9.07809 3.95826 9.92836 5.04444 10.1915 6.34579C10.2012 6.53109 10.2051 6.71673 10.2049 6.90229C10.2051 7.07041 10.2051 7.07041 10.2053 7.24193C10.2047 7.42535 10.2047 7.42535 10.2041 7.61247C10.2041 7.74175 10.2042 7.87103 10.2042 8.00423C10.2041 8.43192 10.2032 8.8596 10.2024 9.28729C10.2022 9.58367 10.202 9.88006 10.2019 10.1764C10.2015 10.8771 10.2006 11.5777 10.1995 12.2783C10.1983 13.076 10.1976 13.8738 10.1971 14.6715C10.1959 16.3123 10.194 17.9531 10.1915 19.5938C10.3506 19.5114 10.3506 19.5114 10.5129 19.4273C10.6539 19.3552 10.7949 19.2832 10.936 19.2111C11.0057 19.1749 11.0753 19.1387 11.1471 19.1013C12.2658 18.5332 13.7279 18.5134 14.9229 18.8841C16.011 19.2676 16.8267 20.0569 17.6246 20.8589C17.7283 20.9618 17.8319 21.0647 17.9388 21.1708C18.2209 21.4509 18.5019 21.7321 18.7827 22.0135C19.0186 22.2497 19.255 22.4855 19.4914 22.7212C20.0502 23.2784 20.608 23.8364 21.1654 24.395C21.7368 24.9677 22.3097 25.539 22.8832 26.1096C23.3786 26.6025 23.873 27.0962 24.3668 27.5906C24.6604 27.8846 24.9543 28.1782 25.249 28.471C27.7522 30.9593 27.7522 30.9593 28.4493 32.1739C28.4493 32.2474 28.4493 32.3209 28.4493 32.3966C28.5228 32.3966 28.5963 32.3966 28.672 32.3966C28.7001 32.3172 28.7282 32.2378 28.7571 32.156C29.4535 30.5554 31.0462 29.3013 32.261 28.0873C32.497 27.8513 32.7325 27.6149 32.9681 27.3784C33.5241 26.8203 34.0809 26.2631 34.6384 25.7064C35.2107 25.1349 35.7813 24.5617 36.3511 23.9877C36.8436 23.4918 37.3371 22.997 37.8315 22.5031C38.1255 22.2094 38.4189 21.9153 38.7114 21.6201C39.0374 21.2912 39.3656 20.9645 39.6941 20.638C39.7889 20.5417 39.8837 20.4454 39.9814 20.3462C41.0153 19.3265 42.1455 18.6866 43.6167 18.6665C43.7343 18.6675 43.7343 18.6675 43.8543 18.6684C43.9371 18.669 44.0198 18.6695 44.105 18.6701C44.9922 18.6889 45.6875 18.891 46.4601 19.3281C46.5486 19.378 46.6371 19.4278 46.7282 19.4792C46.828 19.5359 46.828 19.5359 46.9298 19.5938C46.9293 19.5269 46.9287 19.4599 46.9282 19.391C46.9159 17.7563 46.9067 16.1216 46.9009 14.4868C46.8981 13.6962 46.8942 12.9057 46.8878 12.1151C46.8822 11.4255 46.8786 10.7358 46.8774 10.0461C46.8767 9.68148 46.8747 9.31692 46.8709 8.95229C46.8498 6.83298 46.9256 5.31274 48.4418 3.71044C49.6142 2.60372 50.9447 2.38589 52.4805 2.41147C53.8541 2.4721 54.9333 3.16177 55.8569 4.1401C56.5935 5.04539 56.966 6.03309 56.9657 7.1839C56.9661 7.26871 56.9665 7.35352 56.9669 7.4409C56.9682 7.72536 56.9686 8.00981 56.969 8.29427C56.9697 8.49821 56.9704 8.70214 56.9712 8.90607C56.9736 9.57659 56.9747 10.2471 56.9758 10.9176C56.9763 11.149 56.9767 11.3804 56.9772 11.6118C56.9793 12.7003 56.9809 13.7887 56.9818 14.8772C56.9829 16.1297 56.9858 17.3822 56.9904 18.6347C56.9937 19.6048 56.9954 20.575 56.9957 21.5452C56.996 22.1235 56.997 22.7018 56.9998 23.2801C57.0024 23.8257 57.0028 24.3713 57.0017 24.9169C57.0017 25.1155 57.0023 25.314 57.0039 25.5126C57.0313 29.2497 55.5865 32.2287 53.1581 35.0228C52.7899 35.4469 52.4358 35.8819 52.0817 36.3178C51.7968 36.6653 51.5069 37.0083 51.2159 37.3507C50.8404 37.7925 50.4687 38.2369 50.1026 38.6866C49.6854 39.1992 49.2599 39.7042 48.8319 40.2078C48.427 40.6851 48.0305 41.1686 47.6356 41.6542C47.2803 42.086 46.9182 42.5118 46.5545 42.9364C46.0905 43.4806 45.9006 43.7703 45.8817 44.4909C45.8774 44.6355 45.8731 44.7801 45.8687 44.929C45.8652 45.0817 45.8617 45.2345 45.8582 45.3872C45.854 45.5412 45.8496 45.6952 45.8452 45.8492C45.8347 46.2263 45.8252 46.6034 45.8165 46.9805C45.9423 46.9773 45.9423 46.9773 46.0707 46.9739C46.1808 46.9723 46.291 46.9706 46.4044 46.9688C46.5681 46.9655 46.5681 46.9655 46.7352 46.9622C47.1696 46.9883 47.393 47.1335 47.7091 47.4259C48.0449 47.8793 48.0856 48.2119 48.088 48.7709C48.0892 48.8867 48.0892 48.8867 48.0903 49.0048C48.0924 49.2588 48.092 49.5128 48.0913 49.7668C48.0918 49.9441 48.0924 50.1214 48.0931 50.2987C48.0941 50.67 48.0938 51.0412 48.0927 51.4124C48.0914 51.8873 48.0937 52.362 48.0969 52.8368C48.099 53.2029 48.0989 53.5689 48.0983 53.935C48.0983 54.11 48.099 54.285 48.1003 54.4601C48.102 54.7052 48.1008 54.9502 48.0989 55.1953C48.0989 55.4042 48.0989 55.4042 48.0988 55.6172C48.0314 56.0778 47.8946 56.31 47.5977 56.6661C47.1859 56.9635 46.9022 57.0419 46.3972 57.0424C46.2031 57.0438 46.2031 57.0438 46.005 57.0453C45.8632 57.0446 45.7215 57.0439 45.5755 57.0432C45.423 57.0437 45.2706 57.0443 45.1181 57.0451C44.6992 57.0467 44.2804 57.0462 43.8615 57.0454C43.4097 57.0448 42.958 57.0462 42.5062 57.0474C41.6212 57.0493 40.7362 57.0494 39.8511 57.0488C39.1319 57.0484 38.4127 57.0485 37.6934 57.0491C37.5399 57.0492 37.5399 57.0492 37.3834 57.0494C37.1755 57.0495 36.9677 57.0497 36.7599 57.0499C34.8102 57.0514 32.8606 57.0508 30.9109 57.0495C29.1267 57.0484 27.3426 57.0499 25.5584 57.0525C23.727 57.0552 21.8955 57.0563 20.0641 57.0556C19.0356 57.0552 18.0072 57.0554 16.9788 57.0574C16.1033 57.059 15.2279 57.0591 14.3524 57.0571C13.9056 57.0562 13.4589 57.056 13.0122 57.0577C12.6032 57.0592 12.1943 57.0587 11.7854 57.0565C11.5673 57.0559 11.3492 57.0575 11.1312 57.0591C9.94681 57.0491 9.94681 57.0491 9.41219 56.5548C9.05969 56.1151 9.03562 55.765 9.03322 55.2097C9.03208 55.0939 9.03208 55.0939 9.03091 54.9758C9.02888 54.7218 9.0293 54.4679 9.02993 54.2138C9.02943 54.0365 9.02884 53.8592 9.02817 53.6819C9.02717 53.3106 9.02744 52.9394 9.02855 52.5682C9.02983 52.0934 9.02758 51.6186 9.02433 51.1438C9.02228 50.7778 9.02232 50.4117 9.02295 50.0456C9.02297 49.8706 9.0223 49.6956 9.02091 49.5206C9.01925 49.2754 9.02045 49.0305 9.02235 48.7853C9.02237 48.6461 9.02239 48.5068 9.02241 48.3634C9.10235 47.8177 9.34956 47.4727 9.75313 47.1058C10.1055 46.9708 10.3383 46.9678 10.7129 46.9727C10.8236 46.9739 10.9343 46.975 11.0484 46.9761C11.133 46.9776 11.2176 46.9791 11.3048 46.9805C11.4692 44.9184 11.4692 44.9184 10.7985 43.0696C10.5344 42.7978 10.2563 42.5521 9.96883 42.3048C9.79749 42.1043 9.63029 41.9002 9.46785 41.6925C9.10178 41.2427 8.73006 40.7984 8.35457 40.3565C7.89579 39.8166 7.44503 39.2709 6.99776 38.7214C6.71121 38.3729 6.42017 38.0285 6.12801 37.6847C5.66915 37.1447 5.21815 36.599 4.7712 36.0491C4.53682 35.7644 4.29872 35.4837 4.05879 35.2037C1.94973 32.7376 0.157177 29.8721 0.154822 26.5174C0.154334 26.4319 0.153845 26.3465 0.153343 26.2584C0.151861 25.9731 0.151167 25.6878 0.150483 25.4024C0.149603 25.1974 0.148682 24.9923 0.147724 24.7873C0.144813 24.1148 0.143102 23.4423 0.141514 22.7697C0.140917 22.5377 0.140318 22.3057 0.139718 22.0736C0.137311 21.108 0.135225 20.1423 0.13397 19.1767C0.132164 17.7956 0.128473 16.4145 0.122125 15.0334C0.117808 14.0608 0.115641 13.0882 0.115053 12.1155C0.114648 11.5354 0.113322 10.9552 0.109698 10.3751C0.106334 9.82874 0.105652 9.28243 0.106958 8.73606C0.106982 8.5365 0.106068 8.33693 0.104102 8.13738C0.0874797 6.3522 0.419917 5.04633 1.68402 3.71044C3.38139 2.10806 6.09495 1.95515 8.02929 3.18903ZM3.95711 6.34579C3.52268 6.93002 3.49792 7.49491 3.49691 8.20566C3.49666 8.27928 3.49641 8.3529 3.49615 8.42875C3.49545 8.67466 3.49553 8.92056 3.49563 9.16647C3.49529 9.34318 3.49492 9.51989 3.49449 9.6966C3.49351 10.1765 3.49325 10.6564 3.49318 11.1363C3.4931 11.4369 3.49286 11.7375 3.49257 12.0381C3.49154 13.0893 3.49108 14.1404 3.49117 15.1916C3.49124 16.1671 3.49007 17.1427 3.4883 18.1182C3.48684 18.9585 3.48625 19.7988 3.48632 20.639C3.48635 21.1396 3.48604 21.6402 3.48485 22.1407C3.48376 22.6131 3.48378 23.0854 3.48458 23.5577C3.48469 23.7294 3.48444 23.9011 3.48376 24.0728C3.48038 24.9825 3.51311 25.8787 3.61003 26.7838C3.61855 26.8649 3.62706 26.946 3.63583 27.0295C3.87829 29.09 4.89704 30.8286 6.25842 32.3411C6.4829 32.5942 6.69475 32.8571 6.90731 33.1202C7.27338 33.5699 7.6451 34.0143 8.02059 34.4561C8.47937 34.996 8.93013 35.5418 9.3774 36.0913C9.66395 36.4398 9.95499 36.7842 10.2472 37.128C10.7059 37.6679 11.1567 38.2136 11.604 38.7631C11.8905 39.1117 12.1816 39.456 12.4737 39.7999C12.8635 40.2594 13.2519 40.72 13.6357 41.1845C13.7125 41.2774 13.7893 41.3702 13.8684 41.4659C15.3177 43.3285 14.5548 43.2976 14.6446 46.9805C18.6858 46.9805 22.727 46.9805 26.8907 46.9805C26.8953 45.6993 26.8999 44.4181 26.9046 43.098C26.9066 42.6978 26.9087 42.2975 26.9108 41.8852C26.9115 41.5173 26.9115 41.5173 26.912 41.1493C26.9123 40.9891 26.9131 40.8289 26.9142 40.6687C26.9205 39.739 26.8925 38.8234 26.7928 37.8986C26.7843 37.8182 26.7757 37.7378 26.7669 37.655C26.4654 35.1156 25.0782 33.2183 23.3061 31.4551C23.2079 31.3564 23.1097 31.2578 23.0085 31.1562C22.7423 30.8893 22.4757 30.6228 22.2088 30.3566C21.9283 30.0767 21.6484 29.7962 21.3683 29.5158C20.899 29.0461 20.4292 28.5768 19.9591 28.1078C19.416 27.566 18.8738 27.0234 18.332 26.4803C17.8653 26.0126 17.3981 25.5452 16.9305 25.0782C16.6519 24.8 16.3734 24.5216 16.0954 24.2427C15.7861 23.9327 15.476 23.6236 15.1657 23.3146C15.074 23.2224 14.9822 23.1303 14.8877 23.0353C14.8032 22.9514 14.7186 22.8674 14.6315 22.7809C14.5583 22.7079 14.4852 22.6348 14.4098 22.5595C13.9611 22.1706 13.5817 22.1054 13.0025 22.1187C12.5093 22.1889 12.2013 22.4663 11.8823 22.8293C11.6115 23.2711 11.5964 23.6502 11.6388 24.1583C11.8507 24.7101 12.1663 25.0334 12.6407 25.3829C12.7142 25.4931 12.7877 25.6033 12.8634 25.7169C12.9368 25.7169 13.0103 25.7169 13.086 25.7169C13.086 25.7904 13.086 25.8638 13.086 25.9395C13.1595 25.9395 13.233 25.9395 13.3087 25.9395C13.3454 26.0498 13.3822 26.16 13.42 26.2735C13.5731 26.4638 13.5731 26.4638 13.754 26.6075C13.8275 26.6075 13.9009 26.6075 13.9766 26.6075C14.0134 26.7177 14.0501 26.8279 14.088 26.9415C14.2623 27.1144 14.2623 27.1144 14.4707 27.2755C14.7434 27.4942 14.8911 27.6452 15.0899 27.9434C15.1634 27.9434 15.2369 27.9434 15.3126 27.9434C15.3423 28.0095 15.3721 28.0756 15.4027 28.1437C15.5373 28.3926 15.6721 28.5506 15.8738 28.7473C15.9421 28.8145 16.0105 28.8818 16.0809 28.9511C16.1546 29.0226 16.2282 29.094 16.3041 29.1676C16.4597 29.3209 16.6152 29.4742 16.7707 29.6275C17.016 29.8679 17.2615 30.1081 17.5073 30.3479C17.7448 30.58 17.9812 30.8131 18.2175 31.0463C18.2912 31.1175 18.3648 31.1887 18.4407 31.2621C18.9193 31.7355 19.1732 32.08 19.2508 32.7653C19.1988 33.2766 19.0651 33.6497 18.7638 34.0665C18.3159 34.3998 17.9064 34.4408 17.3656 34.4557C16.6193 34.3041 16.0852 33.7748 15.5675 33.2531C15.4973 33.1837 15.4271 33.1143 15.3548 33.0428C15.1245 32.8144 14.8954 32.5849 14.6664 32.3553C14.5052 32.1946 14.344 32.034 14.1827 31.8734C13.8451 31.5367 13.5081 31.1995 13.1715 30.8618C12.7433 30.4323 12.3133 30.0046 11.8828 29.5773C11.5493 29.2458 11.2168 28.9133 10.8845 28.5804C10.7266 28.4225 10.5684 28.2649 10.4097 28.1077C8.47859 26.1911 6.94098 24.1121 6.91682 21.2728C6.91733 21.1393 6.91784 21.0058 6.91837 20.8683C6.91759 20.7239 6.91682 20.5794 6.91601 20.4306C6.91435 20.1193 6.91369 19.8081 6.91385 19.4969C6.91408 19.0041 6.91188 18.5114 6.90937 18.0186C6.90484 17.0622 6.90275 16.1059 6.90089 15.1495C6.8984 13.9301 6.89466 12.7108 6.88896 11.4915C6.88675 11.0022 6.88568 10.5129 6.88551 10.0235C6.88528 9.79253 6.88455 9.56153 6.8836 9.33052C6.88246 9.04965 6.88211 8.76878 6.8827 8.4879C6.89076 7.34218 6.89076 7.34218 6.35762 6.36666C5.84402 5.92822 5.56133 5.85088 4.90427 5.86525C4.49235 5.91722 4.26236 6.07032 3.95711 6.34579ZM50.7149 6.34579C50.4365 6.73981 50.3391 7.00757 50.338 7.48841C50.337 7.60431 50.3359 7.72021 50.3348 7.83962C50.3353 7.96564 50.3358 8.09165 50.3363 8.22149C50.3356 8.35517 50.3348 8.48885 50.334 8.62658C50.3321 8.99286 50.3317 9.35912 50.3319 9.72541C50.3317 10.1108 50.3294 10.4961 50.3273 10.8815C50.3228 11.7797 50.3207 12.6779 50.3189 13.5762C50.3164 14.7141 50.3126 15.8521 50.3069 16.99C50.3051 17.3724 50.3037 17.7547 50.3036 18.1371C50.3003 22.7053 49.4399 25.3592 46.1874 28.6079C46.0307 28.7651 45.874 28.9223 45.7173 29.0795C45.391 29.4066 45.0643 29.7333 44.7374 30.0597C44.319 30.4773 43.902 30.8963 43.4853 31.3156C43.163 31.6395 42.8399 31.9627 42.5166 32.2857C42.3624 32.4399 42.2085 32.5944 42.0549 32.7491C41.8405 32.9649 41.6251 33.1795 41.4094 33.394C41.3467 33.4575 41.2841 33.521 41.2195 33.5864C40.739 34.0606 40.2383 34.4479 39.5334 34.4492C38.9859 34.427 38.6793 34.293 38.2462 33.9552C37.9388 33.4297 37.8463 33.0009 37.9122 32.3966C38.1401 31.8388 38.4743 31.4559 38.9004 31.0417C38.966 30.9767 39.0316 30.9116 39.0991 30.8445C39.2409 30.704 39.383 30.5639 39.5255 30.4241C39.7514 30.2025 39.9762 29.9799 40.2008 29.7569C40.7587 29.2035 41.3184 28.6519 41.878 28.1002C42.3512 27.6336 42.8238 27.1663 43.2954 26.6981C43.5162 26.4794 43.738 26.2618 43.9599 26.0441C44.0962 25.9091 44.2324 25.774 44.3685 25.6388C44.4299 25.5792 44.4913 25.5195 44.5545 25.4581C45.0466 24.9662 45.4439 24.4725 45.5312 23.7617C45.458 23.1867 45.2946 22.8429 44.8632 22.4536C44.5138 22.2117 44.3162 22.1332 43.8961 22.1196C43.8128 22.1154 43.7296 22.1113 43.6439 22.107C42.843 22.2442 42.241 23.0258 41.6956 23.5728C41.5969 23.671 41.4981 23.7691 41.3964 23.8703C41.1269 24.1386 40.8578 24.4073 40.589 24.6764C40.3638 24.9017 40.1382 25.1268 39.9127 25.3518C39.3799 25.8834 38.8476 26.4155 38.3158 26.9481C37.7692 27.4953 37.2217 28.0415 36.6736 28.5872C36.2014 29.0574 35.7298 29.5283 35.2588 29.9998C34.9782 30.2805 34.6974 30.5611 34.4159 30.841C34.1014 31.1538 33.7882 31.468 33.4752 31.7824C33.3833 31.8734 33.2913 31.9645 33.1966 32.0583C30.702 34.5756 30.2076 37.4384 30.2197 40.8597C30.2198 41.0174 30.22 41.1751 30.22 41.3328C30.2206 41.9096 30.2221 42.4864 30.2236 43.0632C30.2259 44.3559 30.2282 45.6486 30.2306 46.9805C34.2718 46.9805 38.313 46.9805 42.4766 46.9805C42.5134 45.4743 42.5501 43.968 42.588 42.4161C42.9983 41.8691 43.4029 41.3388 43.8474 40.8227C44.2303 40.3742 44.6094 39.9235 44.9815 39.4659C45.3988 38.9533 45.8243 38.4483 46.2522 37.9447C46.5749 37.5644 46.8932 37.1809 47.2081 36.794C47.6253 36.2814 48.0508 35.7765 48.4788 35.2728C48.8849 34.7941 49.2829 34.3091 49.6786 33.8217C49.8605 33.6009 50.0439 33.383 50.2309 33.1667C52.7213 30.2853 53.6271 27.7328 53.6256 23.9016C53.626 23.7228 53.6263 23.544 53.6268 23.3651C53.6277 22.8835 53.628 22.4019 53.6281 21.9203C53.6282 21.6189 53.6284 21.3176 53.6287 21.0162C53.6297 19.9636 53.6302 18.9109 53.6301 17.8583C53.63 16.8787 53.6312 15.8992 53.633 14.9196C53.6344 14.0764 53.635 13.2332 53.6349 12.39C53.6349 11.8873 53.6352 11.3846 53.6364 10.8819C53.6375 10.4097 53.6375 9.93759 53.6367 9.46543C53.6366 9.29252 53.6368 9.1196 53.6375 8.94669C53.6384 8.71009 53.6378 8.47353 53.637 8.23693C53.637 8.10474 53.6371 7.97256 53.6372 7.83637C53.5942 7.25187 53.5026 6.81341 53.1154 6.36666C52.6018 5.92822 52.3191 5.85088 51.6621 5.86525C51.2502 5.91722 51.0202 6.07032 50.7149 6.34579ZM12.418 50.3204C12.418 51.4225 12.418 52.5247 12.418 53.6602C17.194 53.6602 21.97 53.6602 26.8907 53.6602C26.8907 52.5581 26.8907 51.4559 26.8907 50.3204C22.1147 50.3204 17.3388 50.3204 12.418 50.3204ZM30.2306 50.3204C30.2306 51.4225 30.2306 52.5247 30.2306 53.6602C35.0065 53.6602 39.7825 53.6602 44.7032 53.6602C44.7032 52.5581 44.7032 51.4559 44.7032 50.3204C39.9272 50.3204 35.1513 50.3204 30.2306 50.3204Z" fill="black"/>
<path d="M22.9311 -0.0418458C23.0434 -0.0407157 23.1557 -0.0395856 23.2713 -0.0384212C25.3637 0.00518764 26.9933 0.849133 28.4488 2.33779C28.8153 2.17673 29.0644 1.9728 29.3534 1.69766C31.034 0.184283 32.9547 -0.108542 35.1407 -0.0253206C36.8733 0.110476 38.2596 1.03829 39.4703 2.22646C39.5415 2.29492 39.6127 2.36337 39.686 2.4339C41.0124 3.81653 41.4187 5.63423 41.4018 7.49047C41.3158 10.7264 39.0453 12.7061 36.9037 14.8422C36.6996 15.0465 36.4955 15.2508 36.2914 15.4551C35.8664 15.8804 35.441 16.3054 35.0153 16.73C34.5242 17.2199 34.0339 17.7106 33.5441 18.2017C33.0699 18.677 32.5951 19.1516 32.1201 19.626C31.9191 19.8269 31.7182 20.028 31.5174 20.2292C31.2377 20.5095 30.9573 20.789 30.6768 21.0684C30.5943 21.1513 30.5118 21.2342 30.4268 21.3197C29.8574 21.8845 29.419 22.3117 28.581 22.3281C28.4181 22.3353 28.4181 22.3353 28.2518 22.3425C27.3614 22.1519 26.67 21.2991 26.0477 20.676C25.9569 20.586 25.8661 20.4959 25.7725 20.4031C25.4743 20.107 25.177 19.8102 24.8798 19.5132C24.6713 19.3054 24.4628 19.0977 24.2543 18.89C23.8179 18.455 23.3821 18.0195 22.9464 17.5837C22.446 17.0831 21.9443 16.5837 21.442 16.085C21.008 15.654 20.575 15.2221 20.1426 14.7895C19.8855 14.5324 19.628 14.2757 19.3699 14.0198C17.4939 12.1581 15.752 10.2969 15.7207 7.49805C15.7345 5.37467 16.2555 3.61217 17.7809 2.08078C19.2572 0.673935 20.8724 -0.0719862 22.9311 -0.0418458ZM20.4036 4.34692C19.4997 5.31784 19.1613 6.20393 19.179 7.52064C19.3286 9.46059 21.1673 10.769 22.4584 12.0555C22.6317 12.2286 22.805 12.4018 22.9783 12.5749C23.431 13.0272 23.8841 13.4792 24.3372 13.9311C24.8009 14.3936 25.2642 14.8564 25.7276 15.3193C26.6344 16.2248 27.5415 17.1301 28.4488 18.0351C28.7748 17.8877 29.0073 17.7276 29.2609 17.4761C29.331 17.4072 29.4011 17.3382 29.4732 17.2672C29.5488 17.1917 29.6244 17.1161 29.7023 17.0383C29.7829 16.9586 29.8635 16.879 29.9466 16.7969C30.2132 16.533 30.4789 16.2682 30.7445 16.0033C30.9298 15.8191 31.115 15.6349 31.3002 15.4507C31.6887 15.064 32.0767 14.6768 32.4645 14.2894C32.96 13.7945 33.4574 13.3013 33.9551 12.8087C34.3386 12.4285 34.7208 12.0471 35.1027 11.6654C35.2854 11.4831 35.4685 11.3013 35.6522 11.12C35.9099 10.8654 36.1657 10.609 36.4212 10.3521C36.4965 10.2784 36.5719 10.2047 36.6496 10.1287C37.4655 9.3002 37.9228 8.38148 37.9396 7.21536C37.9253 6.05691 37.5941 5.29798 36.7984 4.45303C36.0486 3.76468 35.1603 3.33975 34.1266 3.33975C32.533 3.48907 31.6417 4.24729 30.5497 5.36409C30.4908 5.42415 30.4318 5.48421 30.3711 5.54609C30.2563 5.66378 30.1424 5.78232 30.0295 5.90182C29.5041 6.44398 29.1052 6.58869 28.3553 6.60871C27.4105 6.44981 26.8263 5.63226 26.201 4.97531C24.6147 3.34055 22.279 2.65263 20.4036 4.34692Z" fill="#28A745"/>
</g>
<defs>
<clipPath id="clip0_585_1907">
<rect width="57" height="57" fill="white" transform="translate(0.0605469)"/>
</clipPath>
</defs>
</svg>
